<svg display="none" xmlns="http://www.w3.org/2000/svg">
<symbol id="dentistry-mini"  viewBox="0 0 30 30">
<path d="M0 30H30V0H0V30ZM19.4366 13.7324C19.2254 14.5775 17.9577 15 16.9014 15C16.9014 15 16.4789 16.2676 16.4789 16.9014C16.4789 17.3239 17.7465 17.1127 17.5352 18.169C17.3239 19.0141 16.2676 19.2254 15.8451 19.2254C16.2676 19.2254 17.1127 19.0141 17.5352 19.6479C17.9577 20.2817 17.7465 20.7042 16.9014 21.5493C16.2676 22.6056 18.169 23.4507 17.5352 24.9296C16.6901 26.4085 15 26.4085 11.4085 26.6197C9.50704 26.831 7.81691 27.6761 6.76057 28.7324H1.05634V1.05634H15.2113C15.2113 2.11268 15.2113 2.95775 15 3.16901C14.3662 4.22535 14.3662 6.12676 15.2113 7.81691C16.0563 9.71831 19.8592 12.4648 19.4366 13.7324Z" />
</symbol>
</svg>


