<svg display="none" xmlns="http://www.w3.org/2000/svg">
<symbol id="dermatology-mini"  viewBox="0 0 30 30">
<path d="M0 30H30V0H0V30ZM21.1268 8.87324C21.9718 5.07043 24.7183 2.11268 24.7183 2.11268C22.3944 6.76056 21.9718 9.08451 21.9718 9.08451C21.1268 11.831 22.8169 15.8451 22.8169 15.8451C23.2394 17.5352 22.1831 16.4789 22.1831 16.4789C20.0704 13.5211 21.1268 8.87324 21.1268 8.87324ZM16.6901 8.87324C17.5352 5.07043 20.2817 2.11268 20.2817 2.11268C17.9577 6.76056 17.5352 9.08451 17.5352 9.08451C16.6901 11.831 18.3803 15.8451 18.3803 15.8451C18.8028 17.5352 17.7465 16.4789 17.7465 16.4789C15.6338 13.5211 16.6901 8.87324 16.6901 8.87324ZM12.2535 8.87324C13.0986 5.07043 16.0563 2.11268 16.0563 2.11268C13.7324 6.76056 13.3099 9.08451 13.3099 9.08451C12.4648 11.831 14.1549 15.8451 14.1549 15.8451C14.5775 17.5352 13.5211 16.4789 13.5211 16.4789C11.1972 13.5211 12.2535 8.87324 12.2535 8.87324ZM7.8169 8.87324C8.66197 5.07043 11.6197 2.11268 11.6197 2.11268C9.29578 6.76056 8.87324 9.08451 8.87324 9.08451C8.02817 11.831 9.71831 15.8451 9.71831 15.8451C10.1408 17.5352 9.08451 16.4789 9.08451 16.4789C6.76056 13.5211 7.8169 8.87324 7.8169 8.87324ZM25.1408 9.08451V27.8873H23.662H16.9014H15H4.64789V9.08451C4.64789 9.08451 5.28169 8.66197 5.91549 8.66197C6.76056 8.66197 7.39437 9.08451 7.39437 9.08451C7.1831 10.3521 6.76056 14.1549 8.4507 16.4789C8.66197 16.4789 8.87324 16.9014 9.29578 16.9014C9.50704 16.9014 9.71831 16.9014 9.71831 16.6901C9.92958 16.4789 9.92958 16.0563 9.71831 15.4225C9.71831 15.4225 8.23944 11.6197 8.87324 8.87324C8.87324 8.87324 9.50704 8.45071 10.1408 8.45071C10.9859 8.45071 11.6197 8.87324 11.6197 8.87324C11.4085 10.1408 10.9859 13.9437 12.6761 16.2676C12.8873 16.2676 13.0986 16.6901 13.5211 16.6901C13.7324 16.6901 13.9437 16.6901 13.9437 16.4789C14.1549 16.2676 14.1549 15.8451 13.9437 15.2113C13.9437 15.2113 12.4648 11.4085 13.0986 8.87324C13.0986 8.87324 13.7324 8.45071 14.3662 8.45071C15.2113 8.45071 15.8451 8.87324 15.8451 8.87324C15.6338 10.1408 15.2113 13.9437 16.9014 16.2676C17.1127 16.2676 17.3239 16.6901 17.7465 16.6901C17.9577 16.6901 18.169 16.6901 18.169 16.4789C18.3803 16.2676 18.3803 15.8451 18.169 15.2113C18.169 15.2113 16.6901 11.4085 17.3239 8.87324C17.5352 8.87324 17.9577 8.45071 18.5916 8.45071C19.4366 8.45071 20.0704 8.87324 20.0704 8.87324C19.8592 10.1408 19.4366 13.9437 21.1268 16.2676C21.338 16.2676 21.5493 16.6901 21.9718 16.6901C22.1831 16.6901 22.3944 16.6901 22.3944 16.4789C22.6056 16.2676 22.6056 15.8451 22.3944 15.2113C22.3944 15.2113 20.9155 11.4084 21.5493 8.66197C21.5493 8.66197 22.1831 8.23944 22.8169 8.23944C24.507 8.66198 24.9296 9.08451 25.1408 9.08451Z" />
</symbol>
</svg>
