<svg display="none" xmlns="http://www.w3.org/2000/svg">
<symbol id="gastroenterology-mini"  viewBox="0 0 30 30">
<path d="M0 30H30V0H0V30ZM16.2676 23.8733C11.6197 23.8733 9.29577 21.5493 9.29577 21.5493C9.29577 21.5493 8.87321 22.1831 7.81687 22.1831C6.9718 22.3944 6.12676 21.7606 6.12676 21.7606C6.12676 21.7606 5.07042 23.2395 5.07042 25.5634C5.07042 25.9859 5.07042 26.831 5.07042 26.831H1.69012V25.7747C1.69012 22.6057 3.59152 19.0141 5.70419 18.8028C5.91546 18.169 6.33802 17.7465 7.18309 17.5352C8.02817 17.324 8.66197 17.324 9.29577 17.9578C11.4085 15.8451 16.0564 16.9014 15.8451 14.3662C15.4226 11.1972 16.6901 9.29579 16.6901 9.29579L13.0986 4.64789L15.2112 3.16902L17.9578 6.5493C18.3803 5.70423 18.5915 3.38029 22.6056 3.59156C26.6197 3.59156 27.8873 6.12677 27.8873 13.9437C28.0986 21.3381 20.9155 23.8733 16.2676 23.8733Z" />
</symbol>
</svg>

