<svg display="none" xmlns="http://www.w3.org/2000/svg">
<symbol id="gynecology-mini"  viewBox="0 0 30 30">
<path d="M10.3555 8.87333C9.51044 8.45079 7.39775 8.02826 5.91888 8.02826C4.44 8.02826 3.80622 9.29586 3.59495 9.7184C3.59495 10.1409 3.17241 12.0423 4.44001 12.0423C5.70762 12.0423 5.49634 13.0987 5.91888 12.8874C6.34141 12.6761 6.97521 12.8874 7.39774 12.8874C7.82028 12.8874 10.5668 9.50713 10.5668 9.50713C10.5668 9.50713 10.778 9.29586 10.3555 8.87333Z" />
<path d="M24.2964 8.02826C22.8175 8.02826 20.7049 8.45079 19.8598 8.87333C19.4373 9.0846 19.6485 9.7184 19.6485 9.7184C19.6485 9.7184 22.6063 13.0987 22.8175 13.0987C23.0288 13.0987 23.8739 12.8874 24.2964 13.0987C24.7189 13.3099 24.719 12.2536 25.7753 12.2536C27.0429 12.2536 26.6203 10.3522 26.6203 9.92967C26.6203 9.29586 25.7753 8.02826 24.2964 8.02826Z" />
<path d="M0 30H30V0H0V30ZM27.676 16.0563C27.0422 16.6901 26.4084 15.6338 26.4084 15.8451C26.4084 16.0563 26.6197 16.6901 25.9859 16.6901C22.8169 17.3239 22.6056 15 22.6056 15C22.6056 15 22.3944 13.9437 22.3944 13.7324C22.1831 12.676 19.6479 10.3521 19.6479 10.3521C19.6479 12.2535 18.169 14.5775 17.7465 15C17.3239 15.4225 17.1127 15.8451 17.5352 16.2676C17.7465 16.6901 18.169 17.1127 18.169 18.3803C18.169 19.6479 17.7465 20.2817 17.5352 20.7042C17.3239 21.1267 17.1127 21.9718 16.9014 22.8169C16.6901 23.662 16.4789 24.0845 15.6338 24.0845H14.1549C13.3099 24.0845 13.0986 23.662 12.8873 22.8169C12.6761 21.9718 12.4648 21.1267 12.2535 20.7042C12.0422 20.2817 11.6197 19.6479 11.6197 18.3803C11.6197 17.1127 12.0422 16.4789 12.2535 16.2676C12.4648 15.8451 12.2535 15.4225 11.831 15C11.4085 14.5775 9.92959 12.2535 9.92959 10.3521C9.92959 10.3521 7.39438 12.8873 7.18311 13.7324C7.18311 13.9437 6.97183 15 6.97183 15C6.97183 15 6.76058 17.3239 3.59157 16.6901C2.95777 16.4789 3.16901 15.8451 3.16901 15.8451C3.16901 15.8451 2.53523 16.6901 1.90143 16.0563C1.26762 15.4225 0.422561 13.9436 1.4789 12.8873C1.4789 12.8873 0.84507 11.4084 1.05634 10.3521C1.05634 10.3521 1.4789 8.4507 2.53523 7.8169C3.59157 7.18309 4.01411 7.18309 5.70425 7.18309C6.97185 7.18309 9.08451 7.81689 10.1408 7.60563C11.1972 7.39436 13.3099 6.54929 14.5775 6.54929C15.8451 6.54929 17.9577 7.39436 19.0141 7.60563C20.0704 7.81689 22.1831 7.18309 23.4507 7.18309C25.1408 7.18309 25.5634 7.18309 26.6197 7.8169C27.8873 8.66196 28.0986 10.3521 28.0986 10.3521C28.3098 11.6197 27.676 12.8873 27.676 12.8873C29.1549 13.9436 28.3098 15.4225 27.676 16.0563Z" />
</symbol>
</svg>