<svg display="none" xmlns="http://www.w3.org/2000/svg">
<symbol id="neurosurgery-mini"  viewBox="0 0 30 30">
<path d="M0.21128 30H30V0H0V30H0.21128ZM20.7042 22.3943C20.7042 22.1831 20.7042 21.5493 20.2817 21.338C19.6479 20.9155 19.4366 20.7042 19.4366 20.4929C19.4366 19.6479 21.5493 18.5915 21.9719 19.0141C22.1831 19.2253 22.1831 20.0704 22.6056 20.2817C23.4507 20.7042 23.4507 20.9155 23.2394 21.1267C23.0281 21.338 22.8169 21.7605 21.9719 22.1831C21.1268 22.6056 20.7042 22.6056 20.7042 22.3943ZM21.7606 25.1408C21.7606 24.9296 21.9719 24.507 21.7606 24.0845C21.1268 23.4507 21.1267 23.2394 21.1267 23.0281C21.338 22.3943 23.662 21.9718 23.8733 22.3943C23.8733 22.6056 23.662 23.4507 24.0845 23.8732C24.7183 24.507 24.7183 24.507 24.2958 24.7183C24.0845 24.9296 23.662 25.1408 22.8169 25.3521C21.9719 25.7746 21.7606 25.5634 21.7606 25.1408ZM25.5634 28.0986C25.3521 28.3098 24.9296 28.5211 24.0845 28.7324C23.2395 28.9436 23.0282 28.7324 22.8169 28.5211C22.8169 28.3098 23.0282 27.8873 22.8169 27.4648C22.1831 26.831 21.9718 26.6197 22.1831 26.4084C22.3943 25.7746 24.7183 25.1408 24.9296 25.7746C24.9296 25.9859 24.9296 26.831 25.3521 27.2535C25.7746 27.8873 25.7746 27.8873 25.5634 28.0986ZM23.4507 14.3662C22.8169 15 21.9719 15.4225 20.9155 15.8451C20.9155 15.8451 20.493 18.169 20.9155 18.8028L19.4366 19.8591C18.3803 19.2253 17.9578 18.5915 17.324 17.9577C16.9014 17.3239 16.2676 15.6338 16.2676 15.6338C16.2676 15.6338 15.4226 15.8451 14.3662 14.5775C14.3662 14.5775 12.676 15 10.5634 15C9.7183 15 8.02819 14.7887 7.81692 13.5211V13.3098C7.81692 13.0986 8.02816 12.676 8.4507 12.2535C8.66196 11.831 9.29578 11.6197 9.71831 11.1972C10.5634 10.3521 11.6197 9.92957 11.6197 10.1408C11.6197 10.1408 11.831 10.1408 12.2535 10.1408C12.6761 10.1408 13.0986 10.3521 13.7324 10.5634C15 10.9859 16.4789 11.1972 16.9014 11.1972C17.7465 11.1972 18.1691 10.7746 18.8029 10.5634C17.9578 10.5634 17.5352 10.5634 16.6902 10.5634C16.2676 10.5634 15 10.5634 13.7324 10.1408C13.0986 9.92957 12.6761 9.7183 12.0423 9.7183C11.6197 9.7183 11.1972 9.7183 11.1972 9.7183C11.1972 9.7183 9.92961 10.1408 9.08454 10.9859C8.662 11.4084 8.02818 11.6197 7.60564 12.2535C7.18311 12.676 6.97186 13.0986 6.97186 13.3098C5.70426 13.3098 2.53526 13.3098 1.90146 11.6197C1.90146 11.6197 1.05639 9.7183 1.90146 7.39436C2.74653 5.07042 4.85915 2.74648 7.39436 2.11267C9.92957 1.47887 13.3099 1.05634 16.0563 1.47887C18.8028 1.90141 21.338 2.95774 22.3944 3.80281C23.662 4.64788 25.5634 6.54929 25.5634 9.50703C25.7746 10.9859 24.507 13.7324 23.4507 14.3662Z"/>
</symbol>
</svg>


