<svg display="none" xmlns="http://www.w3.org/2000/svg">
<symbol id="otolaryngology-mini"  viewBox="0 0 30 30">
<path d="M0 30H30V0H0V30ZM20.0704 21.3381C19.4366 22.3944 16.4789 25.3521 15.8451 25.986C15.4226 26.6198 14.155 28.9437 11.831 28.9437C9.71834 28.9437 9.2958 27.8874 8.662 26.6198C8.23946 25.3521 8.23945 23.8733 8.45072 23.2395C8.66198 22.6057 9.29579 21.1268 9.50705 20.493C9.71832 19.8592 9.92955 19.4366 9.92955 18.5916C9.92955 17.7465 9.08449 17.1127 9.08449 17.1127C9.08449 17.1127 8.66198 16.6902 8.45072 16.0564C8.23945 15.4226 8.23943 15.2113 8.23943 14.3662C8.23943 13.5211 9.08451 12.8873 9.29577 12.4648C9.71831 11.4085 8.87325 10.5634 8.45072 9.92959C8.23945 9.29579 8.02815 8.87325 8.02815 7.60564C8.02815 5.49297 8.66197 4.85916 9.29577 4.01409C10.5634 2.32395 12.4648 1.90141 13.7324 1.47888C16.2676 0.845072 19.0141 1.90141 19.0141 1.90141C20.0704 2.32395 23.0282 4.01409 23.0282 9.71832C23.0282 17.5352 20.7043 20.0705 20.0704 21.3381Z" />
<path d="M15.4216 3.80278C13.7315 3.59151 11.83 4.64785 10.985 5.91546C10.1399 7.18307 10.985 8.45067 10.985 8.45067C10.985 8.45067 13.5202 6.33799 15.8442 6.9718C16.9005 7.39433 19.4357 7.39433 19.4357 12.8873C19.4357 15.6338 17.323 15 17.323 15C17.323 15 17.3231 12.676 17.1118 11.6197C16.9005 10.5634 16.2667 10.1408 15.4216 9.71828C14.3653 9.29574 12.8864 9.50701 12.0413 9.92955C11.1962 10.3521 11.4075 11.6197 11.4075 12.2535C11.4075 13.0986 13.3089 12.8873 14.154 12.8873C15.4216 12.8873 15.4216 14.3662 14.5765 15C13.9427 15.4225 13.0976 15.4225 12.0413 16.6901C10.985 17.9577 11.1962 19.8591 11.1962 21.338C11.1962 22.6056 12.6751 23.0282 13.0976 21.7606C13.3089 20.9155 13.9427 20.7042 14.5765 20.2817C15.2103 19.6479 16.4779 19.0141 17.323 18.3803C18.1681 17.7465 20.0695 16.2676 20.492 15.2112C20.9146 14.1549 21.1259 12.8873 21.1259 12.0422C21.1259 10.7746 21.3371 9.71828 20.492 6.76053C19.4357 4.01405 16.6892 3.80278 15.4216 3.80278Z" />
</symbol>
</svg>


