<svg display="none" xmlns="http://www.w3.org/2000/svg">
<symbol id="pediatric-mini"  viewBox="0 0 30 30"><path d="M0 30H30V0H0V30ZM27.0422 24.0845C26.831 25.9859 24.9296 26.831 24.507 26.831C23.2394 27.2535 17.324 25.3521 17.324 25.3521C16.4789 24.9296 12.676 27.0422 12.676 27.0422C6.54929 29.5774 6.33802 25.5634 6.33802 25.5634C5.70422 21.1267 9.71831 21.1267 9.71831 21.1267C8.66198 18.5915 9.92959 16.2676 9.92959 16.2676C5.49298 16.2676 5.28169 14.3662 5.28169 13.9436C4.85915 10.5634 10.5634 11.6197 10.5634 11.6197C9.0845 8.02816 10.3521 6.54929 10.3521 6.54929C7.81691 5.28169 9.71831 2.95774 9.71831 2.95774C12.4648 0.633802 13.7324 3.59155 13.7324 3.59155C16.4789 2.53521 19.0141 4.01408 19.0141 4.01408C20.9155 2.32394 22.1831 4.22535 22.1831 4.22535C23.4507 6.12676 21.9718 7.39436 21.9718 7.39436C22.1831 11.1972 19.8592 12.8873 19.8592 12.8873C24.7183 10.7746 25.1408 13.7324 25.1408 13.7324C26.4084 17.5352 21.5493 16.6901 21.5493 16.6901C22.3944 18.5915 21.7606 20.0704 21.7606 20.0704C26.4084 20.9155 27.0422 23.2394 27.0422 24.0845Z" />
<path d="M19.8585 8.66181C19.8585 8.45054 19.436 8.23927 19.2247 8.23927C19.0134 8.23927 19.0134 8.66181 19.0134 8.87307C19.0134 8.87307 18.5909 7.81674 16.9007 7.81674C16.2669 7.81674 15.6332 8.028 15.2106 8.45054V8.23927C15.2106 8.028 14.9993 7.60547 14.7881 7.60547C14.5768 7.60547 14.1543 7.81674 14.1543 8.028C14.1543 8.23927 14.3656 8.66181 14.5768 8.66181H14.7881C14.3655 9.08434 14.1543 9.71814 14.1543 10.5632C14.1543 12.0421 15.4219 13.3097 16.9007 13.3097C18.3796 13.3097 19.436 12.0421 19.436 10.5632C19.436 9.92941 19.2247 9.50688 19.0134 9.08434L19.436 9.29561C19.8585 9.08434 20.0698 8.87307 19.8585 8.66181ZM19.0134 11.197C19.0134 11.197 18.5909 11.6196 18.3796 11.6196L17.9571 11.4083C17.7458 11.6196 17.5346 11.8308 17.3233 11.8308H17.112C16.4782 11.8308 16.267 11.197 16.267 10.9857V10.7745H16.4782C16.4782 10.7745 16.6895 11.197 17.112 11.4083C17.3233 11.4083 17.5346 11.4083 17.7458 10.9857C17.7458 10.7745 17.9571 10.3519 17.7458 9.92941C17.3233 9.71814 16.0557 9.08434 17.7458 8.87307C17.9571 8.87307 19.436 8.87307 17.9571 9.92941C17.9571 10.3519 17.9571 10.9857 17.7458 10.9857L17.9571 11.197L18.3796 10.9857H18.5909L19.0134 11.197Z"  />
</symbol>
</svg>


