<svg display="none"  xmlns="http://www.w3.org/2000/svg">
<symbol id="plastic-mini"  viewBox="0 0 30 30">
<path d="M0.21128 30H30V0H0V30H0.21128ZM24.0845 14.3662C24.0845 17.7465 23.0282 20.9155 21.338 23.2394C19.4366 25.7746 17.1127 27.0422 14.5775 27.0422C13.0986 27.0422 11.6197 26.6197 10.1409 25.5634C8.87327 24.7183 7.81693 23.4507 6.97186 21.7605C6.97186 21.7605 6.76061 21.338 7.18314 21.1267C7.60568 20.9155 7.81692 21.338 7.81692 21.338C9.50706 24.2958 12.0423 25.9859 14.5775 25.9859C19.2254 25.9859 23.2394 20.7042 23.2394 14.1549C23.2394 14.1549 23.4507 9.50703 23.0282 7.60563C22.3944 5.70422 20.0705 6.97183 17.7465 8.23943C14.5775 9.92957 14.3662 8.87323 14.3662 8.87323L13.7324 8.02816C13.7324 8.02816 13.0986 6.12676 11.6197 8.4507C11.1972 8.87323 10.9859 9.50703 10.7747 9.7183C13.0986 9.29577 13.9437 10.7746 13.9437 10.7746C13.9437 10.7746 14.1549 11.1972 13.9437 11.4084C13.7324 11.6197 13.0986 11.4084 13.0986 11.4084C13.0986 11.4084 12.676 10.7746 11.6197 10.7746C11.831 10.9859 12.0423 11.1972 12.0423 11.4084C12.0423 11.831 11.831 12.4648 11.1972 12.4648C10.7747 12.4648 10.1409 12.2535 10.1409 11.6197C10.1409 11.4084 10.1409 10.9859 10.3522 10.9859C10.1409 10.9859 9.71835 11.1972 9.29582 11.6197C6.33807 13.9437 6.33802 8.87323 6.33802 8.87323C6.33802 7.60563 6.97184 3.16901 12.8873 2.53521C24.0845 1.2676 24.507 9.0845 24.507 9.0845C24.507 9.0845 24.2958 10.9859 24.0845 14.3662ZM14.3662 20.7042C14.7888 20.7042 15 20.9155 15 20.9155C15 20.9155 15.2113 20.7042 15.6338 20.7042C16.0564 20.7042 17.5352 21.338 17.5352 21.338C17.5352 21.338 17.3239 21.5493 16.9014 21.9718C16.4789 22.3943 16.0563 22.6056 15.8451 22.6056C15.4225 22.6056 15.2113 22.3943 15 22.3943C14.7887 22.3943 14.5775 22.6056 14.1549 22.6056C13.9437 22.6056 13.5211 22.1831 13.0986 21.7605C12.8873 21.5493 12.676 21.338 12.676 21.338C12.676 21.338 13.9437 20.7042 14.3662 20.7042ZM13.5212 17.7465C13.9437 17.7465 14.7887 18.3803 14.7887 18.3803C14.7887 18.3803 14.3662 18.3803 14.1549 18.3803C13.9437 18.3803 13.5212 18.5915 13.5212 18.5915C13.3099 18.5915 13.3099 18.3803 13.3099 18.169C13.0986 18.169 13.3099 17.7465 13.5212 17.7465ZM20.0704 11.6197C20.0704 12.0422 19.6479 12.4648 19.0141 12.4648C18.5915 12.4648 18.169 12.0422 18.169 11.4084C18.169 11.1972 18.3803 10.9859 18.5916 10.7746C17.5352 10.7746 17.1127 11.4084 17.1127 11.4084C17.1127 11.4084 16.6902 11.6197 16.2676 11.4084C16.0564 11.1972 16.2676 10.7746 16.2676 10.7746C16.2676 10.7746 17.324 9.29577 19.6479 9.92957C20.2817 10.1408 21.5493 10.9859 21.7606 10.9859C21.7606 10.9859 22.3943 11.4084 22.1831 11.831C21.9718 12.2535 21.5493 11.831 21.5493 11.831C21.1268 11.4084 20.0704 10.9859 19.6479 10.7746C19.8592 11.1972 20.0704 11.4084 20.0704 11.6197ZM16.4789 17.7465C16.9014 17.7465 16.9014 18.169 16.9014 18.3803C16.9014 18.5915 16.9014 18.8028 16.6902 18.8028C16.6902 18.8028 16.2676 18.5915 16.0563 18.5915C15.6338 18.5915 15.4226 18.5915 15.4226 18.5915C15.2113 18.3803 16.0564 17.7465 16.4789 17.7465Z" />
</symbol>
</svg>
