<svg display="none" xmlns="http://www.w3.org/2000/svg">
<symbol id="pulmonology-mini"  viewBox="0 0 30 30">
<path d="M0.21128 30H30V0H0V30H0.21128ZM26.4084 25.3521C25.5634 28.9436 20.2817 27.8873 20.2817 27.8873C16.4789 27.2535 16.6902 19.8591 16.6902 19.8591C16.6902 13.5211 16.4789 13.3098 16.4789 13.3098C15.8451 12.2535 15.2113 13.0986 15.2113 13.5211C15 13.3099 13.9437 12.4648 12.8873 8.87323H12.676C13.7324 12.676 14.7887 13.5211 15 13.5211L14.7887 19.6479C14.7887 19.6479 14.3662 25.9859 10.7747 27.2535C8.45071 28.0986 5.28169 27.676 4.22535 26.1972C2.74648 24.7183 3.80285 17.3239 3.80285 17.3239C5.28172 4.64789 11.4085 3.59155 11.4085 3.59155C11.4085 3.59155 13.3098 3.16901 13.7324 5.07042C13.9437 6.12676 13.9437 6.76056 14.1549 7.1831C14.1549 7.60563 13.9437 10.3521 13.9437 10.7746H14.1549C13.9437 10.5634 14.155 8.4507 14.3662 7.1831C14.5775 4.22535 13.9437 1.90141 13.9437 1.90141C15 2.11268 15.8451 1.69014 15.8451 1.69014C16.9014 3.16901 15.6338 10.5634 16.4789 10.7746L16.6902 10.5634C17.1127 10.3521 17.9577 9.71831 17.9577 7.1831H17.7465C17.5352 9.0845 17.1127 9.92957 16.6902 10.1408C17.1127 9.0845 16.9014 6.12676 16.9014 6.12676C16.6901 2.74648 19.2253 3.59155 19.2253 3.59155C27.4648 5.91549 27.2535 22.1831 26.4084 25.3521Z" />
</symbol>
</svg>