<svg display="none" xmlns="http://www.w3.org/2000/svg">
<symbol id="thoracic-mini"  viewBox="0 0 30 30">
<path d="M0 30H30V0H0V30ZM15.8451 12.6761C15.4225 12.6761 15.2113 13.3099 15.2113 13.5211C15 13.3099 13.9437 12.4648 12.8873 8.87324H12.6761C13.7324 12.6761 14.7887 13.5211 15 13.5211V19.8592C15 19.8592 14.5775 26.1972 10.9859 27.4648C8.66197 28.3099 5.49296 27.8873 4.43662 26.4085C3.16901 24.9296 4.22535 17.5352 4.22535 17.5352C5.70423 4.85916 11.831 3.80282 11.831 3.80282C11.831 3.80282 13.7324 3.38028 14.1549 5.28169C14.3662 6.33803 14.3662 6.97183 14.5775 7.39437C14.5775 7.8169 14.3662 10.5634 14.3662 10.9859H14.5775C14.3662 10.5634 14.3662 8.66197 14.5775 7.39437C14.7887 4.43662 14.1549 2.11268 14.1549 2.11268C14.5775 2.11268 15 2.11268 15.4225 2.11268C15.8451 1.90141 16.0563 12.6761 15.8451 12.6761ZM27.4648 24.7183C27.2535 25.1408 26.6197 24.9296 26.6197 24.9296C26.4085 24.9296 26.1972 24.7183 25.7746 24.507C25.7746 24.507 25.3521 24.0845 24.507 23.0282C23.662 21.7606 20.2817 16.2676 20.493 15.8451C20.7042 15.4225 21.1268 15.2113 21.1268 15.2113L20.9155 14.7887L20.0704 14.3662L17.7465 11.1972C17.7465 11.1972 17.1127 10.5634 16.9014 9.71831C16.9014 9.50704 16.6901 8.87324 16.6901 8.23944C16.6901 8.23944 17.1127 8.4507 17.3239 8.87324L20.9155 13.5211C20.9155 13.5211 21.338 13.7324 21.7606 13.7324C21.9718 13.9437 22.1831 14.1549 22.1831 14.1549V14.3662L22.3944 14.7887H22.6056L23.662 16.2676C23.8732 16.4789 25.5634 19.0141 25.7746 19.2254C25.9859 19.6479 26.6197 20.9155 27.0423 21.7606C27.4648 22.6056 27.4648 23.0282 27.6761 23.4507C27.4648 24.0845 27.6761 24.507 27.4648 24.7183Z" />
</symbol>
</svg>


