<svg display="none" xmlns="http://www.w3.org/2000/svg">
<symbol id="traumatology-mini"  viewBox="0 0 30 30">
<path d="M0 30H30V0H0V30ZM7.39438 1.47888H12.6761C12.6761 1.47888 14.3662 3.38029 14.7888 4.43663C15.4226 5.70423 16.6901 7.18311 17.3239 8.23945C18.169 9.29579 19.0141 9.50706 19.2254 10.5634C19.4367 11.6197 19.4366 12.4648 17.5352 13.5211C15.6338 14.5775 10.7747 14.1549 10.5634 13.0986C10.3521 11.831 10.9859 11.1972 10.9859 10.1409C10.9859 9.08452 10.3521 8.23945 9.71834 7.18311C9.71834 6.97184 7.39438 1.47888 7.39438 1.47888ZM19.4366 18.5916C18.8028 21.1268 18.8028 24.9296 17.7465 26.1972C15.6338 28.9437 11.831 28.0986 11.831 28.0986L10.3521 15.6338C10.3521 15.6338 10.1408 14.5775 11.1972 15C13.3099 15.6338 14.3662 15.6338 16.2676 15.4226C18.5915 15.2113 19.4366 14.3662 19.4366 14.3662C20.0704 13.9437 19.6479 17.324 19.4366 18.5916ZM22.1831 16.6902C21.3381 17.5352 20.9155 16.9014 20.9155 16.9014C20.9155 16.9014 21.1267 12.2535 20.4929 9.92959L21.5493 9.71832C21.5493 9.71832 22.6056 9.71832 22.8169 10.7747C23.0282 13.0986 23.0282 15.8451 22.1831 16.6902Z" />
</symbol>
</svg>

