<svg display="none" xmlns="http://www.w3.org/2000/svg">
<symbol id="urology-mini"  viewBox="0 0 30 30">
<path d="M0 30H30V0H0V30ZM24.507 20.4929C24.2958 23.662 22.3944 27.4648 18.169 27.8873C13.9437 28.3098 11.6197 25.9859 11.831 21.7605C12.0423 19.4366 12.4648 18.169 12.4648 18.169C12.4648 18.169 11.1972 17.9577 10.9859 18.5915C10.7747 19.2253 10.5634 20.4929 10.5634 21.9718C10.5634 22.6056 10.5634 23.8732 10.5634 23.8732H9.08451C9.08451 23.8732 8.87324 19.8591 9.08451 18.5915C9.50704 16.6901 10.5634 15 10.9859 14.5775L10.7747 14.3662C10.7747 14.3662 6.54931 14.1549 6.12677 9.92957C5.91551 5.70422 8.02816 4.22535 8.4507 3.80281C8.87323 3.38028 12.676 1.05634 15.8451 2.95775C19.4366 4.85915 21.1267 8.23943 22.1831 10.1408C23.2394 11.831 24.7183 16.0563 24.507 20.4929Z" />
</symbol>
</svg>
