<svg display="none" xmlns="http://www.w3.org/2000/svg">
<symbol id="visceral-mini"  viewBox="0 0 30 30">
<path d="M30 0H0V30H30V0Z" />
<path d="M14.3666 28.0986C14.1553 27.4648 13.5215 26.831 13.5215 26.831C13.7328 26.831 14.5778 27.0422 15.0004 27.0422C15.4229 27.0422 16.268 26.831 16.4792 26.831C16.4792 26.831 15.8454 27.4648 15.6342 28.0986H25.1412C25.3525 26.831 25.5637 23.662 25.1412 21.5493C25.1412 21.5493 24.0849 17.3239 22.8173 13.0986C21.9722 10.5634 21.7609 10.3521 22.1835 8.02816C22.1835 8.02816 23.0285 3.80281 22.8173 1.9014H6.97219C6.76092 3.80281 7.60599 7.81689 7.60599 7.81689C8.02853 10.3521 7.81726 10.5634 6.97219 13.0986C5.70459 17.3239 4.64825 21.5493 4.64825 21.5493C4.22571 23.8732 4.43698 26.831 4.64825 28.0986H14.3666ZM15.0004 16.0563C15.4229 16.0563 15.8454 16.4789 15.8454 16.9014C15.8454 17.3239 15.4229 17.7465 15.0004 17.7465C14.7891 17.5352 14.3666 17.1127 14.3666 16.6901C14.3666 16.2676 14.7891 16.0563 15.0004 16.0563Z" fill="white"/>
</symbol>
</svg>
