<svg width="50" height="50" viewBox="0 0 50 50" fill="none" xmlns="http://www.w3.org/2000/svg">
<path d="M40.625 50H9.375C4.19688 50 0 45.8031 0 40.625V9.375C0 4.19688 4.19688 0 9.375 0H40.625C45.8031 0 50 4.19688 50 9.375V40.625C50 45.8031 45.8031 50 40.625 50Z" fill="white"/>
<path d="M17.1875 19.0107V14.3232C17.1875 14.0529 17.2188 13.792 17.2922 13.542H14.3234C13.3234 13.542 12.5 14.3639 12.5 15.3639V20.0514C12.5 21.0514 13.3234 21.8748 14.3234 21.8748H14.7094L16.0422 23.6451C16.1875 23.8326 16.4063 23.9467 16.6359 23.9576H16.6672C16.8969 23.9576 17.1047 23.8639 17.25 23.6873L18.8125 21.9061C17.8438 21.3014 17.1875 20.2295 17.1875 19.0107Z" fill="#FF7300"/>
<path d="M35.6775 13.542H32.7088C32.7822 13.792 32.8135 14.0514 32.8135 14.3232V19.0107C32.8135 20.2295 32.1572 21.3029 31.1885 21.9061L32.751 23.6873C32.8963 23.8639 33.1057 23.9576 33.3338 23.9576H33.365C33.5947 23.9467 33.8135 23.8326 33.9588 23.6451L35.2822 21.8748H35.6775C36.6775 21.8748 37.501 21.0514 37.501 20.0514V15.3639C37.501 14.3639 36.6775 13.542 35.6775 13.542Z" fill="#FF7300"/>
<path d="M25 22.9172C24.9906 22.9172 24.9812 22.9172 24.9703 22.9172C24.7344 22.9078 24.5156 22.7937 24.375 22.6047L23.0469 20.8344H20.5734C19.5687 20.8344 18.75 20.0172 18.75 19.0109V14.3234C18.75 13.3172 19.5672 12.5 20.5734 12.5H29.4281C30.4328 12.5 31.25 13.3172 31.25 14.3234V19.0109C31.25 20.0156 30.4328 20.8344 29.4266 20.8344H27.1766L25.5875 22.65C25.4391 22.8187 25.225 22.9172 25 22.9172Z" fill="#FF7300"/>
<path d="M16.6678 30.2076C17.8181 30.2076 18.7506 29.2751 18.7506 28.1248C18.7506 26.9745 17.8181 26.042 16.6678 26.042C15.5175 26.042 14.585 26.9745 14.585 28.1248C14.585 29.2751 15.5175 30.2076 16.6678 30.2076Z" fill="#FF7300"/>
<path d="M19.4484 31.6672C18.3969 32.4594 17.7094 33.7297 17.7094 35.1562V35.4172H13.2812C12.8547 35.4172 12.5 35.0625 12.5 34.6359V34.1156C12.5 32.5312 13.7813 31.25 15.3641 31.25H17.9688C18.5109 31.25 19.0203 31.4063 19.4484 31.6672Z" fill="#FF7300"/>
<path d="M33.3328 30.2076C34.4831 30.2076 35.4156 29.2751 35.4156 28.1248C35.4156 26.9745 34.4831 26.042 33.3328 26.042C32.1825 26.042 31.25 26.9745 31.25 28.1248C31.25 29.2751 32.1825 30.2076 33.3328 30.2076Z" fill="#FF7300"/>
<path d="M37.5006 34.1141V34.6344C37.5006 35.0609 37.1459 35.4156 36.7193 35.4156H32.2928V35.1563C32.2928 33.7297 31.6053 32.4578 30.5537 31.6672C30.9803 31.4063 31.4896 31.25 32.0318 31.25H34.6365C36.2193 31.25 37.5006 32.5313 37.5006 34.1141Z" fill="#FF7300"/>
<path d="M25 30.7295C26.7259 30.7295 28.125 29.3304 28.125 27.6045C28.125 25.8786 26.7259 24.4795 25 24.4795C23.2741 24.4795 21.875 25.8786 21.875 27.6045C21.875 29.3304 23.2741 30.7295 25 30.7295Z" fill="#FF7300"/>
<path d="M27.8643 32.292H22.1346C20.5549 32.292 19.2705 33.5764 19.2705 35.1561V36.7186C19.2705 37.1498 19.6205 37.4998 20.0518 37.4998H29.9471C30.3783 37.4998 30.7283 37.1498 30.7283 36.7186V35.1561C30.7299 33.5764 29.444 32.292 27.8643 32.292Z" fill="#FF7300"/>
</svg>
