<svg width="50" height="50" viewBox="0 0 50 50" fill="none" xmlns="http://www.w3.org/2000/svg">
<path d="M40.625 50H9.375C4.19688 50 0 45.8031 0 40.625V9.375C0 4.19688 4.19688 0 9.375 0H40.625C45.8031 0 50 4.19688 50 9.375V40.625C50 45.8031 45.8031 50 40.625 50Z" fill="white"/>
<g clip-path="url(#clip0)">
<path d="M9.23984 39.897C9.31578 39.9416 9.40243 39.9651 9.49064 39.9651C9.56658 39.9651 9.64148 39.9471 9.70934 39.9127L19.5761 34.8103L29.1159 39.9098C29.2514 39.9821 29.4137 39.9834 29.5502 39.9134L39.7304 34.6981C39.8901 34.6198 39.9937 34.4598 40 34.2821V10.4678C39.993 10.3029 39.9029 10.1528 39.7609 10.0688C39.6187 9.98476 39.4439 9.97849 39.2959 10.0518L29.344 15.156L19.8011 10.1351C19.6664 10.0644 19.5059 10.0633 19.3702 10.1322L9.27116 15.2664C9.11065 15.3445 9.00652 15.5047 9 15.6832V39.4974C9.006 39.6629 9.09656 39.8138 9.23984 39.897ZM28.8427 38.6929L20.0237 33.9981V11.3199L28.8427 15.9413V38.6929ZM39.0647 33.9966L29.778 38.755V15.9919L39.0647 11.2335V33.9966ZM9.93534 15.9698L19.0884 11.3155V34.001L9.93534 38.7289V15.9698Z" fill="#FF7300"/>
<path d="M31.6458 20.7678C31.7199 20.7678 31.793 20.7501 31.859 20.7161L37.5335 17.8047C37.6838 17.7292 37.7819 17.5792 37.7908 17.4114C37.7997 17.2433 37.7177 17.0838 37.5763 16.993C37.4348 16.9022 37.2555 16.8944 37.1065 16.9724L31.4321 19.8841C31.2397 19.9825 31.14 20.2002 31.1909 20.4103C31.2416 20.6201 31.4297 20.7681 31.6458 20.7678Z" fill="#FF7300"/>
<path d="M31.6451 24.064C31.7192 24.0637 31.7923 24.0462 31.8583 24.012L37.5327 21.1006C37.6831 21.0251 37.7812 20.8751 37.7901 20.7073C37.7989 20.5395 37.717 20.3797 37.5755 20.2889C37.4341 20.1981 37.2548 20.1903 37.1058 20.2683L31.4313 23.18C31.239 23.2784 31.139 23.4961 31.1899 23.7062C31.2408 23.9163 31.429 24.0642 31.6451 24.064Z" fill="#FF7300"/>
<path d="M37.1061 23.5664L31.4316 26.4778C31.2821 26.5538 31.1848 26.7036 31.1764 26.8709C31.1678 27.0382 31.2495 27.1974 31.3904 27.2879C31.5311 27.3787 31.7098 27.3871 31.8586 27.3101L37.533 24.3984C37.6834 24.3232 37.7815 24.1729 37.7904 24.0051C37.7992 23.8373 37.7173 23.6776 37.5758 23.5867C37.4344 23.4959 37.2551 23.4881 37.1061 23.5664Z" fill="#FF7300"/>
<path d="M17.1004 24.9518L11.4257 27.8635C11.2765 27.9394 11.1791 28.0892 11.1705 28.2565C11.1622 28.4241 11.2436 28.583 11.3845 28.6738C11.5254 28.7644 11.7042 28.7727 11.853 28.6958L17.5274 25.784C17.6767 25.7081 17.7743 25.5583 17.7826 25.391C17.7913 25.2237 17.7096 25.0645 17.5686 24.974C17.4277 24.8831 17.2492 24.8748 17.1004 24.9518Z" fill="#FF7300"/>
<path d="M17.1004 28.245L11.4257 31.1564C11.2765 31.2324 11.1791 31.3822 11.1705 31.5497C11.1622 31.717 11.2436 31.8759 11.3845 31.9668C11.5254 32.0573 11.7042 32.0657 11.853 31.9887L17.5274 29.077C17.6767 29.0013 17.7743 28.8512 17.7826 28.6839C17.7913 28.5166 17.7096 28.3574 17.5686 28.2669C17.4277 28.1761 17.2492 28.1677 17.1004 28.245Z" fill="#FF7300"/>
<path d="M27.3415 23.3112L22.0929 20.549C21.8649 20.4315 21.5846 20.52 21.465 20.7471C21.3455 20.9741 21.4314 21.2552 21.6574 21.3768L26.9059 24.1387C27.0539 24.2183 27.2332 24.2123 27.3757 24.1231C27.5182 24.0338 27.6017 23.8752 27.5946 23.7073C27.5876 23.5393 27.4908 23.3882 27.3415 23.3112Z" fill="#FF7300"/>
<path d="M21.6581 17.4218L26.9067 20.1837C27.0546 20.2633 27.2339 20.2573 27.3764 20.168C27.5189 20.0788 27.6024 19.9201 27.5954 19.752C27.5883 19.5842 27.4915 19.4328 27.3422 19.3561L22.0937 16.5939C21.8651 16.4736 21.5825 16.5616 21.4621 16.7899C21.3418 17.0185 21.4295 17.3014 21.6581 17.4218Z" fill="#FF7300"/>
<path d="M17.5432 15.7346C17.4067 15.6495 17.2358 15.6433 17.0933 15.7176L11.4387 18.6291C11.2876 18.7116 11.1965 18.8731 11.2046 19.0451V23.0015C11.1983 23.162 11.2772 23.3139 11.4121 23.4006C11.4825 23.4455 11.5645 23.4692 11.648 23.4692C11.7208 23.4692 11.7926 23.4515 11.8573 23.4178L17.5148 20.5061C17.6669 20.4241 17.7588 20.2626 17.752 20.0901V16.1336C17.7578 15.9731 17.6784 15.8213 17.5432 15.7346ZM16.8167 19.8043L12.1399 22.2358V19.3309L16.8167 16.8991V19.8043Z" fill="#FF7300"/>
<path d="M27.3329 27.9272L22.0893 25.165C21.9484 25.0888 21.7777 25.094 21.6417 25.1786C21.5042 25.2645 21.4225 25.4169 21.4269 25.5789V30.1949C21.4233 30.3668 21.5159 30.5266 21.6676 30.6085L26.9111 33.3707C26.9774 33.4059 27.0515 33.4245 27.1267 33.4245C27.2086 33.4245 27.2888 33.401 27.3579 33.3571C27.4957 33.2713 27.5777 33.1189 27.5735 32.9568V28.3409C27.5771 28.1689 27.4845 28.0092 27.3329 27.9272ZM26.6381 32.1822L22.3623 29.9125V26.3535L26.6381 28.6233V32.1822Z" fill="#FF7300"/>
</g>
<defs>
<clipPath id="clip0">
<rect width="31" height="31" fill="white" transform="translate(9 10)"/>
</clipPath>
</defs>
</svg>
