<svg width="40" height="40" viewBox="0 0 40 40" fill="none" xmlns="http://www.w3.org/2000/svg">
<g clip-path="url(#clip0)">
<path d="M7.03522 30.9335C6.47522 30.9335 5.93689 31.0733 5.45929 31.3358C2.94342 28.1107 1.5625 24.1043 1.5625 20C1.5625 9.83337 9.83337 1.5625 20 1.5625C21.236 1.5625 22.4713 1.68549 23.6719 1.9281C24.0942 2.01355 24.5068 1.74011 24.5923 1.31714C24.6777 0.894165 24.4043 0.482178 23.9813 0.396423C22.6791 0.133362 21.3397 0 20 0C14.6579 0 9.63531 2.08038 5.85785 5.85785C2.08038 9.63531 0 14.6579 0 20C0 24.4937 1.52588 28.8791 4.30389 32.3947C3.94623 32.9291 3.75397 33.5571 3.75397 34.2148C3.75397 35.0912 4.09546 35.9152 4.71527 36.5347C5.33478 37.1545 6.15875 37.496 7.03522 37.496C7.91168 37.496 8.73566 37.1545 9.35547 36.5347C9.97528 35.9152 10.3165 35.0909 10.3165 34.2145C10.3165 33.3383 9.97528 32.514 9.35547 31.8945C8.73566 31.2747 7.91168 30.9335 7.03522 30.9335ZM8.25043 35.43C7.92603 35.7547 7.4942 35.9335 7.03522 35.9335C6.57623 35.9335 6.14471 35.7547 5.82001 35.43C5.4953 35.1053 5.31647 34.6738 5.31647 34.2148C5.31647 33.7555 5.4953 33.324 5.82001 32.9993C6.14441 32.6746 6.57623 32.496 7.03522 32.496C7.4942 32.496 7.92572 32.6749 8.25043 32.9993C8.57513 33.324 8.75397 33.7555 8.75397 34.2148C8.75397 34.6738 8.57513 35.1053 8.25043 35.43Z" fill="#FF7300"/>
<path d="M35.6948 7.60443C36.5441 6.33032 36.4077 4.58838 35.2843 3.46503C34.6645 2.84552 33.8406 2.50403 32.9641 2.50403C32.0876 2.50403 31.2636 2.84552 30.6438 3.46503C30.024 4.08484 29.6828 4.90881 29.6828 5.78528C29.6828 6.66174 30.024 7.48572 30.6438 8.10553C31.2636 8.72534 32.0876 9.06653 32.9641 9.06653C33.5241 9.06653 34.0624 8.92676 34.54 8.66431C37.0559 11.8897 38.4368 15.8958 38.4368 20.0001C38.4368 30.1667 30.1659 38.4376 19.9993 38.4376C18.7756 38.4376 17.5518 38.317 16.3625 38.079C15.9396 37.9944 15.5279 38.2688 15.443 38.6918C15.3585 39.1151 15.6328 39.5264 16.0558 39.6113C17.3458 39.8691 18.6727 40.0001 19.9993 40.0001C25.3414 40.0001 30.364 37.9197 34.1415 34.1422C37.9189 30.3647 39.9993 25.3422 39.9993 20.0001C39.9993 15.506 38.4731 11.1204 35.6948 7.60443ZM31.7489 7.00079C31.4242 6.67609 31.2453 6.24457 31.2453 5.78528C31.2453 5.32629 31.4242 4.89478 31.7489 4.57007C32.0733 4.24536 32.5051 4.06653 32.9641 4.06653C33.4231 4.06653 33.8549 4.24536 34.1796 4.57007C34.8495 5.24023 34.8495 6.33063 34.1796 7.00079C33.8549 7.3252 33.4231 7.50403 32.9641 7.50403C32.5048 7.50403 32.0733 7.3252 31.7489 7.00079Z" fill="#FF7300"/>
<path d="M16.7754 33.4375C16.7754 33.869 17.1254 34.2188 17.5566 34.2188H22.4416C22.8731 34.2188 23.2228 33.869 23.2228 33.4375V31.9229C24.2501 31.6464 25.2321 31.2393 26.155 30.7077L27.2243 31.777C27.3708 31.9235 27.5695 32.0059 27.777 32.0059C27.9839 32.0059 28.1829 31.9235 28.3293 31.7767L31.7821 28.3215C32.087 28.0164 32.087 27.5217 31.7821 27.2168L30.714 26.1487C31.2456 25.2258 31.6527 24.2438 31.9292 23.2166H33.438C33.8695 23.2166 34.2192 22.8668 34.2192 22.4353V17.5504C34.2192 17.1188 33.8695 16.7691 33.438 16.7691H31.9289C31.6524 15.7422 31.2456 14.7601 30.714 13.8373L31.7763 12.775C31.9228 12.6285 32.0052 12.4295 32.0052 12.2223C32.0049 12.0151 31.9225 11.8161 31.776 11.6696L28.3205 8.21686C28.0156 7.91199 27.5209 7.91199 27.2158 8.21716L26.155 9.27826C25.2321 8.74664 24.2501 8.33954 23.2228 8.06305V6.5625C23.2228 6.13098 22.8731 5.78125 22.4416 5.78125H17.5566C17.1254 5.78125 16.7754 6.13098 16.7754 6.5625V8.06335C15.7485 8.33954 14.7664 8.74664 13.8436 9.27826L12.7825 8.21716C12.4776 7.91229 11.9829 7.91199 11.6777 8.21686L8.22254 11.6699C8.07575 11.8164 7.99335 12.0151 7.99335 12.2223C7.99335 12.4295 8.07575 12.6285 8.22223 12.775L9.28455 13.8373C8.75293 14.7601 8.34583 15.7419 8.06934 16.7691H6.56329C6.13178 16.7691 5.78204 17.1188 5.78204 17.55L5.7793 22.435C5.77899 22.6422 5.86139 22.8412 6.00787 22.9877C6.15436 23.1342 6.35303 23.2166 6.56055 23.2166H8.06934C8.34583 24.2438 8.75293 25.2258 9.28455 26.1487L8.21643 27.2168C7.91156 27.5217 7.91126 28.0164 8.21643 28.3215L11.6692 31.7767C11.8157 31.9232 12.0143 32.0059 12.2216 32.0059H12.2219C12.4291 32.0059 12.6277 31.9235 12.7742 31.777L13.8433 30.7077C14.7664 31.2393 15.7485 31.6464 16.7754 31.9229V33.4375ZM14.1497 29.0646C13.8405 28.8647 13.4337 28.9081 13.1731 29.1684L12.2219 30.1196L9.87354 27.7695L10.8239 26.8188C11.0842 26.5585 11.1275 26.1517 10.9276 25.8426C10.2193 24.7464 9.72125 23.5449 9.44782 22.2711C9.3703 21.9113 9.05231 21.6541 8.68396 21.6541H7.3421L7.34393 18.3316H8.68396C9.05231 18.3316 9.3703 18.0746 9.44782 17.7145C9.72125 16.441 10.2193 15.2396 10.9276 14.1434C11.1275 13.8342 11.0842 13.4274 10.8239 13.1671L9.87964 12.2226L12.2298 9.87427L13.1731 10.8179C13.4337 11.0782 13.8402 11.1212 14.1497 10.9216C15.2455 10.2133 16.447 9.71527 17.7208 9.44183C18.0806 9.36432 18.3379 9.04602 18.3379 8.67798V7.34375H21.6603V8.67767C21.6603 9.04602 21.9173 9.36432 22.2774 9.44153C23.5509 9.71527 24.7527 10.213 25.8486 10.9213C26.1577 11.1212 26.5645 11.0782 26.8248 10.8176L27.7684 9.87427L30.1186 12.2226L29.1744 13.1668C28.9138 13.4274 28.8707 13.8342 29.0706 14.1434C29.7789 15.2396 30.2767 16.441 30.5504 17.7145C30.6276 18.0746 30.9459 18.3316 31.3143 18.3316H32.6567V21.6541H31.3143C30.9459 21.6541 30.6279 21.9113 30.5504 22.2711C30.277 23.5446 29.7789 24.7464 29.0706 25.8423C28.8707 26.1517 28.9141 26.5585 29.1744 26.8188L30.1247 27.7692L27.7764 30.1193L26.8251 29.1684C26.5645 28.9078 26.1577 28.8647 25.8486 29.0646C24.7524 29.7729 23.5509 30.2707 22.2774 30.5444C21.9173 30.6219 21.6603 30.9399 21.6603 31.3083V32.6562H18.3379V31.3083C18.3379 30.9402 18.0806 30.6219 17.7208 30.5444C16.4473 30.271 15.2459 29.7729 14.1497 29.0646Z" fill="#FF7300"/>
<path d="M26.4557 19.9999C26.4557 16.4404 23.5599 13.5446 20.0003 13.5446C16.4407 13.5446 13.5449 16.4404 13.5449 19.9999C13.5449 23.5595 16.4407 26.4553 20.0003 26.4553C23.5599 26.4553 26.4557 23.5595 26.4557 19.9999ZM15.1074 19.9999C15.1074 17.3019 17.3022 15.1071 20.0003 15.1071C22.6984 15.1071 24.8932 17.3022 24.8932 19.9999C24.8932 22.6977 22.6984 24.8928 20.0003 24.8928C17.3022 24.8928 15.1074 22.698 15.1074 19.9999Z" fill="#FF7300"/>
<path d="M27.1934 2.95465C27.399 2.95465 27.6005 2.87103 27.7457 2.72577C27.891 2.57959 27.9746 2.37817 27.9746 2.17249C27.9746 1.96802 27.8913 1.7663 27.7457 1.62012C27.6005 1.47485 27.399 1.39124 27.1934 1.39124C26.9871 1.39124 26.7866 1.47485 26.6413 1.62012C26.4957 1.7663 26.4121 1.9671 26.4121 2.17249C26.4121 2.37878 26.4957 2.57959 26.6413 2.72577C26.7866 2.87103 26.9871 2.95465 27.1934 2.95465Z" fill="#FF7300"/>
<path d="M12.8398 37.0593C12.6345 37.0593 12.4327 37.1429 12.2875 37.2882C12.1422 37.4335 12.0586 37.6352 12.0586 37.8406C12.0586 38.0469 12.1422 38.2477 12.2875 38.3929C12.4327 38.5382 12.6345 38.6218 12.8398 38.6218C13.0452 38.6218 13.2469 38.5382 13.3922 38.3929C13.5375 38.2477 13.6211 38.046 13.6211 37.8406C13.6211 37.6352 13.5375 37.4335 13.3922 37.2882C13.2469 37.1429 13.0452 37.0593 12.8398 37.0593Z" fill="#FF7300"/>
</g>
<defs>
<clipPath id="clip0">
<rect width="40" height="40" fill="white"/>
</clipPath>
</defs>
</svg>
