<svg display="none" xmlns="http://www.w3.org/2000/svg">
<symbol id="icon-pdf" viewBox="0 0 35 35">
<path d="M33.8024 9.47167L24.8857 0.206309C24.7588 0.0745117 24.5836 0 24.4007 0H11.111C9.62366 0 8.41363 1.20955 8.41363 2.69623V12.1154H3.0278C1.91505 12.1154 1.00977 13.0204 1.00977 14.1329V24.2326C1.00977 25.345 1.91505 26.25 3.0278 26.25H8.41363V32.3085C8.41363 33.7926 9.62366 35 11.111 35H31.2932C32.7805 35 33.9906 33.7933 33.9906 32.31V9.93843C33.9906 9.76438 33.9231 9.59711 33.8024 9.47167ZM24.5675 1.81706L31.8873 9.42307H24.5675V1.81706ZM3.0278 24.9039C2.65729 24.9039 2.35597 24.6027 2.35597 24.2326V14.1329C2.35597 13.7627 2.65736 13.4615 3.0278 13.4615H21.2033C21.5738 13.4615 21.8752 13.7627 21.8752 14.1329V24.2326C21.8752 24.6027 21.5738 24.9039 21.2033 24.9039H3.0278ZM32.6444 32.31C32.6444 33.051 32.0382 33.6539 31.2932 33.6539H11.111C10.3659 33.6539 9.75976 33.0504 9.75976 32.3086V26.25H21.2033C22.3161 26.25 23.2214 25.345 23.2214 24.2326V14.1329C23.2214 13.0204 22.3161 12.1154 21.2033 12.1154H9.75976V2.69623C9.75976 1.95173 10.3659 1.34613 11.111 1.34613H23.2213V10.0961C23.2213 10.4679 23.5227 10.7692 23.8944 10.7692H32.6444V32.31Z" fill="#333333"/>
<path d="M9.05659 17.0826C8.83312 16.7921 8.55572 16.6034 8.22445 16.5167C8.00885 16.4588 7.54612 16.4299 6.83621 16.4299H4.96289V22.2116H6.13026V20.0306H6.89144C7.41993 20.0306 7.82352 20.003 8.10222 19.9478C8.3073 19.9031 8.5091 19.8117 8.70762 19.6736C8.90613 19.5356 9.06978 19.3457 9.19864 19.1038C9.3275 18.862 9.39189 18.5635 9.39189 18.2086C9.39182 17.7484 9.28006 17.3732 9.05659 17.0826ZM8.05683 18.674C7.96879 18.8028 7.84718 18.8974 7.692 18.9579C7.53682 19.0184 7.22928 19.0486 6.76915 19.0486H6.13026V17.408H6.69423C7.11491 17.408 7.39491 17.4211 7.53423 17.4475C7.72351 17.4816 7.87999 17.5671 8.00351 17.7038C8.12711 17.8405 8.1889 18.0141 8.1889 18.2244C8.18897 18.3953 8.14488 18.5451 8.05683 18.674Z" fill="#333333"/>
<path d="M15.0034 18.0094C14.8772 17.64 14.6931 17.3278 14.4512 17.0728C14.2094 16.8177 13.9188 16.6403 13.5796 16.5403C13.3273 16.4667 12.9604 16.4299 12.4793 16.4299H10.3457V22.2116H12.5424C12.9736 22.2116 13.318 22.1708 13.5757 22.0893C13.9201 21.9789 14.1936 21.8251 14.396 21.6278C14.6642 21.3675 14.8705 21.0271 15.0152 20.6064C15.1335 20.2619 15.1927 19.8518 15.1927 19.3759C15.1927 18.8343 15.1296 18.3789 15.0034 18.0094ZM13.8675 20.3836C13.7886 20.6426 13.6868 20.8286 13.5619 20.9416C13.437 21.0547 13.2799 21.1349 13.0906 21.1822C12.946 21.219 12.7107 21.2374 12.3847 21.2374H11.5131V17.408H12.0376C12.5134 17.408 12.833 17.4264 12.9959 17.4633C13.2141 17.5106 13.3943 17.6013 13.5362 17.7354C13.6782 17.8695 13.7886 18.0561 13.8675 18.2954C13.9464 18.5346 13.9858 18.8777 13.9858 19.3247C13.9858 19.7717 13.9464 20.1246 13.8675 20.3836Z" fill="#333333"/>
<path d="M20.154 17.408V16.4299H16.1904V22.2116H17.3578V19.7546H19.7714V18.7765H17.3578V17.408H20.154Z" fill="#333333"/>
</symbol>
</svg>
