<svg display="none" xmlns="http://www.w3.org/2000/svg">
<symbol id="icon-attention" viewBox="0 0 40 40">
<path d="M20 0C8.95414 0 0 8.95445 0 20C0 31.0462 8.95414 40 20 40C31.0459 40 40 31.0462 40 20C40 8.95445 31.0459 0 20 0ZM20 30C18.6192 30 17.5 28.8813 17.5 27.5C17.5 26.1194 18.6192 25 20 25C21.3808 25 22.5 26.1194 22.5 27.5C22.5 28.8813 21.3808 30 20 30ZM22.5 21.25H17.5L16.25 11.25C16.25 10.5597 16.8097 10 17.5 10H22.5C23.1903 10 23.75 10.5597 23.75 11.25L22.5 21.25Z" fill="#E0E0E0"/>
</symbol>
</svg>
