<svg width="40" height="40" viewBox="0 0 40 40" fill="none" xmlns="http://www.w3.org/2000/svg">
<g clip-path="url(#clip0)">
<path d="M39.3333 6.55306C38.9652 6.55306 38.6667 6.85156 38.6667 7.21973V36.46L35.8467 35.7064C30.8356 34.3903 25.5433 34.6227 20.6667 36.373V33.9932C24.7165 32.4577 29.1445 32.2246 33.3333 33.3265L36.4867 34.1663C36.5443 34.1732 36.6025 34.1732 36.6602 34.1663C36.8066 34.168 36.9495 34.1211 37.0667 34.0332C37.2321 33.9059 37.3281 33.7087 37.3268 33.4997V23.3265C37.3268 22.9583 37.0283 22.6598 36.6602 22.6598C36.2917 22.6598 35.9935 22.9583 35.9935 23.3265V32.6598L33.6732 32.0397C29.3802 30.918 24.849 31.1107 20.6667 32.5931V4.65983C24.7165 3.12435 29.1445 2.89128 33.3333 3.99316L36 4.69987V20.6598C36 21.028 36.2985 21.3265 36.6667 21.3265C37.0348 21.3265 37.3333 21.028 37.3333 20.6598V4.21973C37.3441 3.90983 37.1393 3.63346 36.8398 3.55306L33.68 2.73307C29.1527 1.53678 24.362 1.8099 20 3.51302C15.6364 1.81641 10.848 1.54329 6.31999 2.73307L3.16016 3.57975C2.86068 3.66016 2.65592 3.93652 2.66667 4.24642V11.9932C2.66667 12.3613 2.96517 12.6598 3.33333 12.6598C3.7015 12.6598 4 12.3613 4 11.9932V4.73307L6.66667 4.02637C10.8519 2.91374 15.2799 3.13542 19.3333 4.65983V32.5931C15.1462 31.1182 10.6126 30.9346 6.31999 32.0664L4 32.6598V14.6598C4 14.2917 3.7015 13.9932 3.33333 13.9932C2.96517 13.9932 2.66667 14.2917 2.66667 14.6598V33.5531C2.66504 33.7617 2.76139 33.9593 2.92676 34.0866C3.04395 34.1745 3.18685 34.2214 3.33333 34.2197C3.39095 34.2262 3.44922 34.2262 3.50651 34.2197L6.66667 33.3597C10.8555 32.2578 15.2835 32.4909 19.3333 34.0264V36.3665C14.4567 34.6159 9.16439 34.3835 4.15332 35.6999L1.33333 36.46V7.21973C1.33333 6.85156 1.03483 6.55306 0.666667 6.55306C0.298503 6.55306 0 6.85156 0 7.21973V37.3265C0.000651042 37.5329 0.0963542 37.7272 0.260091 37.8532C0.423828 37.9814 0.638672 38.026 0.839844 37.9733L4.5 36.9932C9.51628 35.6663 14.8262 35.9867 19.6468 37.9066L19.7399 37.9398C19.8984 38.0029 20.0749 38.0029 20.2334 37.9398L20.3268 37.9066C25.1553 35.9808 30.4753 35.6605 35.5 36.9932L39.1602 37.9932C39.2174 37.9997 39.2757 37.9997 39.3333 37.9932C39.7015 37.9932 40 37.6947 40 37.3265V7.21973C40 6.85156 39.7015 6.55306 39.3333 6.55306Z" fill="#FF7300"/>
<path d="M34.6688 7.3266C34.6685 7.03819 34.4829 6.78265 34.2088 6.69314L32.7622 6.22666C31.3957 5.78005 29.936 5.69965 28.5288 5.99327C28.216 6.06032 27.995 6.34027 28.0021 6.65993V12.6599C28.0083 12.8627 28.1063 13.0515 28.2687 13.1733C28.4334 13.3002 28.6454 13.3487 28.8488 13.3067C30.0161 13.061 31.2274 13.1254 32.3621 13.4933L33.7954 13.9601C33.8625 13.9806 33.9321 13.992 34.0021 13.9933C34.1431 13.9913 34.2798 13.947 34.3953 13.8666C34.5679 13.7407 34.6694 13.5398 34.6688 13.3266V7.3266ZM33.3355 12.4067L32.7756 12.2267C31.9621 11.9604 31.1115 11.8253 30.2554 11.8266C29.9481 11.8279 29.6408 11.8455 29.3355 11.88V7.21332C30.3478 7.07985 31.3771 7.17328 32.3488 7.48675L33.3355 7.80674V12.4067Z" fill="#FF7300"/>
<path d="M16.8485 18.6598C13.6809 17.7533 10.3228 17.7533 7.15519 18.6598C6.78702 18.7591 6.56925 19.1384 6.66853 19.5065C6.76782 19.8747 7.14705 20.0925 7.51521 19.9932C10.4475 19.1533 13.5562 19.1533 16.4885 19.9932C16.5481 20.0029 16.609 20.0029 16.6685 19.9932C17.0367 20.043 17.3756 19.7848 17.425 19.4164C17.4748 19.0482 17.2167 18.7096 16.8485 18.6598Z" fill="#FF7300"/>
<path d="M16.8485 21.9931C13.6809 21.0866 10.3228 21.0866 7.15519 21.9931C6.78702 22.0924 6.56925 22.4717 6.66853 22.8398C6.76782 23.208 7.14705 23.4258 7.51521 23.3265C10.4475 22.4866 13.5562 22.4866 16.4885 23.3265C16.5481 23.3362 16.609 23.3362 16.6685 23.3265C17.0367 23.3763 17.3756 23.1181 17.425 22.7497C17.4748 22.3815 17.2167 22.043 16.8485 21.9931Z" fill="#FF7300"/>
<path d="M16.8485 25.3265C13.6809 24.4199 10.3228 24.4199 7.15519 25.3265C6.78702 25.4258 6.56925 25.805 6.66853 26.1732C6.76782 26.5413 7.14705 26.7591 7.51521 26.6598C10.4475 25.82 13.5562 25.82 16.4885 26.6598C16.5481 26.6696 16.609 26.6696 16.6685 26.6598C17.0367 26.7096 17.3756 26.4515 17.425 26.083C17.4748 25.7148 17.2167 25.3763 16.8485 25.3265Z" fill="#FF7300"/>
<path d="M22.6676 8.65978H22.8277L25.4944 7.99311C25.8626 7.9049 26.0891 7.53478 26.0009 7.16629C25.9127 6.79813 25.5426 6.57156 25.1741 6.65978L22.5074 7.32645C22.1392 7.37072 21.8769 7.70503 21.9208 8.07319C21.9651 8.44136 22.2994 8.70405 22.6676 8.65978Z" fill="#FF7300"/>
<path d="M21.9997 10.8199C22.0882 11.1767 22.4492 11.3944 22.8063 11.3065L25.473 10.6399C25.8356 10.5569 26.0625 10.1959 25.9798 9.8329C25.8968 9.47027 25.5358 9.24371 25.1729 9.32639L22.5062 9.99306C22.3268 10.0308 22.1706 10.1408 22.0749 10.2971C21.9789 10.4537 21.9518 10.6425 21.9997 10.8199Z" fill="#FF7300"/>
<path d="M21.9997 14.1532C22.0882 14.51 22.4492 14.7277 22.8063 14.6399L25.473 13.9732C25.8356 13.8902 26.0625 13.5292 25.9798 13.1662C25.8968 12.8036 25.5358 12.577 25.1729 12.6597L22.5062 13.3264C22.3268 13.3641 22.1706 13.4742 22.0749 13.6304C21.9789 13.787 21.9518 13.9758 21.9997 14.1532Z" fill="#FF7300"/>
<path d="M22.9396 30.5331C23.0551 30.6135 23.1919 30.6578 23.3328 30.6597C23.4015 30.6692 23.4708 30.6692 23.5395 30.6597L24.9728 30.1929C26.1193 29.8166 27.3445 29.7476 28.5262 29.9931C28.7234 30.0357 28.9292 29.9866 29.0861 29.8596C29.2466 29.7297 29.3377 29.5328 29.3328 29.3264V23.3264C29.34 23.0067 29.1189 22.7268 28.8061 22.6597C27.4002 22.3615 25.9406 22.4374 24.5727 22.8798L23.1261 23.3462C22.8471 23.4374 22.6606 23.6998 22.6661 23.9931V29.9931C22.6655 30.2063 22.767 30.4071 22.9396 30.5331ZM23.9995 24.4797L24.9861 24.1597C25.9578 23.8462 26.9871 23.7531 27.9995 23.8863V28.553C26.8413 28.4208 25.6681 28.539 24.5594 28.8996L23.9995 29.0797V24.4797Z" fill="#FF7300"/>
<path d="M22.6685 17.5065C22.7687 17.8594 23.1353 18.0648 23.4885 17.9665C26.4207 17.1266 29.5298 17.1266 32.4618 17.9665C32.5285 17.9883 32.5985 17.9974 32.6685 17.9932C33.0366 18.043 33.3755 17.7848 33.425 17.4163C33.4748 17.0482 33.2167 16.7096 32.8485 16.6598C29.6808 15.7533 26.3228 15.7533 23.1551 16.6598C22.9748 16.7015 22.8195 16.8164 22.7274 16.9772C22.6349 17.1377 22.6138 17.3294 22.6685 17.5065Z" fill="#FF7300"/>
<path d="M32.6685 21.3265C33.0367 21.3763 33.3755 21.1181 33.425 20.7497C33.4748 20.3815 33.2167 20.043 32.8485 19.9932C29.6809 19.0866 26.3228 19.0866 23.1552 19.9932C22.787 20.0924 22.5692 20.4717 22.6685 20.8398C22.7678 21.208 23.147 21.4258 23.5152 21.3265C26.4475 20.4866 29.5562 20.4866 32.4885 21.3265C32.5481 21.3362 32.6089 21.3362 32.6685 21.3265Z" fill="#FF7300"/>
<path d="M31.174 24.6598L33.8407 25.3264C34.0181 25.3743 34.2069 25.3473 34.3635 25.2512C34.5197 25.1555 34.6297 24.9993 34.6675 24.8199C34.7153 24.6425 34.6883 24.4537 34.5923 24.2971C34.4966 24.1409 34.3403 24.0309 34.161 23.9931L31.4943 23.3264C31.1258 23.2382 30.7557 23.4648 30.6675 23.8329C30.5793 24.2014 30.8058 24.5716 31.174 24.6598Z" fill="#FF7300"/>
<path d="M16.6645 10.6598C17.0327 10.6598 17.3312 10.3613 17.3312 9.99316V7.99316C17.3426 7.68522 17.1414 7.4095 16.8445 7.32649C13.6769 6.41992 10.3188 6.41992 7.15118 7.32649C6.8543 7.4095 6.65313 7.68522 6.66452 7.99316V15.9932C6.66452 16.2031 6.76348 16.4007 6.93112 16.5264C7.09747 16.6504 7.31166 16.6898 7.5112 16.6331C10.4435 15.7933 13.5522 15.7933 16.4845 16.6331C16.5428 16.6517 16.6033 16.6608 16.6645 16.6598C17.0327 16.6598 17.3312 16.3613 17.3312 15.9932V12.6598C17.3312 12.2917 17.0327 11.9932 16.6645 11.9932C16.2964 11.9932 15.9979 12.2917 15.9979 12.6598V15.1331C13.3663 14.5199 10.6294 14.5199 7.99786 15.1331V8.50651C10.6229 7.83984 13.3729 7.83984 15.9979 8.50651V9.99316C15.9979 10.3613 16.2964 10.6598 16.6645 10.6598Z" fill="#FF7300"/>
</g>
<defs>
<clipPath id="clip0">
<rect width="40" height="40" fill="white"/>
</clipPath>
</defs>
</svg>
