<svg width="30" height="30" viewBox="0 0 30 30" fill="none" xmlns="http://www.w3.org/2000/svg">
<symbol id="icon-signal" viewBox="0 0 30 30">
<path d="M0 0V30H30V0H0Z" fill="#FF7300"/>
<path d="M12.5244 4.98951L12.7559 5.92701C11.8437 6.15246 10.9706 6.51393 10.166 6.99928L9.6709 6.17018C10.5565 5.63385 11.5188 5.23572 12.5244 4.98951ZM17.4756 4.98951L17.2441 5.92701C18.1563 6.15246 19.0294 6.51393 19.834 6.99928L20.335 6.17018C19.447 5.63432 18.4829 5.23624 17.4756 4.98951ZM6.16992 9.66822C5.6341 10.5551 5.23601 11.5183 4.98926 12.5247L5.92676 12.7561C6.1522 11.8439 6.51367 10.9709 6.99902 10.1663L6.16992 9.66822ZM5.6543 15.0003C5.65422 14.5315 5.68948 14.0633 5.75976 13.5999L4.80469 13.4534C4.64941 14.4778 4.64941 15.5198 4.80469 16.5442L5.75976 16.4006C5.68959 15.9371 5.65433 15.469 5.6543 15.0003ZM20.3291 23.8274L19.834 23.0012C19.0307 23.487 18.1585 23.8485 17.2471 24.0735L17.4785 25.011C18.4829 24.7624 19.444 24.3634 20.3291 23.8274ZM24.3457 15.0003C24.3457 15.469 24.3104 15.9371 24.2402 16.4006L25.1953 16.5442C25.3506 15.5198 25.3506 14.4778 25.1953 13.4534L24.2402 13.5999C24.3105 14.0633 24.3458 14.5315 24.3457 15.0003ZM25.0107 17.4729L24.0732 17.2415C23.8483 18.1548 23.4868 19.0289 23.001 19.8342L23.8301 20.3323C24.3664 19.4446 24.7645 18.4804 25.0107 17.4729ZM16.4004 24.2405C15.4721 24.3811 14.5279 24.3811 13.5996 24.2405L13.4561 25.1956C14.4795 25.3509 15.5205 25.3509 16.5439 25.1956L16.4004 24.2405ZM22.5234 20.5432C21.9666 21.2983 21.2989 21.965 20.543 22.5208L21.1172 23.3001C21.9498 22.6871 22.6864 21.9535 23.3027 21.1233L22.5234 20.5432ZM20.543 7.47682C21.299 8.03361 21.9666 8.70128 22.5234 9.45729L23.3027 8.87721C22.6886 8.04629 21.954 7.31165 21.123 6.69752L20.543 7.47682ZM7.47656 9.45729C8.03335 8.70128 8.70102 8.03361 9.45703 7.47682L8.87695 6.69752C8.04604 7.31165 7.31139 8.04629 6.69726 8.87721L7.47656 9.45729ZM23.8301 9.66822L23.001 10.1663C23.4868 10.9696 23.8483 11.8418 24.0732 12.7532L25.0107 12.5217C24.764 11.5163 24.3659 10.5541 23.8301 9.66822ZM13.5996 5.76002C14.5279 5.61938 15.4721 5.61938 16.4004 5.76002L16.5439 4.80494C15.5205 4.64965 14.4795 4.64965 13.4561 4.80494L13.5996 5.76002ZM7.97168 23.5579L5.97656 24.0208L6.44238 22.0256L5.50195 21.8059L5.03613 23.801C5.00699 23.9247 5.00251 24.053 5.02297 24.1784C5.04342 24.3038 5.08841 24.424 5.15535 24.532C5.22228 24.64 5.30986 24.7338 5.41307 24.8079C5.51628 24.8821 5.6331 24.9352 5.75683 24.9641C5.90155 24.9963 6.05158 24.9963 6.19629 24.9641L8.1914 24.5042L7.97168 23.5579ZM5.70117 20.9446L6.64453 21.1614L6.96679 19.7786C6.49618 18.9891 6.14566 18.1341 5.92676 17.2415L4.98926 17.4729C5.20013 18.3273 5.51911 19.1514 5.93847 19.9251L5.70117 20.9446ZM10.2129 23.0364L8.83008 23.3587L9.0498 24.302L10.0664 24.0647C10.8395 24.4853 11.6637 24.8044 12.5186 25.0139L12.75 24.0764C11.8602 23.8547 11.0081 23.5022 10.2217 23.0305L10.2129 23.0364ZM15 6.62135C10.3711 6.62428 6.62402 10.3772 6.62402 15.0032C6.62657 16.5788 7.07225 18.1219 7.91015 19.4563L7.10449 22.8958L10.541 22.0901C14.458 24.554 19.6318 23.3792 22.0957 19.4651C24.5596 15.551 23.3877 10.3772 19.4736 7.91041C18.1337 7.06778 16.5829 6.62092 15 6.62135Z" fill="#fff"/>
</symbol>
</svg>
