<svg display="none" xmlns="http://www.w3.org/2000/svg">
<symbol id="icon-camera" viewBox="0 0 30 26">
<path d="M15 20.5C18.4518 20.5 21.25 17.7018 21.25 14.25C21.25 10.7982 18.4518 7.99997 15 7.99997C11.5482 7.99997 8.75 10.7982 8.75 14.25C8.75 17.7018 11.5482 20.5 15 20.5Z" fill="#DC882B"/>
<path d="M27.5 4.25003H23.5358C23.0347 4.25003 22.5641 4.05474 22.2095 3.70071L19.9243 1.41556C19.3341 0.825343 18.5492 0.500031 17.7142 0.500031H12.2858C11.4508 0.500031 10.6659 0.825343 10.0757 1.41556L7.79051 3.70071C7.4359 4.05474 6.96533 4.25003 6.46424 4.25003H2.50002C1.12119 4.25003 0 5.37122 0 6.74999V23C0 24.3787 1.12119 25.5 2.50002 25.5H27.5C28.8788 25.5 30.0001 24.3788 30.0001 23V6.74999C30 5.37122 28.8788 4.25003 27.5 4.25003ZM15 21.75C10.8643 21.75 7.5 18.3857 7.5 14.25C7.5 10.1143 10.8643 6.74999 15 6.74999C19.1357 6.74999 22.5 10.1143 22.5 14.25C22.5 18.3857 19.1357 21.75 15 21.75ZM25 10.5C24.311 10.5 23.75 9.93907 23.75 9.25001C23.75 8.56095 24.311 8.00003 25 8.00003C25.6891 8.00003 26.25 8.56095 26.25 9.25001C26.25 9.93907 25.6891 10.5 25 10.5Z" fill="#DC882B"/>
</symbol>
</svg>
