<svg display="none" xmlns="http://www.w3.org/2000/svg">
<symbol id="icon-info" viewBox="0 0 40 40">
<path d="M21.6671 10C21.6671 10.9204 20.921 11.6666 20.0005 11.6666C19.0801 11.6666 18.334 10.9204 18.334 10C18.334 9.07959 19.0801 8.33344 20.0005 8.33344C20.921 8.33344 21.6671 9.07959 21.6671 10Z" fill="#DE8348"/>
<path d="M20.0005 31.6666C19.3105 31.6666 18.7505 31.1066 18.7505 30.4166V17.5H17.084C16.394 17.5 15.834 16.94 15.834 16.25C15.834 15.56 16.394 15 17.084 15H20.0005C20.6906 15 21.2505 15.56 21.2505 16.25V30.4166C21.2505 31.1066 20.6906 31.6666 20.0005 31.6666Z" fill="#DE8348"/>
<path d="M20 40C8.97156 40 0 31.0284 0 20C0 8.97156 8.97156 0 20 0C31.0284 0 40 8.97156 40 20C40 31.0284 31.0284 40 20 40ZM20 2.5C10.35 2.5 2.5 10.35 2.5 20C2.5 29.65 10.35 37.5 20 37.5C29.65 37.5 37.5 29.65 37.5 20C37.5 10.35 29.65 2.5 20 2.5Z" fill="#DE8348"/>
<path d="M23.75 31.6666H16.25C15.56 31.6666 15 31.1066 15 30.4166C15 29.7266 15.56 29.1666 16.25 29.1666H23.75C24.44 29.1666 25 29.7266 25 30.4166C25 31.1066 24.44 31.6666 23.75 31.6666Z" fill="#DE8348"/>
</symbol>
</svg>


