<svg display="none" xmlns="http://www.w3.org/2000/svg">
<symbol id="icon-NLS" viewBox="0 0 151 39">
<g clip-path="url(#clip0)">
<path fill-rule="evenodd" clip-rule="evenodd" d="M30 0H16.25V15.0968H30V0ZM27.5 2.51613H18.75V12.5806H27.5V2.51613Z" fill="#333"/>
<path fill-rule="evenodd" clip-rule="evenodd" d="M30 17.6128H23.75V30.1934H30V17.6128ZM28.75 18.8709H25V28.9354H28.75V18.8709Z" fill="#333"/>
<path d="M3.75 33.9675V32.7095H0V36.4837H2.5V37.7417H0V38.9998H3.75V35.2256H1.25V33.9675H3.75Z" fill="#333"/>
<path d="M5 32.7095V33.9675H6.25V38.9998H7.5V33.9675H8.75V32.7095H5Z" fill="#333"/>
<path d="M15 32.7095H13.75V37.7417H11.25V32.7095H10V38.9998H15V32.7095Z" fill="#333"/>
<path fill-rule="evenodd" clip-rule="evenodd" d="M20 33.9675V32.7095H16.25V38.9998H20V37.7417H21.25V33.9675H20ZM20 33.9675V37.7417H17.5V33.9675H20Z" fill="#333"/>
<path d="M23.75 32.7095H22.5V38.9998H23.75V32.7095Z" fill="#333"/>
<path fill-rule="evenodd" clip-rule="evenodd" d="M30 32.7095V38.9998H25V32.7095H30ZM26.25 33.9675H28.75V37.7417H26.25V33.9675Z" fill="#333"/>
<path d="M15 17.6128V30.1934H21.25V23.9031H18.75V25.1612H20V28.9354H16.25V18.8709H21.25V17.6128H15Z" fill="#333"/>
<path fill-rule="evenodd" clip-rule="evenodd" d="M12.5 17.6128H6.25V30.1934H12.5V17.6128ZM11.25 18.8709H7.5V28.9354H11.25V18.8709Z" fill="#333"/>
<path d="M0 17.6128H1.25V28.9354H5V30.1934H0V17.6128Z" fill="#333"/>
<path d="M0 0H13.75V15.0968H11.25V2.51613H2.5V15.0968H0V0Z" fill="#333"/>
</g>
<path d="M51.6094 10.9297C51.6094 11.7969 51.3125 12.4648 50.7188 12.9336C50.1289 13.3984 49.2832 13.6309 48.1816 13.6309H47.1738V17H46.1777V8.43359H48.3984C50.5391 8.43359 51.6094 9.26562 51.6094 10.9297ZM47.1738 12.7754H48.0703C48.9531 12.7754 49.5918 12.6328 49.9863 12.3477C50.3809 12.0625 50.5781 11.6055 50.5781 10.9766C50.5781 10.4102 50.3926 9.98828 50.0215 9.71094C49.6504 9.43359 49.0723 9.29492 48.2871 9.29492H47.1738V12.7754ZM57.2109 17L57.0176 16.0859H56.9707C56.6504 16.4883 56.3301 16.7617 56.0098 16.9062C55.6934 17.0469 55.2969 17.1172 54.8203 17.1172C54.1836 17.1172 53.6836 16.9531 53.3203 16.625C52.9609 16.2969 52.7812 15.8301 52.7812 15.2246C52.7812 13.9277 53.8184 13.248 55.8926 13.1855L56.9824 13.1504V12.752C56.9824 12.248 56.873 11.877 56.6543 11.6387C56.4395 11.3965 56.0938 11.2754 55.6172 11.2754C55.082 11.2754 54.4766 11.4395 53.8008 11.7676L53.502 11.0234C53.8184 10.8516 54.1641 10.7168 54.5391 10.6191C54.918 10.5215 55.2969 10.4727 55.6758 10.4727C56.4414 10.4727 57.0078 10.6426 57.375 10.9824C57.7461 11.3223 57.9316 11.8672 57.9316 12.6172V17H57.2109ZM55.0137 16.3145C55.6191 16.3145 56.0938 16.1484 56.4375 15.8164C56.7852 15.4844 56.959 15.0195 56.959 14.4219V13.8418L55.9863 13.8828C55.2129 13.9102 54.6543 14.0312 54.3105 14.2461C53.9707 14.457 53.8008 14.7871 53.8008 15.2363C53.8008 15.5879 53.9062 15.8555 54.1172 16.0391C54.332 16.2227 54.6309 16.3145 55.0137 16.3145ZM61.166 13.2441C62.3809 13.2441 62.9883 12.9082 62.9883 12.2363C62.9883 11.6035 62.4961 11.2871 61.5117 11.2871C61.2109 11.2871 60.9375 11.3145 60.6914 11.3691C60.4453 11.4238 60.123 11.5332 59.7246 11.6973L59.3789 10.9062C60.043 10.6094 60.7676 10.4609 61.5527 10.4609C62.291 10.4609 62.873 10.6133 63.2988 10.918C63.7246 11.2188 63.9375 11.6309 63.9375 12.1543C63.9375 12.873 63.5371 13.3438 62.7363 13.5664V13.6133C63.2285 13.7578 63.5879 13.9648 63.8145 14.2344C64.041 14.5 64.1543 14.834 64.1543 15.2363C64.1543 15.8301 63.9141 16.293 63.4336 16.625C62.957 16.9531 62.2969 17.1172 61.4531 17.1172C60.5273 17.1172 59.8125 16.9785 59.3086 16.7012V15.8105C60.0234 16.1465 60.7461 16.3145 61.4766 16.3145C62.0391 16.3145 62.4629 16.2188 62.748 16.0273C63.0371 15.832 63.1816 15.5527 63.1816 15.1895C63.1816 14.4434 62.5742 14.0703 61.3594 14.0703H60.4688V13.2441H61.166ZM68.7305 17.1172C68.3125 17.1172 67.9297 17.041 67.582 16.8887C67.2383 16.7324 66.9492 16.4941 66.7148 16.1738H66.6445C66.6914 16.5488 66.7148 16.9043 66.7148 17.2402V19.8828H65.7422V10.5781H66.5332L66.668 11.457H66.7148C66.9648 11.1055 67.2559 10.8516 67.5879 10.6953C67.9199 10.5391 68.3008 10.4609 68.7305 10.4609C69.582 10.4609 70.2383 10.752 70.6992 11.334C71.1641 11.916 71.3965 12.7324 71.3965 13.7832C71.3965 14.8379 71.1602 15.6582 70.6875 16.2441C70.2188 16.8262 69.5664 17.1172 68.7305 17.1172ZM68.5898 11.2871C67.9336 11.2871 67.459 11.4688 67.166 11.832C66.873 12.1953 66.7227 12.7734 66.7148 13.5664V13.7832C66.7148 14.6855 66.8652 15.332 67.166 15.7227C67.4668 16.1094 67.9492 16.3027 68.6133 16.3027C69.168 16.3027 69.6016 16.0781 69.9141 15.6289C70.2305 15.1797 70.3887 14.5605 70.3887 13.7715C70.3887 12.9707 70.2305 12.3574 69.9141 11.9316C69.6016 11.502 69.1602 11.2871 68.5898 11.2871ZM77.0508 17L76.8574 16.0859H76.8105C76.4902 16.4883 76.1699 16.7617 75.8496 16.9062C75.5332 17.0469 75.1367 17.1172 74.6602 17.1172C74.0234 17.1172 73.5234 16.9531 73.1602 16.625C72.8008 16.2969 72.6211 15.8301 72.6211 15.2246C72.6211 13.9277 73.6582 13.248 75.7324 13.1855L76.8223 13.1504V12.752C76.8223 12.248 76.7129 11.877 76.4941 11.6387C76.2793 11.3965 75.9336 11.2754 75.457 11.2754C74.9219 11.2754 74.3164 11.4395 73.6406 11.7676L73.3418 11.0234C73.6582 10.8516 74.0039 10.7168 74.3789 10.6191C74.7578 10.5215 75.1367 10.4727 75.5156 10.4727C76.2812 10.4727 76.8477 10.6426 77.2148 10.9824C77.5859 11.3223 77.7715 11.8672 77.7715 12.6172V17H77.0508ZM74.8535 16.3145C75.459 16.3145 75.9336 16.1484 76.2773 15.8164C76.625 15.4844 76.7988 15.0195 76.7988 14.4219V13.8418L75.8262 13.8828C75.0527 13.9102 74.4941 14.0312 74.1504 14.2461C73.8105 14.457 73.6406 14.7871 73.6406 15.2363C73.6406 15.5879 73.7461 15.8555 73.957 16.0391C74.1719 16.2227 74.4707 16.3145 74.8535 16.3145ZM79.4473 13.1504C79.4473 11.7441 79.6543 10.6484 80.0684 9.86328C80.4824 9.07422 81.1387 8.58203 82.0371 8.38672C83.1543 8.14844 84.1387 7.95508 84.9902 7.80664L85.1719 8.66211C83.8164 8.88867 82.8477 9.06836 82.2656 9.20117C81.6992 9.33008 81.2734 9.63477 80.9883 10.1152C80.707 10.5957 80.5527 11.25 80.5254 12.0781H80.5957C80.8379 11.75 81.1504 11.4922 81.5332 11.3047C81.916 11.1172 82.3164 11.0234 82.7344 11.0234C83.5234 11.0234 84.1387 11.2793 84.5801 11.791C85.0215 12.3027 85.2422 13.0117 85.2422 13.918C85.2422 14.9219 84.9863 15.707 84.4746 16.2734C83.9629 16.8359 83.25 17.1172 82.3359 17.1172C81.4336 17.1172 80.7266 16.7715 80.2148 16.0801C79.7031 15.3887 79.4473 14.4121 79.4473 13.1504ZM82.4238 16.3027C83.6152 16.3027 84.2109 15.543 84.2109 14.0234C84.2109 12.5742 83.6699 11.8496 82.5879 11.8496C82.291 11.8496 82.0039 11.9121 81.7266 12.0371C81.4531 12.1582 81.2012 12.3203 80.9707 12.5234C80.7441 12.7266 80.5684 12.9355 80.4434 13.1504C80.4434 14.1777 80.6055 14.9609 80.9297 15.5C81.2539 16.0352 81.752 16.3027 82.4238 16.3027ZM92.4844 13.7832C92.4844 14.8301 92.2207 15.6484 91.6934 16.2383C91.166 16.8242 90.4375 17.1172 89.5078 17.1172C88.9336 17.1172 88.4238 16.9824 87.9785 16.7129C87.5332 16.4434 87.1895 16.0566 86.9473 15.5527C86.7051 15.0488 86.584 14.459 86.584 13.7832C86.584 12.7363 86.8457 11.9219 87.3691 11.3398C87.8926 10.7539 88.6191 10.4609 89.5488 10.4609C90.4473 10.4609 91.1602 10.7598 91.6875 11.3574C92.2188 11.9551 92.4844 12.7637 92.4844 13.7832ZM87.5918 13.7832C87.5918 14.6035 87.7559 15.2285 88.084 15.6582C88.4121 16.0879 88.8945 16.3027 89.5312 16.3027C90.168 16.3027 90.6504 16.0898 90.9785 15.6641C91.3105 15.2344 91.4766 14.6074 91.4766 13.7832C91.4766 12.9668 91.3105 12.3477 90.9785 11.9258C90.6504 11.5 90.1641 11.2871 89.5195 11.2871C88.8828 11.2871 88.4023 11.4961 88.0781 11.9141C87.7539 12.332 87.5918 12.9551 87.5918 13.7832ZM98.5254 11.4102H96.4395V17H95.4668V11.4102H93.4043V10.5781H98.5254V11.4102ZM103.541 10.5781H104.607L101.836 13.6777L104.836 17H103.699L100.77 13.748V17H99.7969V10.5781H100.77V13.7012L103.541 10.5781ZM109.98 17L109.787 16.0859H109.74C109.42 16.4883 109.1 16.7617 108.779 16.9062C108.463 17.0469 108.066 17.1172 107.59 17.1172C106.953 17.1172 106.453 16.9531 106.09 16.625C105.73 16.2969 105.551 15.8301 105.551 15.2246C105.551 13.9277 106.588 13.248 108.662 13.1855L109.752 13.1504V12.752C109.752 12.248 109.643 11.877 109.424 11.6387C109.209 11.3965 108.863 11.2754 108.387 11.2754C107.852 11.2754 107.246 11.4395 106.57 11.7676L106.271 11.0234C106.588 10.8516 106.934 10.7168 107.309 10.6191C107.688 10.5215 108.066 10.4727 108.445 10.4727C109.211 10.4727 109.777 10.6426 110.145 10.9824C110.516 11.3223 110.701 11.8672 110.701 12.6172V17H109.98ZM107.783 16.3145C108.389 16.3145 108.863 16.1484 109.207 15.8164C109.555 15.4844 109.729 15.0195 109.729 14.4219V13.8418L108.756 13.8828C107.982 13.9102 107.424 14.0312 107.08 14.2461C106.74 14.457 106.57 14.7871 106.57 15.2363C106.57 15.5879 106.676 15.8555 106.887 16.0391C107.102 16.2227 107.4 16.3145 107.783 16.3145ZM118.395 17.1172C117.465 17.1172 116.744 16.832 116.232 16.2617C115.725 15.6875 115.471 14.877 115.471 13.8301C115.471 12.7559 115.729 11.9258 116.244 11.3398C116.764 10.7539 117.502 10.4609 118.459 10.4609C118.768 10.4609 119.076 10.4941 119.385 10.5605C119.693 10.627 119.936 10.7051 120.111 10.7949L119.812 11.6211C119.598 11.5352 119.363 11.4648 119.109 11.4102C118.855 11.3516 118.631 11.3223 118.436 11.3223C117.131 11.3223 116.479 12.1543 116.479 13.8184C116.479 14.6074 116.637 15.2129 116.953 15.6348C117.273 16.0566 117.746 16.2676 118.371 16.2676C118.906 16.2676 119.455 16.1523 120.018 15.9219V16.7832C119.588 17.0059 119.047 17.1172 118.395 17.1172ZM125.496 17L125.303 16.0859H125.256C124.936 16.4883 124.615 16.7617 124.295 16.9062C123.979 17.0469 123.582 17.1172 123.105 17.1172C122.469 17.1172 121.969 16.9531 121.605 16.625C121.246 16.2969 121.066 15.8301 121.066 15.2246C121.066 13.9277 122.104 13.248 124.178 13.1855L125.268 13.1504V12.752C125.268 12.248 125.158 11.877 124.939 11.6387C124.725 11.3965 124.379 11.2754 123.902 11.2754C123.367 11.2754 122.762 11.4395 122.086 11.7676L121.787 11.0234C122.104 10.8516 122.449 10.7168 122.824 10.6191C123.203 10.5215 123.582 10.4727 123.961 10.4727C124.727 10.4727 125.293 10.6426 125.66 10.9824C126.031 11.3223 126.217 11.8672 126.217 12.6172V17H125.496ZM123.299 16.3145C123.904 16.3145 124.379 16.1484 124.723 15.8164C125.07 15.4844 125.244 15.0195 125.244 14.4219V13.8418L124.271 13.8828C123.498 13.9102 122.939 14.0312 122.596 14.2461C122.256 14.457 122.086 14.7871 122.086 15.2363C122.086 15.5879 122.191 15.8555 122.402 16.0391C122.617 16.2227 122.916 16.3145 123.299 16.3145ZM129.141 10.5781V14.6504L129.1 15.7168L129.082 16.0508L132.557 10.5781H133.77V17H132.861V13.0742L132.879 12.3008L132.908 11.5391L129.439 17H128.227V10.5781H129.141ZM130.975 9.72852C130.252 9.72852 129.725 9.58984 129.393 9.3125C129.061 9.03125 128.875 8.57031 128.836 7.92969H129.75C129.785 8.33594 129.891 8.61914 130.066 8.7793C130.246 8.93945 130.557 9.01953 130.998 9.01953C131.4 9.01953 131.697 8.93359 131.889 8.76172C132.084 8.58984 132.203 8.3125 132.246 7.92969H133.166C133.119 8.54688 132.922 9.00195 132.574 9.29492C132.227 9.58398 131.693 9.72852 130.975 9.72852ZM140.162 11.4102H138.076V17H137.104V11.4102H135.041V10.5781H140.162V11.4102ZM145.383 17L145.189 16.0859H145.143C144.822 16.4883 144.502 16.7617 144.182 16.9062C143.865 17.0469 143.469 17.1172 142.992 17.1172C142.355 17.1172 141.855 16.9531 141.492 16.625C141.133 16.2969 140.953 15.8301 140.953 15.2246C140.953 13.9277 141.99 13.248 144.064 13.1855L145.154 13.1504V12.752C145.154 12.248 145.045 11.877 144.826 11.6387C144.611 11.3965 144.266 11.2754 143.789 11.2754C143.254 11.2754 142.648 11.4395 141.973 11.7676L141.674 11.0234C141.99 10.8516 142.336 10.7168 142.711 10.6191C143.09 10.5215 143.469 10.4727 143.848 10.4727C144.613 10.4727 145.18 10.6426 145.547 10.9824C145.918 11.3223 146.104 11.8672 146.104 12.6172V17H145.383ZM143.186 16.3145C143.791 16.3145 144.266 16.1484 144.609 15.8164C144.957 15.4844 145.131 15.0195 145.131 14.4219V13.8418L144.158 13.8828C143.385 13.9102 142.826 14.0312 142.482 14.2461C142.143 14.457 141.973 14.7871 141.973 15.2363C141.973 15.5879 142.078 15.8555 142.289 16.0391C142.504 16.2227 142.803 16.3145 143.186 16.3145ZM147.973 16.3789C147.973 16.1172 148.031 15.9199 148.148 15.7871C148.27 15.6504 148.441 15.582 148.664 15.582C148.891 15.582 149.066 15.6504 149.191 15.7871C149.32 15.9199 149.385 16.1172 149.385 16.3789C149.385 16.6328 149.32 16.8281 149.191 16.9648C149.062 17.1016 148.887 17.1699 148.664 17.1699C148.465 17.1699 148.299 17.1094 148.166 16.9883C148.037 16.8633 147.973 16.6602 147.973 16.3789ZM147.973 11.2051C147.973 10.6777 148.203 10.4141 148.664 10.4141C149.145 10.4141 149.385 10.6777 149.385 11.2051C149.385 11.459 149.32 11.6543 149.191 11.791C149.062 11.9277 148.887 11.9961 148.664 11.9961C148.465 11.9961 148.299 11.9355 148.166 11.8145C148.037 11.6895 147.973 11.4863 147.973 11.2051ZM50.4258 33V28.8457C50.4258 28.3223 50.3066 27.9316 50.0684 27.6738C49.8301 27.416 49.457 27.2871 48.9492 27.2871C48.2773 27.2871 47.7852 27.4688 47.4727 27.832C47.1602 28.1953 47.0039 28.7949 47.0039 29.6309V33H46.0312V26.5781H46.8223L46.9805 27.457H47.0273C47.2266 27.1406 47.5059 26.8965 47.8652 26.7246C48.2246 26.5488 48.625 26.4609 49.0664 26.4609C49.8398 26.4609 50.4219 26.6484 50.8125 27.0234C51.2031 27.3945 51.3984 27.9902 51.3984 28.8105V33H50.4258ZM58.9453 29.7832C58.9453 30.8301 58.6816 31.6484 58.1543 32.2383C57.627 32.8242 56.8984 33.1172 55.9688 33.1172C55.3945 33.1172 54.8848 32.9824 54.4395 32.7129C53.9941 32.4434 53.6504 32.0566 53.4082 31.5527C53.166 31.0488 53.0449 30.459 53.0449 29.7832C53.0449 28.7363 53.3066 27.9219 53.8301 27.3398C54.3535 26.7539 55.0801 26.4609 56.0098 26.4609C56.9082 26.4609 57.6211 26.7598 58.1484 27.3574C58.6797 27.9551 58.9453 28.7637 58.9453 29.7832ZM54.0527 29.7832C54.0527 30.6035 54.2168 31.2285 54.5449 31.6582C54.873 32.0879 55.3555 32.3027 55.9922 32.3027C56.6289 32.3027 57.1113 32.0898 57.4395 31.6641C57.7715 31.2344 57.9375 30.6074 57.9375 29.7832C57.9375 28.9668 57.7715 28.3477 57.4395 27.9258C57.1113 27.5 56.625 27.2871 55.9805 27.2871C55.3438 27.2871 54.8633 27.4961 54.5391 27.9141C54.2148 28.332 54.0527 28.9551 54.0527 29.7832ZM61.6289 33H60.6562V23.8828H61.6289V33ZM69.2344 29.7832C69.2344 30.8301 68.9707 31.6484 68.4434 32.2383C67.916 32.8242 67.1875 33.1172 66.2578 33.1172C65.6836 33.1172 65.1738 32.9824 64.7285 32.7129C64.2832 32.4434 63.9395 32.0566 63.6973 31.5527C63.4551 31.0488 63.334 30.459 63.334 29.7832C63.334 28.7363 63.5957 27.9219 64.1191 27.3398C64.6426 26.7539 65.3691 26.4609 66.2988 26.4609C67.1973 26.4609 67.9102 26.7598 68.4375 27.3574C68.9688 27.9551 69.2344 28.7637 69.2344 29.7832ZM64.3418 29.7832C64.3418 30.6035 64.5059 31.2285 64.834 31.6582C65.1621 32.0879 65.6445 32.3027 66.2812 32.3027C66.918 32.3027 67.4004 32.0898 67.7285 31.6641C68.0605 31.2344 68.2266 30.6074 68.2266 29.7832C68.2266 28.9668 68.0605 28.3477 67.7285 27.9258C67.4004 27.5 66.9141 27.2871 66.2695 27.2871C65.6328 27.2871 65.1523 27.4961 64.8281 27.9141C64.5039 28.332 64.3418 28.9551 64.3418 29.7832ZM76.2012 26.5781V27.1934L75.0117 27.334C75.1211 27.4707 75.2188 27.6504 75.3047 27.873C75.3906 28.0918 75.4336 28.3398 75.4336 28.6172C75.4336 29.2461 75.2188 29.748 74.7891 30.123C74.3594 30.498 73.7695 30.6855 73.0195 30.6855C72.8281 30.6855 72.6484 30.6699 72.4805 30.6387C72.0664 30.8574 71.8594 31.1328 71.8594 31.4648C71.8594 31.6406 71.9316 31.7715 72.0762 31.8574C72.2207 31.9395 72.4688 31.9805 72.8203 31.9805H73.957C74.6523 31.9805 75.1855 32.127 75.5566 32.4199C75.9316 32.7129 76.1191 33.1387 76.1191 33.6973C76.1191 34.4082 75.834 34.9492 75.2637 35.3203C74.6934 35.6953 73.8613 35.8828 72.7676 35.8828C71.9277 35.8828 71.2793 35.7266 70.8223 35.4141C70.3691 35.1016 70.1426 34.6602 70.1426 34.0898C70.1426 33.6992 70.2676 33.3613 70.5176 33.0762C70.7676 32.791 71.1191 32.5977 71.5723 32.4961C71.4082 32.4219 71.2695 32.3066 71.1562 32.1504C71.0469 31.9941 70.9922 31.8125 70.9922 31.6055C70.9922 31.3711 71.0547 31.166 71.1797 30.9902C71.3047 30.8145 71.502 30.6445 71.7715 30.4805C71.4395 30.3438 71.168 30.1113 70.957 29.7832C70.75 29.4551 70.6465 29.0801 70.6465 28.6582C70.6465 27.9551 70.8574 27.4141 71.2793 27.0352C71.7012 26.6523 72.2988 26.4609 73.0723 26.4609C73.4082 26.4609 73.7109 26.5 73.9805 26.5781H76.2012ZM71.0801 34.0781C71.0801 34.4258 71.2266 34.6895 71.5195 34.8691C71.8125 35.0488 72.2324 35.1387 72.7793 35.1387C73.5957 35.1387 74.1992 35.0156 74.5898 34.7695C74.9844 34.5273 75.1816 34.1973 75.1816 33.7793C75.1816 33.4316 75.0742 33.1895 74.8594 33.0527C74.6445 32.9199 74.2402 32.8535 73.6465 32.8535H72.4805C72.0391 32.8535 71.6953 32.959 71.4492 33.1699C71.2031 33.3809 71.0801 33.6836 71.0801 34.0781ZM71.6074 28.6348C71.6074 29.084 71.7344 29.4238 71.9883 29.6543C72.2422 29.8848 72.5957 30 73.0488 30C73.998 30 74.4727 29.5391 74.4727 28.6172C74.4727 27.6523 73.9922 27.1699 73.0312 27.1699C72.5742 27.1699 72.2227 27.293 71.9766 27.5391C71.7305 27.7852 71.6074 28.1504 71.6074 28.6348ZM83.0625 29.7832C83.0625 30.8301 82.7988 31.6484 82.2715 32.2383C81.7441 32.8242 81.0156 33.1172 80.0859 33.1172C79.5117 33.1172 79.002 32.9824 78.5566 32.7129C78.1113 32.4434 77.7676 32.0566 77.5254 31.5527C77.2832 31.0488 77.1621 30.459 77.1621 29.7832C77.1621 28.7363 77.4238 27.9219 77.9473 27.3398C78.4707 26.7539 79.1973 26.4609 80.127 26.4609C81.0254 26.4609 81.7383 26.7598 82.2656 27.3574C82.7969 27.9551 83.0625 28.7637 83.0625 29.7832ZM78.1699 29.7832C78.1699 30.6035 78.334 31.2285 78.6621 31.6582C78.9902 32.0879 79.4727 32.3027 80.1094 32.3027C80.7461 32.3027 81.2285 32.0898 81.5566 31.6641C81.8887 31.2344 82.0547 30.6074 82.0547 29.7832C82.0547 28.9668 81.8887 28.3477 81.5566 27.9258C81.2285 27.5 80.7422 27.2871 80.0977 27.2871C79.4609 27.2871 78.9805 27.4961 78.6562 27.9141C78.332 28.332 78.1699 28.9551 78.1699 29.7832ZM88.916 31.248C88.916 31.8457 88.6934 32.3066 88.248 32.6309C87.8027 32.9551 87.1777 33.1172 86.373 33.1172C85.5215 33.1172 84.8574 32.9824 84.3809 32.7129V31.8105C84.6895 31.9668 85.0195 32.0898 85.3711 32.1797C85.7266 32.2695 86.0684 32.3145 86.3965 32.3145C86.9043 32.3145 87.2949 32.2344 87.5684 32.0742C87.8418 31.9102 87.9785 31.6621 87.9785 31.3301C87.9785 31.0801 87.8691 30.8672 87.6504 30.6914C87.4355 30.5117 87.0137 30.3008 86.3848 30.0586C85.7871 29.8359 85.3613 29.6426 85.1074 29.4785C84.8574 29.3105 84.6699 29.1211 84.5449 28.9102C84.4238 28.6992 84.3633 28.4473 84.3633 28.1543C84.3633 27.6309 84.5762 27.2188 85.002 26.918C85.4277 26.6133 86.0117 26.4609 86.7539 26.4609C87.4453 26.4609 88.1211 26.6016 88.7812 26.8828L88.4355 27.6738C87.791 27.4082 87.207 27.2754 86.6836 27.2754C86.2227 27.2754 85.875 27.3477 85.6406 27.4922C85.4062 27.6367 85.2891 27.8359 85.2891 28.0898C85.2891 28.2617 85.332 28.4082 85.418 28.5293C85.5078 28.6504 85.6504 28.7656 85.8457 28.875C86.041 28.9844 86.416 29.1426 86.9707 29.3496C87.7324 29.627 88.2461 29.9062 88.5117 30.1875C88.7812 30.4688 88.916 30.8223 88.916 31.248ZM92.5781 32.3145C92.75 32.3145 92.916 32.3027 93.0762 32.2793C93.2363 32.252 93.3633 32.2246 93.457 32.1973V32.9414C93.3516 32.9922 93.1953 33.0332 92.9883 33.0645C92.7852 33.0996 92.6016 33.1172 92.4375 33.1172C91.1953 33.1172 90.5742 32.4629 90.5742 31.1543V27.334H89.6543V26.8652L90.5742 26.4609L90.9844 25.0898H91.5469V26.5781H93.4102V27.334H91.5469V31.1133C91.5469 31.5 91.6387 31.7969 91.8223 32.0039C92.0059 32.2109 92.2578 32.3145 92.5781 32.3145ZM95.6602 26.5781V30.7441C95.6602 31.2676 95.7793 31.6582 96.0176 31.916C96.2559 32.1738 96.6289 32.3027 97.1367 32.3027C97.8086 32.3027 98.2988 32.1191 98.6074 31.752C98.9199 31.3848 99.0762 30.7852 99.0762 29.9531V26.5781H100.049V33H99.2461L99.1055 32.1387H99.0527C98.8535 32.4551 98.5762 32.6973 98.2207 32.8652C97.8691 33.0332 97.4668 33.1172 97.0137 33.1172C96.2324 33.1172 95.6465 32.9316 95.2559 32.5605C94.8691 32.1895 94.6758 31.5957 94.6758 30.7793V26.5781H95.6602ZM106.488 32.1387H106.436C105.986 32.791 105.314 33.1172 104.42 33.1172C103.58 33.1172 102.926 32.8301 102.457 32.2559C101.992 31.6816 101.76 30.8652 101.76 29.8066C101.76 28.748 101.994 27.9258 102.463 27.3398C102.932 26.7539 103.584 26.4609 104.42 26.4609C105.291 26.4609 105.959 26.7773 106.424 27.4102H106.5L106.459 26.9473L106.436 26.4961V23.8828H107.408V33H106.617L106.488 32.1387ZM104.543 32.3027C105.207 32.3027 105.688 32.123 105.984 31.7637C106.285 31.4004 106.436 30.8164 106.436 30.0117V29.8066C106.436 28.8965 106.283 28.248 105.979 27.8613C105.678 27.4707 105.195 27.2754 104.531 27.2754C103.961 27.2754 103.523 27.498 103.219 27.9434C102.918 28.3848 102.768 29.0098 102.768 29.8184C102.768 30.6387 102.918 31.2578 103.219 31.6758C103.52 32.0938 103.961 32.3027 104.543 32.3027ZM110.449 33H109.477V26.5781H110.449V33ZM109.395 24.8379C109.395 24.6152 109.449 24.4531 109.559 24.3516C109.668 24.2461 109.805 24.1934 109.969 24.1934C110.125 24.1934 110.26 24.2461 110.373 24.3516C110.486 24.457 110.543 24.6191 110.543 24.8379C110.543 25.0566 110.486 25.2207 110.373 25.3301C110.26 25.4355 110.125 25.4883 109.969 25.4883C109.805 25.4883 109.668 25.4355 109.559 25.3301C109.449 25.2207 109.395 25.0566 109.395 24.8379ZM118.055 29.7832C118.055 30.8301 117.791 31.6484 117.264 32.2383C116.736 32.8242 116.008 33.1172 115.078 33.1172C114.504 33.1172 113.994 32.9824 113.549 32.7129C113.104 32.4434 112.76 32.0566 112.518 31.5527C112.275 31.0488 112.154 30.459 112.154 29.7832C112.154 28.7363 112.416 27.9219 112.939 27.3398C113.463 26.7539 114.189 26.4609 115.119 26.4609C116.018 26.4609 116.73 26.7598 117.258 27.3574C117.789 27.9551 118.055 28.7637 118.055 29.7832ZM113.162 29.7832C113.162 30.6035 113.326 31.2285 113.654 31.6582C113.982 32.0879 114.465 32.3027 115.102 32.3027C115.738 32.3027 116.221 32.0898 116.549 31.6641C116.881 31.2344 117.047 30.6074 117.047 29.7832C117.047 28.9668 116.881 28.3477 116.549 27.9258C116.221 27.5 115.734 27.2871 115.09 27.2871C114.453 27.2871 113.973 27.4961 113.648 27.9141C113.324 28.332 113.162 28.9551 113.162 29.7832ZM119.625 32.3789C119.625 32.1172 119.684 31.9199 119.801 31.7871C119.922 31.6504 120.094 31.582 120.316 31.582C120.543 31.582 120.719 31.6504 120.844 31.7871C120.973 31.9199 121.037 32.1172 121.037 32.3789C121.037 32.6328 120.973 32.8281 120.844 32.9648C120.715 33.1016 120.539 33.1699 120.316 33.1699C120.117 33.1699 119.951 33.1094 119.818 32.9883C119.689 32.8633 119.625 32.6602 119.625 32.3789ZM125.895 26.4609C126.18 26.4609 126.436 26.4844 126.662 26.5312L126.527 27.4336C126.262 27.375 126.027 27.3457 125.824 27.3457C125.305 27.3457 124.859 27.5566 124.488 27.9785C124.121 28.4004 123.938 28.9258 123.938 29.5547V33H122.965V26.5781H123.768L123.879 27.7676H123.926C124.164 27.3496 124.451 27.0273 124.787 26.8008C125.123 26.5742 125.492 26.4609 125.895 26.4609ZM128.777 26.5781V30.7441C128.777 31.2676 128.896 31.6582 129.135 31.916C129.373 32.1738 129.746 32.3027 130.254 32.3027C130.926 32.3027 131.416 32.1191 131.725 31.752C132.037 31.3848 132.193 30.7852 132.193 29.9531V26.5781H133.166V33H132.363L132.223 32.1387H132.17C131.971 32.4551 131.693 32.6973 131.338 32.8652C130.986 33.0332 130.584 33.1172 130.131 33.1172C129.35 33.1172 128.764 32.9316 128.373 32.5605C127.986 32.1895 127.793 31.5957 127.793 30.7793V26.5781H128.777Z" fill="#333"/>
<defs>
<clipPath id="clip0">
<rect width="30" height="39" fill="333"/>
</clipPath>
</defs>
</symbol>
</svg>
