<svg display="none" xmlns="http://www.w3.org/2000/svg">
<symbol id="icon-videos-slider-prev" viewBox="0 0 40 40" >
<path d="M20 0C8.97219 0 0 8.97219 0 20C0 31.0278 8.97219 40 20 40C31.0278 40 40 31.0278 40 20C40 8.97219 31.0278 0 20 0ZM31.6666 20.8334C31.6666 21.294 31.2939 21.6667 30.8333 21.6667H13.6784L17.2559 25.2442C17.4121 25.4005 17.5 25.612 17.5 25.8334V27.5C17.5 27.837 17.2973 28.1413 16.9857 28.2698C16.6732 28.4001 16.3159 28.3277 16.0775 28.0891L8.5775 20.5891C8.25195 20.2636 8.25195 19.7362 8.5775 19.4108L16.0775 11.9108C16.237 11.7512 16.4502 11.6666 16.6667 11.6666C16.7741 11.6666 16.8823 11.687 16.9857 11.7302C17.2974 11.8587 17.5 12.1631 17.5 12.5V14.1666C17.5 14.388 17.4121 14.5996 17.2559 14.7559L13.6784 18.3334H30.8333C31.2939 18.3334 31.6666 18.7061 31.6666 19.1667V20.8334Z" fill="#828282"/>
</symbol>
</svg>



