<svg width="30" height="30" viewBox="0 0 30 30" fill="none" xmlns="http://www.w3.org/2000/svg">
<symbol id="icon-telegram" viewBox="0 0 30 30">
<path d="M20.8178 9.86764L9.81379 16.6924C9.62005 16.8126 9.53191 17.0485 9.59952 17.2663L11.0756 22.0226C11.1066 22.1225 11.2522 22.1087 11.2639 22.0047L11.6227 18.8155C11.6365 18.6922 11.6956 18.5786 11.7885 18.4964L21.1069 10.2562C21.33 10.059 21.0709 9.71064 20.8178 9.86764Z" fill="#FF7300"/>
<path d="M0 0V30H30V0H0ZM25.007 7.79526L21.5819 24.1707C21.4211 24.9391 20.5199 25.2843 19.887 24.8197L14.7156 21.0237L12.0799 23.7148C11.6173 24.1872 10.8182 23.996 10.6195 23.3654L8.71698 17.3286L3.61917 15.8232C2.95036 15.6257 2.91093 14.6933 3.56072 14.44L23.6221 6.62233C24.3857 6.32478 25.1748 6.99307 25.007 7.79526Z" fill="#FF7300"/>
</symbol>
</svg>
