<svg display="none" xmlns="http://www.w3.org/2000/svg">
<symbol id="icon-vimeo" viewBox="0 0 40 40">
<path d="M31.7548 10.6131C27.6236 7.199 22.1363 11.8646 20.8457 15.6025C21.6415 15.6162 22.5521 15.5335 23.2347 15.7928C24.2886 16.3629 24.3033 17.4619 24.2283 18.3932C23.7584 20.4541 22.2981 24.2041 20.4228 24.5032C20.0282 24.5455 19.6195 24.327 19.1967 23.8478C17.5578 21.7949 17.7609 19.0943 17.3785 16.8288C17.0207 14.9334 16.751 11.108 14.5032 10.2749C12.0275 9.97253 9.85337 11.8173 8.2664 13.277C7.29387 14.179 6.30023 15.0388 5.28543 15.8563V16.0254C5.52687 16.3157 5.72253 16.6117 5.94083 16.8922C6.31127 17.265 6.98713 17.1737 7.3996 17.0402C8.89943 16.6502 9.4266 16.268 10.2326 17.6956C11.4472 20.9792 12.3668 24.6799 13.1713 27.8224C13.7335 29.6148 14.475 31.904 16.2791 32.6427C17.3937 33.1163 19.3164 32.4798 20.1691 31.9662C23.8184 29.6607 26.6423 25.9718 28.6681 22.4101C30.147 19.4091 33.824 13.4385 31.7548 10.6131ZM40 0V40H0V0H40Z" />
</symbol>
</svg>
