<svg display="none" xmlns="http://www.w3.org/2000/svg">
<symbol id="icon-mail" viewBox="0 0 30 30">
<g clip-path="url(#clip0)">
<path d="M27.8364 0H2.16362C0.968628 0 0 0.968628 0 2.16362V27.8364C0 29.0314 0.968628 30 2.16362 30H27.8364C29.0314 30 30 29.0314 30 27.8364V2.16362C30 0.968628 29.0314 0 27.8364 0ZM10.6412 22.6758H6.98799V11.6851H10.6412V22.6758ZM8.8147 10.1843H8.79089C7.565 10.1843 6.77216 9.34044 6.77216 8.28575C6.77216 7.20726 7.58926 6.38672 8.83896 6.38672C10.0887 6.38672 10.8577 7.20726 10.8815 8.28575C10.8815 9.34044 10.0887 10.1843 8.8147 10.1843ZM23.8138 22.6758H20.1611V16.796C20.1611 15.3184 19.6321 14.3106 18.3103 14.3106C17.3012 14.3106 16.7001 14.9904 16.436 15.6466C16.3394 15.8814 16.3158 16.2096 16.3158 16.5381V22.6758H12.6629C12.6629 22.6758 12.7107 12.7162 12.6629 11.6851H16.3158V13.2413C16.8013 12.4924 17.6699 11.4272 19.6081 11.4272C22.0116 11.4272 23.8138 12.998 23.8138 16.3737V22.6758Z" fill="#FF7300"/>
<rect x="5" y="5" width="20" height="21" fill="#FF7300"/>
<path d="M5.41697 8.71703C8.16189 11.0417 12.9784 15.1314 14.394 16.4066C14.584 16.5788 14.7879 16.6663 14.9995 16.6663C15.2106 16.6663 15.4141 16.5796 15.6037 16.4083C17.0206 15.1318 21.837 11.0417 24.582 8.71703C24.7529 8.57258 24.779 8.31867 24.6406 8.14207C24.3208 7.73398 23.8439 7.5 23.3328 7.5H6.66615C6.15509 7.5 5.67818 7.73398 5.35837 8.14211C5.22001 8.31867 5.24607 8.57258 5.41697 8.71703Z" fill="white"/>
<path d="M24.7586 9.9768C24.6109 9.90805 24.4371 9.93203 24.3142 10.037C22.5166 11.5609 20.148 13.5742 18.3617 15.1107C18.2677 15.1912 18.2148 15.3096 18.2169 15.4337C18.2189 15.5575 18.2763 15.6742 18.3731 15.7515C20.0329 17.0809 22.5341 18.9095 24.3403 20.2091C24.4123 20.2612 24.4978 20.2876 24.5836 20.2876C24.6487 20.2876 24.7138 20.2726 24.7737 20.2417C24.9128 20.1705 25.0003 20.0272 25.0003 19.871V10.3548C25.0003 10.1925 24.9059 10.0448 24.7586 9.9768Z" fill="white"/>
<path d="M5.66 20.2091C7.46664 18.9095 9.96828 17.0809 11.6276 15.7515C11.7245 15.6742 11.7818 15.5574 11.7839 15.4338C11.7859 15.3096 11.733 15.1913 11.639 15.1107C9.8527 13.5742 7.48371 11.5609 5.68605 10.037C5.56234 9.93203 5.3882 9.90887 5.24172 9.97679C5.09441 10.0448 5 10.1925 5 10.3548V19.871C5 20.0273 5.0875 20.1705 5.22664 20.2417C5.28645 20.2727 5.35156 20.2877 5.41668 20.2877C5.50254 20.2877 5.58797 20.2613 5.66 20.2091Z" fill="white"/>
<path d="M24.4904 21.3428C22.746 20.0948 19.5327 17.7682 17.6146 16.2113C17.4583 16.084 17.2321 16.088 17.0783 16.2207C16.7019 16.5491 16.3869 16.8258 16.1635 17.0268C15.4775 17.6461 14.5253 17.6461 13.8377 17.0259C13.6151 16.8254 13.3002 16.5478 12.9238 16.2207C12.7712 16.0872 12.5446 16.0831 12.3879 16.2113C10.4762 17.7628 7.25928 20.0923 5.51205 21.3427C5.41478 21.4127 5.35213 21.5206 5.33994 21.6398C5.32814 21.759 5.3676 21.8774 5.44939 21.9653C5.76478 22.3051 6.20912 22.5 6.66771 22.5H23.3344C23.793 22.5 24.2369 22.3051 24.5531 21.9653C24.6344 21.8778 24.6743 21.7594 24.6625 21.6402C24.6503 21.521 24.5876 21.4128 24.4904 21.3428Z" fill="white"/>
</g>
<defs>
<clipPath id="clip0">
<rect width="30" height="30" fill="white"/>
</clipPath>
</defs>
</symbol>
</svg>
