<svg id="icon-brochure" viewBox="0 0 40 40" fill="none" xmlns="http://www.w3.org/2000/svg">
<g clip-path="url(#clip0)">
<path d="M0.309469 39.2652C0.407462 39.3228 0.519262 39.3531 0.633082 39.3531C0.731075 39.3531 0.827721 39.3299 0.915275 39.2854L13.6466 32.7017L25.956 39.2817C26.1308 39.375 26.3402 39.3767 26.5164 39.2864L39.6521 32.5569C39.8582 32.4559 39.9919 32.2495 40 32.0201V1.29209C39.9909 1.07926 39.8747 0.885635 39.6915 0.777203C39.508 0.668771 39.2824 0.660689 39.0915 0.755314L26.2503 7.34139L13.9369 0.862736C13.7631 0.771478 13.556 0.770131 13.3809 0.859032L0.349879 7.48383C0.14278 7.58452 0.00841864 7.79128 0 8.02161V38.7497C0.00774516 38.9632 0.124596 39.1578 0.309469 39.2652ZM25.6034 37.7115L14.2241 31.6538V2.39156L25.6034 8.35465V37.7115ZM38.7931 31.6517L26.8103 37.7916V8.41998L38.7931 2.2801V31.6517ZM1.2069 8.39136L13.0172 2.38584V31.6575L1.2069 37.7579V8.39136Z" fill="#DE8348"/>
<path d="M29.2221 14.5813C29.3178 14.5813 29.4121 14.5584 29.4973 14.5146L36.8191 10.7579C37.0131 10.6605 37.1397 10.4669 37.1512 10.2504C37.1626 10.0335 37.0569 9.82776 36.8744 9.71057C36.6918 9.59339 36.4605 9.58328 36.2682 9.68397L28.9463 13.4411C28.6982 13.568 28.5695 13.8489 28.6352 14.1199C28.7005 14.3907 28.9433 14.5816 29.2221 14.5813Z" fill="#DE8348"/>
<path d="M29.2185 18.8353C29.3142 18.8349 29.4085 18.8124 29.4937 18.7682L36.8155 15.0115C37.0095 14.9142 37.1361 14.7206 37.1476 14.504C37.159 14.2875 37.0533 14.0814 36.8708 13.9642C36.6882 13.847 36.4569 13.8369 36.2646 13.9376L28.9427 17.6947C28.6946 17.8217 28.5656 18.1025 28.6313 18.3736C28.6969 18.6447 28.9397 18.8356 29.2185 18.8353Z" fill="#DE8348"/>
<path d="M36.2653 18.1921L28.9434 21.9488C28.7505 22.0468 28.6249 22.2401 28.6141 22.4559C28.603 22.6718 28.7084 22.8772 28.8902 22.9941C29.0717 23.1113 29.3024 23.122 29.4943 23.0227L36.8162 19.2656C37.0102 19.1686 37.1368 18.9747 37.1482 18.7581C37.1597 18.5416 37.054 18.3355 36.8714 18.2183C36.6889 18.1011 36.4576 18.091 36.2653 18.1921Z" fill="#DE8348"/>
<path d="M10.4521 19.9784L3.1299 23.7355C2.93728 23.8335 2.81167 24.0268 2.80056 24.2427C2.78978 24.4588 2.89485 24.6639 3.07669 24.7811C3.25853 24.898 3.48921 24.9087 3.68115 24.8094L11.003 21.0523C11.1956 20.9543 11.3216 20.761 11.3323 20.5452C11.3435 20.3293 11.2381 20.1239 11.0562 20.0071C10.8744 19.8899 10.644 19.8791 10.4521 19.9784Z" fill="#DE8348"/>
<path d="M10.4521 24.2329L3.1299 27.9896C2.93728 28.0876 2.81167 28.2809 2.80056 28.4971C2.78978 28.7129 2.89485 28.918 3.07669 29.0352C3.25853 29.1521 3.48921 29.1628 3.68115 29.0635L11.003 25.3064C11.1956 25.2088 11.3216 25.0151 11.3323 24.7993C11.3435 24.5834 11.2381 24.378 11.0562 24.2612C10.8744 24.144 10.644 24.1332 10.4521 24.2329Z" fill="#DE8348"/>
<path d="M23.6687 17.8657L16.8964 14.3016C16.602 14.1501 16.2404 14.2642 16.0862 14.5572C15.9319 14.8502 16.0427 15.2128 16.3343 15.3698L23.1066 18.9335C23.2976 19.0363 23.5289 19.0285 23.7128 18.9133C23.8967 18.7982 24.0044 18.5934 23.9953 18.3769C23.9862 18.16 23.8613 17.9651 23.6687 17.8657Z" fill="#DE8348"/>
<path d="M16.3342 10.2646L23.1065 13.8284C23.2975 13.9311 23.5288 13.9234 23.7127 13.8082C23.8965 13.6931 24.0043 13.4883 23.9952 13.2715C23.9861 13.0549 23.8612 12.8596 23.6686 12.7606L16.8962 9.19649C16.6013 9.04125 16.2366 9.15473 16.0813 9.44939C15.9261 9.74437 16.0392 10.1094 16.3342 10.2646Z" fill="#DE8348"/>
<path d="M11.0242 8.08875C10.8481 7.97898 10.6276 7.97089 10.4437 8.06687L3.14743 11.8236C2.95245 11.93 2.83493 12.1385 2.84537 12.3604V17.4654C2.83729 17.6725 2.93898 17.8685 3.11308 17.9803C3.204 18.0382 3.30974 18.0689 3.4175 18.0689C3.51145 18.0689 3.60406 18.046 3.68757 18.0025L10.9875 14.2455C11.1839 14.1397 11.3024 13.9313 11.2936 13.7087V8.60364C11.3011 8.39654 11.1987 8.20055 11.0242 8.08875ZM10.0867 13.34L4.05227 16.4774V12.7291L10.0867 9.59131V13.34Z" fill="#DE8348"/>
<path d="M23.6559 23.8214L16.89 20.2573C16.7082 20.159 16.488 20.1657 16.3125 20.2748C16.1351 20.3856 16.0297 20.5822 16.0354 20.7914V26.7474C16.0307 26.9693 16.1502 27.1754 16.3459 27.2811L23.1118 30.8452C23.1973 30.8907 23.2929 30.9146 23.3899 30.9146C23.4956 30.9146 23.599 30.8843 23.6883 30.8277C23.8661 30.7169 23.9718 30.5203 23.9664 30.3112V24.3551C23.9711 24.1332 23.8516 23.9271 23.6559 23.8214ZM22.7595 29.3117L17.2423 26.383V21.7908L22.7595 24.7195V29.3117Z" fill="#DE8348"/>
</g>
<defs>
<clipPath id="clip0">
<rect width="40" height="40" fill="white"/>
</clipPath>
</defs>
</svg>

