<svg display="none" xmlns="http://www.w3.org/2000/svg">
<symbol id="icon-bucket" viewBox="0 0 20 20">
<g clip-path="url(#clip0)">
<path d="M12.7594 7.24603C12.5007 7.24603 12.291 7.45571 12.291 7.71442V16.5669C12.291 16.8254 12.5007 17.0352 12.7594 17.0352C13.0181 17.0352 13.2278 16.8254 13.2278 16.5669V7.71442C13.2278 7.45571 13.0181 7.24603 12.7594 7.24603Z" fill="#828282"/>
<path d="M7.23206 7.24603C6.97335 7.24603 6.76367 7.45571 6.76367 7.71442V16.5669C6.76367 16.8254 6.97335 17.0352 7.23206 17.0352C7.49077 17.0352 7.70044 16.8254 7.70044 16.5669V7.71442C7.70044 7.45571 7.49077 7.24603 7.23206 7.24603Z" fill="#828282"/>
<path d="M3.20333 5.95413V17.4941C3.20333 18.1762 3.45344 18.8167 3.89035 19.2763C4.32525 19.7372 4.93049 19.9988 5.56391 19.9999H14.4259C15.0594 19.9988 15.6647 19.7372 16.0994 19.2763C16.5363 18.8167 16.7864 18.1762 16.7864 17.4941V5.95413C17.6549 5.7236 18.2177 4.88453 18.1016 3.99333C17.9852 3.1023 17.2261 2.43577 16.3274 2.43559H13.9293V1.85011C13.932 1.35776 13.7374 0.884987 13.3888 0.537177C13.0403 0.189549 12.5668 -0.00402466 12.0744 5.06458e-07H7.91533C7.42298 -0.00402466 6.94948 0.189549 6.60093 0.537177C6.25239 0.884987 6.05772 1.35776 6.06046 1.85011V2.43559H3.66238C2.76367 2.43577 2.00456 3.1023 1.8882 3.99333C1.77202 4.88453 2.33481 5.7236 3.20333 5.95413ZM14.4259 19.0632H5.56391C4.76308 19.0632 4.14009 18.3752 4.14009 17.4941V5.9953H15.8497V17.4941C15.8497 18.3752 15.2267 19.0632 14.4259 19.0632ZM6.99723 1.85011C6.99412 1.60622 7.08999 1.37148 7.26307 1.19932C7.43597 1.02715 7.67126 0.932557 7.91533 0.936765H12.0744C12.3185 0.932557 12.5538 1.02715 12.7267 1.19932C12.8998 1.3713 12.9956 1.60622 12.9925 1.85011V2.43559H6.99723V1.85011ZM3.66238 3.37235H16.3274C16.793 3.37235 17.1705 3.7498 17.1705 4.21544C17.1705 4.68108 16.793 5.05853 16.3274 5.05853H3.66238C3.19674 5.05853 2.81929 4.68108 2.81929 4.21544C2.81929 3.7498 3.19674 3.37235 3.66238 3.37235Z" fill="#828282"/>
<path d="M9.99572 7.24603C9.73702 7.24603 9.52734 7.45571 9.52734 7.71442V16.5669C9.52734 16.8254 9.73702 17.0352 9.99572 17.0352C10.2544 17.0352 10.4641 16.8254 10.4641 16.5669V7.71442C10.4641 7.45571 10.2544 7.24603 9.99572 7.24603Z" fill="#828282"/>
</g>
<defs>
<clipPath id="clip0">
<rect width="20" height="20" fill="white"/>
</clipPath>
</defs>
</symbol>
</svg>


