<svg display="none" xmlns="http://www.w3.org/2000/svg">
<symbol id="icon-videos-slider-next" viewBox="0 0 40 40" >
<path d="M20 40C31.0278 40 40 31.0278 40 20C40 8.97219 31.0278 0 20 0C8.97219 0 0 8.97219 0 20C0 31.0278 8.97219 40 20 40ZM8.33336 19.1666C8.33336 18.706 8.70609 18.3333 9.16672 18.3333L26.3216 18.3333L22.7441 14.7558C22.5879 14.5995 22.5 14.388 22.5 14.1666L22.5 12.5C22.5 12.163 22.7027 11.8587 23.0143 11.7302C23.3268 11.5999 23.6841 11.6723 23.9225 11.9109L31.4225 19.4109C31.748 19.7364 31.748 20.2638 31.4225 20.5892L23.9225 28.0892C23.763 28.2488 23.5498 28.3334 23.3333 28.3334C23.2259 28.3334 23.1177 28.313 23.0143 28.2698C22.7026 28.1413 22.5 27.8369 22.5 27.5V25.8334C22.5 25.612 22.5879 25.4004 22.7441 25.2441L26.3216 21.6666L9.16672 21.6666C8.70609 21.6666 8.33336 21.2939 8.33336 20.8333V19.1666Z" fill="#828282"/>
</symbol>
</svg>


