<svg width="30" height="30" viewBox="0 0 30 30" fill="none" xmlns="http://www.w3.org/2000/svg">
<symbol id="icon-whatsapp" viewBox="0 0 30 30">
<path d="M19.4902 6.93729C16.5108 6.37051 13.4893 6.37051 10.5092 6.93729C9.20582 7.2276 7.56604 8.79892 7.24546 10.0628C6.71225 12.5083 6.71225 14.9874 7.24546 17.433C7.56604 18.6969 9.20582 20.2682 10.5092 20.5585C10.5096 20.5586 10.5099 20.5586 10.5102 20.5587C10.5683 20.5701 10.6106 20.6204 10.6106 20.6795V24.2621C10.6106 24.4411 10.8292 24.5293 10.9536 24.3996L12.6552 22.6532C12.6552 22.6532 14.0112 21.2612 14.2551 21.0109C14.2789 20.9864 14.3118 20.9732 14.3459 20.9741C16.0639 21.0217 17.7838 20.883 19.4902 20.5586C20.7936 20.2683 22.434 18.6969 22.7539 17.433C23.2878 14.9875 23.2878 12.5084 22.7539 10.0629C22.434 8.79892 20.7942 7.2276 19.4902 6.93729ZM19.5356 17.6154C19.2749 18.1689 18.8956 18.6293 18.3485 18.9232C18.1941 19.0062 18.0096 19.033 17.8353 19.0866C17.6349 19.0258 17.444 18.9849 17.2666 18.9113C15.429 18.1489 13.7377 17.1653 12.398 15.6575C11.6362 14.8001 11.0399 13.8321 10.5359 12.8077C10.2969 12.3219 10.0954 11.817 9.89011 11.3155C9.70283 10.8581 9.97865 10.3856 10.269 10.041C10.5415 9.71755 10.8921 9.47004 11.2718 9.28763C11.5681 9.14524 11.8605 9.22733 12.0769 9.47853C12.5448 10.0216 12.9746 10.5925 13.3227 11.222C13.5367 11.6092 13.478 12.0825 13.0901 12.346C12.9958 12.4101 12.9099 12.4852 12.8221 12.5576C12.7451 12.621 12.6726 12.685 12.6198 12.7709C12.5233 12.9279 12.5187 13.1132 12.5808 13.2839C13.0591 14.5984 13.8653 15.6205 15.1884 16.171C15.4001 16.2591 15.6127 16.3617 15.8566 16.3332C16.2651 16.2855 16.3973 15.8375 16.6835 15.6034C16.9633 15.3746 17.3208 15.3716 17.6222 15.5623C17.9236 15.7531 18.2158 15.9579 18.5062 16.1648C18.7913 16.368 19.0752 16.5667 19.3382 16.7983C19.5909 17.0209 19.678 17.3131 19.5356 17.6154ZM17.1629 13.332C17.0488 13.334 17.0936 13.3318 17.137 13.3305C16.9532 13.3241 16.8532 13.2159 16.8334 13.0399C16.819 12.9113 16.8076 12.7811 16.7769 12.656C16.7165 12.4097 16.5856 12.1814 16.3784 12.0304C16.2806 11.9591 16.1697 11.9071 16.0536 11.8737C15.9061 11.8311 15.7529 11.8428 15.6057 11.8067C15.4459 11.7676 15.3575 11.6382 15.3826 11.4882C15.4054 11.3517 15.5382 11.2452 15.6873 11.256C16.6192 11.3233 17.2853 11.8051 17.3803 12.9023C17.387 12.9797 17.3949 13.0614 17.3778 13.1355C17.3498 13.2559 17.2638 13.3186 17.1768 13.3299C17.184 13.3301 17.1826 13.3307 17.1629 13.332ZM16.5834 10.8227C16.2974 10.6827 15.9882 10.5956 15.6747 10.5438C15.5377 10.5211 15.3993 10.5074 15.2616 10.4882C15.0948 10.465 15.0058 10.3587 15.0137 10.1943C15.021 10.0403 15.1336 9.92952 15.3015 9.939C15.8531 9.97033 16.3859 10.0895 16.8763 10.3492C17.8736 10.8774 18.4433 11.711 18.6096 12.8242C18.6172 12.8746 18.6292 12.9246 18.633 12.9752C18.6425 13.1001 18.6484 13.2253 18.658 13.39C18.654 13.4201 18.6519 13.4906 18.6344 13.5571C18.5706 13.7984 18.2048 13.8287 18.1205 13.5851C18.0955 13.5128 18.0918 13.4306 18.0917 13.3528C18.0908 12.8437 17.9801 12.3351 17.7234 11.8921C17.4595 11.437 17.0562 11.0543 16.5834 10.8227ZM19.665 14.2629C19.4723 14.2652 19.3856 14.104 19.3731 13.9312C19.3483 13.5892 19.3312 13.2456 19.284 12.9064C19.0352 11.1158 17.6074 9.63441 15.8251 9.31653C15.5569 9.26867 15.2824 9.2561 15.0108 9.22759C14.839 9.20956 14.6141 9.19915 14.576 8.98567C14.5441 8.80669 14.6952 8.66417 14.8656 8.65502C14.912 8.65252 14.9586 8.65462 15.0051 8.65482C17.3134 8.71953 15.146 8.65982 15.0113 8.65515C17.4122 8.72512 19.3834 10.3195 19.8062 12.6938C19.8782 13.0987 19.9039 13.5127 19.936 13.9237C19.9494 14.0965 19.8515 14.2607 19.665 14.2629Z" fill="#FF7300"/>
<path d="M0 0V30H30V0H0ZM24.4879 17.8251L24.4819 17.8488C24.0027 19.7861 21.8422 21.8649 19.8582 22.2974L19.8358 22.302C18.2315 22.6081 16.6155 22.7609 15 22.7609C14.5246 22.7609 14.0491 22.746 13.5739 22.7195L11.3828 24.997C10.8403 25.5619 9.88649 25.1774 9.88649 24.3947V22.2321C7.97648 21.6867 5.97688 19.7034 5.51747 17.8487L5.5122 17.825C4.91974 15.1194 4.91974 12.3757 5.5122 9.67018L5.51747 9.64648C5.99735 7.70915 8.15784 5.6303 10.1412 5.1978L10.1643 5.1932C13.3728 4.58099 16.6266 4.58099 19.8358 5.1932L19.8582 5.1978C21.8422 5.6303 24.0027 7.70915 24.4819 9.64648L24.4879 9.67018C25.0803 12.3758 25.0803 15.1195 24.4879 17.8251Z" fill="#FF7300"/>
</symbol>
</svg>
