<svg display="none" xmlns="http://www.w3.org/2000/svg">
    <symbol id="icon-close" viewBox="0 0 24 26">
    <path d="M7.6497 6.50014L12.7618 1.38783C13.0794 1.07048 13.0794 0.555567 12.7618 0.238216C12.4442 -0.0794054 11.9298 -0.0794054 11.6122 0.238216L6.50014 5.35052L1.38778 0.238216C1.07017 -0.0794054 0.555815 -0.0794054 0.238206 0.238216C-0.0794021 0.555567 -0.0794021 1.07048 0.238206 1.38783L5.35057 6.50014L0.238206 11.6124C-0.0794021 11.9298 -0.0794021 12.4447 0.238206 12.7621C0.397011 12.9206 0.605136 13 0.812991 13C1.02085 13 1.22897 12.9206 1.38778 12.7618L6.50014 7.64948L11.6122 12.7618C11.771 12.9206 11.9792 13 12.187 13C12.3949 13 12.603 12.9206 12.7618 12.7618C13.0794 12.4444 13.0794 11.9295 12.7618 11.6122L7.6497 6.50014Z" fill="#828282"/>
    </symbol>
</svg>
