<svg display="none" xmlns="http://www.w3.org/2000/svg">
<symbol id="icon-mobile-menu" viewBox="0 0 25 25">
<path d="M8.49609 11.7188H3.22266C1.44565 11.7188 0 10.2731 0 8.49609V3.22266C0 1.44565 1.44565 0 3.22266 0H8.49609C10.2731 0 11.7188 1.44565 11.7188 3.22266V8.49609C11.7188 10.2731 10.2731 11.7188 8.49609 11.7188ZM3.22266 1.5625C2.30723 1.5625 1.5625 2.30723 1.5625 3.22266V8.49609C1.5625 9.41152 2.30723 10.1562 3.22266 10.1562H8.49609C9.41152 10.1562 10.1562 9.41152 10.1562 8.49609V3.22266C10.1562 2.30723 9.41152 1.5625 8.49609 1.5625H3.22266Z" fill="#FF7300"/>
<path d="M21.7773 11.7188H16.5039C14.7269 11.7188 13.2812 10.2731 13.2812 8.49609V3.22266C13.2812 1.44565 14.7269 0 16.5039 0H21.7773C23.5543 0 25 1.44565 25 3.22266V8.49609C25 10.2731 23.5543 11.7188 21.7773 11.7188ZM16.5039 1.5625C15.5885 1.5625 14.8438 2.30723 14.8438 3.22266V8.49609C14.8438 9.41152 15.5885 10.1562 16.5039 10.1562H21.7773C22.6928 10.1562 23.4375 9.41152 23.4375 8.49609V3.22266C23.4375 2.30723 22.6928 1.5625 21.7773 1.5625H16.5039Z" fill="#FF7300"/>
<path d="M19.1406 25C15.9098 25 13.2812 22.3715 13.2812 19.1406C13.2812 15.9098 15.9098 13.2812 19.1406 13.2812C22.3715 13.2812 25 15.9098 25 19.1406C25 22.3715 22.3715 25 19.1406 25ZM19.1406 14.8438C16.7713 14.8438 14.8438 16.7713 14.8438 19.1406C14.8438 21.5099 16.7713 23.4375 19.1406 23.4375C21.5099 23.4375 23.4375 21.5099 23.4375 19.1406C23.4375 16.7713 21.5099 14.8438 19.1406 14.8438Z" fill="#FF7300"/>
<path d="M8.49609 25H3.22266C1.44565 25 0 23.5543 0 21.7773V16.5039C0 14.7269 1.44565 13.2812 3.22266 13.2812H8.49609C10.2731 13.2812 11.7188 14.7269 11.7188 16.5039V21.7773C11.7188 23.5543 10.2731 25 8.49609 25ZM3.22266 14.8438C2.30723 14.8438 1.5625 15.5885 1.5625 16.5039V21.7773C1.5625 22.6928 2.30723 23.4375 3.22266 23.4375H8.49609C9.41152 23.4375 10.1562 22.6928 10.1562 21.7773V16.5039C10.1562 15.5885 9.41152 14.8438 8.49609 14.8438H3.22266Z" fill="#FF7300"/>
</symbol>
</svg>
