<svg display="none" xmlns="http://www.w3.org/2000/svg">
<symbol id="icon-docs" viewBox="0 0 40 40">
<path d="M39.3548 0H13.5484C13.1923 0 12.9032 0.288387 12.9032 0.645161V2.58065H8.3871C8.03097 2.58065 7.74194 2.86903 7.74194 3.22581V5.16129H4.51613C4.16 5.16129 3.87097 5.44968 3.87097 5.80645V34.8387H0.645161C0.289032 34.8387 0 35.1271 0 35.4839C0 37.9735 2.02581 40 4.51613 40H26.4516C28.2484 40 29.7994 38.9426 30.5258 37.4194H34.1935C34.5497 37.4194 34.8387 37.131 34.8387 36.7742V36.129H39.3548C39.711 36.129 40 35.8406 40 35.4839V0.645161C40 0.288387 39.711 0 39.3548 0ZM4.51613 38.7097C2.95806 38.7097 1.65484 37.5994 1.35548 36.129H22.0097C22.1548 37.1355 22.6355 38.0342 23.3335 38.7097H4.51613ZM26.6219 38.7052C26.5677 38.691 26.511 38.6826 26.4516 38.6826C24.6884 38.6826 23.2529 37.2471 23.2529 35.4839C23.2529 35.1271 22.9639 34.8387 22.6077 34.8387H5.16129V6.45161H23.2258V11.6129C23.2258 11.9697 23.5148 12.2581 23.871 12.2581H29.6774V35.4839C29.6774 37.2058 28.3213 38.6161 26.6219 38.7052ZM24.5161 7.25484L28.6413 10.9677H24.5161V7.25484ZM33.5484 36.129H30.9161C30.9464 35.9174 30.9677 35.7032 30.9677 35.4839V11.6129C30.9677 11.4303 30.8903 11.2555 30.7542 11.1335L24.3026 5.3271C24.1839 5.22064 24.0303 5.16129 23.871 5.16129H9.03226V3.87097H33.5484V36.129ZM38.7097 34.8387H34.8387V3.22581C34.8387 2.86903 34.5497 2.58065 34.1935 2.58065H14.1935V1.29032H38.7097V34.8387Z" fill="#DE8348"/>
<path d="M7.74219 10.3226H20.6454V11.6129H7.74219V10.3226Z" fill="#DE8348"/>
<path d="M7.74219 12.9032H12.9035V14.1936H7.74219V12.9032Z" fill="#DE8348"/>
<path d="M15.4844 12.9032H20.6457V14.1936H15.4844V12.9032Z" fill="#DE8348"/>
<path d="M7.74219 16.7742H20.6454V18.0645H7.74219V16.7742Z" fill="#DE8348"/>
<path d="M7.74219 19.3548H12.9035V20.6452H7.74219V19.3548Z" fill="#DE8348"/>
<path d="M15.4844 19.3548H20.6457V20.6452H15.4844V19.3548Z" fill="#DE8348"/>
<path d="M14.1934 23.2258H27.0966V24.5161H14.1934V23.2258Z" fill="#DE8348"/>
<path d="M21.9355 25.8065H27.0968V27.0968H21.9355V25.8065Z" fill="#DE8348"/>
<path d="M14.1934 28.3871H27.0966V29.6774H14.1934V28.3871Z" fill="#DE8348"/>
<path d="M21.9355 30.9677H27.0968V32.2581H21.9355V30.9677Z" fill="#DE8348"/>
</symbol>
</svg>


