<svg display="none" xmlns="http://www.w3.org/2000/svg">
<symbol id="icon-youtube" viewBox="0 0 30 30">
<path fill-rule="evenodd" clip-rule="evenodd" d="M0 0V30H30V0H0ZM25.0215 19.9095C24.7669 21.0139 23.8635 21.8294 22.776 21.9508C20.2017 22.2378 17.5952 22.2398 14.9989 22.2378C12.4037 22.2398 9.79728 22.2378 7.22215 21.9508C6.13437 21.8295 5.23101 21.0139 4.97776 19.9095C4.61539 18.3372 4.61539 16.6194 4.61539 14.9999C4.61539 13.3805 4.61967 11.6635 4.98171 10.0911C5.23497 8.98569 6.13866 8.17128 7.22506 8.04989C9.80044 7.76209 12.408 7.76097 15.0032 7.76209C17.5982 7.76103 20.2049 7.76209 22.78 8.04989C23.8678 8.17128 24.7712 8.98569 25.0255 10.0911C25.3878 11.6635 25.3846 13.3805 25.3846 14.9999C25.3846 16.6194 25.3836 18.3372 25.0215 19.9095Z" />
<path fill-rule="evenodd" clip-rule="evenodd" d="M12.3201 18.2242C14.5267 17.0799 16.7138 15.9452 18.9226 14.8001C16.7074 13.6443 14.5206 12.5043 12.3201 11.356V18.2242Z" />
</symbol>
</svg>

