<svg display="none" xmlns="http://www.w3.org/2000/svg">
<symbol id="logout" viewBox="0 0 20 20">
<g clip-path="url(#clip0)">
<path d="M19.3479 10.6522H6.73909C6.37909 10.6522 6.08691 10.36 6.08691 10C6.08691 9.64001 6.37909 9.34784 6.73909 9.34784H19.3479C19.7079 9.34784 20.0001 9.64001 20.0001 10C20.0001 10.36 19.7079 10.6522 19.3479 10.6522Z" fill="#464646"/>
<path d="M10.2176 14.1304C10.0506 14.1304 9.88373 14.067 9.75667 13.9392L6.27847 10.461C6.02371 10.206 6.02371 9.79303 6.27847 9.53827L9.75667 6.06005C10.0114 5.8053 10.4244 5.8053 10.6794 6.06005C10.9341 6.31481 10.9341 6.72783 10.6794 6.98259L7.66195 10L10.6794 13.0174C10.9341 13.2722 10.9341 13.6852 10.6794 13.94C10.5515 14.067 10.3845 14.1304 10.2176 14.1304Z" fill="#464646"/>
<path d="M9.56527 19.5653C4.29136 19.5653 0 15.2739 0 9.99999C0 4.72608 4.29136 0.434723 9.56527 0.434723C13.5226 0.434723 17.0165 2.81557 18.4679 6.50093C18.6 6.83561 18.4347 7.21392 18.1001 7.34687C17.7652 7.47744 17.3869 7.31471 17.254 6.97827C16.0009 3.79558 12.9827 1.73907 9.56527 1.73907C5.0104 1.73907 1.30435 5.44528 1.30435 9.99999C1.30435 14.5547 5.0104 18.2609 9.56527 18.2609C12.9827 18.2609 16.0009 16.2044 17.254 13.0227C17.3861 12.6861 17.7644 12.5235 18.1001 12.6539C18.4347 12.7861 18.6 13.1652 18.4679 13.5C17.0165 17.1844 13.5226 19.5653 9.56527 19.5653Z" fill="#464646"/>
</g>
<defs>
<clipPath id="clip0">
<rect width="20" height="20" fill="white"/>
</clipPath>
</defs>
</symbol>
</svg>
