<svg display="none" xmlns="http://www.w3.org/2000/svg">
<symbol id="kazakhstan-asia-mobile" viewBox="0 0 166 109">
<path d="M164.57 35.9149C163.607 37.4313 163.405 39.7694 160.746 39.4563C159.035 39.3942 158.819 40.5986 158.953 41.8147C159.464 46.4726 156.741 47.0135 153.225 46.2455C151.528 45.8749 150.065 45.4743 149.079 47.3567L149.149 47.273C148.823 47.8938 148.498 48.5143 148.172 49.1349C148.202 49.3352 148.192 49.5335 148.143 49.7322C146.277 53.8782 144.207 57.71 138.535 56.5428C138.327 56.4999 137.924 57.4028 137.612 57.8649L137.651 57.8148C136.02 61.3538 138.875 64.9066 137.618 68.4466L137.665 68.3766C136.722 69.2304 135.779 70.0839 134.836 70.9375C132.593 69.5187 130.659 68.1956 127.456 68.6432C124.83 69.01 121.731 68.276 118.857 67.7576C116.386 67.3121 112.697 65.3825 110.898 68.1114C109.243 70.6221 108.076 70.4337 106.033 69.3675C103.117 67.8454 101.253 69.2464 100.054 71.8093C99.5605 72.8652 99.3877 74.0563 98.2952 74.7343C97.2641 74.7407 96.1456 74.3643 95.351 75.4065L95.4173 75.416C94.6899 75.4903 93.9668 75.5726 93.609 76.357L93.6725 76.3053C93.2894 76.633 92.9064 76.9607 92.5233 77.2883C90.5964 79.1249 91.1916 83.2025 87.2371 83.2374C86.979 82.4829 86.2856 82.5881 85.7086 82.4636L85.7653 82.509C85.4456 82.2038 85.1258 81.8986 84.8061 81.5934L84.8776 81.6544C82.9252 78.1139 79.7342 79.8572 76.9653 79.7997L76.9929 79.803C76.9863 78.6487 76.9797 77.4945 76.973 76.3403L76.9387 76.384C78.1335 75.4677 77.9772 74.5603 76.921 73.6586L76.9607 73.7188C76.7511 72.0707 76.4667 70.4531 75.1459 69.257L75.1947 69.3321C74.8327 65.6789 72.5926 64.5532 69.3745 65.4291C67.1644 66.0307 65.0357 65.9178 62.8487 65.729L62.8901 65.7626C62.5824 65.4595 62.2747 65.1564 61.967 64.8533L62.0063 64.9C61.7026 64.5911 61.3989 64.2823 61.0953 63.9735L61.1298 64.0034C60.8317 63.6994 60.5337 63.3953 60.2356 63.0913L60.2591 63.1134C60.2335 62.3584 59.982 61.7283 59.2821 61.3461L59.3553 61.4185C58.9621 60.7038 58.2899 60.5145 57.5471 60.4583L57.6059 60.4905C56.9914 59.4437 55.9182 59.6799 54.9758 59.5504L54.9879 59.5603C54.6599 58.9819 54.3319 58.4035 54.0039 57.8252L54.0691 57.9008C53.7554 57.5814 53.4416 57.2619 53.1279 56.9424L53.1991 57.0064C52.8419 56.2417 52.1406 56.1172 51.411 56.0455L51.4519 56.0727C51.128 55.7788 50.804 55.4849 50.48 55.191L50.5408 55.235C47.5386 53.0455 44.6439 55.4108 41.7033 55.5269C38.6282 55.6483 37.2324 57.3996 37.4332 60.7695C37.7289 65.7294 37.5095 70.72 37.5095 75.6975C32.3442 70.5811 27.5062 70.9253 22.3346 74.4724C20.8438 75.4949 19.1239 75.8789 17.331 75.1147C16.0864 69.7314 13.8574 64.5658 14.1913 58.8322C14.2869 57.1906 12.7441 55.8692 11.8624 54.4324C9.12571 49.9732 6.32056 45.7874 2.24309 42.3397C-0.500373 40.02 2.1281 36.8507 2.29877 34.0625C2.31354 33.8213 2.64127 33.3797 2.77653 33.3971C9.55908 34.27 8.81444 24.9666 14.6634 24.6142C18.6999 23.3477 18.1707 23.3732 22.4565 23.3477L27.579 24.5724C28.1416 24.8467 28.704 25.1223 29.2664 25.3979L29.3386 25.443C29.8661 25.9845 30.3935 26.5272 30.9208 27.0699C30.9208 27.0699 31.0514 27.3013 31.052 27.2985C31.2156 28.6258 31.1035 29.4434 33.3089 29.1964C38.38 28.6284 43.5175 26.4773 48.6679 28.8874L48.7201 28.9C51.3747 31.209 54.4421 30.6176 57.439 30.0161C59.1935 29.6639 60.1476 28.3889 60.1976 26.544C60.2475 24.7035 58.9697 24.4278 57.5683 24.3963C55.8555 24.3578 55.7596 23.3007 55.963 22.0096C55.963 22.0096 56.0514 21.8585 56.05 21.8581C56.2893 21.6085 56.53 21.3594 56.7707 21.1102C56.7707 21.1102 56.9365 21.0174 56.9348 21.0167C57.6322 19.9326 57.5876 17.0126 59.3814 15.6843L59.406 15.6897C61.0864 15.3668 60.8382 14.4352 60.3986 13.1594C59.7972 11.414 60.0573 9.76022 61.8369 8.69031C70.7822 9.29074 78.9152 5.38732 87.5027 3.98117C89.3822 3.67342 90.6404 1.65945 92.8451 1.26172C97.7463 0.377603 99.9459 1.64223 100.64 6.45627C100.767 7.33767 100.751 8.31749 101.583 8.7939C104.217 10.3028 107.364 8.80626 110.272 10.8847C112.959 12.8051 116.042 10.6195 118.227 8.2149C119.644 6.65477 120.309 6.98162 122.301 8.24199C128.42 12.1152 131.401 18.1843 135.413 23.6629C137.266 26.1937 141.55 26.0395 144.766 26.0735C148.365 26.1115 151.432 26.6142 153.731 29.5278C155.422 31.6695 157.726 31.8584 160.088 31.4587C162.497 31.0513 163.977 31.8887 164.765 34.1299C164.701 34.7248 164.636 35.3198 164.57 35.9149Z" fill="#FFA66B" fill-opacity="0.3"/>

<path d="M17.3317 75.1132C19.1246 75.8774 20.8445 75.4934 22.3353 74.4709C27.5069 70.9238 32.3449 70.5796 37.5102 75.696C37.5102 70.7185 37.7296 65.7279 37.4339 60.768C37.2331 57.3981 38.6289 55.6468 41.704 55.5254C44.6446 55.4094 47.5393 53.044 50.5413 55.2335C39.2124 55.6739 38.7726 56.1236 38.9172 66.9785C38.9483 69.3175 38.9079 71.6575 38.9382 73.9965C38.9529 75.1384 38.706 76.5694 40.1532 76.962C41.6232 77.3607 41.9333 76.0233 42.5588 75.0038C45.5693 70.0964 50.5281 70.8822 54.4384 74.7711C58.4081 78.7191 62.2837 83.1854 66.4941 86.3779C72.3696 90.833 79.2538 94.4216 85.7159 98.3652L85.7182 98.3569C83.984 98.4021 82.0745 98.0029 80.5586 98.6012C78.5084 99.4103 76.0846 98.5346 74.2762 100.816C70.5392 105.531 66.0856 109.278 59.3131 107.154C59.9379 102.708 55.8523 98.0323 50.6629 97.5253C48.9937 97.3622 47.56 96.9432 46.1512 96.0833C41.6602 93.3425 37.2339 93.651 33.0963 97.0306C31.8742 98.0289 30.4837 98.7538 29.0688 98.2957C23.9595 96.6416 18.4852 96.2716 13.5981 93.8675C15.1455 93.6407 17.3119 94.9927 17.9823 92.4518C19.4149 87.0217 21.382 81.5015 16.7689 76.5125C16.9565 76.0461 17.1441 75.5796 17.3317 75.1132Z" fill="#FFA66B" fill-opacity="0.3"/>

<path fill-rule="evenodd" clip-rule="evenodd" d="M95.3511 75.4038L95.3766 75.4167L95.3801 75.4185C94.666 75.4919 93.9618 75.5845 93.6099 76.3538L93.6092 76.3543L93.6096 76.3543L93.609 76.3557L93.6111 76.3555C93.2507 76.6652 92.8902 76.9749 92.5267 77.2851C91.8379 77.9407 91.4707 78.8816 91.1035 79.8223C90.4418 81.5177 89.7804 83.2123 87.2371 83.2348L87.2362 83.2348C87.032 82.6417 86.5579 82.5818 86.0839 82.522C85.9625 82.5066 85.841 82.4913 85.7241 82.467L84.8647 81.6467L84.8777 81.6518L84.8756 81.65L84.8772 81.6506C83.421 79.01 81.2758 79.3086 79.1307 79.6071C78.4091 79.7075 77.6876 79.8079 76.9923 79.7965L76.9724 76.3576C78.116 75.4611 77.9699 74.573 76.957 73.6908C76.7501 72.0703 76.4662 70.4811 75.1905 69.2956C74.8177 65.6702 72.5816 64.5544 69.3739 65.4275C67.1671 66.0282 65.0415 65.9166 62.8582 65.7285L61.9673 64.8508L62.0063 64.8973L61.0955 63.9709L61.1298 64.0008L60.2551 63.1084L60.2587 63.1105L60.2592 63.1108L60.2587 63.1103C60.2336 62.3727 59.993 61.7544 59.3293 61.3701C58.9405 60.7052 58.2984 60.517 57.5879 60.4582C57.1088 59.6721 56.362 59.635 55.6153 59.5979C55.4025 59.5873 55.1898 59.5767 54.9833 59.5488L54.017 57.845L54.0692 57.8982L54.0051 57.8241L54.0037 57.8215C54.0038 57.825 54.004 57.8285 54.0041 57.832L53.1905 57.0036L53.1991 57.0038L53.198 57.0027L53.1988 57.0028C52.8438 56.2426 52.1488 56.1151 51.4241 56.0432C51.2912 55.9066 51.2993 55.7792 51.3074 55.6518C51.3161 55.516 51.3247 55.3802 51.1627 55.2332L48.0823 53.8486C45.8156 54.5549 43.9903 54.9226 42.5323 55.2163C37.48 56.2342 36.8379 56.3636 37.5209 66.6095C37.5365 67.7846 37.5288 68.9824 37.5211 70.1801C37.5135 71.3663 37.5059 72.5523 37.5209 73.7161C37.5357 74.858 38.7053 76.5683 40.1525 76.9608C41.3449 77.2842 41.7741 76.4654 42.2275 75.6005C42.3331 75.3991 42.44 75.1952 42.5581 75.0027C45.5687 70.0953 50.5275 70.881 54.4378 74.77C55.5308 75.8571 56.6168 76.9834 57.7045 78.1117C60.5671 81.081 63.4424 84.0633 66.4934 86.3768C70.6508 89.5291 75.3132 92.2476 79.9737 94.965C81.8997 96.088 83.8255 97.2109 85.7151 98.364C89.2755 96.6729 90.3858 94.1475 88.3853 90.9023C87.1053 88.8257 87.4377 87.8811 89.3639 86.8249C91.2179 85.8083 92.3959 84.1569 93.5797 82.4972C94.4144 81.327 95.252 80.1527 96.3315 79.194C97.8165 77.8753 97.1563 76.3324 95.4067 75.432L95.4171 75.4147L95.4165 75.4148L95.4173 75.4134L95.3511 75.4038ZM53.1905 57.0036C52.4361 56.9837 51.8212 56.7043 51.4113 56.043L51.4118 56.0433C51.8216 56.7034 52.4359 56.9825 53.1895 57.0025L53.1905 57.0036ZM54.1096 58.5119C54.2381 58.9504 54.497 59.3148 54.9785 59.553L54.9776 59.5514C54.497 59.3134 54.2382 58.9496 54.1096 58.5119ZM84.8647 81.6467C83.7376 81.2075 82.5407 81.0659 81.3438 80.9242C79.8381 80.7461 78.3324 80.5679 76.9655 79.7971L76.9674 79.7974C78.3337 80.5669 79.8385 80.745 81.3433 80.9231C82.5398 81.0647 83.7363 81.2062 84.863 81.6451L84.8647 81.6467ZM85.7133 82.4647L85.7106 82.4641L85.7089 82.4612L85.7133 82.4647ZM57.2302 60.4852C57.3419 60.4851 57.4537 60.4849 57.5647 60.4868L57.5648 60.487C57.4539 60.4851 57.3422 60.4852 57.2306 60.4854C56.7643 60.4859 56.298 60.4864 55.8846 60.3389C56.2979 60.4862 56.7639 60.4857 57.23 60.4852H57.2301H57.2302ZM59.2811 61.4161C58.63 61.4107 58.0825 61.2101 57.7012 60.6966C58.0826 61.2097 58.6301 61.41 59.2811 61.4153L59.2811 61.4161ZM76.4839 73.4147C76.6149 73.5139 76.7599 73.6073 76.9205 73.6944V73.6946C76.7599 73.6074 76.6149 73.5139 76.4839 73.4147ZM75.4122 77.8916C75.533 77.3827 76.0597 76.8715 76.9378 76.3582L76.9379 76.3606C76.0609 76.8731 75.5342 77.3835 75.4122 77.8916ZM62.849 65.7266L62.8505 65.7278L62.8497 65.7278L62.849 65.7266Z" fill="#FFA66B" fill-opacity="0.3"/>

<path d="M118.401 83.4788C115.926 83.2746 113.98 83.8092 111.624 85.253C107.574 87.735 102.659 88.5299 97.8243 86.6697C97.046 86.3702 95.8996 86.2585 95.8984 85.2154C95.897 83.9153 97.1656 83.6813 98.1194 83.5545C99.8468 83.3247 101.693 83.6279 103.327 83.1499C105.181 82.6073 107.837 81.8372 107.144 79.2952C106.576 77.2164 104.761 75.7468 101.968 76.9173C100.155 77.677 98.0038 77.9902 98.2932 74.734C99.3882 74.0564 99.5609 72.8653 100.055 71.8094C101.254 69.2465 103.117 67.8455 106.034 69.3676C108.077 70.4338 109.244 70.6222 110.899 68.1115C112.698 65.3826 116.386 67.3122 118.857 67.7578C121.731 68.2761 124.831 69.0101 127.456 68.6433C130.659 68.1957 132.593 69.5188 134.837 70.9387C135.695 71.6051 135.663 72.5773 135.728 73.5163C134.722 74.3582 133.831 75.3889 132.405 75.5427C131.335 75.4351 130.266 75.3307 129.604 76.4645C129.604 76.4645 129.223 76.5479 129.22 76.5486C128.61 76.4913 128.157 76.6965 127.942 77.3038C127.798 77.4013 127.641 77.4701 127.47 77.5103C126.881 77.4168 126.462 77.6197 126.256 78.1979C126.256 78.1979 126.297 78.1684 126.297 78.1682C125.73 78.1493 125.368 78.3847 125.292 78.9753C125.292 78.9753 125.332 78.9351 125.332 78.9352C124.49 78.8421 123.861 79.0904 123.637 79.9897C123.637 79.9897 123.684 79.9502 123.684 79.9501C123.107 79.9515 122.776 80.2268 122.725 80.8124C122.725 80.8124 122.754 80.7791 122.754 80.779C122.177 80.7677 121.855 81.0518 121.78 81.6207C121.78 81.6207 121.824 81.5895 121.824 81.5896C120.984 81.4699 120.32 81.6576 120.085 82.5894C120.085 82.5894 120.122 82.5638 120.122 82.5638C119.296 82.4225 118.653 82.6416 118.32 83.4751L118.401 83.4788Z" fill="#FFA66B" fill-opacity="0.3" />
</symbol>
</svg>
