<svg display="none" xmlns="http://www.w3.org/2000/svg">
<symbol id="russia-mobile" viewBox="0 0 247 102">
<path d="M100.281 19.0452C100.383 19.0275 100.473 18.9845 100.55 18.9166C102.103 19.1806 103.431 18.1482 104.925 17.9952C104.975 18.7916 104.02 18.4997 104.027 19.1009C104.066 19.1588 104.086 19.2239 104.122 19.235C105.845 19.7603 107.28 18.0846 109.024 18.5885C109.284 18.6637 109.169 18.3097 109.107 18.1058C108.887 17.387 109.549 17.8281 109.738 17.6404C109.953 17.6491 110.167 17.6577 110.381 17.6664C111.251 17.8304 111.772 17.5755 111.699 16.584C111.671 16.1884 111.755 15.8216 112.102 15.5726C113.939 14.2528 115.687 12.6208 118.245 13.7989C118.481 13.8931 118.717 13.9874 118.953 14.0816C118.795 15.0102 117.448 14.5639 117.144 15.7146C118.46 15.5796 119.645 15.3887 120.752 15.8704C121.043 16.3978 120.046 16.6621 120.469 17.1629C120.736 17.4802 121.184 17.428 121.54 17.28C123.7 16.384 125.869 16.5097 128.123 16.9411C129.14 17.1356 129.139 18.2895 129.262 18.2853C131.385 18.2127 130.624 19.627 130.574 20.6706C130.591 20.9281 130.607 21.1856 130.625 21.4439C130.063 21.7631 129.464 22.0563 128.935 22.3857C127.787 23.1014 126.374 23.3033 125.361 24.1127C124.234 25.0138 122.961 25.5885 121.764 26.326C120.769 26.9383 119.413 27.0727 118.574 28.4995C119.632 28.3272 120.358 28.2327 120.986 28.05C122.842 27.5095 125.001 27.6759 126.414 25.9715L126.491 25.8694C127.465 26.0048 128.435 26.671 129.415 25.8886C130.508 25.8344 129.814 26.9935 130.48 27.363C131.108 26.0158 132.526 26.4539 133.546 26.3117C134.877 26.1261 136.312 26.7026 137.736 26.5542C137.829 26.5445 137.947 26.6081 138.029 26.6704C139.979 28.156 140.929 28.4149 143.354 28.1245C143.565 28.0992 143.814 28.0454 143.991 28.1249C145.036 28.5927 145.571 28.7041 145.346 27.1443C145.191 26.0732 146.102 25.6149 147.135 26.0612C148.408 26.6118 149.689 26.7331 151.073 26.6819C152.185 26.6408 153.412 26.9135 154.071 27.9838C154.658 28.9358 154.51 30.0293 153.895 30.9141C153.353 31.6926 153.558 32.2605 154.13 32.7666C154.901 33.45 155.667 34.228 156.582 34.6412C157.88 35.2278 158.136 33.8902 158.614 33.1414C158.833 32.7977 158.775 32.289 158.924 31.8849C159.127 31.3308 159.382 31.0956 159.974 31.6362C161.71 33.2232 163.659 33.7735 165.885 32.6156C166.153 32.4757 166.513 32.5107 166.83 32.4647C167.078 32.8671 167.432 33.2797 167.821 32.7522C168.323 32.0721 168.735 31.7882 169.507 32.3828C169.786 32.5978 170.291 32.5246 170.504 32.1215C170.766 31.6273 170.934 30.8896 170.437 30.6418C169.264 30.0561 170.228 29.6554 170.438 29.1783C171.099 28.8742 172.435 29.9036 172.385 28.1934C174.39 29.1356 176.668 28.1476 178.673 29.0866L178.735 29.1595C178.246 29.9773 178.241 30.109 178.441 30.1132C180.232 30.151 178.68 31.1087 178.831 31.5775C179.863 31.6521 179.885 31.6779 181.428 30.3921C182.24 29.7159 183.157 29.665 184.023 29.9712C184.92 30.2883 184.529 31.1062 184.445 31.7956C184.337 32.683 185.912 34.2977 186.862 34.3524C187.075 34.3817 187.289 34.4111 187.503 34.4404C187.953 34.9197 188.385 34.8164 188.806 34.398C190.473 34.4795 192.138 34.5438 193.757 34.0086C195.167 34.0125 196.578 34.0163 197.988 34.02C198.292 34.0644 198.596 34.1088 198.901 34.1531C201.173 35.4297 201.174 35.4298 200.656 37.8216C200.533 38.3919 200.627 38.8996 201.061 39.319C201.555 39.7967 202.066 39.5838 202.567 39.3468C204.486 38.4383 206.414 38.1533 208.567 38.6081C210.2 38.9534 212.144 39.7627 213.438 37.7215C213.812 37.727 214.19 37.704 214.56 37.7464C214.889 37.7841 215.223 37.9494 215.266 38.2998C215.322 38.7467 215.008 38.9501 214.589 39.0277C214.308 39.0798 213.866 38.9161 213.841 39.3959C213.822 39.7711 214.148 39.8903 214.47 40.0031C215.417 40.3342 216.116 41.4706 217.346 40.8741C218.344 40.3828 218.119 39.8699 217.372 39.348C217.189 39.0418 216.968 38.7486 217.034 38.3577C217.094 38.2595 217.153 38.1613 217.213 38.0631C217.348 37.6966 217.514 37.3668 217.991 37.4051C218.134 37.6443 218.305 37.6726 218.506 37.4739C218.669 37.4258 218.833 37.3777 218.997 37.3298C219.542 37.3628 220.086 37.3956 220.631 37.4285C221.03 37.7898 221.488 37.7131 221.95 37.6083C223.268 37.7402 224.587 37.8719 225.906 38.0035C225.976 38.064 226.058 38.0913 226.151 38.0854C226.893 38.858 227.814 39.1136 228.855 39.0185C228.947 39.0589 229.042 39.0696 229.141 39.0505C232.377 40.8579 235.612 42.6685 238.852 44.4695C239.366 44.7554 239.847 45.1556 239.641 45.7406C239.219 46.9373 240.035 47.5985 240.806 47.6039C241.926 47.6119 240.937 46.4467 241.335 45.9292C242.386 45.9456 243.437 45.9621 244.488 45.9784C244.828 46.5525 245.159 47.1355 245.877 47.3185C246.08 47.4124 246.284 47.5064 246.488 47.6002C246.63 47.6739 246.771 47.7476 246.912 47.8214L247 47.8609C246.976 48.0926 246.953 48.3242 246.93 48.5558L246.909 48.5675C246.049 48.9983 245.452 50.0964 244.284 49.7339C243.45 49.4751 243.498 49.7249 243.477 50.4679C243.447 51.5508 243.048 52.6056 241.972 53.1967C241.569 52.9434 241.166 52.6902 240.763 52.4371C240.388 51.4391 239.069 51.9544 238.631 51.15C237.878 49.7683 236.856 49.3435 235.396 49.9798C234.417 50.4059 233.818 49.4671 233.947 49.0125C234.219 48.0597 233.814 47.8577 233.174 48.0259C232.514 48.1994 231.846 48.6624 232.374 49.5668C232.623 49.994 232.544 50.4024 232.429 50.8282C230.955 51.8113 229.439 52.4137 227.713 51.4102C227.354 51.2018 226.919 51.1765 226.72 51.6024C226.469 52.1404 227.047 52.1915 227.324 52.3774C227.775 52.6804 228.241 52.9383 228.843 52.8461C229.36 52.7668 229.744 53.1099 229.739 53.5803C229.732 54.4201 230.174 55.0064 230.612 55.6305C230.854 55.9756 231.206 56.3473 230.867 56.8061C230.544 57.2423 229.966 57.4917 229.572 57.2099C227.674 55.8552 226.177 57.1754 224.668 57.936C223.195 58.6782 221.69 59.3101 220.303 60.3458C219.13 61.2215 217.704 62.1274 216.178 62.601C215.954 61.5547 215.259 61.3269 214.264 61.2912C212.697 61.2349 211.683 62.2537 210.495 62.9557L210.501 62.9655C210.487 62.5972 210.624 61.9367 210.321 61.9386C209.692 61.9424 209.053 62.2435 208.843 62.9887L208.837 62.9931C207.846 62.8518 206.634 62.1329 206.163 63.6684C205.891 64.5566 205.442 65.161 204.745 65.7416C203.949 66.4044 204.066 66.9567 204.911 67.5003C205.341 67.6008 205.76 67.7148 205.872 68.2322C205.058 68.7722 205.323 69.3886 205.694 70.0661C205.942 70.5191 206.273 71.3725 205.51 71.3514C203.653 71.2999 203.924 72.4457 204.131 73.4897C204.325 74.4737 203.993 74.8223 203.075 74.7922C202.345 74.7682 201.523 74.7548 201.287 75.579C200.943 76.7831 200.873 78.0601 199.208 78.2757C198.869 78.3196 198.693 78.9393 198.855 79.415C198.664 79.8062 198.503 80.2147 198.278 80.5849C197.819 81.3404 197.189 82.2558 196.375 82.1792C195.674 82.1132 196.091 80.9466 195.8 80.3278C194.999 78.6227 195.079 76.7212 194.605 74.9449C193.809 71.9573 195.175 69.7025 197.024 67.5966C198.294 67.4871 199.259 66.8458 200.059 65.8882C201.734 63.8843 203.522 62.0234 205.965 60.9135C206.548 60.6488 207.054 60.1362 207.096 59.4136C207.165 58.2339 207.551 57.242 208.607 56.5073C207.411 56.2133 206.41 56.2986 205.84 57.5484C205.648 57.9677 205.769 58.5661 205.129 58.7195C203.816 59.0342 203.098 60.1221 202.206 60.9828C202.008 60.994 201.811 61.0051 201.613 61.0163C201.619 60.5391 201.551 60.116 200.937 60.0939L200.906 60.0386C201.316 59.1406 201.29 58.4549 200.143 58.1456C199.016 57.8418 196.475 58.6037 195.759 59.546C195.169 60.3216 194.543 60.9913 193.649 61.4997C192.312 62.2598 192.333 63.2362 193.51 63.934C193.46 64.1275 193.41 64.321 193.36 64.515C191.581 64.4696 189.858 65.0036 188.167 65.2113C187.838 64.5288 189.267 64.4276 188.45 64.0222C187.491 63.5461 185.926 62.9109 185.362 63.3324C184.445 64.018 183.549 64.1141 182.587 64.3202C182.369 64.3366 182.151 64.3531 181.934 64.3694C181.297 63.9534 180.721 63.8789 180.295 64.659C180.075 64.6434 179.855 64.6278 179.634 64.6121C178.87 63.4192 177.887 64.4299 177.013 64.3521C176.355 64.1576 175.699 64.1461 175.046 64.3735C173.99 64.4939 173.599 65.4186 172.986 66.0754C172.88 66.0793 172.79 66.1193 172.716 66.1958C171.542 66.1299 171.882 67.4827 171.174 67.8447C168.346 69.2919 167.061 72.5818 164.044 73.8091C163.675 73.9592 163.395 74.6423 163.591 74.6585C164.903 74.7671 165.967 75.0863 166.287 76.5534C167.061 75.6393 167.066 76.4718 167.377 76.9559C167.598 77.3001 168.198 77.1655 168.333 76.7937C168.795 75.5193 169.809 75.7665 170.763 75.7934L170.759 75.7889C170.871 75.8984 170.983 76.008 171.095 76.1175C171.299 76.3425 171.502 76.5674 171.706 76.7923C173.019 78.1464 173.137 80.0666 172.025 81.9787C171.922 82.2069 171.819 82.4351 171.716 82.6633C171.139 83.7401 171.565 84.8655 171.556 85.9698C171.42 86.5101 171.412 87.0478 171.588 87.5818C171.473 87.8241 171.447 88.0624 171.619 88.2922C171.577 88.3503 171.566 88.4139 171.585 88.4833C170.957 88.6265 170.151 88.3798 169.862 89.269C169.725 89.4771 169.588 89.6852 169.451 89.8934C168.981 90.2218 168.582 90.6005 168.524 91.2178C168.458 91.2798 168.425 91.356 168.424 91.447C167.026 93.1224 165.627 94.7973 164.228 96.4723L164.219 96.481C163.786 96.658 163.626 97.0193 163.565 97.4475C162.177 98.4663 160.923 99.9874 158.937 98.4838C158.552 98.1922 158.137 98.4839 157.91 98.9408C157.664 99.4361 157.355 99.8796 156.686 99.7665C156.661 99.5891 156.636 99.4118 156.611 99.2345C158.103 98.3204 157.63 96.8146 157.622 95.5232C157.615 94.5169 157.846 94.0869 158.879 94.2168C160.207 94.3836 161.061 93.8559 161.461 92.5266C161.662 91.8557 162.109 91.2622 162.358 90.6011C162.629 89.8847 163.727 89.257 163.034 88.4454C162.271 87.5501 161.208 88.2821 160.277 88.4259C160.121 88.45 159.98 88.5594 159.828 88.6198C158.472 89.1585 157.399 89.0191 156.762 87.4944C156.26 86.2909 155.429 85.2045 154.086 85.0961C152.751 84.9884 152.322 84.1466 151.642 83.2636C150.656 81.983 150.852 80.2409 149.757 79.0587L149.771 79.0759C149.801 78.7606 149.716 78.5224 149.361 78.4664L149.37 78.4744C149.38 78.2518 149.281 78.1323 149.052 78.133L149.069 78.1459C146.849 76.2686 144.336 77.318 141.92 77.4539C141.65 77.4691 141.542 77.8027 141.566 78.0987L141.578 78.0793C140.428 78.7401 141.232 79.3948 141.584 80.0508L141.58 80.0274C141.577 80.1506 141.574 80.2738 141.571 80.3971L141.577 80.3743C141.291 80.5214 141.215 80.7651 141.259 81.0641L141.267 81.0542C141.051 81.0754 140.942 81.192 140.946 81.4107L140.955 81.3998C140.739 81.421 140.636 81.5409 140.645 81.7576L140.655 81.7511C140.275 81.7888 140.206 82.0492 140.215 82.3657C140.14 82.4666 140.066 82.5674 139.991 82.6682C139.456 82.8523 139.542 83.2697 139.611 83.681L139.617 83.6625C139.325 83.7956 139.24 84.0338 139.279 84.3339L139.282 84.3283C139.063 84.3235 138.942 84.4264 138.931 84.6499L138.946 84.6388C138.558 84.5999 138.184 84.601 137.955 84.9997L137.976 84.9915C137.049 84.9812 136.176 84.8134 135.268 84.5332C133.271 83.9171 131.348 83.6305 129.293 84.9533C127.432 86.1514 125.02 86.3587 123.05 85.1579C121.05 83.9382 119.054 83.6656 116.85 83.936C115.866 84.0567 114.501 84.2477 114.22 83.2078C113.588 80.8688 111.494 81.1456 109.973 80.4682C108.905 79.9929 107.974 80.7799 107.208 81.4834C106.56 82.0782 106.861 82.6968 107.264 83.383C107.819 84.3286 107.157 85.0879 106.331 84.8523C104.889 84.4411 103.388 84.4128 101.948 83.8214C100.394 83.1833 98.7502 82.9106 96.8618 83.672C94.8766 84.4725 93.0119 85.9949 90.6323 85.6424C90.3386 84.8067 89.7869 84.4944 88.8888 84.6464C88.0079 84.7954 87.1488 84.725 86.5185 83.9264C85.6611 82.84 84.5175 82.6526 83.1757 82.6384C81.9766 82.6257 80.3791 82.6832 79.6882 81.7396C78.1926 79.6968 77.0809 77.4339 74.7992 75.9897C74.0567 75.5198 73.8087 75.3979 73.2802 75.9796C72.4657 76.8762 71.3161 77.6911 70.3142 76.9751C69.2298 76.2001 68.0565 76.7581 67.0744 76.1955C66.7644 76.0179 66.7701 75.6525 66.7228 75.3239C66.464 73.5289 65.6439 73.0574 63.8164 73.387C62.9943 73.5353 62.5252 74.2863 61.8244 74.401C58.6225 74.9253 55.59 76.3808 52.2546 76.1569C51.7989 75.6544 51.5781 75.8779 51.3816 76.4015C51.084 77.1941 51.3338 77.9789 51.3485 78.7669L51.339 78.7647C50.2967 79.089 50.4439 79.9586 50.4274 80.7532L50.3656 80.7878C50.2762 80.8808 50.1868 80.9738 50.0974 81.0668L50.0644 81.1231C49.4592 81.6248 49.3151 82.0676 50.2568 82.2971C50.6369 82.3897 51.0706 82.4223 51.0169 82.9321C50.9542 83.5275 50.488 83.7025 49.9568 83.7056C49.0925 83.7107 48.2281 83.6979 47.3638 83.6926L47.3443 83.6876C47.1854 82.9324 46.6739 82.849 46.0095 82.9204C44.2707 83.1073 42.8873 83.668 41.1363 83.5328L40.7271 83.01C40.7783 82.5667 40.5576 82.3879 40.1371 82.4038L40.1102 82.3865C39.9967 82.0871 39.7569 82.0461 39.481 82.0792L39.4589 82.0652C37.8572 81.419 36.2596 81.446 34.6659 82.0948C32.4845 82.2257 32.7621 85.6946 30.2332 85.3691C30.1827 85.3626 30.0605 85.5273 30.055 85.6172C29.9914 86.6568 29.0113 87.8385 30.0343 88.7035C31.5546 89.989 32.6005 91.5497 33.6209 93.2124C33.9497 93.7481 34.5249 94.2408 34.4893 94.8529C34.3648 96.9908 35.1959 98.9168 35.66 100.924C35.59 101.098 35.5201 101.272 35.4501 101.446C34.8561 101.418 34.2622 101.368 33.6682 101.368C31.99 101.369 30.2537 102.482 28.65 101.097C27.7675 99.6416 25.9773 100.086 24.8298 99.2961C22.8146 97.9089 20.6968 97.3537 18.3043 97.814C17.4388 96.2521 15.183 96.5892 14.3061 94.8398C16.4345 94.5873 15.5603 92.1067 17.0133 91.3161C16.8773 91.2391 16.7414 91.1621 16.6054 91.0851C16.7059 90.1642 17.3846 89.7484 18.07 89.2683C19.5139 88.2569 19.361 86.7393 17.8069 86.0061C17.3665 85.7984 16.9482 85.5439 16.5198 85.3109C16.3835 85.2224 16.2472 85.1339 16.1109 85.0455C16.0296 85.035 15.9484 85.0236 15.8673 85.0113C15.7302 84.7278 15.489 84.6657 15.203 84.6988L15.1722 84.6837C14.4092 83.7483 12.8776 84.5844 12.2213 83.4033L12.193 83.3496C12.2176 83.0938 12.2024 82.8608 11.8797 82.8047L11.811 82.7411C11.561 82.2301 11.0736 82.156 10.5889 82.0769L10.5703 82.0344C10.5606 81.7147 10.6982 81.3403 10.2533 81.1827C10.1154 81.0423 9.9774 80.902 9.83944 80.7616C9.46467 80.233 9.08711 80.3268 8.70807 80.7566L8.67121 80.7658C7.9822 80.6934 7.13937 80.8456 6.78747 80.0865C6.45606 79.3717 7.17353 79.0679 7.61728 78.6899C8.15518 78.2317 8.12449 77.686 7.59996 77.3133C6.26479 76.3645 5.71667 74.984 5.37145 73.4885C5.22613 72.859 4.91177 72.581 4.27357 72.5064C3.68745 72.4379 3.12282 72.2025 2.53843 72.0984C1.37701 71.8916 1.18504 71.2538 1.54141 70.2153C1.78182 69.5147 2.05645 68.7054 1.02331 68.3056L1.03349 68.3212C-0.0810105 67.2934 -0.532064 66.269 0.903347 65.101C1.1117 64.9315 1.01674 64.3892 1.06213 64.0194L1.09233 63.9338C1.89913 63.9879 2.54359 63.5973 3.59638 62.9647C2.14217 63.3161 1.63347 61.7391 0.458743 62.3439L0.493154 62.2912C1.82663 60.79 2.61344 58.827 4.80695 58.0733C6.11434 57.6241 6.04723 56.1519 4.86482 55.3348C4.43847 55.0402 4.31994 54.6764 4.37437 54.218C4.44511 53.6223 4.14196 53.2069 3.81915 52.7441C2.55794 50.9358 3.49865 48.6062 2.45532 46.7277C2.40333 46.6341 2.50895 46.3906 2.61104 46.2834C3.73979 45.0984 3.10292 44.2785 2.08895 43.4801C1.32173 42.8759 0.712286 42.1864 1.69449 41.2467C2.68457 40.5141 3.53328 39.5525 4.82741 39.3124C5.25305 39.12 5.76208 39.3967 6.17597 38.9204C6.77239 38.2341 7.36211 39.0154 7.95621 39.1155C8.14109 39.1467 10.0555 40.3078 10.2553 40.3025C12.2476 40.2496 13.8305 41.2286 15.4545 42.2178C16.5876 42.9081 17.887 43.3203 19.0894 43.9034C20.3355 44.5077 20.7007 45.5585 20.452 46.8707C18.6682 48.4916 16.7111 48.8836 14.3018 48.3164C12.2112 47.8243 10.1728 47.019 7.99319 46.9117C7.95357 46.7736 7.91388 46.6355 7.87419 46.4974C7.8316 46.5269 7.75967 46.5498 7.75135 46.587C7.70635 46.7882 7.82899 46.8695 8.00379 46.9029C8.40338 47.5021 8.93883 47.9773 9.55554 48.3116C10.4516 48.7974 10.7828 49.3017 10.7372 50.4784C10.6995 51.4494 10.4299 53.284 12.515 53.2517C12.747 53.2481 12.9666 53.6973 13.2251 53.8927C13.7739 54.3075 14.4154 54.4343 15.0859 54.35C15.4174 54.3083 15.7312 54.1503 15.7721 53.7621C15.8098 53.4039 15.6326 53.1183 15.303 52.9813C15.0558 52.8786 14.7321 52.9119 14.5271 52.7659C14.131 52.4838 13.6916 52.1027 13.9109 51.5607C14.1802 50.8952 14.679 51.2074 15.1442 51.4009C15.9978 51.7559 16.8666 52.0748 17.7331 52.3977C18.1885 52.5673 18.5936 52.4662 18.9233 52.1051C19.2554 51.7413 19.1341 51.3977 18.8386 51.0947C18.1388 50.377 18.5251 49.9624 19.2233 49.6065C19.9017 49.2606 20.6932 49.0218 21.2159 48.5115C22.0692 47.6787 22.9565 47.6047 23.8701 48.1333C24.4502 48.4689 24.758 48.359 25.0955 47.9063C25.463 47.4133 25.9283 46.7627 25.3811 46.3079C24.619 45.6745 24.7397 45.1247 24.9888 44.3362C25.1854 43.7139 25.2003 42.9849 24.6218 42.3877C25.6259 42.1656 26.494 42.2029 27.3639 42.2983C27.4085 42.3597 27.4688 42.3882 27.5452 42.3835C27.7739 42.8177 28.0462 43.2062 28.5514 43.3534C28.5726 43.4547 28.6168 43.5447 28.6838 43.6235C28.4008 44.2223 27.8099 44.1503 27.2995 44.2833C26.7584 44.4242 26.0362 44.9139 26.3455 45.3136C26.9267 46.0645 27.5648 46.9709 28.816 46.8611C30.0531 46.7525 30.7362 46.2454 30.6364 44.9342L30.6396 44.9299C31.6412 44.6448 32.5292 44.1228 33.4043 43.5816C34.2763 43.0422 35.1075 42.1381 36.1409 42.2933C37.4333 42.4873 38.1563 41.9037 38.875 41.0714C39.0849 41.0248 39.2948 40.9782 39.5046 40.9318C39.6104 40.9184 39.7163 40.9048 39.8222 40.8913C40.0358 40.9312 40.2495 40.9711 40.4632 41.0109C39.6449 41.5796 39.2259 42.5118 38.4393 43.158C37.865 43.6298 37.2365 44.0507 36.6748 44.5439C36.4258 44.7625 36.1862 45.0871 36.4794 45.386C36.8455 45.7592 37.0125 45.3353 37.2118 45.1024C38.461 43.6424 40.5124 43.4405 41.8796 42.1408C42.1002 41.9311 42.663 41.8849 42.9773 42.0032C44.636 42.6278 45.7648 41.7599 46.8642 40.7418C47.104 40.7379 47.3439 40.7339 47.5843 40.7299C47.8505 41.2921 47.5123 42.4308 48.2251 42.3801C49.0032 42.3248 49.893 41.6855 50.4314 41.046C50.9263 40.4581 50.0992 40.062 49.672 39.6867C49.6714 39.4639 49.6707 39.2411 49.6701 39.0184C50.407 38.5474 51.2156 38.484 52.0301 38.696C53.1003 38.9746 54.1749 39.0385 55.2675 38.933C55.3534 38.9962 55.4494 39.033 55.5556 39.0433C55.7926 39.4998 55.7715 40.2732 56.4648 40.2409C58.3659 40.1523 59.7162 41.2214 61.0879 42.2712C61.4327 42.535 61.7833 42.7247 62.0551 42.2984C62.3245 41.8757 63.0844 41.1973 62.5787 40.9562C61.5471 40.4646 61.6628 37.9985 59.6806 39.2325C59.5688 39.0493 59.4569 38.8661 59.345 38.6829C59.4105 38.4843 59.476 38.2857 59.5414 38.087C60.5763 36.8761 60.427 35.8092 59.1784 35.4942L59.1115 35.4538C59.0481 34.9281 59.2658 34.516 59.632 34.1639C59.8092 34.1191 59.9865 34.0743 60.1638 34.0297C62.229 33.9133 62.2723 32.3049 62.5148 30.8435C62.6252 30.5375 62.7355 30.2314 62.8457 29.925C64.0246 29.1089 65.3652 29.7159 66.6221 29.5561C67.1697 29.4864 68.1318 29.6258 68.3612 30.4696C68.5649 31.2188 68.1805 31.8764 67.6282 32.3621C66.9517 32.9571 66.8697 33.4782 67.5634 34.1205C68.3238 34.8247 68.2484 35.5918 68.0554 36.6231C67.803 37.9713 67.247 39.8459 68.2814 40.7457C69.4399 41.7535 68.9966 42.5307 68.7491 43.4344C68.13 45.6949 66.1992 46.8049 63.9055 46.3478C63.473 46.2616 62.9513 45.9988 62.6775 46.5635C63.7533 48.3979 66.181 46.7983 67.3046 48.4821C67.3134 48.4952 67.6569 48.3685 67.6684 48.2835C67.8114 47.2201 68.7578 47.0337 69.4648 46.5717C70.4986 45.8963 70.5455 44.5077 71.5102 43.7173C71.9073 43.392 71.1687 42.8974 71.0175 42.4543C70.8049 41.8316 71.1104 41.3088 71.6337 41.1082C73.6071 40.3517 74.9124 40.9681 74.9511 42.9355C74.963 43.5397 75.0902 44.0452 75.6924 44.2505C76.7404 44.6079 77.8064 44.9126 78.8716 45.2415C78.9988 44.7531 78.7374 44.4524 78.4676 44.3848C77.0955 44.0408 76.1589 43.7437 76.1424 41.7968C76.128 40.0853 73.9495 39.354 72.0079 39.937C70.4516 40.4043 69.9322 40.0199 69.9324 38.3677C69.9325 37.8793 69.9395 37.3611 70.272 36.9615C70.777 36.3546 70.6801 35.8429 70.2648 35.1966C68.9754 33.1904 69.0045 33.1721 71.1781 32.0647C71.5622 31.869 71.9443 31.6697 72.3273 31.4721C72.3519 31.8073 72.3764 32.1424 72.4009 32.4776C72.3979 32.7987 72.3948 33.1197 72.3915 33.4408C72.1965 34.1493 72.5388 34.2792 73.1856 34.4707C74.1093 34.7442 75.1121 34.1469 75.9622 34.8376C76.2773 35.0936 76.7025 35.1991 76.8617 34.6793C77.0068 34.2051 76.5798 33.9439 76.2284 33.9221C75.2291 33.8603 74.369 33.5252 73.6149 32.884C73.2067 32.5379 73.334 32.2067 73.7028 31.9712C74.1504 31.6855 74.6217 31.7433 75.0626 32.044C75.4867 32.3332 75.9866 32.9407 76.4259 32.3192C76.8335 31.7423 75.9667 31.6287 75.7142 31.2751C75.4632 30.9235 75.5346 30.5639 75.6083 30.193C78.2729 31.1311 80.9375 32.0693 83.6713 33.0319C83.5997 33.3718 83.1675 33.452 82.9122 33.698C82.4624 34.1315 82.4347 34.7746 83.0135 34.8541C84.7504 35.0928 83.8921 36.0901 83.5067 37.0712C84.9988 36.0017 85.0066 35.9995 84.6067 34.5457C84.5311 34.2707 84.4548 34.0002 84.6343 33.7702C85.3098 32.9044 84.9388 32.5539 84.0744 32.079C82.1397 31.0163 80.1109 29.9284 80.1883 27.2167C80.2903 27.1464 80.3922 27.0761 80.4942 27.0065C80.8676 27.0241 81.241 27.0399 81.6143 27.0579C84.6273 27.2035 87.5468 25.7806 90.5986 26.5226C90.87 26.5886 91.1475 26.4771 91.2449 26.1695C91.3518 25.8317 91.125 25.6576 90.8534 25.5825C90.1147 25.3782 89.4498 25.0365 88.8372 24.5837C88.9146 24.4855 88.992 24.3873 89.0693 24.289C90.0203 24.1389 90.2617 23.2888 90.7014 22.6344C90.9273 22.5399 91.1532 22.4454 91.3791 22.3507C92.7074 21.8387 93.7766 20.736 95.2859 20.6369C95.501 20.5985 95.7161 20.5601 95.9311 20.5219C96.6117 20.3863 97.3186 20.3247 97.9661 20.0954C98.7615 19.8138 99.9219 20.2875 100.281 19.0452Z" fill="#FFA66B" fill-opacity="0.3"/>
<path d="M110.255 5.63552C110.77 6.98276 110.133 7.62912 108.875 7.87773C108.934 8.46075 110.148 8.08163 109.764 8.90231C109.514 9.43763 108.873 9.33001 108.329 9.41917C106.855 9.66108 105.558 8.88681 104.148 8.84898C104.086 8.79438 104.015 8.77332 103.932 8.78604C103.785 8.33386 103.533 8.24476 103.056 8.38269C102.675 8.49276 100.89 6.48218 101.059 6.42816C101.936 6.14835 102.031 4.88329 103.083 4.88628C104.702 4.89089 106.4 3.99906 107.918 5.30986C107.969 5.35409 108.258 5.12263 108.437 5.01967C109.226 4.68498 109.694 5.2964 110.255 5.63552Z" fill="#FFA66B" fill-opacity="0.3"/>
<path d="M173.587 91.8788C173.656 90.8969 173.726 89.9151 173.795 88.9331C174.156 88.5878 174.13 88.2452 173.787 87.9049C173.78 87.3699 173.774 86.8349 173.767 86.2998C174.164 85.9231 174.126 85.4513 174.056 84.9727C174.031 84.2108 174.007 83.449 173.982 82.6872C174.16 82.0984 174.117 81.5276 173.832 80.9812C173.17 79.7095 173.334 78.4233 173.758 77.1314C173.758 77.1314 173.757 77.1413 173.757 77.1411C174.382 77.0425 175.264 77.0891 174.333 76.1161C174.353 75.9063 174.373 75.6966 174.394 75.4867C174.939 75.4291 175.013 75.9631 175.31 76.2166C175.505 76.9465 175.687 77.6625 175.664 78.4442C175.584 81.1776 176.534 83.6924 177.485 86.3775C176.289 85.8378 175.432 86.3544 175.039 87.3067C174.704 88.1196 174.248 89.1452 175.289 89.9155C175.594 90.6042 175.899 91.2931 176.298 92.1962C174.612 91.0261 174.571 91.0438 174.309 92.7889C174.309 92.7889 174.318 92.7797 174.319 92.7803C174.13 92.7971 173.942 92.8135 173.753 92.8298C173.711 92.6157 173.668 92.4015 173.626 92.1874C173.675 92.0767 173.661 91.9738 173.587 91.8788Z" fill="#FFA66B" fill-opacity="0.3"/>
<path d="M172.752 17.4117C172.977 17.3513 173.202 17.291 173.428 17.231C173.894 17.668 174.36 18.1048 174.826 18.5415C173.813 19.6018 173.813 19.6018 174.714 20.3342L174.699 20.3128C174.632 20.8297 174.921 20.9912 175.374 20.9894L175.354 20.9689C175.12 21.8826 174.527 21.7999 173.877 21.4814C172.516 20.8148 171.336 21.5686 170.105 21.9379C169.563 22.1266 169.024 21.9973 168.484 21.9266C166.029 20.7482 166.029 20.7482 166.826 18.3535C166.826 18.3535 166.828 18.3511 166.828 18.3511C166.937 18.2435 167.046 18.1359 167.155 18.0282C167.155 18.0282 167.159 18.0258 167.159 18.0258C167.847 18.1423 168.4 17.8733 168.885 17.4149C168.968 17.4444 169.049 17.4418 169.13 17.4069C169.219 17.4679 169.306 17.5334 169.398 17.5894C170.297 18.1358 171.15 18.9893 172.11 19.1331C172.95 19.2589 171.601 17.8147 172.658 17.5402C172.697 17.5299 172.721 17.456 172.752 17.4117Z" fill="#FFA66B" fill-opacity="0.3"/>
<path d="M114.817 7.30871C114.792 7.92136 114.335 8.68832 115.719 8.2858C116.781 7.97715 117.418 9.26745 118.166 9.87993C118.6 10.2354 117.99 10.8547 117.396 10.9927C116.657 11.1642 115.906 11.3883 115.159 11.3922C113.268 11.4019 111.442 11.7294 109.309 12.657C110.506 10.6618 111.436 9.11075 112.367 7.55982C112.676 7.55744 112.985 7.55496 113.295 7.55234C113.437 7.79578 113.559 7.81191 113.652 7.51898C114.021 7.34467 114.393 7.18103 114.817 7.30871Z" fill="#FFA66B" fill-opacity="0.3"/>
<path d="M104.451 0.322092C105.027 1.27859 106.304 1.89091 105.89 3.34056C105.825 3.56984 106.034 3.96411 105.598 3.89805C103.598 3.59495 101.756 4.97319 99.7189 4.40675C99.2264 4.26976 98.4729 4.51857 98.4707 3.78546C98.4688 3.16446 99.2445 3.38934 99.6577 3.20037C99.798 3.13623 99.906 3.00159 100.09 2.84804C99.6877 2.63589 99.3307 2.44763 98.9739 2.25929C98.9913 2.19286 98.9857 2.12847 98.9574 2.06555C99.913 1.67183 100.801 1.09526 101.862 0.987506C102.866 1.31352 103.456 0.0292763 104.451 0.322092Z" fill="#FFA66B" fill-opacity="0.3"/>
<path d="M46.8589 0.785389C47.1686 0.915732 47.9758 0.274074 47.6984 1.20891C47.6166 1.48495 48.3549 2.44743 46.9963 2.3048C45.2873 2.12541 43.5711 3.0499 41.7869 2.55105C41.3843 2.43849 40.881 2.60944 40.8394 1.96039C40.9409 1.93256 41.0372 1.89213 41.1282 1.83939C41.2746 1.83887 41.5441 1.85987 41.5487 1.83401C41.6008 1.53947 41.3298 1.61961 41.181 1.55119C41.2184 1.47525 41.2381 1.39497 41.2406 1.31041C41.7662 0.796393 42.3538 1.14605 42.7328 1.40211C43.3479 1.81771 43.8052 1.92419 44.1319 1.20564C44.5704 0.240986 43.2255 0.968715 43.2645 0.189704C44.3673 0.610835 45.5674 -0.680692 46.6225 0.539733C46.585 0.652811 46.547 0.765418 46.5089 0.878025C46.6256 0.847145 46.7422 0.816267 46.8589 0.785389Z" fill="#FFA66B" fill-opacity="0.3"/>
<path d="M185.957 22.0508C184.084 22.2512 182.854 21.0963 181.391 20.6124C180.902 20.4505 180.803 19.9158 181.036 19.5129C181.37 18.9341 181.589 19.575 181.88 19.6481C183.04 19.9389 184.23 20.1121 185.41 20.3244C185.515 20.3434 185.627 20.3257 185.735 20.3331C186.571 20.3899 187.677 20.7017 187.662 21.4081C187.641 22.3278 186.381 21.7752 185.957 22.0508Z" fill="#FFA66B" fill-opacity="0.3"/>
<path d="M232.935 35.2039C232.154 34.7938 231.291 35.061 230.432 35.1005C230.127 35.1145 229.728 35.1758 229.628 34.7522C229.558 34.4563 229.813 34.2845 230.019 34.0998C231.32 32.9342 233.312 32.7805 234.835 33.7149C235.122 33.8905 235.461 34.0061 235.345 34.414C235.268 34.689 235.03 34.8738 234.718 34.8068C234.079 34.6696 233.598 35.1903 232.935 35.2039Z" fill="#FFA66B" fill-opacity="0.3"/>
<path d="M36.872 2.29115C36.9205 3.37324 35.9777 3.33575 35.3607 3.4947C34.0958 3.82056 32.9277 4.27804 31.9417 5.14866C31.7534 5.15967 31.5652 5.17098 31.3767 5.18242C30.9674 3.92304 30.8176 2.91089 32.7543 3.29348C33.4424 3.42942 33.5209 2.85874 33.3633 2.30064C33.6581 2.17523 33.9529 2.04982 34.2478 1.92449C35.0032 1.53767 35.3967 3.07239 36.2253 2.29715C36.4409 2.29515 36.6564 2.29315 36.872 2.29115Z" fill="#FFA66B" fill-opacity="0.3"/>
<path d="M178.928 19.6585C177.861 19.9374 177.624 21.7285 176.113 21.2021C175.863 21.1151 175.608 21.0466 175.355 20.9695C175.355 20.9695 175.374 20.99 175.374 20.99C175.265 20.6488 175.015 20.4479 174.699 20.3134C174.699 20.3134 174.714 20.3348 174.714 20.3348C175.278 18.182 176.755 18.462 178.322 18.9803C178.6 19.1383 178.87 19.3036 178.928 19.6585Z" fill="#FFA66B" fill-opacity="0.3"/>
<path d="M51.6494 3.93457C50.9485 3.92769 50.3322 3.44807 49.5923 3.59861C49.2102 3.67636 48.7567 3.60175 48.7539 3.10001C48.7512 2.62032 49.1016 2.28354 49.5897 2.27607C50.4487 2.26294 51.2886 2.15093 52.1386 2.04998C53.0562 1.941 52.8105 2.60309 52.5205 3.1198C52.5201 3.11918 52.5375 3.17262 52.5382 3.17332C52.1299 3.22051 51.9565 3.50676 51.8449 3.85604C51.7665 3.84925 51.7014 3.87543 51.6494 3.93457Z" fill="#FFA66B" fill-opacity="0.3"/>
<path d="M56.8968 2.60589C56.7355 2.59958 56.568 2.61929 56.4139 2.58254C55.659 2.40238 54.3935 3.07557 54.222 2.29085C53.9863 1.21263 55.4041 1.90205 55.9049 1.43692C56.0849 1.26971 56.1648 0.994624 56.2905 0.76917C56.8349 0.506387 57.2772 0.801683 57.7319 1.0321C57.7678 1.22541 57.803 1.41892 57.8382 1.61244C57.5244 1.94359 57.2106 2.27474 56.8968 2.60589Z" fill="#FFA66B" fill-opacity="0.3"/>
<path d="M33.9287 40.6844C33.0299 40.8329 32.1165 42.7128 31.2358 40.6619C31.2703 40.4795 31.3048 40.297 31.3394 40.114C31.4476 39.9785 31.5558 39.8436 31.6641 39.7086C31.6641 39.7086 31.6595 39.7294 31.6593 39.7291C31.8754 39.6286 32.0916 39.5284 32.3078 39.4281C32.5111 39.4264 32.7144 39.4247 32.9178 39.4229C33.1382 39.5195 33.3584 39.6165 33.5787 39.7134C33.5787 39.7134 33.5714 39.7008 33.5715 39.7008C33.6891 39.8048 33.8066 39.9089 33.924 40.0129C33.9256 40.2368 33.9272 40.4606 33.9287 40.6844Z" fill="#FFA66B" fill-opacity="0.3"/>
<path d="M31.0679 2.26172C30.6238 3.11546 29.5634 3.11868 28.9772 3.77588C28.4056 3.64288 27.8339 3.5105 26.7485 3.25914C28.4579 2.66977 29.728 2.34068 31.0679 2.26172Z" fill="#FFA66B" fill-opacity="0.3"/>
<path d="M47.1139 36.857C48.3688 36.8505 49.0896 37.6118 49.6417 38.6147C49.3332 38.6207 49.0251 38.6274 48.7169 38.6342C48.1756 38.4093 47.6345 38.1842 47.0934 37.9592C46.8877 37.5878 46.8366 37.2193 47.1139 36.857Z" fill="#FFA66B" fill-opacity="0.3"/>
<path d="M128.134 24.2302C128.07 24.1044 128.006 23.9786 127.942 23.8537C127.995 23.7977 128.007 23.7333 127.98 23.6616C128.672 22.9966 129.458 22.942 130.308 23.302C129.95 23.8985 129.69 24.6159 128.783 24.5335C128.635 24.2814 128.396 24.2284 128.13 24.2331C128.13 24.2331 128.134 24.2302 128.134 24.2302Z" fill="#FFA66B" fill-opacity="0.3"/>
<path d="M66.073 27.6005C66.095 27.9301 66.8583 28.1735 66.3561 28.4704C65.846 28.7721 65.1799 29.0729 64.5413 28.8339C64.0473 28.6491 64.371 28.2011 64.4052 27.8603C64.9246 27.5397 65.4903 27.5157 66.073 27.6005Z" fill="#FFA66B" fill-opacity="0.3"/>
<path d="M43.353 5.24861C43.6602 4.88947 43.2081 4.08796 43.7901 4.05444C44.334 4.02312 44.7501 4.60294 45.0296 5.12638C44.4706 5.16704 43.9118 5.20783 43.353 5.24861Z" fill="#FFA66B" fill-opacity="0.3"/>
<path d="M47.8522 4.04166C47.1524 4.53864 46.6636 5.3078 45.7859 4.69741C45.505 4.50201 45.34 4.01901 45.5888 3.83804C46.2748 3.33897 47.0123 3.51569 47.8522 4.04166Z" fill="#FFA66B" fill-opacity="0.3"/>
<path d="M98.6071 6.49518C98.4674 6.33277 98.336 6.16214 98.1861 6.00967C97.8798 5.69798 96.9468 5.94578 97.1863 5.26593C97.4231 4.59397 98.1784 4.87179 98.746 5.02136C98.7971 5.03481 98.8489 5.06146 98.8898 5.09484C99.3342 5.45726 100.396 4.89763 100.344 5.67863C100.29 6.48029 99.3045 6.42729 98.6113 6.48917C98.6115 6.48884 98.6071 6.49518 98.6071 6.49518Z" fill="#FFA66B" fill-opacity="0.3"/>
<path d="M171.073 26.7429C172.806 25.0788 174.294 24.9661 175.319 26.1879C175.588 26.5089 175.831 26.7883 175.61 27.1854C175.34 27.6688 174.949 27.4492 174.634 27.2385C174.093 26.8771 173.483 26.9492 172.891 26.8936C172.366 26.8442 171.84 26.806 171.073 26.7429Z" fill="#FFA66B" fill-opacity="0.3"/>
<path d="M126.414 25.9723C125.95 25.9502 125.519 26.3977 124.845 25.9607C125.444 25.4397 125.929 25.3763 126.491 25.8705C126.491 25.8702 126.414 25.9723 126.414 25.9723Z" fill="#FFA66B" fill-opacity="0.3"/>
<path d="M48.2782 23.8936C45.7794 25.3196 44.2461 27.6813 42.726 29.9639C41.8233 31.3195 42.9011 33.2681 44.8548 34.3485C45.3893 34.644 45.8763 34.8763 45.6947 35.5233C45.4292 36.4695 44.8259 35.7105 44.3713 35.7027C43.6654 35.6907 42.9581 35.6334 42.2541 35.6616C41.2826 35.7004 40.357 35.5735 39.8049 34.7021C39.4974 34.2169 39.0248 34.4655 38.8558 34.3621C37.8183 33.7279 36.8911 32.9067 35.9695 32.0994C35.8782 32.0194 36.0386 31.4063 36.139 31.3899C37.6358 31.1463 37.7676 30.0106 38.1144 28.8256C38.4308 27.7444 40.3209 27.4523 39.7674 25.7163C39.6788 25.4386 40.7973 25.1338 41.2566 24.6224C42.0088 23.785 43.1149 23.2762 42.9044 21.7981C42.7985 21.0548 43.7645 21.3075 44.1971 21.1354C46.0281 20.4069 47.3001 18.7106 49.3327 18.3283C50.645 18.0815 51.7844 17.4558 53.29 17.5966C55.0286 17.7593 56.9075 17.5413 58.4945 16.2757C59.3234 15.6146 60.3738 14.8973 61.638 15.255C62.2343 15.4238 62.8269 15.6924 62.9068 16.3746C62.9737 16.9464 62.6457 17.463 62.1444 17.7355C61.4778 18.0978 60.7761 18.5541 60.0546 18.6277C57.5858 18.8795 55.3899 20.1638 52.926 20.4092C52.5936 20.4424 52.2946 20.8115 51.98 21.0249C51.4887 20.9533 51.1404 21.1365 50.9516 21.6031C50.9516 21.6031 50.9544 21.5948 50.9546 21.5951C50.0626 22.3614 49.1704 23.1275 48.2782 23.8936Z" fill="#FFA66B" fill-opacity="0.3"/>
<path d="M72.6785 31.4868C72.5567 31.488 72.435 31.4891 72.3132 31.4903C72.2845 31.1899 72.2558 30.8896 72.2271 30.5892C72.2774 30.5391 72.3293 30.4907 72.3826 30.4438C72.474 30.4491 72.5633 30.4657 72.6506 30.4934C72.6599 30.8245 72.6692 31.1556 72.6785 31.4868Z" fill="#FFA66B" fill-opacity="0.3"/>
<path d="M72.2261 30.5886C71.9589 30.4128 71.7014 30.2232 71.7257 29.8581C71.7297 29.7978 71.8726 29.6845 71.9191 29.699C72.278 29.8111 72.3422 30.1229 72.3812 30.4437C72.3284 30.4902 72.2765 30.5386 72.2261 30.5886Z" fill="#FFA66B" fill-opacity="0.3"/>
<path d="M101.862 0.987587C100.8 1.09534 99.9126 1.67191 98.957 2.06563C99.1859 0.677471 100.188 0.305539 101.862 0.987587Z" fill="#FFA66B" fill-opacity="0.3"/>
</symbol>
</svg>
