<svg display="none" xmlns="http://www.w3.org/2000/svg">
<symbol id="ukraine-mobile" viewBox="0 0 165 99">
<!-- <path d="M12.7886 34.305C11.58 33.9812 10.3863 33.4569 9.16026 33.3651C-1.22581 32.5872 -1.68021 31.8405 2.37345 21.778C2.37421 21.7784 2.28876 21.7837 2.2891 21.7835C3.15035 21.2988 4.01131 20.8141 4.87227 20.3295C4.87227 20.3295 4.77072 20.4323 4.77105 20.4318C5.25775 19.5754 5.74412 18.7195 6.23047 17.8635C6.23047 17.8635 6.17387 17.9276 6.17405 17.9274C7.7438 17.8483 9.30757 17.7591 9.83275 15.8447C10.1332 15.463 10.4337 15.0814 10.7242 14.7106C11.9737 13.5516 12.9171 12.3685 10.8665 11.0607C10.567 9.92248 10.2675 8.78425 9.96836 7.64571C12.1998 5.34091 14.3607 2.75919 18.0761 3.54822C26.3848 5.31271 34.7483 6.45176 43.2327 7.10816C46.1152 7.33112 48.278 9.90765 49.2529 4.72942C49.8355 1.63516 53.5921 1.09717 56.738 0.965515C59.2355 0.860914 61.8955 1.85946 64.1847 0.0382227C64.1847 0.0382227 64.3294 0.00176958 64.328 0C65.808 0.00601654 67.2895 0.0137634 68.7708 0.0215494C69.3124 0.572711 69.854 1.12383 70.3965 1.67016C70.8116 2.78329 71.2259 3.90119 71.6401 5.01912C71.6401 5.01912 71.7131 5.18617 71.7141 5.18409C72.1877 8.12062 74.69 7.33132 76.5106 7.79404C76.5106 7.79404 76.7805 8.04386 76.782 8.03974C77.1924 8.75161 77.6013 9.46762 78.0102 10.1836C78.0102 10.1836 78.1212 10.3945 78.1225 10.3919C79.202 18.4732 85.7786 13.8976 89.7059 15.4219C89.7059 15.4219 89.8268 15.4811 89.8266 15.4791C90.6959 15.8875 91.5653 16.2978 92.4347 16.7082C92.7529 16.7567 93.0717 16.8015 93.394 16.8417C93.9301 17.1889 94.4631 17.5368 94.996 17.8846C96.6779 18.7997 98.3202 19.7989 100.049 20.6147C106.15 23.4937 106.75 29.4525 101.082 33.4239C98.391 35.3089 95.7267 36.9417 95.3277 40.5585C87.3198 42.6601 79.417 45.0164 72.5646 48.9873C73.9219 55.794 79.3778 54.0137 83.7244 55.053C78.7365 57.3635 73.356 58.1361 69.1947 61.7472C68.1985 62.6117 66.3635 61.2589 66.7303 59.8585C67.8591 55.5492 63.7341 55.6932 61.9707 54.355C62.3773 51.5187 65.7693 51.742 65.9541 48.9495C62.7146 48.6772 59.5363 49.2945 57.2892 45.3847C56.2498 43.5762 51.5812 43.5809 49.6396 46.8222C48.1311 49.3407 46.1518 51.0897 43.5421 52.2511C41.5903 50.9783 38.8057 52.4821 37.1194 50.3239C38.3879 49.1997 39.5608 47.9364 40.9467 46.9828C43.2048 45.4293 48.252 45.4537 44.231 40.6897C42.0725 38.1323 44.0636 33.5285 40.095 31.9827C34.7455 29.8988 29.3065 27.6743 23.8577 31.825C20.2693 33.104 16.723 34.5707 12.7886 34.305Z"  fill="#FFA66B"/> -->
<path d="M10.8502 29.0745L8.81308 32.6586L5.54328 34.4988L5.23021 34.3535L5.02835 34.8545C4.91609 34.9907 4.78702 35.1965 4.74369 35.3988C4.75113 35.43 4.76061 35.4611 4.77176 35.4919C3.30039 39.1557 2.21446 42.0458 1.6589 44.3231C1.08943 46.6575 1.02477 48.5427 1.8787 49.9969C2.73895 51.4618 4.3955 52.2623 6.65312 52.79C8.92821 53.3218 12.0169 53.6199 15.9897 53.9174L15.9898 53.9174C16.8448 53.9814 17.7084 54.198 18.6163 54.4736C18.9289 54.5685 19.2558 54.6736 19.5895 54.7808C20.189 54.9735 20.8108 55.1733 21.4126 55.3345L21.4848 55.3538L139.869 24.941L139.855 24.9356L138.906 24.4898L138.915 24.64C137.478 24.2879 135.923 24.3189 134.421 24.4308C133.836 24.4744 133.262 24.5295 132.699 24.5835C131.439 24.7046 130.23 24.8207 129.061 24.7914C127.404 24.75 126.011 24.4111 124.932 23.4602C123.851 22.5074 122.959 20.8284 122.558 17.8306L122.221 15.3049L121.748 16.2802C121.302 15.4999 120.855 14.7199 120.407 13.943L119.592 12.5298L119.355 13.1677C118.634 13.0029 117.872 12.9464 117.179 12.895L117.158 12.8934C116.38 12.8357 115.684 12.7827 115.06 12.6271C114.45 12.4749 113.963 12.2366 113.59 11.844C113.217 11.4523 112.892 10.8401 112.728 9.8258L112.333 7.37736L112.044 7.99198C111.586 6.75714 111.128 5.52304 110.669 4.29266L110.611 4.13771L110.495 4.02037C109.665 3.18533 108.837 2.34273 108.007 1.49838L108.005 1.49569L107.781 1.26816L107.462 1.26648C105.19 1.25455 102.918 1.24267 100.648 1.23344L99.0431 1.22692L99.4949 1.79076C98.0569 2.75781 96.5093 3.00158 94.8408 2.98982C94.0224 2.98405 93.1962 2.91743 92.3379 2.84822C92.2169 2.83846 92.0953 2.82865 91.9729 2.81896C90.9967 2.74159 89.9825 2.67214 88.974 2.71437C86.5508 2.81576 83.7978 3.07447 81.519 3.94631C79.2157 4.82752 77.2875 6.38488 76.7746 9.10895C76.4076 11.0575 75.9482 12.1485 75.4767 12.7402C75.0543 13.2704 74.6027 13.4271 74.0274 13.4132C73.3773 13.3975 72.623 13.1652 71.6387 12.8621L71.6187 12.8559C70.6686 12.5633 69.5564 12.2263 68.3552 12.1334C55.374 11.1294 42.5826 9.38741 29.8784 6.69003C26.7966 6.03573 24.3387 6.78911 22.2314 8.15953C20.4409 9.3239 18.8777 10.9553 17.3991 12.4984C17.1762 12.7311 16.9551 12.9618 16.7355 13.1886L16.435 13.4989L16.5448 13.9167C17.0035 15.6624 17.4629 17.4076 17.9222 19.1526L17.9985 19.4426L18.2514 19.6039C18.9798 20.0683 19.3688 20.4768 19.5613 20.8107C19.7402 21.121 19.7668 21.3942 19.7042 21.6728C19.6355 21.9787 19.4489 22.3297 19.128 22.7365C18.8098 23.14 18.3953 23.5541 17.924 23.9912L17.8794 24.0325L17.8419 24.0804C17.397 24.648 16.9368 25.2325 16.476 25.8177L16.38 25.9395L16.339 26.0891C15.9985 27.3301 15.3609 27.9109 14.5794 28.2358C13.724 28.5915 12.6643 28.6572 11.4291 28.7195L11.0701 28.7376L10.8545 29.0251C10.8516 29.0291 10.8497 29.0466 10.8502 29.0745ZM10.8502 29.0745C10.8524 29.2186 10.9169 29.6422 11.2369 29.9454L9.66174 32.7168" fill="#FFA66B" fill-opacity="0.3" />
</symbol>
</svg>
