<svg width="1440" height="287" viewBox="0 0 1440 287" fill="none" xmlns="http://www.w3.org/2000/svg">
<path d="M1637.03 196.528C1637.03 196.528 1559.29 213.664 1388.39 220.914C1266.13 226.186 1096.61 226.186 873.319 211.357C686.33 198.835 509.616 167.199 332.559 133.257C2.41815 69.9856 -329.093 -0.864777 -731.152 32.0889C-1348.28 83.1671 -1825 144.461 -1825 144.461" stroke="#4B4B4B" stroke-width="0.25" stroke-miterlimit="10"/>
<path d="M1643.19 182.358C1643.19 182.358 1550.72 201.141 1373.32 213.664C1331.54 216.629 1286.34 218.607 1238.73 221.902C1108.94 230.8 982.224 218.936 816.469 203.778C634.617 186.971 459.273 157.313 282.559 124.03C-46.8973 62.0767 -380.12 -4.16021 -768.481 32.0888C-1363.69 86.792 -1820.89 159.62 -1820.89 159.62" stroke="#4B4B4B" stroke-width="0.297" stroke-miterlimit="10"/>
<path d="M1649.36 167.858C1649.36 167.858 1541.82 188.619 1357.91 205.755C1311.68 210.039 1262.02 213.334 1213.05 219.266C1058.6 237.061 935.306 215.97 759.277 195.539C582.905 175.108 408.245 147.097 232.558 114.473C-96.2127 53.8383 -431.491 -7.78505 -806.152 31.4298C-1379.45 90.7464 -1817.12 174.778 -1817.12 174.778" stroke="#4B4B4B" stroke-width="0.344" stroke-miterlimit="10"/>
<path d="M1655.52 153.688C1655.52 153.688 1532.92 176.426 1342.84 198.505C1291.82 204.437 1238.39 209.38 1187.71 216.959C1008.59 244.311 888.73 213.334 702.427 187.63C530.849 163.904 357.559 137.211 182.215 105.246C-145.529 45.9294 -483.204 -11.0804 -844.167 31.1003C-1394.86 94.3713 -1813.01 189.937 -1813.01 189.937" stroke="#4B4B4B" stroke-width="0.391" stroke-miterlimit="10"/>
<path d="M1661.68 139.518C1661.68 139.518 1524.01 164.892 1327.78 190.926C1271.95 198.505 1214.76 205.096 1162.36 214.652C958.594 251.89 842.154 210.698 645.577 179.392C479.136 153.029 306.874 126.666 131.872 95.6894C-195.186 37.691 -534.916 -14.7054 -881.838 30.7707C-1410.27 98.3257 -1809.25 205.096 -1809.25 205.096" stroke="#4B4B4B" stroke-width="0.438" stroke-miterlimit="10"/>
<path d="M1667.85 125.018C1667.85 125.018 1515.11 153.029 1312.36 183.346C1252.09 192.244 1190.79 200.812 1136.68 212.345C908.25 260.128 795.235 208.72 588.384 171.483C427.081 142.484 255.846 116.45 81.5286 86.1328C-244.845 29.4525 -586.287 -18.3304 -919.853 30.1115C-1425.68 101.951 -1805.14 220.254 -1805.14 220.254" stroke="#4B4B4B" stroke-width="0.484" stroke-miterlimit="10"/>
<path d="M1674.01 110.848C1674.01 110.848 1506.2 141.495 1297.3 175.767C1232.23 186.312 1167.16 196.857 1111.34 209.709C858.593 268.367 748.66 206.414 531.534 163.244C375.368 132.268 205.16 106.235 31.528 76.5763C-294.161 21.2141 -637.658 -21.2962 -957.524 29.782C-1441.09 106.894 -1801.03 235.083 -1801.03 235.083" stroke="#4B4B4B" stroke-width="0.531" stroke-miterlimit="10"/>
<path d="M1680.18 96.6781C1680.18 96.6781 1497.64 130.291 1282.23 168.517C1212.71 180.71 1143.53 193.232 1085.99 207.732C808.935 277.594 702.427 205.096 474.684 155.336C323.313 122.382 154.475 96.0191 -18.8144 67.0198C-343.476 12.9758 -689.028 -24.9209 -995.538 29.1231C-1456.5 110.848 -1797.26 250.242 -1797.26 250.242" stroke="#4B4B4B" stroke-width="0.578" stroke-miterlimit="10"/>
<path d="M1686.34 82.1784C1686.34 82.1784 1488.74 118.757 1266.82 160.608C1192.5 174.449 1119.55 188.948 1060.65 205.096C759.619 286.821 655.508 203.777 417.492 147.427C271.257 112.825 103.447 86.1328 -69.1576 57.7927C-393.134 4.73724 -740.741 -28.546 -1033.21 28.7934C-1471.91 114.803 -1793.15 265.401 -1793.15 265.401" stroke="#4B4B4B" stroke-width="0.625" stroke-miterlimit="10"/>
<path d="M1692.51 68.0083C1692.51 68.0083 1479.83 107.553 1251.75 153.029C1172.98 168.847 1095.92 184.994 1035.31 202.459C710.303 296.377 608.932 202.459 360.642 139.188C219.202 103.269 53.1042 75.5877 -119.158 48.2361C-442.449 -3.50119 -792.111 -32.1709 -1070.88 28.4639C-1487.32 118.427 -1789.38 280.56 -1789.38 280.56" stroke="#4B4B4B" stroke-width="0.672" stroke-miterlimit="10"/>
<path d="M1698.67 53.5088C1698.67 53.5088 1471.27 96.3486 1236.34 145.45C1152.77 162.915 1071.95 181.04 1009.62 200.153C660.645 306.264 561.671 201.8 303.449 131.279C166.804 94.0418 2.07584 65.7016 -169.501 38.6796C-492.108 -11.7395 -843.824 -35.7957 -1108.9 27.8049C-1502.74 122.382 -1785.27 295.718 -1785.27 295.718" stroke="#4B4B4B" stroke-width="0.719" stroke-miterlimit="10"/>
<path d="M1704.83 39.3386C1704.83 39.3386 1462.71 85.1443 1221.27 137.87C1133.25 156.983 1048.32 177.415 984.279 197.846C611.671 316.479 514.753 201.8 246.599 123.041C114.748 84.8147 -48.6101 55.4859 -219.845 29.4525C-541.766 -19.6485 -895.195 -39.0911 -1146.91 27.4753C-1518.49 126.007 -1781.51 310.877 -1781.51 310.877" stroke="#4B4B4B" stroke-width="0.766" stroke-miterlimit="10"/>
<path d="M1711 25.1687C1711 25.1687 1453.81 74.2696 1206.2 130.62C1113.39 151.381 1024.69 173.79 958.937 195.539C562.699 327.024 467.492 201.8 189.749 115.132C62.6932 75.5878 -99.2948 45.2704 -269.845 19.8961C-591.081 -28.2163 -946.565 -43.0455 -1184.58 26.8163C-1533.9 129.632 -1777.4 325.706 -1777.4 325.706" stroke="#4B4B4B" stroke-width="0.813" stroke-miterlimit="10"/>
<path d="M1717.16 10.6688C1717.16 10.6688 1445.24 63.0651 1190.79 122.711C1093.53 145.449 1001.06 169.506 933.251 192.903C513.383 337.24 419.889 202.459 132.556 106.894C10.2948 66.6901 -150.323 35.0545 -320.188 10.3393C-640.398 -36.1254 -998.278 -46.6706 -1222.25 26.4866C-1549.31 133.256 -1773.63 340.865 -1773.63 340.865" stroke="#4B4B4B" stroke-width="0.859" stroke-miterlimit="10"/>
<path d="M1723.33 -3.50123C1723.33 -3.50123 1436.68 52.1905 1175.72 115.462C1074.01 140.177 977.43 166.21 907.909 190.925C464.411 348.444 372.286 203.777 75.7075 99.3143C-42.1021 57.7926 -201.008 25.1685 -370.188 1.11229C-690.055 -44.3638 -1049.99 -50.2955 -1260.27 26.1571C-1565.07 136.881 -1769.52 356.023 -1769.52 356.023" stroke="#4B4B4B" stroke-width="0.906" stroke-miterlimit="10"/>
<path d="M1729.49 -17.6712C1729.49 -17.6712 1428.12 41.6454 1160.65 107.882C1054.14 134.575 954.141 162.256 882.565 188.289C415.779 358.989 324.339 205.096 18.514 91.076C-94.8435 48.8953 -252.037 14.6234 -420.874 -8.77369C-739.371 -52.6021 -1101.7 -54.5793 -1297.94 25.4981C-1580.82 139.847 -1765.41 371.182 -1765.41 371.182" stroke="#4B4B4B" stroke-width="0.953" stroke-miterlimit="10"/>
<path d="M1735.66 -32.1708C1735.66 -32.1708 1110.99 90.4169 857.223 185.983C367.148 370.194 276.051 207.402 -38.3358 83.1671C-352.723 -41.3978 -1056.16 -102.033 -1335.95 25.1686C-1596.23 143.802 -1761.64 386.341 -1761.64 386.341" stroke="#4B4B4B" stroke-miterlimit="10"/>
</svg>
