<svg width="77" height="77" viewBox="0 0 77 77" fill="none" xmlns="http://www.w3.org/2000/svg">
<g clip-path="url(#clip0)">
<path d="M9.00098 12.3884H31.7291C32.3521 12.3884 32.857 11.8834 32.857 11.2605C32.857 10.6376 32.3521 10.1326 31.7291 10.1326H9.00098C8.37791 10.1326 7.87305 10.6376 7.87305 11.2605C7.87305 11.8834 8.37791 12.3884 9.00098 12.3884Z" fill="#FF7300"/>
<path d="M9.00098 19.814H31.7291C32.3521 19.814 32.857 19.309 32.857 18.686C32.857 18.0631 32.3521 17.5581 31.7291 17.5581H9.00098C8.37791 17.5581 7.87305 18.0631 7.87305 18.686C7.87305 19.309 8.37791 19.814 9.00098 19.814Z" fill="#FF7300"/>
<path d="M53.4378 32.3936C53.4378 31.7706 52.9329 31.2656 52.3099 31.2656H9.90332C9.28025 31.2656 8.77539 31.7706 8.77539 32.3936C8.77539 33.0165 9.28025 33.5215 9.90332 33.5215H52.31C52.9329 33.5215 53.4378 33.0165 53.4378 32.3936Z" fill="#FF7300"/>
<path d="M48.6922 40.6052H9.90332C9.28025 40.6052 8.77539 41.1102 8.77539 41.7331C8.77539 42.356 9.28025 42.861 9.90332 42.861H48.6922C49.3153 42.861 49.8201 42.356 49.8201 41.7331C49.8201 41.1102 49.3151 40.6052 48.6922 40.6052Z" fill="#FF7300"/>
<path d="M49.8201 51.0728C49.8201 50.4499 49.3153 49.9449 48.6922 49.9449H9.90332C9.28025 49.9449 8.77539 50.4499 8.77539 51.0728C8.77539 51.6957 9.28025 52.2007 9.90332 52.2007H48.6922C49.3151 52.2007 49.8201 51.6957 49.8201 51.0728Z" fill="#FF7300"/>
<path d="M9.90332 59.2844C9.28025 59.2844 8.77539 59.7894 8.77539 60.4124C8.77539 61.0353 9.28025 61.5403 9.90332 61.5403H40.2646C40.8877 61.5403 41.3926 61.0353 41.3926 60.4124C41.3926 59.7894 40.8877 59.2844 40.2646 59.2844H9.90332Z" fill="#FF7300"/>
<path d="M76.2442 60.1979C75.884 59.3285 75.0433 58.7668 74.1023 58.7668H68.0862V41.7029C68.0862 39.7771 66.5196 38.2105 64.5939 38.2105H56.4177C54.492 38.2105 52.9253 39.7771 52.9253 41.7029V58.7667H46.9093C45.9683 58.7667 45.1274 59.3284 44.7674 60.1979C44.4074 61.0675 44.6047 62.059 45.27 62.7245L58.8664 76.3209C59.3042 76.7588 59.8865 77 60.5058 77C61.125 77 61.7073 76.7588 62.1451 76.321L75.7416 62.7245C76.4071 62.059 76.6042 61.0673 76.2442 60.1979ZM74.1465 61.1294L60.55 74.726C60.545 74.7309 60.5318 74.7442 60.5059 74.7442C60.4799 74.7442 60.4667 74.7309 60.4617 74.7258L46.8652 61.1293C46.8475 61.1115 46.8357 61.0998 46.8517 61.0612C46.8676 61.0225 46.8843 61.0225 46.9094 61.0225H54.0534C54.6765 61.0225 55.1814 60.5175 55.1814 59.8946V41.7029C55.1814 41.021 55.736 40.4664 56.4179 40.4664H64.594C65.2757 40.4664 65.8305 41.021 65.8305 41.7029V59.8946C65.8305 60.5175 66.3354 61.0225 66.9585 61.0225H74.1025C74.1276 61.0225 74.1441 61.0225 74.1602 61.0612C74.1763 61.0998 74.1643 61.1117 74.1465 61.1294Z" fill="#FF7300"/>
<path d="M53.6386 74.7441H5.68847C4.11509 74.7441 2.83496 73.4642 2.83496 71.8908V5.10922C2.83496 3.53583 4.11509 2.25586 5.68847 2.25586H41.8198V15.6779C41.8198 17.9586 43.6752 19.814 45.9559 19.814H59.3779V33.6875C59.3779 34.3104 59.8828 34.8154 60.5059 34.8154C61.1289 34.8154 61.6338 34.3104 61.6338 33.6875V18.686C61.6338 18.3869 61.515 18.1 61.3035 17.8885L43.7453 0.330408C43.5337 0.118809 43.2469 0 42.9478 0H5.68847C2.87105 0 0.579102 2.29195 0.579102 5.10922V71.8908C0.579102 74.708 2.87105 77 5.68847 77H53.6387C54.2618 77 54.7667 76.495 54.7667 75.8721C54.7667 75.2492 54.2616 74.7441 53.6386 74.7441ZM45.9557 17.5581C44.9189 17.5581 44.0755 16.7147 44.0755 15.6779V3.8509L57.7827 17.5581H45.9557Z" fill="#FF7300"/>
</g>
<defs>
<clipPath id="clip0">
<rect width="77" height="77" fill="white"/>
</clipPath>
</defs>
</svg>
