<svg width="86" height="87" viewBox="0 0 86 87" fill="none" xmlns="http://www.w3.org/2000/svg">
<path d="M78.0064 60.8203L77.6449 61.5511L77.9099 62.3221L83.8138 79.5041C84.3378 81.029 83.9586 82.6682 82.8189 83.8079L82.8187 83.8081C82.0126 84.6144 80.9623 85.0347 79.8878 85.0347C79.4341 85.0347 78.9715 84.9599 78.5152 84.803L78.5151 84.803L61.333 78.8991L60.5619 78.6341L59.8312 78.9956C54.3599 81.7022 48.2573 83.1349 42.1183 83.1446H42.0552C31.5078 83.1447 21.543 79.0598 13.9743 71.6259C6.38952 64.1763 2.1271 54.2614 1.95976 43.6946C1.87206 38.155 2.89137 32.7826 4.98821 27.7171L3.19232 26.9737L4.98821 27.7171C7.01133 22.8296 9.94058 18.4481 13.6998 14.6891L13.6999 14.689C17.459 10.93 21.8405 8.00069 26.7281 5.97741C31.7939 3.88047 37.1634 2.86019 42.7053 2.94916L42.7056 2.94916C53.2725 3.11683 63.1875 7.37908 70.6369 14.9638L72.0314 13.5942L70.637 14.9638C78.0854 22.5471 82.1717 32.5376 82.1554 43.1078C82.1458 49.2468 80.713 55.3493 78.0064 60.8203Z" stroke="#FF7300" stroke-width="3.90909"/>
<path d="M17.3853 24.259H31.8685V29.2361H22.8601V38.9413H29.9275V43.9184H22.8601V59.0984H17.3853V24.259ZM37.1205 24.259H44.5363L50.2102 59.0984H44.7354L43.74 52.1803V52.2798H37.5187L36.5233 59.0984H31.4467L37.1205 24.259ZM43.093 47.5516L40.6542 30.331H40.5547L38.1657 47.5516H43.093ZM68.8947 62.3335C66.4062 62.3335 64.8799 61.2219 64.3158 58.9988C63.2872 59.397 62.0762 59.5961 60.6826 59.5961C57.995 59.5961 55.9378 58.8329 54.511 57.3066C53.0843 55.7804 52.3709 53.6236 52.3709 50.8365V32.5209C52.3709 29.7338 53.0843 27.577 54.511 26.0507C55.9378 24.5244 57.995 23.7613 60.6826 23.7613C63.3702 23.7613 65.4274 24.5244 66.8541 26.0507C68.2809 27.577 68.9943 29.7338 68.9943 32.5209V50.8365C68.9943 53.1591 68.48 55.067 67.4514 56.5601C67.6505 56.8919 67.8993 57.1076 68.1979 57.2071C68.4966 57.3066 68.9279 57.3564 69.492 57.3564H70.3381V62.3335H68.8947ZM60.6826 54.619C62.5739 54.619 63.5195 53.4743 63.5195 51.1849V32.1725C63.5195 29.8831 62.5739 28.7384 60.6826 28.7384C58.7913 28.7384 57.8457 29.8831 57.8457 32.1725V51.1849C57.8457 53.4743 58.7913 54.619 60.6826 54.619Z" fill="#FF7300"/>
</svg>
