<svg width="84" height="85" viewBox="0 0 84 85" fill="none" xmlns="http://www.w3.org/2000/svg">
<path d="M0.184637 8.68907L5.78259 18.4849C5.97141 18.8159 6.28747 19.0554 6.65705 19.1481L11.8797 20.4538L29.7921 38.3662L31.7713 36.3875L13.5785 18.1953C13.3995 18.0157 13.175 17.8885 12.9291 17.8269L7.91089 16.5679L3.14481 8.22277L7.23101 4.13656L15.5796 8.90726L16.8392 13.9255C16.9002 14.1719 17.028 14.397 17.207 14.576L35.3998 32.7688L37.3784 30.7896L19.466 12.8772L18.1604 7.65744C18.0677 7.28728 17.8282 6.97065 17.4972 6.78125L7.70077 1.18388C7.15445 0.873006 6.46708 0.965115 6.0215 1.40897L0.424122 7.00692C-0.0260633 7.44962 -0.12393 8.13814 0.184637 8.68907Z" fill="#FF7300"/>
<path d="M58.3658 28.5701L27.5788 59.3577L25.5996 57.3785L56.3872 26.5915L58.3658 28.5701Z" fill="#FF7300"/>
<path d="M22.1897 60.4468C21.9364 60.0254 21.4816 59.768 20.99 59.768H12.5936C12.1026 59.768 11.6472 60.0254 11.3945 60.4468L7.196 67.4436C6.92946 67.8869 6.92946 68.4413 7.196 68.8851L11.3945 75.882C11.6472 76.3028 12.1026 76.5607 12.5936 76.5607H20.99C21.4816 76.5607 21.9364 76.3028 22.1897 75.882L26.3876 68.8851C26.6541 68.4413 26.6541 67.8869 26.3876 67.4436L22.1897 60.4468ZM20.1984 73.7617H13.3858L10.0272 68.1644L13.3858 62.5664H20.1984L23.5569 68.1644L20.1984 73.7617Z" fill="#FF7300"/>
<path d="M67.172 34.5781C76.4146 34.6092 83.933 27.1414 83.9641 17.8988C83.9687 16.4918 83.796 15.0906 83.45 13.7268C83.2635 12.9767 82.5042 12.5202 81.7541 12.7067C81.5077 12.7683 81.2831 12.8955 81.1035 13.0746L72.3923 21.7801L65.4806 19.4767L63.1756 12.5668L71.8868 3.85383C72.4332 3.30693 72.4326 2.42095 71.8857 1.87463C71.7055 1.69444 71.4787 1.56664 71.2305 1.50561C62.2671 -0.764308 53.1616 4.66151 50.8916 13.6243C50.5468 14.9841 50.3747 16.3819 50.3793 17.7848C50.3827 18.8867 50.4961 19.9851 50.7195 21.0639L20.0718 51.711C18.993 51.4882 17.8946 51.3748 16.7933 51.3708C7.51843 51.3708 0 58.8892 0 68.1641C0 77.4384 7.51843 84.9568 16.7933 84.9568C26.0676 84.9568 33.586 77.4384 33.586 68.1641C33.5825 67.0622 33.4685 65.9638 33.2458 64.885L40.5829 57.5479L43.7917 60.7568C44.3386 61.3031 45.224 61.3031 45.7709 60.7568L46.4704 60.0567C47.0841 59.4471 48.076 59.4471 48.6896 60.0567C49.3027 60.6681 49.3039 61.6606 48.6925 62.2737C48.6919 62.2743 48.6908 62.2754 48.6896 62.2766L47.9902 62.976C47.4439 63.5223 47.4439 64.4083 47.9902 64.9546L64.6839 81.6483C69.0746 86.0794 76.2258 86.1116 80.6568 81.7209C85.0873 77.3301 85.1195 70.1784 80.7288 65.7479C80.7052 65.7238 80.681 65.6996 80.6568 65.6754L63.9631 48.9823C63.4168 48.436 62.5308 48.436 61.9845 48.9823L61.285 49.6817C60.6708 50.292 59.6794 50.292 59.0652 49.6817C58.4527 49.0704 58.4509 48.0779 59.0623 47.4654C59.0635 47.4642 59.0646 47.4636 59.0652 47.4625L59.7652 46.7624C60.3115 46.2161 60.3115 45.3301 59.7652 44.7838L56.5564 41.575L63.8935 34.2379C64.9723 34.4607 66.0707 34.5746 67.172 34.5781ZM72.6703 82.1584C71.6537 82.1567 70.6457 81.973 69.694 81.6155L80.6234 70.6856C82.2727 75.0729 80.0535 79.9662 75.6662 81.6155C74.7088 81.9753 73.6939 82.1595 72.6703 82.1584ZM56.8166 45.7872C55.2668 47.6358 55.5098 50.391 57.3583 51.9402C58.9829 53.3016 61.3507 53.3005 62.9735 51.9361L78.6782 67.6546C78.8486 67.8256 79.008 68.0058 79.1623 68.1888L67.1973 80.1538C67.0137 80.0001 66.8335 79.8407 66.6625 79.6697L50.9457 63.9518C52.4955 62.1033 52.2525 59.3481 50.404 57.7989C48.7794 56.4368 46.4111 56.4385 44.7882 57.8023L42.5494 55.5635L54.5772 43.5536L56.8166 45.7872ZM62.4675 31.7123L30.7214 63.4521C30.3731 63.7998 30.2332 64.3047 30.3518 64.7819C32.2717 72.3217 27.7157 79.9904 20.1754 81.9097C12.6357 83.8296 4.967 79.2736 3.0471 71.7333C1.12777 64.1936 5.68373 56.5249 13.224 54.605C15.5049 54.0247 17.8946 54.0247 20.1754 54.605C20.6527 54.7219 21.1564 54.582 21.5053 54.236L53.2439 22.4956C53.5916 22.1479 53.7315 21.643 53.6117 21.1664C51.7051 13.7147 56.2 6.12836 63.6517 4.22112C65.0598 3.86131 66.5163 3.72315 67.967 3.81353L60.585 11.1984C60.2102 11.5726 60.079 12.127 60.2465 12.6296L63.0449 21.0265C63.1848 21.4439 63.5129 21.772 63.9309 21.9107L72.3278 24.7097C72.8298 24.8772 73.3842 24.7466 73.759 24.3724L81.141 16.9904C81.1576 17.2575 81.1663 17.5217 81.1663 17.7848C81.2054 25.4742 75.0042 31.7394 67.3147 31.7791C66.126 31.7849 64.9412 31.6386 63.7898 31.3439C63.3126 31.2247 62.8077 31.364 62.46 31.7118H62.4675V31.7123Z" fill="#FF7300"/>
<path d="M72.3606 71.372L70.3814 73.3512L56.3877 59.3575L58.3663 57.3783L72.3606 71.372Z" fill="#FF7300"/>
</svg>
