<svg width="86" height="87" viewBox="0 0 86 87" fill="none" xmlns="http://www.w3.org/2000/svg">
<path d="M78.0064 60.8203L77.6449 61.5511L77.9099 62.3221L83.8138 79.5041C84.3378 81.029 83.9586 82.6682 82.8189 83.8079L82.8187 83.8081C82.0126 84.6144 80.9623 85.0347 79.8878 85.0347C79.4341 85.0347 78.9715 84.9599 78.5152 84.803L78.5151 84.803L61.333 78.8991L60.5619 78.6341L59.8312 78.9956C54.3599 81.7022 48.2573 83.1349 42.1183 83.1446H42.0552C31.5078 83.1447 21.543 79.0598 13.9743 71.6259C6.38952 64.1763 2.1271 54.2614 1.95976 43.6946C1.87206 38.155 2.89137 32.7826 4.98821 27.7171L3.19232 26.9737L4.98821 27.7171C7.01133 22.8296 9.94058 18.4481 13.6998 14.6891L13.6999 14.689C17.459 10.93 21.8405 8.00069 26.7281 5.97741C31.7939 3.88047 37.1634 2.86019 42.7053 2.94916L42.7056 2.94916C53.2725 3.11683 63.1875 7.37908 70.6369 14.9638L72.0314 13.5942L70.637 14.9638C78.0854 22.5471 82.1717 32.5376 82.1554 43.1078C82.1458 49.2468 80.713 55.3493 78.0064 60.8203Z" stroke="#FF7300" stroke-width="3.90909"/>
<path d="M44.883 54.384C44.7336 53.7369 44.6839 53.0899 44.6839 52.4429C44.6839 50.2032 45.3309 48.511 47.471 45.6243C50.1586 42.0409 51.154 39.3532 51.154 35.6205C51.154 30.0462 48.4167 26.8608 43.0912 26.8608C37.7658 26.8608 35.0284 30.0462 35.0284 35.6205V39.0546H40.2045V35.2721C40.2045 32.7835 41.1999 31.8379 42.9419 31.8379C44.6839 31.8379 45.6793 32.7835 45.6793 35.2721C45.6793 38.6067 44.9825 40.8961 42.5437 44.3801C40.4036 47.4161 39.7068 49.4567 39.7068 52.2438C39.7068 53.1397 39.8064 53.7867 40.0054 54.384H44.883ZM39.7566 56.8227V62.0984H45.0323V56.8227H39.7566Z" fill="#FF7300"/>
</svg>
