<svg width="88" height="75" viewBox="0 0 88 75" fill="none" xmlns="http://www.w3.org/2000/svg">
<path d="M59.9497 32.8224C59.8183 32.5873 59.6258 32.393 59.3927 32.2604L35.9261 18.9404C35.2223 18.5358 34.3267 18.7835 33.9257 19.4937C33.7992 19.7179 33.7329 19.9716 33.7334 20.2295V46.8695C33.7351 47.3965 34.0143 47.8831 34.4667 48.1467C34.9166 48.412 35.4721 48.4164 35.9261 48.1585L59.3927 34.8385C60.0982 34.4369 60.3475 33.5343 59.9497 32.8224ZM36.6667 44.3387V22.7603L55.6747 33.5495L36.6667 44.3387Z" fill="#FF7300"/>
<path d="M29.3339 63.1492V60.1892H26.4005V63.1492H5.86719V66.1092H26.4005V69.0692H29.3339V66.1092H82.1339V63.1492H29.3339Z" fill="#FF7300"/>
<path d="M43.9999 9.86938C31.0397 9.86938 20.5332 20.4714 20.5332 33.5494C20.5486 46.6211 31.0459 57.2138 43.9999 57.2294C56.9601 57.2294 67.4665 46.6274 67.4665 33.5494C67.4665 20.4714 56.9601 9.86938 43.9999 9.86938ZM43.9999 54.2694C32.6596 54.2694 23.4665 44.9927 23.4665 33.5494C23.4786 22.1112 32.6647 12.8416 43.9999 12.8294C55.3401 12.8294 64.5332 22.106 64.5332 33.5494C64.5332 44.9927 55.3401 54.2694 43.9999 54.2694Z" fill="#FF7300"/>
<path d="M83.6 0.989258H4.4C1.96992 0.989258 0 2.97708 0 5.42926V70.5493C0 73.0014 1.96992 74.9893 4.4 74.9893H83.6C86.0301 74.9893 88 73.0014 88 70.5493V5.42926C88 2.97708 86.0301 0.989258 83.6 0.989258ZM85.0667 70.5493C85.0667 71.3666 84.41 72.0293 83.6 72.0293H4.4C3.59003 72.0293 2.93333 71.3666 2.93333 70.5493V5.42926C2.93333 4.61193 3.59003 3.94926 4.4 3.94926H83.6C84.41 3.94926 85.0667 4.61193 85.0667 5.42926V70.5493Z" fill="#FF7300"/>
<path d="M8.80052 6.90918H5.86719V9.86918H8.80052V6.90918Z" fill="#FF7300"/>
<path d="M14.6667 6.90918H11.7334V9.86918H14.6667V6.90918Z" fill="#FF7300"/>
<path d="M20.5339 6.90918H17.6006V9.86918H20.5339V6.90918Z" fill="#FF7300"/>
</svg>
