<svg width="84" height="84" viewBox="0 0 84 84" fill="none" xmlns="http://www.w3.org/2000/svg">
<path d="M79.8 67.2H70V63C70 62.2268 69.3731 61.6 68.6 61.6H67.2V43.4392C67.2002 41.1486 68.1891 38.9695 69.9132 37.4612C75.306 32.7425 78.3995 25.9257 78.4 18.76V18.2C78.4054 8.16165 70.2721 0.019425 60.2336 0.014C60.2224 0.014 60.2112 0.014 60.2 0.014V0H1.4C0.62685 0 0 0.62685 0 1.4V71.4C0 71.4294 0.0154 71.456 0.0168 71.4868C0.0364 71.8249 0.175875 72.1451 0.4102 72.3898L11.6102 83.5898C11.8727 83.8523 12.2287 84 12.6 84H79.8C80.5732 84 81.2 83.3731 81.2 82.6V78.4H82.6C83.3731 78.4 84 77.7731 84 77V71.4C84 69.0804 82.1196 67.2 79.8 67.2ZM75.5974 17.909C75.5991 18.0059 75.6002 18.1031 75.6 18.2V18.76C75.5998 25.1193 72.8549 31.1691 68.0694 35.357C65.738 37.3959 64.4005 40.342 64.4 43.4392V61.6H56V43.4392C56.0004 40.341 54.6627 37.3938 52.3306 35.3542C47.5458 31.1668 44.8009 25.1183 44.8 18.76C44.6873 10.2268 51.3851 3.15315 59.9116 2.8C68.4154 2.64075 75.4379 9.4052 75.5974 17.909ZM67.2 64.4V67.2H53.2V64.4H54.6H67.2ZM11.2 79.2204L4.7796 72.8H11.2V79.2204ZM39.2 81.2H14V71.4C14 70.6268 13.3731 70 12.6 70H2.8V2.8H50.7122C45.2771 6.2867 41.9932 12.3025 42 18.76C42 25.9269 45.0942 32.7449 50.4882 37.464C52.2109 38.9718 53.1993 41.1497 53.2 43.4392V61.6H51.8C51.0268 61.6 50.4 62.2268 50.4 63V67.2H40.6C38.2804 67.2 36.4 69.0804 36.4 71.4V77C36.4 77.7731 37.0268 78.4 37.8 78.4H39.2V81.2ZM78.4 81.2H42V78.4H78.4V81.2ZM81.2 75.6H39.2V71.4C39.2 70.6268 39.8269 70 40.6 70H79.8C80.5732 70 81.2 70.6268 81.2 71.4V75.6Z" fill="#FF7300"/>
<path d="M42.0004 7H15.4004V9.8H42.0004V7Z" fill="#FF7300"/>
<path d="M19.5996 15.4H5.59961V18.2H19.5996V15.4Z" fill="#FF7300"/>
<path d="M39.2004 15.4H22.4004V18.2H39.2004V15.4Z" fill="#FF7300"/>
<path d="M16.7996 21H5.59961V23.8H16.7996V21Z" fill="#FF7300"/>
<path d="M33.5996 21H19.5996V23.8H33.5996V21Z" fill="#FF7300"/>
<path d="M39.1996 26.6H5.59961V29.4H39.1996V26.6Z" fill="#FF7300"/>
<path d="M13.9996 32.2H5.59961V35H13.9996V32.2Z" fill="#FF7300"/>
<path d="M41.9998 32.2H16.7998V35H41.9998V32.2Z" fill="#FF7300"/>
<path d="M41.9996 37.8H5.59961V40.6H41.9996V37.8Z" fill="#FF7300"/>
<path d="M61.6002 5.60001H60.2002V8.40001H61.6002C66.2372 8.40543 69.9948 12.163 70.0002 16.8H72.8002C72.7932 10.6173 67.783 5.60701 61.6002 5.60001Z" fill="#FF7300"/>
</svg>
