<svg width="1440" height="341" viewBox="0 0 1440 341" fill="none" xmlns="http://www.w3.org/2000/svg">
<g opacity="0.5">
<path opacity="0.3" d="M1465 172.347C1464.13 168.953 952.821 216.323 761.082 147.601C535.275 66.718 318.057 257.472 140.44 116.209C-4.27492 1.10661 -362.713 204.304 -362.713 204.304" stroke="#4A4A4A" stroke-miterlimit="10"/>
<path opacity="0.3" d="M1463.99 167.835C1461.08 165.998 1376.8 172.922 1265.44 178.009C1200.08 180.976 1125.99 185.073 1054.37 184.084C940.683 182.671 828.598 174.759 757.126 151.162C626.117 107.783 498.894 146.923 383.315 158.651C296.995 167.129 213.441 166.987 136.146 111.74C80.2493 71.7521 -4.90619 75.2846 -86.2769 96.1968C-230.823 133.217 -364.16 211.214 -363.724 210.366" stroke="#4B4B4B" stroke-width="0.964" stroke-miterlimit="10"/>
<path opacity="0.3" d="M1462.98 163.456C1457.59 161.203 1373.32 168.104 1263.44 174.02C1197.07 177.541 1122.41 184.16 1052.11 183.738C939.028 183.175 826.524 177.118 753.171 154.724C620.728 114.301 492.797 150.217 379.42 154.724C294.715 158.104 210.447 157.4 132 107.4C74.6566 70.7799 -11.2129 76.2729 -89.5142 98.8081C-238.403 141.625 -365.461 218.104 -364.733 216.414" stroke="#5B5B5B" stroke-width="0.929" stroke-miterlimit="10"/>
<path opacity="0.3" d="M1462.98 159.315C1454.96 156.644 1370.77 163.534 1262.25 170.142C1194.8 174.22 1119.64 183.359 1050.3 183.5C937.554 183.781 824.808 179.563 749.498 158.472C615.484 121.07 486.568 153.41 375.57 151.02C292.248 149.332 207.178 148.207 127.498 103.213C68.5027 70.0302 -17.8781 77.623 -93.3338 101.526C-247.158 150.176 -367.917 224.979 -366.751 222.448" stroke="#646464" stroke-width="0.893" stroke-miterlimit="10"/>
<path opacity="0.3" d="M1461.96 155.03C1451.48 151.905 1367.29 159.008 1260.23 166.394C1191.77 171.082 1116.03 182.873 1047.87 183.583C935.713 184.72 822.685 182.163 745.487 162.275C610.028 127.187 480.249 156.593 371.591 147.359C289.878 140.398 203.942 138.835 123.103 98.4915C62.5104 68.2335 -24.3 78.4615 -96.8363 103.748C-255.309 159.007 -369.357 233.019 -367.755 229.467" stroke="#747474" stroke-width="0.857" stroke-miterlimit="10"/>
<path opacity="0.3" d="M1460.95 150.51C1447.84 146.958 1363.77 154.062 1258.14 162.302C1188.64 167.7 1112.29 181.907 1045.27 183.186C933.666 185.175 820.311 184.464 741.196 165.711C604.383 133.462 473.545 159.318 367.329 143.264C287.048 131.047 200.211 129.2 118.327 93.8245C55.9677 66.8315 -31.3067 79.7598 -100.806 106.042C-264.281 167.842 -371.662 239.871 -369.768 235.467" stroke="#818181" stroke-width="0.821" stroke-miterlimit="10"/>
<path opacity="0.3" d="M1460.95 146.501C1445.36 142.55 1361.26 149.746 1257.04 158.634C1186.5 164.559 1109.68 181.349 1043.65 183.042C932.442 186.004 818.898 186.851 737.712 169.639C599.389 140.293 467.625 162.725 363.701 139.869C284.847 122.516 197.102 120.541 114.312 90.3486C50.1792 66.9284 -37.2746 82.4478 -104.031 109.395C-272.234 177.257 -373.097 246.671 -370.765 241.451" stroke="#888888" stroke-width="0.786" stroke-miterlimit="10"/>
<path opacity="0.3" d="M1459.94 141.893C1441.87 137.508 1357.79 144.863 1255.04 154.341C1183.49 160.989 1106.11 180.226 1041.26 182.489C930.646 186.308 816.829 188.854 733.762 172.87C594.152 146.136 461.39 165.232 359.961 135.528C282.578 112.896 193.827 110.633 110.177 85.3133C44.1608 65.2275 -43.4239 83.7574 -107.4 111.34C-280.238 186.167 -374.526 253.496 -371.757 247.414" stroke="#A0A0A0" stroke-width="0.75" stroke-miterlimit="10"/>
<path opacity="0.3" d="M1458.93 137.125C1438.24 132.312 1354.32 139.815 1253.21 150.008C1180.51 157.229 1102.71 179.031 1039.04 181.862C929.037 186.534 814.958 190.781 730.017 176.199C588.984 152.132 455.382 167.847 356.309 131.462C280.402 103.573 190.653 101.307 106.15 80.6378C38.2559 64.0738 -49.307 85.4513 -110.499 113.624C-288.247 195.453 -375.81 260.294 -372.751 253.357" stroke="#979797" stroke-width="0.714" stroke-miterlimit="10"/>
<path opacity="0.3" d="M1457.92 132.842C1434.76 127.609 1350.7 135.388 1251.2 146.136C1177.48 154.055 1099.25 178.38 1036.61 181.633C927.059 187.29 812.846 192.947 725.875 179.936C583.545 158.44 448.936 170.885 352.349 127.751C277.907 94.516 187.148 92.3947 101.779 76.4138C31.9978 63.4028 -55.5562 87.7276 -113.974 116.295C-296.221 205.251 -377.365 267.053 -373.723 259.275" stroke="#A8A8A8" stroke-width="0.679" stroke-miterlimit="10"/>
<path opacity="0.3" d="M1456.91 129.229C1431.13 123.576 1347.24 131.49 1249.22 142.797C1174.51 151.418 1095.71 178.129 1034.25 181.945C925.309 188.588 810.833 195.796 721.991 184.065C578.386 165.127 442.792 174.172 348.561 124.424C275.593 85.9821 183.692 84.0035 97.6172 72.6971C25.9606 63.2279 -61.4255 90.646 -117.207 119.477C-303.922 216.147 -378.637 274.8 -374.705 266.178" stroke="#BCBCBC" stroke-width="0.643" stroke-miterlimit="10"/>
<path opacity="0.3" d="M1456.91 124.264C1428.64 118.031 1344.72 126.389 1248.12 138.288C1172.36 147.637 1092.95 176.959 1032.64 181.209C924.236 188.716 809.426 197.499 718.656 187.3C573.687 170.868 437.022 176.534 345.233 120.014C273.841 76.1015 180.74 74.4017 93.9039 67.4606C20.3265 61.6528 -67.0922 92.2501 -120.126 121.289C-311.428 226.113 -379.906 281.642 -375.68 272.009" stroke="#CACACA" stroke-width="0.607" stroke-miterlimit="10"/>
<path opacity="0.3" d="M1455.9 120.352C1425.02 113.725 1341.26 122.327 1246.13 134.736C1169.37 144.748 1089.54 176.476 1030.25 181.129C922.312 189.59 807.525 199.743 714.588 191C568.191 177.181 430.679 179.437 341.238 116.686C271.317 67.6132 177.215 66.2031 89.5224 63.8058C14.0658 61.6906 -73.0442 95.252 -123.591 124.301C-318.934 236.689 -381.426 288.159 -376.618 277.865" stroke="#D0D0D0" stroke-width="0.571" stroke-miterlimit="10"/>
<path opacity="0.3" d="M1454.89 115.924C1421.52 108.842 1337.73 117.765 1244.04 130.796C1166.23 141.56 1085.8 175.836 1027.66 181.076C920.275 190.566 805.164 202.321 710.307 194.956C562.557 183.626 423.986 182.493 336.997 112.808C268.659 58.1372 173.219 57.2874 84.7729 59.1287C7.40075 60.8283 -79.5883 97.6533 -127.527 126.83C-327.15 248.353 -383.685 295.942 -378.586 284.611" stroke="#D9D9D9" stroke-width="0.536" stroke-miterlimit="10"/>
<path opacity="0.3" d="M1453.87 111.107C1417.89 103.604 1334.26 112.806 1242.04 126.255C1163.22 137.864 1082.36 174.532 1025.25 180.195C918.311 190.671 803.068 203.837 706.329 198.033C557.286 189.114 417.859 184.725 333.067 108.417C266.194 48.2491 169.746 47.966 80.5827 54.1951C1.32634 59.7165 -85.3603 99.7814 -130.816 128.945C-334.056 259.192 -385.048 302.513 -379.512 290.338" stroke="#E3E3E3" stroke-width="0.5" stroke-miterlimit="10"/>
<path opacity="0.3" d="M1453.87 107.561C1415.4 99.6384 1331.75 109.117 1240.96 123.124C1161.1 135.432 1079.64 174.622 1023.68 180.705C917.298 192.165 801.734 206.596 703.075 202.351C552.683 195.843 412.345 188.204 329.717 105.439C264.43 39.9347 166.791 40.2177 76.7303 50.687C-4.29526 60.1661 -90.8585 103.175 -133.849 132.32C-340.493 271.676 -386.398 310.016 -380.423 297" stroke="#F0F0F0" stroke-width="0.464" stroke-miterlimit="10"/>
<path opacity="0.3" d="M1452.86 103.006C1411.92 94.6791 1328.29 104.418 1238.98 118.955C1158.11 132.081 1076.08 173.577 1021.3 180.069C915.525 192.631 799.694 208.297 699.016 205.616C547.198 201.523 406.161 190.655 325.881 101.454C262.211 30.7424 163.573 31.7303 72.5109 46.409C-10.3918 59.8173 -96.4998 105.829 -137.15 134.763C-346.519 283.384 -387.606 316.411 -381.341 302.579" stroke="#E6E6E6" stroke-width="0.429" stroke-miterlimit="10"/>
<path opacity="0.3" d="M1451.85 98.2189C1408.3 89.4364 1324.98 99.6354 1236.99 114.651C1155.13 128.674 1072.68 172.728 1018.93 179.669C913.763 193.268 797.668 210.408 695.12 209.133C542.026 207.433 400.148 193.268 322.071 97.0857C260.018 20.7346 160.383 22.2928 68.3228 41.2743C-16.3087 58.6976 -102.105 107.993 -140.415 136.89C-352.212 296.392 -388.92 323.872 -382.219 308.999" stroke="#EBEBEB" stroke-width="0.393" stroke-miterlimit="10"/>
<path opacity="0.3" d="M1450.84 94.3187C1404.82 85.1183 1321.52 95.5926 1235.16 111.021C1152.44 125.742 1069.28 172.31 1016.71 179.528C911.998 194.249 795.783 212.508 691.364 212.933C536.848 213.499 394.273 196.089 318.544 93.4694C258.252 11.7982 157.474 14.063 64.5607 37.1347C-21.7996 58.5079 -107.286 110.879 -143.403 139.613C-357.192 309.749 -390.105 330.981 -383.114 315.411" stroke="#EAE9E9" stroke-width="0.357" stroke-miterlimit="10"/>
<path opacity="0.3" d="M1450.84 90.1091C1402.16 80.4885 1318.94 91.3824 1233.97 107.228C1150.17 122.932 1066.51 171.742 1014.91 179.382C910.705 195.086 794.108 214.61 687.568 216.732C531.619 219.703 388.205 199.047 314.458 89.9676C255.722 2.81708 153.846 5.92962 59.8394 33.0934C-28.1913 58.5595 -113.453 113.877 -147.412 142.456C-362.679 323.406 -392.411 338.12 -384.978 321.567" stroke="#EFEFEF" stroke-width="0.321" stroke-miterlimit="10"/>
<path opacity="0.3" d="M1449.83 85.2993C1398.68 75.2432 1315.48 86.574 1231.99 102.862C1147.19 119.433 1062.97 170.705 1012.55 178.778C908.952 195.775 792.093 216.17 683.685 219.994C526.318 224.951 382.356 201.44 310.812 85.5826C253.84 -7.04668 150.823 -3.22254 55.8197 28.0788C-33.7921 57.6805 -118.741 116.176 -150.506 144.503C-366.448 337.551 -393.696 344.916 -385.828 327.637" stroke="#F2F2F2" stroke-width="0.286" stroke-miterlimit="10"/>
<path opacity="0.3" d="M1448.82 81.2757C1395.06 70.8178 1312.03 82.5476 1230.01 99.0825C1144.2 116.465 1059.42 170.027 1010.33 178.506C759.178 222.317 424.702 289.304 307.141 81.9823C251.783 -15.8136 147.915 -11.2913 51.7676 24.0396C-39.5723 57.5333 -123.92 119.009 -153.638 147.133C-369.241 351.911 -394.88 351.628 -386.722 333.397" stroke="white" stroke-width="0.25" stroke-miterlimit="10"/>
</g>
</svg>
