<svg display="none" xmlns="http://www.w3.org/2000/svg">
<symbol id="employee" viewBox="0 0 226 362">
<path d="M54.44 269L66.12 210.92H48.76V204.2H74.68V208.36L62.68 269H54.44ZM98.5794 269.72C94.8994 269.72 91.8594 268.893 89.4594 267.24C87.1127 265.587 85.3527 263.32 84.1794 260.44C83.0594 257.56 82.4994 254.28 82.4994 250.6V222.68C82.4994 218.893 83.0594 215.587 84.1794 212.76C85.2994 209.88 87.0327 207.64 89.3794 206.04C91.7794 204.44 94.846 203.64 98.5794 203.64C102.313 203.64 105.353 204.44 107.699 206.04C110.046 207.64 111.779 209.88 112.899 212.76C114.019 215.587 114.579 218.893 114.579 222.68V250.6C114.579 254.333 113.993 257.64 112.819 260.52C111.699 263.4 109.966 265.667 107.619 267.32C105.273 268.92 102.259 269.72 98.5794 269.72ZM98.5794 262.68C100.606 262.68 102.126 262.093 103.139 260.92C104.206 259.747 104.926 258.253 105.299 256.44C105.726 254.573 105.939 252.653 105.939 250.68V222.6C105.939 220.52 105.753 218.573 105.379 216.76C105.006 214.893 104.286 213.4 103.219 212.28C102.206 211.16 100.659 210.6 98.5794 210.6C96.4994 210.6 94.926 211.16 93.8594 212.28C92.7927 213.4 92.0727 214.893 91.6994 216.76C91.326 218.573 91.1394 220.52 91.1394 222.6V250.68C91.1394 252.653 91.326 254.573 91.6994 256.44C92.126 258.253 92.8727 259.747 93.9394 260.92C95.0594 262.093 96.606 262.68 98.5794 262.68ZM139.908 269.72C136.228 269.72 133.188 268.893 130.788 267.24C128.441 265.587 126.681 263.32 125.508 260.44C124.388 257.56 123.828 254.28 123.828 250.6V222.68C123.828 218.893 124.388 215.587 125.508 212.76C126.628 209.88 128.361 207.64 130.708 206.04C133.108 204.44 136.174 203.64 139.908 203.64C143.641 203.64 146.681 204.44 149.028 206.04C151.374 207.64 153.108 209.88 154.228 212.76C155.348 215.587 155.908 218.893 155.908 222.68V250.6C155.908 254.333 155.321 257.64 154.148 260.52C153.028 263.4 151.294 265.667 148.948 267.32C146.601 268.92 143.588 269.72 139.908 269.72ZM139.908 262.68C141.934 262.68 143.454 262.093 144.468 260.92C145.534 259.747 146.254 258.253 146.628 256.44C147.054 254.573 147.268 252.653 147.268 250.68V222.6C147.268 220.52 147.081 218.573 146.708 216.76C146.334 214.893 145.614 213.4 144.548 212.28C143.534 211.16 141.988 210.6 139.908 210.6C137.828 210.6 136.254 211.16 135.188 212.28C134.121 213.4 133.401 214.893 133.028 216.76C132.654 218.573 132.468 220.52 132.468 222.6V250.68C132.468 252.653 132.654 254.573 133.028 256.44C133.454 258.253 134.201 259.747 135.268 260.92C136.388 262.093 137.934 262.68 139.908 262.68Z" fill="#DE8348"/>
<path d="M55.5987 307.39C54.2187 307.39 53.1327 307.852 52.3407 308.776C51.5487 309.7 51.1527 310.966 51.1527 312.574C51.1527 314.17 51.5187 315.436 52.2507 316.372C52.9947 317.296 54.1047 317.758 55.5807 317.758C56.1447 317.758 56.6787 317.71 57.1827 317.614C57.6867 317.518 58.1787 317.398 58.6587 317.254V318.658C58.1787 318.838 57.6807 318.97 57.1647 319.054C56.6607 319.138 56.0547 319.18 55.3467 319.18C54.0387 319.18 52.9467 318.91 52.0707 318.37C51.1947 317.83 50.5347 317.062 50.0907 316.066C49.6587 315.07 49.4427 313.9 49.4427 312.556C49.4427 311.26 49.6767 310.12 50.1447 309.136C50.6247 308.14 51.3267 307.366 52.2507 306.814C53.1747 306.25 54.2967 305.968 55.6167 305.968C56.9727 305.968 58.1547 306.22 59.1627 306.724L58.5147 308.092C58.1187 307.912 57.6747 307.75 57.1827 307.606C56.7027 307.462 56.1747 307.39 55.5987 307.39ZM69.6358 314.158C69.6358 315.754 69.2278 316.99 68.4118 317.866C67.6078 318.742 66.5158 319.18 65.1358 319.18C64.2838 319.18 63.5218 318.988 62.8498 318.604C62.1898 318.208 61.6678 317.638 61.2838 316.894C60.8998 316.138 60.7078 315.226 60.7078 314.158C60.7078 312.562 61.1098 311.332 61.9138 310.468C62.7178 309.604 63.8098 309.172 65.1898 309.172C66.0658 309.172 66.8338 309.37 67.4938 309.766C68.1658 310.15 68.6878 310.714 69.0598 311.458C69.4438 312.19 69.6358 313.09 69.6358 314.158ZM62.3458 314.158C62.3458 315.298 62.5678 316.204 63.0118 316.876C63.4678 317.536 64.1878 317.866 65.1718 317.866C66.1438 317.866 66.8578 317.536 67.3138 316.876C67.7698 316.204 67.9978 315.298 67.9978 314.158C67.9978 313.018 67.7698 312.124 67.3138 311.476C66.8578 310.828 66.1378 310.504 65.1538 310.504C64.1698 310.504 63.4558 310.828 63.0118 311.476C62.5678 312.124 62.3458 313.018 62.3458 314.158ZM78.6304 310.684H75.4804V319H73.9144V310.684H70.8004V309.352H78.6304V310.684ZM85.121 309.172C86.309 309.172 87.263 309.586 87.983 310.414C88.715 311.242 89.081 312.49 89.081 314.158C89.081 315.802 88.715 317.05 87.983 317.902C87.263 318.754 86.303 319.18 85.103 319.18C84.359 319.18 83.741 319.042 83.249 318.766C82.769 318.478 82.391 318.148 82.115 317.776H82.007C82.031 317.98 82.055 318.238 82.079 318.55C82.103 318.862 82.115 319.132 82.115 319.36V323.32H80.531V309.352H81.827L82.043 310.666H82.115C82.403 310.246 82.781 309.892 83.249 309.604C83.717 309.316 84.341 309.172 85.121 309.172ZM84.833 310.504C83.849 310.504 83.153 310.78 82.745 311.332C82.349 311.884 82.139 312.724 82.115 313.852V314.158C82.115 315.346 82.307 316.264 82.691 316.912C83.087 317.548 83.813 317.866 84.869 317.866C85.457 317.866 85.937 317.704 86.309 317.38C86.693 317.056 86.975 316.618 87.155 316.066C87.347 315.502 87.443 314.86 87.443 314.14C87.443 313.036 87.227 312.154 86.795 311.494C86.375 310.834 85.721 310.504 84.833 310.504ZM89.9174 309.352H91.6094L93.6974 314.842C93.8774 315.322 94.0394 315.784 94.1834 316.228C94.3274 316.66 94.4354 317.074 94.5074 317.47H94.5794C94.6514 317.17 94.7654 316.78 94.9214 316.3C95.0774 315.808 95.2394 315.316 95.4074 314.824L97.3694 309.352H99.0794L94.9214 320.332C94.5854 321.244 94.1474 321.97 93.6074 322.51C93.0794 323.05 92.3474 323.32 91.4114 323.32C91.1234 323.32 90.8714 323.302 90.6554 323.266C90.4394 323.242 90.2534 323.212 90.0974 323.176V321.916C90.2294 321.94 90.3854 321.964 90.5654 321.988C90.7574 322.012 90.9554 322.024 91.1594 322.024C91.7114 322.024 92.1554 321.868 92.4914 321.556C92.8394 321.244 93.1094 320.83 93.3014 320.314L93.8054 319.036L89.9174 309.352ZM107.418 309.352V317.668H108.822V322.348H107.292V319H100.578V322.348H99.0656V317.668H99.8396C100.668 316.528 101.286 315.232 101.694 313.78C102.114 312.316 102.33 310.84 102.342 309.352H107.418ZM105.888 310.594H103.746C103.698 311.41 103.572 312.256 103.368 313.132C103.164 313.996 102.9 314.824 102.576 315.616C102.264 316.408 101.898 317.092 101.478 317.668H105.888V310.594ZM112.297 309.352V313.366H117.535V309.352H119.119V319H117.535V314.698H112.297V319H110.713V309.352H112.297ZM123.668 309.352V315.238C123.668 315.382 123.662 315.598 123.65 315.886C123.638 316.174 123.62 316.462 123.596 316.75C123.584 317.038 123.572 317.266 123.56 317.434L128.726 309.352H130.67V319H129.194V313.312C129.194 313.12 129.194 312.868 129.194 312.556C129.206 312.244 129.218 311.938 129.23 311.638C129.242 311.326 129.254 311.092 129.266 310.936L124.136 319H122.174V309.352H123.668ZM139.446 309.352H141.174L137.052 313.996L141.516 319H139.68L135.324 314.104V319H133.74V309.352H135.324V314.032L139.446 309.352ZM151.304 314.158C151.304 315.754 150.896 316.99 150.08 317.866C149.276 318.742 148.184 319.18 146.804 319.18C145.952 319.18 145.19 318.988 144.518 318.604C143.858 318.208 143.336 317.638 142.952 316.894C142.568 316.138 142.376 315.226 142.376 314.158C142.376 312.562 142.778 311.332 143.582 310.468C144.386 309.604 145.478 309.172 146.858 309.172C147.734 309.172 148.502 309.37 149.162 309.766C149.834 310.15 150.356 310.714 150.728 311.458C151.112 312.19 151.304 313.09 151.304 314.158ZM144.014 314.158C144.014 315.298 144.236 316.204 144.68 316.876C145.136 317.536 145.856 317.866 146.84 317.866C147.812 317.866 148.526 317.536 148.982 316.876C149.438 316.204 149.666 315.298 149.666 314.158C149.666 313.018 149.438 312.124 148.982 311.476C148.526 310.828 147.806 310.504 146.822 310.504C145.838 310.504 145.124 310.828 144.68 311.476C144.236 312.124 144.014 313.018 144.014 314.158ZM161.572 311.782C161.572 312.382 161.392 312.85 161.032 313.186C160.672 313.522 160.21 313.75 159.646 313.87V313.942C160.246 314.026 160.768 314.242 161.212 314.59C161.656 314.926 161.878 315.454 161.878 316.174C161.878 316.99 161.572 317.668 160.96 318.208C160.36 318.736 159.364 319 157.972 319H153.814V309.352H157.954C158.638 309.352 159.25 309.43 159.79 309.586C160.342 309.73 160.774 309.982 161.086 310.342C161.41 310.69 161.572 311.17 161.572 311.782ZM159.97 311.98C159.97 311.524 159.802 311.194 159.466 310.99C159.142 310.774 158.608 310.666 157.864 310.666H155.398V313.312H157.576C159.172 313.312 159.97 312.868 159.97 311.98ZM160.24 316.174C160.24 315.622 160.03 315.226 159.61 314.986C159.19 314.746 158.572 314.626 157.756 314.626H155.398V317.722H157.792C158.584 317.722 159.19 317.608 159.61 317.38C160.03 317.14 160.24 316.738 160.24 316.174Z" fill="#464646"/>
<path d="M1 101C1 45.7715 45.7715 1 101 1H111C166.228 1 211 45.7715 211 101V261C211 316.228 166.228 361 111 361H101C45.7715 361 1 316.228 1 261V101Z" stroke="#DE8348" stroke-width="2"/>
<rect x="200" y="105" width="20" height="73" fill="#E6E6E6"/>
<circle cx="212" cy="104" r="14" fill="#DE8348"/>
<g clip-path="url(#clip0)">
<path d="M206.13 157H103.746C66.7395 157 36.6719 126.966 36.6719 90C36.6719 53.0345 66.7395 23 103.746 23C140.752 23 170.82 53.0345 170.82 90C170.82 90.9241 170.203 91.5402 169.278 91.5402C168.353 91.5402 167.736 90.9241 167.736 90C167.736 54.7287 139.056 26.0805 103.746 26.0805C68.4356 26.0805 39.7557 54.7287 39.7557 90C39.7557 125.271 68.4356 153.92 103.746 153.92H206.13C207.055 153.92 207.672 154.536 207.672 155.46C207.672 156.23 206.901 157 206.13 157Z" fill="#DE8348"/>
<path d="M135.41 121.029C152.815 103.589 152.815 75.313 135.41 57.8731C118.006 40.4331 89.7865 40.4331 72.3816 57.8731C54.9767 75.313 54.9767 103.589 72.3816 121.029C89.7865 138.469 118.006 138.469 135.41 121.029Z" fill="#DE8348"/>
<path d="M84.0565 91.3413H124.096C124.863 91.3413 125.477 90.727 125.477 89.959C125.477 89.1911 124.863 88.5768 124.096 88.5768H84.0565C83.2894 88.5768 82.6758 89.1911 82.6758 89.959C82.6758 90.727 83.2894 91.3413 84.0565 91.3413Z" fill="#FBFBFB"/>
<path d="M91.2674 77.8259C92.0344 77.8259 92.6481 77.2116 92.6481 76.4437V68.7645H115.353V76.4437C115.353 77.2116 115.966 77.8259 116.733 77.8259C117.5 77.8259 118.114 77.2116 118.114 76.4437V67.3823C118.114 66.6143 117.5 66 116.733 66H91.2674C90.5004 66 89.8867 66.6143 89.8867 67.3823V76.4437C89.8867 77.2116 90.5004 77.8259 91.2674 77.8259Z" fill="#FBFBFB"/>
<path d="M129.619 78.1331H78.3807C77.6136 78.1331 77 78.7475 77 79.5154V109.618C77 110.386 77.6136 111 78.3807 111H129.619C130.386 111 131 110.386 131 109.618V79.5154C131 78.7475 130.386 78.1331 129.619 78.1331ZM128.239 108.236H79.7614V80.8976H128.239V108.236Z" fill="#FBFBFB"/>
</g>
<defs>
<clipPath id="clip0">
<rect width="171" height="134" fill="white" transform="translate(29 23)"/>
</clipPath>
</defs>
</symbol>
</svg>
