<svg display="none" xmlns="http://www.w3.org/2000/svg">
<symbol id="general"  viewBox="0 0 226 362">
<path d="M53.68 264V210.4C53.6267 210.453 53.0133 210.613 51.84 210.88C50.72 211.147 49.44 211.413 48 211.68C46.56 211.947 45.28 212.187 44.16 212.4C43.04 212.613 42.4533 212.72 42.4 212.72V206.24C43.3067 206.027 44.3467 205.733 45.52 205.36C46.7467 204.987 47.9733 204.533 49.2 204C50.48 203.467 51.68 202.8 52.8 202C53.9733 201.2 54.96 200.267 55.76 199.2H62.24V264H53.68ZM91.3188 264.72C87.9588 264.72 85.0788 264.107 82.6788 262.88C80.3321 261.6 78.5454 259.76 77.3188 257.36C76.0921 254.96 75.4521 252.053 75.3988 248.64C75.3988 248.533 75.3988 248.427 75.3988 248.32C75.3988 248.16 75.3988 248.027 75.3988 247.92H83.9588C83.9588 251.013 84.4654 253.413 85.4788 255.12C86.4921 256.773 88.4654 257.6 91.3988 257.6C92.9988 257.6 94.3321 257.12 95.3988 256.16C96.4654 255.147 97.2654 253.627 97.7988 251.6C98.3321 249.52 98.5988 246.907 98.5988 243.76V233.92C97.7988 235.253 96.5988 236.347 94.9988 237.2C93.4521 238 91.5054 238.4 89.1588 238.4C85.5854 238.4 82.7854 237.627 80.7588 236.08C78.7321 234.48 77.2921 232.293 76.4388 229.52C75.6388 226.693 75.2388 223.413 75.2388 219.68C75.2388 215.733 75.7721 212.187 76.8388 209.04C77.9054 205.84 79.6121 203.307 81.9588 201.44C84.3588 199.573 87.4788 198.64 91.3188 198.64C95.0521 198.64 98.0921 199.6 100.439 201.52C102.785 203.387 104.492 205.92 105.559 209.12C106.679 212.32 107.239 215.893 107.239 219.84V241.6C107.239 245.76 106.759 249.6 105.799 253.12C104.839 256.64 103.212 259.467 100.919 261.6C98.6254 263.68 95.4254 264.72 91.3188 264.72ZM91.3188 231.92C93.1854 231.92 94.7054 231.467 95.8788 230.56C97.0521 229.6 97.9588 228.56 98.5988 227.44V217.84C98.5988 215.6 98.3854 213.573 97.9588 211.76C97.5321 209.893 96.7854 208.427 95.7188 207.36C94.6521 206.24 93.1854 205.68 91.3188 205.68C89.4521 205.68 87.9588 206.24 86.8388 207.36C85.7721 208.48 84.9988 209.947 84.5188 211.76C84.0921 213.52 83.8788 215.467 83.8788 217.6C83.8788 220.16 83.9854 222.533 84.1988 224.72C84.4654 226.907 85.1054 228.667 86.1188 230C87.1854 231.28 88.9188 231.92 91.3188 231.92ZM117.753 264L129.433 205.92H112.073V199.2H137.993V203.36L125.993 264H117.753ZM148.612 264L160.292 205.92H142.932V199.2H168.852V203.36L156.852 264H148.612Z" fill="#DE8348"/>
<path d="M70.419 307.556C70.419 308.888 70.191 310.052 69.735 311.048C69.291 312.032 68.631 312.8 67.755 313.352C66.879 313.904 65.793 314.18 64.497 314.18C63.165 314.18 62.055 313.904 61.167 313.352C60.291 312.8 59.637 312.026 59.205 311.03C58.773 310.034 58.557 308.87 58.557 307.538C58.557 306.218 58.773 305.066 59.205 304.082C59.637 303.098 60.291 302.33 61.167 301.778C62.055 301.226 63.171 300.95 64.515 300.95C65.799 300.95 66.879 301.226 67.755 301.778C68.631 302.318 69.291 303.086 69.735 304.082C70.191 305.066 70.419 306.224 70.419 307.556ZM60.267 307.556C60.267 309.176 60.609 310.454 61.293 311.39C61.977 312.314 63.045 312.776 64.497 312.776C65.961 312.776 67.029 312.314 67.701 311.39C68.373 310.454 68.709 309.176 68.709 307.556C68.709 305.936 68.373 304.67 67.701 303.758C67.029 302.834 65.967 302.372 64.515 302.372C63.063 302.372 61.989 302.834 61.293 303.758C60.609 304.67 60.267 305.936 60.267 307.556ZM76.9215 314.18C76.0695 314.18 75.3075 314.006 74.6355 313.658C73.9755 313.31 73.4535 312.77 73.0695 312.038C72.6975 311.306 72.5115 310.37 72.5115 309.23C72.5115 308.042 72.7095 307.076 73.1055 306.332C73.5015 305.588 74.0355 305.042 74.7075 304.694C75.3915 304.346 76.1655 304.172 77.0295 304.172C77.5215 304.172 77.9955 304.226 78.4515 304.334C78.9075 304.43 79.2795 304.55 79.5675 304.694L79.0815 306.008C78.7935 305.9 78.4575 305.798 78.0735 305.702C77.6895 305.606 77.3295 305.558 76.9935 305.558C75.0975 305.558 74.1495 306.776 74.1495 309.212C74.1495 310.376 74.3775 311.27 74.8335 311.894C75.3015 312.506 75.9915 312.812 76.9035 312.812C77.4315 312.812 77.8935 312.758 78.2895 312.65C78.6975 312.542 79.0695 312.41 79.4055 312.254V313.658C79.0815 313.826 78.7215 313.952 78.3255 314.036C77.9415 314.132 77.4735 314.18 76.9215 314.18ZM83.2839 304.352V308.366H88.5219V304.352H90.1059V314H88.5219V309.698H83.2839V314H81.6999V304.352H83.2839ZM101.549 309.158C101.549 310.754 101.141 311.99 100.325 312.866C99.5209 313.742 98.4289 314.18 97.0489 314.18C96.1969 314.18 95.4349 313.988 94.7629 313.604C94.1029 313.208 93.5809 312.638 93.1969 311.894C92.8129 311.138 92.6209 310.226 92.6209 309.158C92.6209 307.562 93.0229 306.332 93.8269 305.468C94.6309 304.604 95.7229 304.172 97.1029 304.172C97.9789 304.172 98.7469 304.37 99.4069 304.766C100.079 305.15 100.601 305.714 100.973 306.458C101.357 307.19 101.549 308.09 101.549 309.158ZM94.2589 309.158C94.2589 310.298 94.4809 311.204 94.9249 311.876C95.3809 312.536 96.1009 312.866 97.0849 312.866C98.0569 312.866 98.7709 312.536 99.2269 311.876C99.6829 311.204 99.9109 310.298 99.9109 309.158C99.9109 308.018 99.6829 307.124 99.2269 306.476C98.7709 305.828 98.0509 305.504 97.0669 305.504C96.0829 305.504 95.3689 305.828 94.9249 306.476C94.4809 307.124 94.2589 308.018 94.2589 309.158ZM111.817 306.782C111.817 307.382 111.637 307.85 111.277 308.186C110.917 308.522 110.455 308.75 109.891 308.87V308.942C110.491 309.026 111.013 309.242 111.457 309.59C111.901 309.926 112.123 310.454 112.123 311.174C112.123 311.99 111.817 312.668 111.205 313.208C110.605 313.736 109.609 314 108.217 314H104.059V304.352H108.199C108.883 304.352 109.495 304.43 110.035 304.586C110.587 304.73 111.019 304.982 111.331 305.342C111.655 305.69 111.817 306.17 111.817 306.782ZM110.215 306.98C110.215 306.524 110.047 306.194 109.711 305.99C109.387 305.774 108.853 305.666 108.109 305.666H105.643V308.312H107.821C109.417 308.312 110.215 307.868 110.215 306.98ZM110.485 311.174C110.485 310.622 110.275 310.226 109.855 309.986C109.435 309.746 108.817 309.626 108.001 309.626H105.643V312.722H108.037C108.829 312.722 109.435 312.608 109.855 312.38C110.275 312.14 110.485 311.738 110.485 311.174ZM118.084 304.19C119.26 304.19 120.13 304.448 120.694 304.964C121.258 305.48 121.54 306.302 121.54 307.43V314H120.388L120.082 312.632H120.01C119.59 313.16 119.146 313.55 118.678 313.802C118.222 314.054 117.586 314.18 116.77 314.18C115.894 314.18 115.168 313.952 114.592 313.496C114.016 313.028 113.728 312.302 113.728 311.318C113.728 310.358 114.106 309.62 114.862 309.104C115.618 308.576 116.782 308.288 118.354 308.24L119.992 308.186V307.61C119.992 306.806 119.818 306.248 119.47 305.936C119.122 305.624 118.63 305.468 117.994 305.468C117.49 305.468 117.01 305.546 116.554 305.702C116.098 305.846 115.672 306.014 115.276 306.206L114.79 305.018C115.21 304.79 115.708 304.598 116.284 304.442C116.86 304.274 117.46 304.19 118.084 304.19ZM119.974 309.284L118.552 309.338C117.352 309.386 116.518 309.578 116.05 309.914C115.594 310.25 115.366 310.724 115.366 311.336C115.366 311.876 115.528 312.272 115.852 312.524C116.188 312.776 116.614 312.902 117.13 312.902C117.946 312.902 118.624 312.68 119.164 312.236C119.704 311.78 119.974 311.084 119.974 310.148V309.284ZM126.104 304.352V308.366H131.342V304.352H132.926V314H131.342V309.698H126.104V314H124.52V304.352H126.104ZM139.635 304.19C140.811 304.19 141.681 304.448 142.245 304.964C142.809 305.48 143.091 306.302 143.091 307.43V314H141.939L141.633 312.632H141.561C141.141 313.16 140.697 313.55 140.229 313.802C139.773 314.054 139.137 314.18 138.321 314.18C137.445 314.18 136.719 313.952 136.143 313.496C135.567 313.028 135.279 312.302 135.279 311.318C135.279 310.358 135.657 309.62 136.413 309.104C137.169 308.576 138.333 308.288 139.905 308.24L141.543 308.186V307.61C141.543 306.806 141.369 306.248 141.021 305.936C140.673 305.624 140.181 305.468 139.545 305.468C139.041 305.468 138.561 305.546 138.105 305.702C137.649 305.846 137.223 306.014 136.827 306.206L136.341 305.018C136.761 304.79 137.259 304.598 137.835 304.442C138.411 304.274 139.011 304.19 139.635 304.19ZM141.525 309.284L140.103 309.338C138.903 309.386 138.069 309.578 137.601 309.914C137.145 310.25 136.917 310.724 136.917 311.336C136.917 311.876 137.079 312.272 137.403 312.524C137.739 312.776 138.165 312.902 138.681 312.902C139.497 312.902 140.175 312.68 140.715 312.236C141.255 311.78 141.525 311.084 141.525 310.148V309.284Z" fill="#464646"/>
<path d="M1 101C1 45.7715 45.7715 1 101 1H111C166.228 1 211 45.7715 211 101V261C211 316.228 166.228 361 111 361H101C45.7715 361 1 316.228 1 261V101Z" stroke="#DE8348" stroke-width="2"/>
<rect x="200" y="105" width="20" height="73" fill="#E6E6E6"/>
<circle cx="212" cy="104" r="14" fill="#DE8348"/>
<g clip-path="url(#clip0)">
<path d="M206.13 157H103.746C66.7395 157 36.6719 126.966 36.6719 90C36.6719 53.0345 66.7395 23 103.746 23C140.752 23 170.82 53.0345 170.82 90C170.82 90.9241 170.203 91.5402 169.278 91.5402C168.353 91.5402 167.736 90.9241 167.736 90C167.736 54.7287 139.056 26.0805 103.746 26.0805C68.4356 26.0805 39.7557 54.7287 39.7557 90C39.7557 125.271 68.4356 153.92 103.746 153.92H206.13C207.055 153.92 207.672 154.536 207.672 155.46C207.672 156.23 206.901 157 206.13 157Z" fill="#DE8348"/>
<path d="M135.41 121.029C152.815 103.589 152.815 75.313 135.41 57.8731C118.006 40.4331 89.7865 40.4331 72.3816 57.8731C54.9767 75.313 54.9767 103.589 72.3816 121.029C89.7865 138.469 118.006 138.469 135.41 121.029Z" fill="#DE8348"/>
<path d="M121.243 70.6755C121.243 70.5369 121.107 70.3982 121.107 70.2596C120.428 69.0118 116.212 62.3569 107.644 60.4159C106.42 60.1386 105.06 60 103.564 60C102.068 60 100.708 60.1386 99.4845 60.4159C90.9169 62.3569 86.8371 68.8732 86.0211 70.2596C85.8852 70.3982 85.8852 70.5369 85.7492 70.6755C80.3094 79.41 84.3892 88.6991 85.7492 91.1947C86.0211 91.7493 86.4291 92.1652 87.1091 93.1357C88.333 94.7994 91.0529 98.1268 91.3249 100.345C91.4609 101.732 91.4609 102.702 91.3249 103.673C91.1889 104.504 91.4609 105.336 92.1409 106.029C92.6848 106.723 93.5008 107 94.3168 107H112.812C113.628 107 114.444 106.584 114.988 106.029C115.532 105.336 115.804 104.504 115.804 103.673V103.534C115.668 102.702 115.668 101.732 115.804 100.345C116.076 97.9882 118.66 94.6608 120.02 93.1357C120.7 92.1652 121.107 91.7493 121.379 91.1947C122.603 88.6991 126.683 79.5487 121.243 70.6755ZM118.932 89.9469C118.796 90.2242 118.524 90.6401 117.844 91.3333C116.348 93.2743 113.492 96.8791 113.084 99.9292C112.812 101.732 112.948 102.841 113.084 103.811V103.95C113.084 104.088 113.084 104.088 112.948 104.227C112.948 104.227 112.812 104.366 112.676 104.366H94.3168C94.1808 104.366 94.1808 104.366 94.0448 104.227C94.0448 104.227 93.9088 104.088 94.0448 103.811C94.1808 102.979 94.3168 101.732 94.0448 99.9292C93.6368 96.8791 90.7809 93.2743 89.285 91.3333C88.741 90.5015 88.333 90.2242 88.197 89.9469C86.9731 87.7286 83.4373 79.6873 88.0611 72.2006C88.197 72.0619 88.333 71.9233 88.333 71.646C89.013 70.5369 92.5488 64.8525 100.028 63.1888C101.116 62.9115 102.34 62.7729 103.564 62.7729C104.788 62.7729 106.012 62.9115 107.1 63.1888C114.58 64.8525 118.116 70.5369 118.796 71.646C118.932 71.7847 118.932 71.9233 119.068 72.2006C123.555 79.6873 120.02 87.7286 118.932 89.9469Z" fill="#FBFBFB"/>
<path d="M109.471 76.4322L101.041 84.6949L97.3884 81.1144C96.8264 80.5636 95.9835 80.5636 95.4215 81.1144C94.8595 81.6653 94.8595 82.4915 95.4215 83.0424L100.058 87.5869C100.339 87.8623 100.76 88 101.041 88C101.463 88 101.744 87.8623 102.025 87.5869L111.579 78.2225C112.14 77.6716 112.14 76.8453 111.579 76.2945C110.876 75.8814 110.033 75.8814 109.471 76.4322Z" fill="#FBFBFB"/>
<path d="M115.608 110H91.3918C90.5567 110 90 110.6 90 111.5C90 112.4 90.5567 113 91.3918 113H115.608C116.443 113 117 112.4 117 111.5C117 110.6 116.443 110 115.608 110Z" fill="#FBFBFB"/>
<path d="M110.547 117H96.453C95.5812 117 95 117.6 95 118.5C95 119.4 95.5812 120 96.453 120H110.547C111.419 120 112 119.4 112 118.5C112 117.6 111.419 117 110.547 117Z" fill="#FBFBFB"/>
</g>
<defs>
<clipPath id="clip0">
<rect width="171" height="134" fill="white" transform="translate(29 23)"/>
</clipPath>
</defs>
</symbol>
</svg>
