<svg width="232" height="239" viewBox="0 0 232 239" fill="none" xmlns="http://www.w3.org/2000/svg">
<path d="M82.58 196.449L91.34 152.889H78.32V147.849H97.76V150.969L88.76 196.449H82.58ZM115.685 196.989C112.925 196.989 110.645 196.369 108.845 195.129C107.085 193.889 105.765 192.189 104.885 190.029C104.045 187.869 103.625 185.409 103.625 182.649V161.709C103.625 158.869 104.045 156.389 104.885 154.269C105.725 152.109 107.025 150.429 108.785 149.229C110.585 148.029 112.885 147.429 115.685 147.429C118.485 147.429 120.765 148.029 122.525 149.229C124.285 150.429 125.585 152.109 126.425 154.269C127.265 156.389 127.685 158.869 127.685 161.709V182.649C127.685 185.449 127.245 187.929 126.365 190.089C125.525 192.249 124.225 193.949 122.465 195.189C120.705 196.389 118.445 196.989 115.685 196.989ZM115.685 191.709C117.205 191.709 118.345 191.269 119.105 190.389C119.905 189.509 120.445 188.389 120.725 187.029C121.045 185.629 121.205 184.189 121.205 182.709V161.649C121.205 160.089 121.065 158.629 120.785 157.269C120.505 155.869 119.965 154.749 119.165 153.909C118.405 153.069 117.245 152.649 115.685 152.649C114.125 152.649 112.945 153.069 112.145 153.909C111.345 154.749 110.805 155.869 110.525 157.269C110.245 158.629 110.105 160.089 110.105 161.649V182.709C110.105 184.189 110.245 185.629 110.525 187.029C110.845 188.389 111.405 189.509 112.205 190.389C113.045 191.269 114.205 191.709 115.685 191.709ZM146.681 196.989C143.921 196.989 141.641 196.369 139.841 195.129C138.081 193.889 136.761 192.189 135.881 190.029C135.041 187.869 134.621 185.409 134.621 182.649V161.709C134.621 158.869 135.041 156.389 135.881 154.269C136.721 152.109 138.021 150.429 139.781 149.229C141.581 148.029 143.881 147.429 146.681 147.429C149.481 147.429 151.761 148.029 153.521 149.229C155.281 150.429 156.581 152.109 157.421 154.269C158.261 156.389 158.681 158.869 158.681 161.709V182.649C158.681 185.449 158.241 187.929 157.361 190.089C156.521 192.249 155.221 193.949 153.461 195.189C151.701 196.389 149.441 196.989 146.681 196.989ZM146.681 191.709C148.201 191.709 149.341 191.269 150.101 190.389C150.901 189.509 151.441 188.389 151.721 187.029C152.041 185.629 152.201 184.189 152.201 182.709V161.649C152.201 160.089 152.061 158.629 151.781 157.269C151.501 155.869 150.961 154.749 150.161 153.909C149.401 153.069 148.241 152.649 146.681 152.649C145.121 152.649 143.941 153.069 143.141 153.909C142.341 154.749 141.801 155.869 141.521 157.269C141.241 158.629 141.101 160.089 141.101 161.649V182.709C141.101 184.189 141.241 185.629 141.521 187.029C141.841 188.389 142.401 189.509 143.201 190.389C144.041 191.269 145.201 191.709 146.681 191.709Z" fill="#FF7300"/>
<path d="M68.251 222.39C66.8682 222.39 65.7812 222.853 64.9902 223.778C64.1992 224.704 63.8037 225.97 63.8037 227.575C63.8037 229.233 64.1875 230.514 64.9551 231.416C65.7227 232.312 66.8154 232.761 68.2334 232.761C69.1475 232.761 70.1758 232.591 71.3184 232.251V233.657C70.7734 233.856 70.249 233.991 69.7451 234.062C69.2412 234.138 68.6611 234.176 68.0049 234.176C66.1123 234.176 64.6533 233.602 63.6279 232.453C62.6084 231.299 62.0986 229.667 62.0986 227.558C62.0986 226.233 62.3418 225.073 62.8281 224.077C63.3203 223.081 64.0322 222.313 64.9639 221.774C65.9014 221.235 67.0029 220.966 68.2686 220.966C69.6279 220.966 70.8115 221.218 71.8193 221.722L71.1689 223.093C70.1436 222.624 69.1709 222.39 68.251 222.39ZM82.2871 229.157C82.2871 230.733 81.8887 231.964 81.0918 232.849C80.2949 233.733 79.1934 234.176 77.7871 234.176C76.9141 234.176 76.1406 233.974 75.4668 233.569C74.793 233.159 74.2744 232.573 73.9111 231.812C73.5479 231.05 73.3662 230.165 73.3662 229.157C73.3662 227.587 73.7588 226.365 74.5439 225.492C75.3291 224.613 76.4307 224.174 77.8486 224.174C79.208 224.174 80.2861 224.622 81.083 225.519C81.8857 226.409 82.2871 227.622 82.2871 229.157ZM75.001 229.157C75.001 230.37 75.2383 231.293 75.7129 231.926C76.1934 232.553 76.8994 232.866 77.8311 232.866C78.751 232.866 79.4512 232.553 79.9316 231.926C80.4121 231.293 80.6523 230.37 80.6523 229.157C80.6523 227.944 80.4092 227.033 79.9229 226.424C79.4424 225.809 78.7363 225.501 77.8047 225.501C75.9355 225.501 75.001 226.72 75.001 229.157ZM91.375 225.686H88.2197V234H86.6553V225.686H83.5439V224.35H91.375V225.686ZM97.8613 234.176C96.5664 234.176 95.5703 233.71 94.873 232.778H94.7676L94.8027 233.139C94.8496 233.596 94.873 234.003 94.873 234.36V238.324H93.291V224.35H94.5918L94.8027 225.668H94.873C95.248 225.141 95.6816 224.76 96.1738 224.525C96.666 224.291 97.2344 224.174 97.8789 224.174C99.1328 224.174 100.105 224.61 100.797 225.483C101.494 226.351 101.843 227.575 101.843 229.157C101.843 230.733 101.494 231.964 100.797 232.849C100.1 233.733 99.1211 234.176 97.8613 234.176ZM97.5977 225.501C96.6426 225.501 95.9512 225.771 95.5234 226.31C95.1016 226.849 94.8848 227.695 94.873 228.85V229.157C94.873 230.464 95.0898 231.41 95.5234 231.996C95.957 232.576 96.6602 232.866 97.6328 232.866C98.4414 232.866 99.0713 232.538 99.5225 231.882C99.9795 231.226 100.208 230.312 100.208 229.14C100.208 227.962 99.9795 227.062 99.5225 226.441C99.0713 225.814 98.4297 225.501 97.5977 225.501ZM102.766 224.35H104.462L106.545 229.843C106.984 231.038 107.254 231.914 107.354 232.471H107.424C107.477 232.254 107.597 231.85 107.784 231.258C107.972 230.66 108.13 230.183 108.259 229.825L110.219 224.35H111.924L107.767 235.336C107.362 236.402 106.882 237.167 106.325 237.63C105.769 238.093 105.08 238.324 104.26 238.324C103.82 238.324 103.384 238.274 102.95 238.175V236.918C103.243 236.988 103.595 237.023 104.005 237.023C104.509 237.023 104.937 236.883 105.288 236.602C105.64 236.326 105.927 235.898 106.149 235.318L106.65 234.035L102.766 224.35ZM121.847 237.349H120.317V234H113.603V237.349H112.091V232.664H112.864C113.644 231.58 114.25 230.326 114.684 228.902C115.117 227.473 115.346 225.955 115.369 224.35H120.44V232.664H121.847V237.349ZM118.911 232.664V225.598H116.767C116.679 226.893 116.427 228.193 116.011 229.5C115.601 230.801 115.097 231.855 114.499 232.664H118.911ZM125.318 224.35V228.366H130.557V224.35H132.139V234H130.557V229.702H125.318V234H123.736V224.35H125.318ZM136.709 224.35V230.238L136.639 231.943L136.604 232.436L141.771 224.35H143.714V234H142.237V228.313L142.264 227.092L142.308 225.932L137.175 234H135.215V224.35H136.709ZM152.503 224.35H154.234L150.112 228.999L154.577 234H152.74L148.381 229.104V234H146.799V224.35H148.381V229.034L152.503 224.35ZM164.535 229.157C164.535 230.733 164.137 231.964 163.34 232.849C162.543 233.733 161.441 234.176 160.035 234.176C159.162 234.176 158.389 233.974 157.715 233.569C157.041 233.159 156.522 232.573 156.159 231.812C155.796 231.05 155.614 230.165 155.614 229.157C155.614 227.587 156.007 226.365 156.792 225.492C157.577 224.613 158.679 224.174 160.097 224.174C161.456 224.174 162.534 224.622 163.331 225.519C164.134 226.409 164.535 227.622 164.535 229.157ZM157.249 229.157C157.249 230.37 157.486 231.293 157.961 231.926C158.441 232.553 159.147 232.866 160.079 232.866C160.999 232.866 161.699 232.553 162.18 231.926C162.66 231.293 162.9 230.37 162.9 229.157C162.9 227.944 162.657 227.033 162.171 226.424C161.69 225.809 160.984 225.501 160.053 225.501C158.184 225.501 157.249 226.72 157.249 229.157ZM174.985 226.784C174.985 227.405 174.81 227.88 174.458 228.208C174.106 228.53 173.605 228.75 172.955 228.867V228.946C173.77 229.058 174.361 229.301 174.73 229.676C175.105 230.045 175.293 230.543 175.293 231.17C175.293 232.084 174.956 232.784 174.282 233.271C173.614 233.757 172.65 234 171.391 234H167.049V224.35H171.373C173.781 224.35 174.985 225.161 174.985 226.784ZM173.711 231.082C173.711 230.543 173.5 230.165 173.078 229.948C172.656 229.731 172.038 229.623 171.224 229.623H168.631V232.726H171.259C172.894 232.726 173.711 232.178 173.711 231.082ZM173.438 226.925C173.438 226.474 173.263 226.151 172.911 225.958C172.565 225.765 172.041 225.668 171.338 225.668H168.631V228.313H171.048C171.909 228.313 172.521 228.208 172.885 227.997C173.254 227.78 173.438 227.423 173.438 226.925Z" fill="black"/>
<path d="M166.959 101.589C166.9 101.117 166.782 100.645 166.634 100.202C165.513 95.8957 162.947 88.0202 161.767 84.51C161.649 83.8905 161.443 83.3006 161.177 82.7401C161.177 82.7401 159.29 79.9084 157.873 79.0529C157.873 79.0529 157.166 78.6692 157.077 78.64C154.275 77.3126 145.603 73.8322 145.603 73.8322C141.267 71.9444 136.783 70.3512 132.211 68.7288C131.385 72.121 123.627 94.7161 122.389 97.8726L121.415 76.8701C121.739 76.369 121.975 75.8082 122.241 75.2773L125.486 68.8766C123.214 70.7645 119.792 71.9738 115.958 71.9738C112.212 71.9738 108.879 70.8234 106.607 68.9946L109.764 75.2478C110.029 75.779 110.265 76.369 110.59 76.8406L109.616 97.8425C108.377 94.7158 100.619 72.121 99.7935 68.6993C95.2214 70.3217 90.7378 71.9441 86.4017 73.8021C86.4017 73.8021 77.7294 77.2831 74.9272 78.6105C74.8387 78.6692 74.2192 78.9642 74.1307 79.0234C74.1307 79.0234 71.535 81.1765 70.827 82.6811C70.827 82.6811 70.3551 83.8309 70.2371 84.451C69.0867 87.9606 66.5204 95.8075 65.37 100.143C65.2225 100.586 65.1045 101.058 65.0455 101.529C64.9865 101.942 64.957 102.385 64.957 102.798C64.957 107.429 68.7032 111.175 73.3343 111.175H81.3281C92.7731 111.175 104.189 111.175 115.634 111.175C115.781 111.175 115.929 111.175 116.076 111.175C116.224 111.175 116.371 111.175 116.519 111.175C127.964 111.175 139.379 111.175 150.824 111.175H158.818C163.449 111.175 167.195 107.429 167.195 102.798C167.048 102.445 167.018 102.002 166.959 101.589Z" fill="#FF7300"/>
<path d="M137.811 29.9111C137.811 28.4362 138.106 23.0677 138.106 21.8583C138.106 9.91181 128.402 0.207153 116.455 0.207153H116.426H116.396C116.249 0.207153 116.131 0.207153 115.983 0.207153C115.836 0.207153 115.718 0.207153 115.571 0.207153H115.541H115.511C103.565 0.207153 93.8603 9.91181 93.8603 21.8583C93.8603 23.0972 94.1553 28.4362 94.1553 29.9111C93.6243 29.9406 88.787 28.7607 89.318 34.5717C90.4094 46.8721 95.129 44.5123 95.247 44.5123C97.5478 51.9457 101.146 56.6653 104.657 59.6743C110.143 64.3638 115.453 64.8951 115.571 64.8951C115.718 64.8951 115.866 64.8951 116.013 64.8951C116.161 64.8951 116.308 64.8951 116.456 64.8951C116.544 64.8951 121.824 64.3939 127.281 59.733C130.821 56.7246 134.419 51.9752 136.75 44.5123C136.897 44.5123 141.587 46.9016 142.679 34.5717C143.18 28.7607 138.342 29.9406 137.811 29.9111Z" fill="#FF7300"/>
<path d="M64.3929 80.233L64.4519 80.056L64.5404 79.879C65.1894 78.4628 66.2513 77.0768 67.8736 75.4839C68.2276 75.1594 69.2895 74.0972 70.1449 73.5073C70.2039 73.4778 70.2629 73.4191 70.3219 73.3899C70.3514 73.3598 70.3809 73.3306 70.4399 73.3306C71.0299 72.9474 71.7378 72.6226 71.9738 72.5049C73.8911 71.5899 78.0208 69.9089 80.882 68.729C80.7935 68.6995 80.705 68.6402 80.587 68.5815C80.4985 68.552 80.41 68.4927 80.3216 68.4635C77.8733 67.3131 70.3219 64.2752 70.3219 64.2752C66.5462 62.6528 62.6231 61.2366 58.6409 59.821C57.933 62.8003 51.1486 82.4748 50.0867 85.2183L49.2312 66.9004C49.5262 66.458 49.7032 65.9854 49.9392 65.5138L52.7709 59.9387C50.7946 61.5912 47.8154 62.6528 44.4822 62.6528C41.2374 62.6528 38.3172 61.6499 36.3114 60.0567L39.0841 65.5138C39.3201 65.9857 39.4971 66.4875 39.7921 66.9004L38.9366 85.2183C37.8747 82.5043 31.0903 62.8003 30.3824 59.821C26.4002 61.2366 22.4771 62.6233 18.7014 64.2752C18.7014 64.2752 11.15 67.3131 8.70175 68.4635C8.61326 68.493 8.52476 68.5523 8.43627 68.5815C8.22979 68.6995 8.0823 68.7585 7.99381 68.8178C6.72542 69.5552 5.72251 70.6758 5.10306 72.0032C5.10306 72.0032 5.10306 72.0032 5.10306 72.0327C4.86708 72.5052 4.69009 73.0356 4.6016 73.5668C3.59869 76.6346 1.35688 83.478 0.383467 87.2239C0.265477 87.6076 0.147487 88.0206 0.0884924 88.4339C0.0294975 88.7875 0 89.1713 0 89.5545C0 93.5959 3.27422 96.8406 7.28587 96.8406H14.2473C24.2174 96.8406 34.1875 96.8406 44.1577 96.8406C44.2757 96.8406 44.4232 96.8406 44.5411 96.8406C44.6591 96.8406 44.8066 96.8406 44.9246 96.8406C49.6737 96.8406 54.4228 96.8406 59.1719 96.8406C60.4108 92.4747 62.3871 86.3389 63.626 82.6518C63.803 81.7371 64.157 80.7642 64.3929 80.233Z" fill="#FF7300"/>
<path d="M26.3646 38.6417C28.3705 45.1016 31.4972 49.2312 34.5649 51.8565C39.3435 55.9564 43.9746 56.3988 44.0631 56.3988C44.1811 56.3988 44.3286 56.3988 44.4466 56.3988C44.5646 56.3988 44.7121 56.3988 44.83 56.3988C44.9185 56.3988 49.5201 55.9564 54.2692 51.886C57.3665 49.2607 60.4932 45.1311 62.5285 38.6122C62.6465 38.6122 66.7467 40.7065 67.7201 29.9694C68.1625 24.8958 63.9444 25.9283 63.5019 25.8988C63.5019 24.6009 63.7674 19.9403 63.7674 18.8784C63.7674 8.46576 55.3016 0 44.889 0H44.8595H44.83C44.7121 0 44.5941 0 44.4761 0C44.3581 0 44.2401 0 44.1221 0H44.0926H44.0631C33.6505 0 25.1847 8.46576 25.1847 18.8784C25.1847 19.9403 25.4502 24.6304 25.4502 25.8988C24.9783 25.9283 20.7601 24.8958 21.2321 29.9694C22.1465 40.736 26.2467 38.6417 26.3646 38.6417Z" fill="#FF7300"/>
<path d="M231.852 82.1799C231.793 81.5017 231.704 80.823 231.615 80.1445C231.615 80.1445 231.232 77.9623 231.143 77.6078C230.258 73.7436 227.869 70.9413 224.624 68.729C224.005 68.3161 223.386 67.9621 222.766 67.6379C221.94 67.1955 209.256 63.0357 208.932 62.9183C209.02 63.3608 209.05 63.8327 209.08 64.3631C210.849 65.6023 216.041 70.0856 213.681 78.4337C213.681 78.4337 209.935 73.9796 206.13 73.4191C202.501 79.7316 196.336 87.7549 193.004 89.8489C189.67 87.7552 183.505 79.7614 179.877 73.4194C176.072 73.9799 172.325 78.434 172.325 78.434C169.966 70.0567 175.158 65.6026 176.928 64.3634C176.957 63.8328 176.986 63.3611 177.075 62.9186C176.75 63.036 164.066 67.1958 163.241 67.6382C162.592 67.9627 161.972 68.3164 161.382 68.7293C160.114 69.5848 158.993 70.5287 158.02 71.5903C158.787 71.9153 159.436 72.2103 159.967 72.4457C160.173 72.5345 160.793 72.8295 161.353 73.1831C162.68 73.9799 163.978 75.1893 165.394 76.9591C166.81 78.7585 167.282 79.6139 167.518 80.1743C167.872 80.9705 168.167 81.8262 168.373 82.6816C169.583 86.3688 171.588 92.504 172.798 96.8404C179.523 96.8404 186.278 96.8404 193.004 96.8404C202.767 96.8404 212.531 96.8404 222.294 96.8404C225.215 96.8404 227.693 95.9555 229.758 93.7727C231.35 92.0615 231.822 90.0262 231.94 87.8139C231.97 87.4307 231.999 85.7491 231.999 85.7491C231.999 85.7491 231.852 82.2094 231.852 82.1799Z" fill="#FF7300"/>
<path d="M170.022 42.3593C170.317 43.4507 170.524 44.4831 170.524 45.4565C170.524 45.781 170.494 46.1055 170.435 46.43C170.17 47.3444 168.223 50.4711 167.898 51.0021C171.349 54.7187 175.892 55.5742 180.376 56.5181C181.703 56.7835 183.06 56.9605 184.505 57.1375C184.977 57.2263 185.449 57.3151 185.921 57.403L183.65 64.0694C183.65 64.0694 183.591 73.8036 193.001 79.7331H193.06C202.469 73.8036 202.41 64.0694 202.41 64.0694L200.139 57.403C200.611 57.3148 201.083 57.226 201.555 57.1375C203 56.9605 204.357 56.7838 205.685 56.5181C210.168 55.5742 214.74 54.7187 218.162 51.0021C217.838 50.4711 215.891 47.3444 215.625 46.43C215.567 46.1055 215.537 45.781 215.537 45.4565C215.537 44.4831 215.714 43.4507 216.038 42.3593C216.333 41.3269 216.658 40.2945 216.982 39.2326C218.516 35.8404 219.342 32.0942 219.342 28.112C219.342 13.3928 207.632 1.41684 193.089 1.15137H193.06H193.03C178.488 1.41684 166.777 13.3928 166.777 28.112C166.777 32.0647 167.633 35.8404 169.137 39.2326C169.403 40.2945 169.727 41.3269 170.022 42.3593Z" fill="#FF7300"/>
</svg>
