<svg display="none" fill="none" xmlns="http://www.w3.org/2000/svg">
<symbol id="svg-icon-02"  viewBox="0 0 67 61">
<path d="M32.8264 48.6194C32.4615 48.402 32.1372 48.2527 31.8564 48.0287C31.0219 47.3737 30.1704 46.735 29.4046 46.0058C28.7787 45.4138 28.2402 45.4784 27.4386 45.6803C26.0802 46.0221 25.8364 46.865 25.7116 48.0462C25.2857 52.059 25.2523 52.0499 21.2753 51.9689C20.3355 51.9498 19.3963 51.9054 18.4559 51.9199C17.5742 51.9355 17.0947 51.5731 16.9959 50.656C16.8544 49.3602 16.6624 48.0718 16.4622 46.7748C16.3062 45.7809 14.2262 44.8738 13.4087 45.4449C12.37 46.1625 11.3474 46.9141 10.3332 47.6658C9.71954 48.1234 9.11406 48.1782 8.57979 47.6217C7.24806 46.2429 5.95059 44.8312 4.64454 43.4277C4.00393 42.7346 4.06794 42.0643 4.70303 41.3804C5.14925 40.9025 5.48021 40.3132 5.95075 39.8778C7.11391 38.8185 7.41339 37.7164 6.5445 36.2799C6.21965 35.7443 5.98315 35.4037 5.34701 35.3152C4.09991 35.1387 2.8636 34.8448 1.617 34.6431C0.822128 34.5178 0.503604 34.0831 0.527895 33.3028C0.581264 31.5073 0.617851 29.7114 0.637658 27.9152C0.647732 27.0087 1.06759 26.589 1.95904 26.5065C2.89243 26.4247 3.81915 26.2589 4.74518 26.1266C6.43714 25.8925 7.04364 25.3759 7.39599 23.7376C7.45163 23.4784 7.31634 23.1147 7.15315 22.8847C6.44318 21.8879 5.6993 20.9073 4.94652 19.9517C4.44753 19.3118 4.34254 18.6968 4.95897 18.1049C6.32931 16.7644 7.69948 15.4322 9.10271 14.1259C9.77016 13.5015 10.4667 13.5073 11.1758 14.1346C11.8106 14.7016 12.5482 15.17 13.1485 15.7783C14.0285 16.6694 14.8809 16.8546 16.0513 16.2656C16.7552 15.9106 17.1057 15.5987 17.1727 14.7857C17.2805 13.6125 17.5726 12.4599 17.7643 11.2884C17.8982 10.4852 18.3518 10.0578 19.1826 10.0664C21.0203 10.0954 22.8579 10.1329 24.695 10.1871C25.5087 10.2121 25.9363 10.6489 26.0114 11.4984C26.1217 12.676 26.2993 13.8466 26.4517 15.0167C26.6324 16.4476 28.6535 17.3619 29.8121 16.5292C30.7745 15.8436 31.6805 15.0477 32.716 14.4895C33.1658 14.2468 34.0975 14.249 34.4269 14.5579C35.8189 15.8624 37.082 17.3153 38.3795 18.727C38.979 19.3773 38.941 20.0062 38.3566 20.6743C37.6089 21.5322 36.8938 22.4328 36.2039 23.3338C35.5397 24.2102 36.4405 26.5541 37.5109 26.7522C38.7568 26.9875 39.9945 27.2142 41.2413 27.4075C42.1115 27.5428 42.5387 27.9964 42.5204 28.8944C42.4763 30.6481 42.449 32.4022 42.4132 34.1562C42.3955 35.0289 41.9828 35.5075 41.0994 35.607C39.9215 35.7425 38.7588 35.9539 37.5818 36.0475C36.8335 36.1078 36.5158 36.4539 36.1336 37.0842C35.3782 38.3197 35.5688 39.2639 36.5319 40.1986C36.7046 40.3701 36.8261 40.5908 36.9731 40.7869C38.9529 43.3207 39.163 42.8968 36.6337 45.4983C35.785 46.3709 34.8536 47.1747 33.9223 47.9784C33.6146 48.2492 33.2256 48.3924 32.8264 48.6194ZM29.8322 31.1965C29.9012 26.572 26.2759 22.8209 21.6526 22.7351C17.0375 22.6579 13.2449 26.2914 13.1514 30.8818C13.0563 35.5478 16.7147 39.3247 21.4053 39.4035C25.9953 39.4802 29.7632 35.821 29.8322 31.1965Z" fill="white"/>
<path d="M46.2944 17.8893C46.3096 17.1424 45.3161 16.0559 44.5969 15.9237C39.5203 15.0143 40.7195 15.8951 40.6327 11.0911C40.6148 10.3184 40.9578 9.96433 41.6648 9.8696C42.515 9.75259 43.3571 9.61863 44.2066 9.53519C46.158 9.33987 46.8001 8.31191 46.073 6.50886C44.7309 3.1653 44.7715 3.23329 47.8809 1.40766C49.0702 0.709876 49.7727 0.841724 50.4724 1.9306C50.8306 2.47521 51.2739 2.96278 51.6578 3.48273C52.736 4.94872 53.9862 4.97419 55.1233 3.54493C57.4058 0.694993 57.3712 0.744664 60.5404 2.57228C61.6521 3.2162 61.9665 3.85226 61.3391 4.98127C61.0078 5.58739 60.7928 6.25465 60.5113 6.88697C59.7899 8.50939 60.3968 9.62156 62.1711 9.87599C65.8036 10.395 65.7448 10.3938 65.7547 14.0292C65.7621 15.3139 65.3556 15.9017 64.0868 15.9682C63.3977 16.0045 62.715 16.1417 62.0249 16.2284C60.1987 16.4598 59.6154 17.489 60.3017 19.2325C60.6449 20.1042 61.0133 20.9764 61.213 21.8872C61.29 22.2246 61.0262 22.8153 60.7284 23.0107C59.7839 23.6379 58.7736 24.1966 57.7401 24.6625C57.4182 24.8071 56.7657 24.693 56.5272 24.4531C55.7957 23.691 55.1754 22.822 54.5293 21.9861C53.7444 20.9627 52.2846 20.9245 51.4756 21.9071C50.83 22.6915 50.1513 23.4585 49.514 24.2515C49.0835 24.78 48.6782 24.8977 48.0657 24.4738C47.1965 23.8768 46.2757 23.3375 45.3457 22.84C44.6565 22.4734 44.549 21.9843 44.8226 21.3266C45.2018 20.4276 45.5811 19.5286 45.9603 18.6296C46.0918 18.3553 46.2062 18.0973 46.2944 17.8893ZM53.4306 8.75763C51.1245 8.65188 49.2094 10.3591 49.0792 12.6316C48.9482 14.9377 50.754 16.9475 53.052 17.0447C55.2828 17.1405 57.2675 15.3087 57.3635 13.0691C57.4518 10.7957 55.6783 8.85379 53.4306 8.75763Z" fill="white"/>
<path d="M54.7403 36.3467C56.0754 37.1463 57.3203 37.8433 58.4876 38.6394C58.7359 38.8124 58.8832 39.4115 58.7928 39.7287C58.5312 40.6216 58.1444 41.4785 57.766 42.3355C57.0268 44.008 57.6171 45.1114 59.4166 45.3663C63.024 45.8764 63.024 45.8764 62.951 49.4598C62.9143 51.2641 62.9142 51.2641 61.0624 51.5202C60.4142 51.6077 59.7665 51.6785 59.1187 51.7492C57.5796 51.8942 56.8583 53.1052 57.4581 54.5615C58.9057 58.0835 58.8732 58.0325 55.6116 59.9138C54.5328 60.5382 53.8717 60.4408 53.2124 59.4283C52.8136 58.8157 52.3127 58.2682 51.8798 57.6801C50.8832 56.3333 49.608 56.2989 48.5655 57.6126C46.2141 60.5535 46.2403 60.5036 42.9797 58.6238C41.9427 58.0233 41.6949 57.4138 42.2112 56.3833C42.5351 55.7267 42.7842 55.0349 43.0832 54.3694C43.8044 52.7553 43.1564 51.6003 41.4231 51.3887C37.764 50.9448 37.764 50.9448 37.8374 47.3446C37.8738 45.5571 37.8738 45.5571 39.6255 45.2738C40.2656 45.1693 40.9134 45.0985 41.5695 45.0279C43.3194 44.8369 43.9793 43.7589 43.3237 42.1504C41.9329 38.7303 41.9652 38.7898 45.1169 36.9482C46.2893 36.2585 47.0006 36.3653 47.6913 37.4876C48.0325 38.0402 48.4843 38.528 48.8768 39.0397C49.9803 40.4978 51.1975 40.489 52.3768 39.0522C53.1174 38.1354 53.9238 37.2787 54.7403 36.3467ZM50.3479 52.5276C52.6387 52.5659 54.5137 50.7655 54.5598 48.4997C54.6065 46.2086 52.699 44.2472 50.4076 44.2425C48.1749 44.239 46.2984 46.1149 46.2692 48.3727C46.2478 50.6559 48.0488 52.4892 50.3479 52.5276Z" fill="white"/>
</svg>
