<svg display="none" fill="none" xmlns="http://www.w3.org/2000/svg">
<symbol id="svg-icon-03"  viewBox="0 0 67 68">

<path d="M65.4283 34.6941C65.1169 52.3234 50.2594 66.6932 32.681 66.3829C14.7587 66.0656 0.321806 51.3475 0.652289 33.7185C0.993284 15.5737 15.6389 1.28555 33.5902 1.58436C51.4936 1.89175 65.7564 16.7114 65.4283 34.6941ZM7.57757 32.9516C7.06115 46.1033 16.8438 58.4803 31.5329 59.4104C45.3248 60.284 57.6055 49.9624 58.4551 35.4697C59.2731 21.5881 48.9602 9.43925 34.4802 8.56118C20.6399 7.71525 8.37488 18.2093 7.57757 32.9516Z" fill="white"/>
<path d="M35.4068 33.0023C35.9895 33.0142 36.4385 33.0234 36.8875 33.0325C41.0621 33.1176 45.2273 33.1929 49.4018 33.2875C51.3599 33.3369 52.5336 34.3645 52.5387 35.9896C52.5337 37.6431 51.356 38.6897 49.3975 38.6594C43.9613 38.5773 38.5257 38.4665 33.0906 38.3271C30.9128 38.2732 29.9494 37.2404 29.9843 35.0617C30.1053 28.6503 30.2453 22.2489 30.3664 15.8375C30.3915 14.605 30.7942 13.6 31.9618 13.0502C32.9266 12.6015 33.8605 12.7352 34.6984 13.3545C35.6021 14.0325 35.7737 14.9918 35.7519 16.0619C35.6376 21.2022 35.5329 26.3426 35.4279 31.4925C35.428 31.9609 35.4188 32.41 35.4068 33.0023Z" fill="white"/>

</symbol>
</svg>

