<svg display="none" fill="none" xmlns="http://www.w3.org/2000/svg">
<symbol id="svg-icon-06"  viewBox="0 0 65 65">
<g clip-path="url(#clip0)">
<path d="M26.971 42.5454V45.1623C26.971 47.3571 28.7438 49.1298 30.9386 49.1298H34.1042C36.299 49.1298 38.0717 47.3571 38.0717 45.1623V42.5454C38.0717 40.224 39.0847 37.9448 40.8574 36.172C43.1366 33.935 44.4029 30.9383 44.4029 27.7305C44.4029 21.1883 39.0847 15.8279 32.5003 15.8279C25.958 15.8279 20.5977 21.1461 20.5977 27.7305C20.5977 30.9383 21.8639 33.935 24.1431 36.172C25.958 37.9448 26.971 40.224 26.971 42.5454ZM34.1042 47.5681H30.9386C29.6301 47.5681 28.5749 46.5129 28.5749 45.2045H36.51C36.4678 46.5129 35.4126 47.5681 34.1042 47.5681ZM36.4678 42.5454V43.6006H28.5327V42.5454C28.5327 42.0811 28.4905 41.6591 28.4483 41.1948H36.5944C36.51 41.6591 36.4678 42.1233 36.4678 42.5454ZM30.8964 36.0454C30.8964 35.2013 31.6139 34.4837 32.5003 34.4837C33.3866 34.4837 34.1042 35.2013 34.1042 36.0454V39.6331H30.9386V36.0454H30.8964ZM28.5749 27.6039C28.7438 26.9707 30.2632 26.1266 32.5003 26.1266C34.7373 26.1266 36.2568 26.9707 36.4256 27.6039L34.0197 33.3019C33.5554 33.0487 33.049 32.8798 32.5003 32.8798C31.9516 32.8798 31.4451 33.0487 30.9808 33.3019L28.5749 27.6039ZM32.5003 17.4318C38.1983 17.4318 42.799 22.0746 42.799 27.7305C42.799 30.474 41.7016 33.0909 39.7178 35.0324C38.3671 36.3831 37.3964 37.9448 36.8899 39.6331H35.6658V36.0454C35.6658 35.4967 35.497 34.948 35.2438 34.4837L37.9873 28.0681C38.0295 27.9837 38.0295 27.8571 38.0295 27.7727C38.0295 25.9578 35.6658 24.6071 32.5003 24.6071C29.3347 24.6071 26.971 25.9578 26.971 27.7727C26.971 27.8571 27.0132 27.9837 27.0132 28.0681L29.7567 34.5259C29.5035 34.9902 29.3347 35.4967 29.3347 36.0876V39.6753H28.1106C27.6041 37.987 26.6334 36.4253 25.2827 35.0746C23.299 33.1331 22.2016 30.5584 22.2016 27.7727C22.2016 22.0746 26.8022 17.4318 32.5003 17.4318Z" fill="#DE8348"/>
<path d="M5.27597 51.7468V58.9221C5.27597 59.3442 5.61364 59.724 6.07792 59.724H14.013C14.4351 59.724 14.8149 59.3864 14.8149 58.9221C14.8149 56.474 16.8409 54.4481 19.289 54.4481C21.7792 54.4481 23.8052 56.474 23.8052 58.9221C23.8052 59.3442 24.1429 59.724 24.6071 59.724H39.7175C40.0974 62.7208 42.6721 65 45.7533 65C48.8344 65 51.4091 62.6786 51.789 59.724H58.9643C59.3864 59.724 59.7662 59.3864 59.7662 58.9221V50.987C59.7662 50.5649 59.4286 50.1851 58.9643 50.1851C56.474 50.1851 54.4903 48.1591 54.4903 45.711C54.4903 43.2208 56.5162 41.237 58.9643 41.237C59.3864 41.237 59.7662 40.8994 59.7662 40.4351V25.3247C62.763 24.9448 65.0422 22.3701 65.0422 19.289C65.0422 16.2078 62.7208 13.6753 59.7662 13.2955V6.12013C59.7662 5.69805 59.4286 5.31818 58.9643 5.31818H51.0292C50.6071 5.31818 50.2273 5.65584 50.2273 6.12013C50.2273 8.56818 48.2013 10.5942 45.7533 10.5942C43.263 10.5942 41.237 8.56818 41.237 6.12013C41.237 5.69805 40.8994 5.31818 40.4351 5.31818H25.3247C24.9448 2.32143 22.3701 0 19.289 0C16.2078 0 13.6331 2.32143 13.2532 5.27597H6.07792C5.65584 5.27597 5.27597 5.61364 5.27597 6.07792V14.013C5.27597 14.4351 5.61364 14.8149 6.07792 14.8149C8.56818 14.8149 10.5519 16.8409 10.5519 19.289C10.5519 21.737 8.52597 23.763 6.07792 23.763C5.65584 23.763 5.27597 24.1006 5.27597 24.5649V39.6753C2.32143 40.0552 0 42.6299 0 45.711C0 48.7922 2.32143 51.3247 5.27597 51.7468ZM6.07792 41.237C6.5 41.237 6.87987 40.8994 6.87987 40.4351V33.3019H13.2532C13.6331 36.2987 16.1656 38.5779 19.2468 38.5779C20.3019 38.5779 21.3149 38.3247 22.2013 37.8182C22.5812 37.6071 22.7078 37.1007 22.4968 36.7208C22.2857 36.3409 21.7792 36.2143 21.3994 36.4253C20.7662 36.8052 20.0487 36.974 19.2468 36.974C16.7987 36.974 14.7727 34.9481 14.7727 32.4578C14.7727 32.0357 14.4351 31.6558 13.9708 31.6558H6.87987V25.3247C9.83442 24.9448 12.1558 22.3701 12.1558 19.289C12.1558 16.2078 9.83442 13.6331 6.87987 13.2532V6.87987H14.013C14.4351 6.87987 14.8149 6.54221 14.8149 6.07792C14.8149 3.58766 16.8409 1.6039 19.289 1.6039C21.737 1.6039 23.763 3.62987 23.763 6.07792C23.763 6.5 24.1007 6.87987 24.5649 6.87987H31.6981V13.5065C31.6981 13.9286 32.0357 14.3084 32.5 14.3084C32.9221 14.3084 33.302 13.9708 33.302 13.5065V6.87987H39.6753C40.0552 9.83442 42.6299 12.1558 45.711 12.1558C48.7922 12.1558 51.3247 9.87662 51.7045 6.87987H58.0779V14.013C58.0779 14.4351 58.4156 14.8149 58.8799 14.8149C61.3701 14.8149 63.3961 16.8409 63.3961 19.289C63.3961 21.7792 61.3701 23.8052 58.8799 23.8052C58.4578 23.8052 58.0779 24.1429 58.0779 24.6071V31.7403H51.7045C51.3669 29.1656 49.4253 27.0552 46.8507 26.5487C46.3864 26.4643 46.0065 26.7597 45.9221 27.1818C45.8377 27.6039 46.1331 28.026 46.5552 28.1104C48.6656 28.5325 50.1851 30.3896 50.1851 32.5422C50.1851 32.9643 50.5227 33.3442 50.987 33.3442H58.1201V39.6753C55.1656 40.0552 52.8442 42.6299 52.8442 45.711C52.8442 48.7922 55.1656 51.3669 58.1201 51.7468V58.1201H50.987C50.5649 58.1201 50.1851 58.4578 50.1851 58.9221C50.1851 61.4123 48.1591 63.3961 45.711 63.3961C43.2208 63.3961 41.237 61.3701 41.237 58.9221C41.237 58.5 40.8994 58.1201 40.4351 58.1201H33.302V51.4935C33.302 51.0714 32.9643 50.6916 32.5 50.6916C32.0779 50.6916 31.6981 51.0292 31.6981 51.4935V58.0779H25.3247C24.9448 55.1234 22.3701 52.8019 19.289 52.8019C16.2078 52.8019 13.6753 55.0812 13.2955 58.0779H6.87987V50.9448C6.87987 50.5227 6.54221 50.1429 6.07792 50.1429C3.58766 50.1429 1.56169 48.1169 1.56169 45.6688C1.6039 43.2208 3.58766 41.237 6.07792 41.237Z" fill="#DE8348"/>
</g>
<defs>
<clipPath id="clip0">
<rect width="65" height="65" fill="white"/>
</clipPath>
</defs>
</symbol>
</svg>