<svg display="none" fill="none" xmlns="http://www.w3.org/2000/svg">
<symbol id="svg-icon-05"  viewBox="0 0 57 41">
<path d="M27.9855 39.5696C19.8334 39.4035 11.6813 39.2374 3.52152 39.0712C1.0835 39.0215 0.0239829 37.9021 0.0739721 35.4484C0.290851 24.803 0.499955 14.1651 0.73969 3.52016C0.750868 2.97151 0.879122 2.28803 1.22196 1.92147C1.94665 1.1434 2.72378 1.53277 3.43562 2.13427C7.70646 5.75089 11.9776 9.35227 16.2562 12.9614C19.4184 15.6254 22.5653 18.2967 25.7352 20.9532C27.5338 22.4612 29.2631 22.504 31.0986 21.0777C38.5796 15.2763 46.0533 9.4595 53.5419 3.65823C54.2931 3.07891 54.9909 2.12496 56.1308 2.66658C57.2932 3.22389 56.9117 4.36724 56.8924 5.31215C56.696 15.6988 56.4768 26.0849 56.2652 36.4713C56.2121 39.0774 55.1392 40.1151 52.5564 40.0625C44.366 39.9033 36.1758 39.7364 27.9855 39.5696Z" fill="white"/>
<path d="M28.9478 0.489188C35.858 0.629971 42.7607 0.770598 49.6709 0.911381C49.93 0.916658 50.2055 0.861288 50.4325 0.942146C50.8867 1.09624 51.3166 1.31845 51.7548 1.51034C51.5175 1.93241 51.377 2.47081 51.0282 2.7534C47.968 5.18389 44.8631 7.56772 41.7806 9.96726C38.3188 12.6564 34.8494 15.3454 31.3801 18.0267C29.3512 19.5939 27.6825 19.5675 25.7568 17.9426C19.5 12.6618 13.2431 7.38856 6.97873 2.10755C6.7839 1.94349 6.54289 1.80135 6.41757 1.59297C6.24061 1.29968 5.96772 0.85196 6.07873 0.640768C6.22939 0.35415 6.67501 0.180276 7.02018 0.0729581C7.31933 -0.0200508 7.67602 0.0558196 8.00363 0.062494C14.9825 0.204674 21.9689 0.347008 28.9478 0.489188Z" fill="white"/>
</symbol>
</svg>


