<svg display="none" fill="blue" xmlns="http://www.w3.org/2000/svg">
<symbol id="svg-icon-01"  viewBox="0 0 65 65">
<path d="M39.2038 49.9559C40.3818 49.9799 41.4837 49.9832 42.5751 50.0246C43.8773 50.0703 44.62 50.7658 44.5597 51.8475C44.5003 52.8813 43.7793 53.4703 42.4959 53.4442C35.1592 53.3043 27.8228 53.1549 20.4961 52.996C19.1457 52.9685 18.4309 52.3118 18.4819 51.2204C18.5231 50.1383 19.2629 49.5688 20.6235 49.5678C21.6487 49.5695 22.6735 49.5904 23.6985 49.6017C23.7655 49.603 23.8435 49.5375 24.0276 49.4359C24.0553 48.0756 24.0844 46.6483 24.1135 45.221C24.1312 44.3493 23.4663 44.537 22.9778 44.527C18.1892 44.4199 13.3909 44.3221 8.5925 44.2244C7.24206 44.1968 5.89162 44.1693 4.54118 44.1418C1.54359 44.0712 0.201514 42.6926 0.262013 39.723C0.382231 33.8222 0.502449 27.9213 0.622667 22.0204C0.742885 16.1196 0.863103 10.2187 0.983321 4.31787C1.03875 1.59735 2.59398 0.0382093 5.29486 0.0932342C23.4446 0.453415 41.5941 0.823174 59.753 1.20271C62.5018 1.25871 64.0204 2.90922 63.964 5.67764C63.7243 17.441 63.4849 29.1948 63.2452 40.9582C63.1841 43.9566 61.7862 45.3177 58.8267 45.2574C52.8024 45.1346 46.7781 45.0119 40.7538 44.8892C40.3133 44.8802 39.8631 44.871 39.3076 44.8597C39.2729 46.5648 39.2401 48.1741 39.2038 49.9559ZM3.73284 40.5508C22.4666 40.9325 41.0758 41.3116 59.6947 41.6909C59.9468 29.3144 60.197 17.0338 60.448 4.71477C41.7717 4.33428 23.1624 3.95515 4.48615 3.57466C4.23459 15.9224 3.98459 28.1935 3.73284 40.5508Z" fill="#fff"/>
</symbol>
</svg>







