<svg display="none" fill="none" xmlns="http://www.w3.org/2000/svg">
<symbol id="world-position"  viewBox="0 0 226 362">
<path d="M102.6 269.72C99.24 269.72 96.36 269.107 93.96 267.88C91.6133 266.6 89.8267 264.76 88.6 262.36C87.3733 259.96 86.7333 257.053 86.68 253.64C86.68 253.533 86.68 253.427 86.68 253.32C86.68 253.16 86.68 253.027 86.68 252.92H95.24C95.24 256.013 95.7467 258.413 96.76 260.12C97.7733 261.773 99.7467 262.6 102.68 262.6C104.28 262.6 105.613 262.12 106.68 261.16C107.747 260.147 108.547 258.627 109.08 256.6C109.613 254.52 109.88 251.907 109.88 248.76V238.92C109.08 240.253 107.88 241.347 106.28 242.2C104.733 243 102.787 243.4 100.44 243.4C96.8667 243.4 94.0667 242.627 92.04 241.08C90.0133 239.48 88.5733 237.293 87.72 234.52C86.92 231.693 86.52 228.413 86.52 224.68C86.52 220.733 87.0533 217.187 88.12 214.04C89.1867 210.84 90.8933 208.307 93.24 206.44C95.64 204.573 98.76 203.64 102.6 203.64C106.333 203.64 109.373 204.6 111.72 206.52C114.067 208.387 115.773 210.92 116.84 214.12C117.96 217.32 118.52 220.893 118.52 224.84V246.6C118.52 250.76 118.04 254.6 117.08 258.12C116.12 261.64 114.493 264.467 112.2 266.6C109.907 268.68 106.707 269.72 102.6 269.72ZM102.6 236.92C104.467 236.92 105.987 236.467 107.16 235.56C108.333 234.6 109.24 233.56 109.88 232.44V222.84C109.88 220.6 109.667 218.573 109.24 216.76C108.813 214.893 108.067 213.427 107 212.36C105.933 211.24 104.467 210.68 102.6 210.68C100.733 210.68 99.24 211.24 98.12 212.36C97.0533 213.48 96.28 214.947 95.8 216.76C95.3733 218.52 95.16 220.467 95.16 222.6C95.16 225.16 95.2667 227.533 95.48 229.72C95.7467 231.907 96.3867 233.667 97.4 235C98.4667 236.28 100.2 236.92 102.6 236.92Z" fill="#DE8348"/>
<path d="M65.7451 319L61.5151 307.732H61.4431C61.4791 308.104 61.5091 308.608 61.5331 309.244C61.5571 309.868 61.5691 310.522 61.5691 311.206V319H60.0751V306.148H62.4691L66.4291 316.678H66.5011L70.5331 306.148H72.9091V319H71.3071V311.098C71.3071 310.474 71.3191 309.856 71.3431 309.244C71.3791 308.632 71.4091 308.134 71.4331 307.75H71.3611L67.0771 319H65.7451ZM79.9152 309.172C80.7432 309.172 81.4512 309.352 82.0392 309.712C82.6392 310.072 83.0952 310.582 83.4072 311.242C83.7312 311.89 83.8932 312.652 83.8932 313.528V314.482H77.2872C77.3112 315.574 77.5872 316.408 78.1152 316.984C78.6552 317.548 79.4052 317.83 80.3652 317.83C80.9772 317.83 81.5172 317.776 81.9852 317.668C82.4652 317.548 82.9572 317.38 83.4612 317.164V318.55C82.9692 318.766 82.4832 318.922 82.0032 319.018C81.5232 319.126 80.9532 319.18 80.2932 319.18C79.3812 319.18 78.5712 318.994 77.8632 318.622C77.1672 318.25 76.6212 317.698 76.2252 316.966C75.8412 316.222 75.6492 315.316 75.6492 314.248C75.6492 313.192 75.8232 312.286 76.1712 311.53C76.5312 310.774 77.0292 310.192 77.6652 309.784C78.3132 309.376 79.0632 309.172 79.9152 309.172ZM79.8972 310.468C79.1412 310.468 78.5412 310.714 78.0972 311.206C77.6652 311.686 77.4072 312.358 77.3232 313.222H82.2372C82.2252 312.406 82.0332 311.746 81.6612 311.242C81.2892 310.726 80.7012 310.468 79.8972 310.468ZM90.2193 319.18C89.3673 319.18 88.6053 319.006 87.9333 318.658C87.2733 318.31 86.7513 317.77 86.3673 317.038C85.9953 316.306 85.8093 315.37 85.8093 314.23C85.8093 313.042 86.0073 312.076 86.4033 311.332C86.7993 310.588 87.3333 310.042 88.0053 309.694C88.6893 309.346 89.4633 309.172 90.3273 309.172C90.8193 309.172 91.2933 309.226 91.7493 309.334C92.2053 309.43 92.5773 309.55 92.8653 309.694L92.3793 311.008C92.0913 310.9 91.7553 310.798 91.3713 310.702C90.9873 310.606 90.6273 310.558 90.2913 310.558C88.3953 310.558 87.4473 311.776 87.4473 314.212C87.4473 315.376 87.6753 316.27 88.1313 316.894C88.5993 317.506 89.2893 317.812 90.2013 317.812C90.7293 317.812 91.1913 317.758 91.5873 317.65C91.9953 317.542 92.3673 317.41 92.7033 317.254V318.658C92.3793 318.826 92.0193 318.952 91.6233 319.036C91.2393 319.132 90.7713 319.18 90.2193 319.18ZM101.658 310.684H98.5078V319H96.9418V310.684H93.8278V309.352H101.658V310.684ZM118.391 309.352V319H116.969V312.844C116.969 312.592 116.975 312.328 116.987 312.052C117.011 311.776 117.035 311.506 117.059 311.242H117.005L113.855 319H112.523L109.463 311.242H109.409C109.445 311.782 109.463 312.334 109.463 312.898V319H108.041V309.352H110.147L113.189 317.11L116.285 309.352H118.391ZM122.964 309.352V315.238C122.964 315.382 122.958 315.598 122.946 315.886C122.934 316.174 122.916 316.462 122.892 316.75C122.88 317.038 122.868 317.266 122.856 317.434L128.022 309.352H129.966V319H128.49V313.312C128.49 313.12 128.49 312.868 128.49 312.556C128.502 312.244 128.514 311.938 128.526 311.638C128.538 311.326 128.55 311.092 128.562 310.936L123.432 319H121.47V309.352H122.964ZM137.627 309.172C138.815 309.172 139.769 309.586 140.489 310.414C141.221 311.242 141.587 312.49 141.587 314.158C141.587 315.802 141.221 317.05 140.489 317.902C139.769 318.754 138.809 319.18 137.609 319.18C136.865 319.18 136.247 319.042 135.755 318.766C135.275 318.478 134.897 318.148 134.621 317.776H134.513C134.537 317.98 134.561 318.238 134.585 318.55C134.609 318.862 134.621 319.132 134.621 319.36V323.32H133.037V309.352H134.333L134.549 310.666H134.621C134.909 310.246 135.287 309.892 135.755 309.604C136.223 309.316 136.847 309.172 137.627 309.172ZM137.339 310.504C136.355 310.504 135.659 310.78 135.251 311.332C134.855 311.884 134.645 312.724 134.621 313.852V314.158C134.621 315.346 134.813 316.264 135.197 316.912C135.593 317.548 136.319 317.866 137.375 317.866C137.963 317.866 138.443 317.704 138.815 317.38C139.199 317.056 139.481 316.618 139.661 316.066C139.853 315.502 139.949 314.86 139.949 314.14C139.949 313.036 139.733 312.154 139.301 311.494C138.881 310.834 138.227 310.504 137.339 310.504ZM147.765 309.19C148.941 309.19 149.811 309.448 150.375 309.964C150.939 310.48 151.221 311.302 151.221 312.43V319H150.069L149.763 317.632H149.691C149.271 318.16 148.827 318.55 148.359 318.802C147.903 319.054 147.267 319.18 146.451 319.18C145.575 319.18 144.849 318.952 144.273 318.496C143.697 318.028 143.409 317.302 143.409 316.318C143.409 315.358 143.787 314.62 144.543 314.104C145.299 313.576 146.463 313.288 148.035 313.24L149.673 313.186V312.61C149.673 311.806 149.499 311.248 149.151 310.936C148.803 310.624 148.311 310.468 147.675 310.468C147.171 310.468 146.691 310.546 146.235 310.702C145.779 310.846 145.353 311.014 144.957 311.206L144.471 310.018C144.891 309.79 145.389 309.598 145.965 309.442C146.541 309.274 147.141 309.19 147.765 309.19ZM149.655 314.284L148.233 314.338C147.033 314.386 146.199 314.578 145.731 314.914C145.275 315.25 145.047 315.724 145.047 316.336C145.047 316.876 145.209 317.272 145.533 317.524C145.869 317.776 146.295 317.902 146.811 317.902C147.627 317.902 148.305 317.68 148.845 317.236C149.385 316.78 149.655 316.084 149.655 315.148V314.284Z" fill="#464646"/>
<path d="M1 101C1 45.7715 45.7715 1 101 1H111C166.228 1 211 45.7715 211 101V261C211 316.228 166.228 361 111 361H101C45.7715 361 1 316.228 1 261V101Z" stroke="#DE8348" stroke-width="2"/>
<rect x="200" y="105" width="20" height="73" fill="#E6E6E6"/>
<circle cx="212" cy="104" r="14" fill="#DE8348"/>
<g clip-path="url(#clip0)">
<path d="M206.13 157H103.746C66.7395 157 36.6719 126.966 36.6719 90C36.6719 53.0345 66.7395 23 103.746 23C140.752 23 170.82 53.0345 170.82 90C170.82 90.9241 170.203 91.5402 169.278 91.5402C168.353 91.5402 167.736 90.9241 167.736 90C167.736 54.7287 139.056 26.0805 103.746 26.0805C68.4356 26.0805 39.7557 54.7287 39.7557 90C39.7557 125.271 68.4356 153.92 103.746 153.92H206.13C207.055 153.92 207.672 154.536 207.672 155.46C207.672 156.23 206.901 157 206.13 157Z" fill="#DE8348"/>
<path d="M135.41 121.029C152.815 103.589 152.815 75.313 135.41 57.8731C118.006 40.4331 89.7865 40.4331 72.3816 57.8731C54.9767 75.313 54.9767 103.589 72.3816 121.029C89.7865 138.469 118.006 138.469 135.41 121.029Z" fill="#DE8348"/>
<g clip-path="url(#clip1)">
<path d="M103.51 61.0046C92.1065 61.0029 81.8002 67.8003 77.3118 78.2834L76.9566 78.4012L77.0943 78.8143C71.1846 93.3897 78.2095 109.996 92.7849 115.906C96.1891 117.286 99.8282 117.995 103.502 117.993C119.238 117.995 131.998 105.24 132 89.5029C132.002 73.7661 119.247 61.0068 103.51 61.0046ZM125.86 103.865L124.397 102.403V98.9967C124.399 98.8497 124.366 98.7044 124.302 98.5721L120.598 91.1741V87.599C120.598 87.2816 120.44 86.985 120.175 86.8088L117.326 84.9092C117.103 84.7601 116.827 84.7125 116.566 84.7781L113.077 85.65L107.215 83.135L106.409 77.4855L108.644 75.2516H113.441L115.056 77.6784C115.202 77.8966 115.432 78.0449 115.69 78.0877L121.389 79.0375C121.542 79.0632 121.698 79.0507 121.845 79.0014L127.094 77.2519C131.496 85.6998 131.025 95.8604 125.86 103.865ZM121.943 70.3639L120.399 71.3935L116.093 70.532L113.3 69.6022C113.129 69.5441 112.945 69.5368 112.77 69.5813L109.238 70.4637L107.69 69.9479L108.838 67.6532H112.05C112.197 67.6533 112.343 67.6192 112.474 67.5535L115.761 65.9103C118.024 67.0916 120.106 68.5914 121.943 70.3639ZM93.0985 65.0251L95.378 66.5448C95.4901 66.6193 95.6166 66.6692 95.7494 66.691L100.352 67.4585L99.9029 68.8025L97.5046 69.6031C97.2898 69.6746 97.1076 69.8204 96.9908 70.0144L94.2629 74.5602L89.8815 77.1892L83.4228 78.1115C82.9547 78.1776 82.6066 78.5781 82.606 79.0508V81.9002C82.606 82.1522 82.7062 82.3936 82.8843 82.5717L84.5056 84.193V85.8248L80.5544 83.1901L79.1212 78.8903C81.8481 72.6596 86.846 67.7016 93.0985 65.0251ZM90.3944 96.1663L86.1013 95.3067L84.5056 92.1239V89.8919L88.0446 86.3529L89.3544 88.9734C89.5152 89.2954 89.8445 89.4988 90.2044 89.4986H96.3155L98.8885 93.787C99.0601 94.0728 99.3691 94.2475 99.7024 94.2477H102.343L101.678 97.5786L98.0821 101.175C97.9036 101.353 97.8032 101.594 97.8028 101.846V104.221L94.3836 106.785C94.1444 106.964 94.0036 107.246 94.0036 107.545V110.976L92.8221 110.584L91.1542 106.413V97.0971C91.1544 96.6457 90.8366 96.2565 90.3944 96.1663ZM87.5393 110.767C78.584 104.049 74.7967 92.4402 78.0669 81.7331L78.8562 84.1C78.9227 84.3003 79.054 84.4728 79.2295 84.5901L83.9642 87.7463L82.8843 88.8271C82.7062 89.0052 82.606 89.2467 82.606 89.4986V92.348C82.6059 92.4954 82.64 92.6407 82.7057 92.7726L84.6053 96.5718C84.7369 96.8342 84.9823 97.0211 85.2702 97.0781L89.2594 97.8749V106.595C89.2593 106.716 89.2822 106.835 89.3268 106.947L91.2264 111.696C91.3304 111.956 91.5434 112.156 91.8086 112.245L94.6581 113.194C94.7533 113.227 94.853 113.243 94.9534 113.244C95.478 113.244 95.9032 112.818 95.9032 112.294V108.02L99.3225 105.455C99.5616 105.276 99.7024 104.994 99.7024 104.695V102.239L103.223 98.7184C103.356 98.5858 103.446 98.4168 103.483 98.233L104.432 93.484C104.535 92.9696 104.202 92.4693 103.687 92.3664C103.626 92.3542 103.564 92.348 103.502 92.348H100.24L97.667 88.0597C97.4953 87.7739 97.1864 87.5992 96.853 87.599H90.7914L89.1596 84.3251C89.023 84.0518 88.7632 83.8609 88.4615 83.8122C88.16 83.7601 87.8521 83.8595 87.6381 84.0781L86.4052 85.3062V83.7998C86.4052 83.5479 86.305 83.3064 86.1269 83.1283L84.5056 81.507V79.8743L90.3393 79.0413C90.4646 79.0232 90.5851 78.9802 90.6936 78.915L95.4426 76.0656C95.5758 75.9856 95.6874 75.874 95.7674 75.7408L98.4364 71.2928L100.952 70.4532C101.236 70.36 101.459 70.1372 101.553 69.8529L102.502 67.0035C102.667 66.5055 102.397 65.9682 101.899 65.8037C101.853 65.7885 101.806 65.7769 101.758 65.7688L96.2604 64.8522L95.2944 64.2083C101.271 62.2628 107.745 62.5036 113.561 64.8874L111.826 65.7536H108.251C107.889 65.7516 107.558 65.9553 107.396 66.2788L105.496 70.078C105.262 70.5475 105.453 71.1178 105.922 71.3518C105.962 71.3718 106.004 71.3889 106.046 71.403L108.896 72.3528C109.067 72.4109 109.251 72.4182 109.426 72.3737L112.957 71.4913L115.544 72.3528C115.581 72.3661 115.619 72.3763 115.658 72.3832L120.407 73.333C120.654 73.3833 120.911 73.3328 121.12 73.1924L123.282 71.7506C124.346 72.9356 125.302 74.2131 126.139 75.5679L121.466 77.1256L116.407 76.2821L114.735 73.7747C114.56 73.5119 114.265 73.3535 113.949 73.352H108.251C107.999 73.352 107.757 73.4522 107.579 73.6303L104.73 76.4797C104.518 76.6912 104.419 76.99 104.461 77.2861L105.411 83.9347C105.459 84.2635 105.675 84.5433 105.981 84.6727L112.629 87.5221C112.82 87.6046 113.032 87.6216 113.233 87.5705L116.625 86.7224L118.698 88.1072V91.3982C118.697 91.5452 118.729 91.6905 118.793 91.8228L122.498 99.2208V102.796C122.498 103.048 122.598 103.289 122.776 103.467L124.763 105.455C115.951 117.201 99.2851 119.579 87.5393 110.767Z" fill="white"/>
</g>
</g>
<defs>
<clipPath id="clip0">
<rect width="171" height="134" fill="white" transform="translate(29 23)"/>
</clipPath>
<clipPath id="clip1">
<rect width="57" height="57" fill="white" transform="translate(75 61)"/>
</clipPath>
</defs>
</symbol>
</svg>


world-position

<svg display="none" xmlns="http://www.w3.org/2000/svg">
<symbol id="general"  viewBox="0 0 226 362">
<path d="M53.68 264V210.4C53.6267 210.453 53.0133 210.613 51.84 210.88C50.72 211.147 49.44 211.413 48 211.68C46.56 211.947 45.28 212.187 44.16 212.4C43.04 212.613 42.4533 212.72 42.4 212.72V206.24C43.3067 206.027 44.3467 205.733 45.52 205.36C46.7467 204.987 47.9733 204.533 49.2 204C50.48 203.467 51.68 202.8 52.8 202C53.9733 201.2 54.96 200.267 55.76 199.2H62.24V264H53.68ZM91.3188 264.72C87.9588 264.72 85.0788 264.107 82.6788 262.88C80.3321 261.6 78.5454 259.76 77.3188 257.36C76.0921 254.96 75.4521 252.053 75.3988 248.64C75.3988 248.533 75.3988 248.427 75.3988 248.32C75.3988 248.16 75.3988 248.027 75.3988 247.92H83.9588C83.9588 251.013 84.4654 253.413 85.4788 255.12C86.4921 256.773 88.4654 257.6 91.3988 257.6C92.9988 257.6 94.3321 257.12 95.3988 256.16C96.4654 255.147 97.2654 253.627 97.7988 251.6C98.3321 249.52 98.5988 246.907 98.5988 243.76V233.92C97.7988 235.253 96.5988 236.347 94.9988 237.2C93.4521 238 91.5054 238.4 89.1588 238.4C85.5854 238.4 82.7854 237.627 80.7588 236.08C78.7321 234.48 77.2921 232.293 76.4388 229.52C75.6388 226.693 75.2388 223.413 75.2388 219.68C75.2388 215.733 75.7721 212.187 76.8388 209.04C77.9054 205.84 79.6121 203.307 81.9588 201.44C84.3588 199.573 87.4788 198.64 91.3188 198.64C95.0521 198.64 98.0921 199.6 100.439 201.52C102.785 203.387 104.492 205.92 105.559 209.12C106.679 212.32 107.239 215.893 107.239 219.84V241.6C107.239 245.76 106.759 249.6 105.799 253.12C104.839 256.64 103.212 259.467 100.919 261.6C98.6254 263.68 95.4254 264.72 91.3188 264.72ZM91.3188 231.92C93.1854 231.92 94.7054 231.467 95.8788 230.56C97.0521 229.6 97.9588 228.56 98.5988 227.44V217.84C98.5988 215.6 98.3854 213.573 97.9588 211.76C97.5321 209.893 96.7854 208.427 95.7188 207.36C94.6521 206.24 93.1854 205.68 91.3188 205.68C89.4521 205.68 87.9588 206.24 86.8388 207.36C85.7721 208.48 84.9988 209.947 84.5188 211.76C84.0921 213.52 83.8788 215.467 83.8788 217.6C83.8788 220.16 83.9854 222.533 84.1988 224.72C84.4654 226.907 85.1054 228.667 86.1188 230C87.1854 231.28 88.9188 231.92 91.3188 231.92ZM117.753 264L129.433 205.92H112.073V199.2H137.993V203.36L125.993 264H117.753ZM148.612 264L160.292 205.92H142.932V199.2H168.852V203.36L156.852 264H148.612Z" fill="#DE8348"/>
<path d="M70.419 307.556C70.419 308.888 70.191 310.052 69.735 311.048C69.291 312.032 68.631 312.8 67.755 313.352C66.879 313.904 65.793 314.18 64.497 314.18C63.165 314.18 62.055 313.904 61.167 313.352C60.291 312.8 59.637 312.026 59.205 311.03C58.773 310.034 58.557 308.87 58.557 307.538C58.557 306.218 58.773 305.066 59.205 304.082C59.637 303.098 60.291 302.33 61.167 301.778C62.055 301.226 63.171 300.95 64.515 300.95C65.799 300.95 66.879 301.226 67.755 301.778C68.631 302.318 69.291 303.086 69.735 304.082C70.191 305.066 70.419 306.224 70.419 307.556ZM60.267 307.556C60.267 309.176 60.609 310.454 61.293 311.39C61.977 312.314 63.045 312.776 64.497 312.776C65.961 312.776 67.029 312.314 67.701 311.39C68.373 310.454 68.709 309.176 68.709 307.556C68.709 305.936 68.373 304.67 67.701 303.758C67.029 302.834 65.967 302.372 64.515 302.372C63.063 302.372 61.989 302.834 61.293 303.758C60.609 304.67 60.267 305.936 60.267 307.556ZM76.9215 314.18C76.0695 314.18 75.3075 314.006 74.6355 313.658C73.9755 313.31 73.4535 312.77 73.0695 312.038C72.6975 311.306 72.5115 310.37 72.5115 309.23C72.5115 308.042 72.7095 307.076 73.1055 306.332C73.5015 305.588 74.0355 305.042 74.7075 304.694C75.3915 304.346 76.1655 304.172 77.0295 304.172C77.5215 304.172 77.9955 304.226 78.4515 304.334C78.9075 304.43 79.2795 304.55 79.5675 304.694L79.0815 306.008C78.7935 305.9 78.4575 305.798 78.0735 305.702C77.6895 305.606 77.3295 305.558 76.9935 305.558C75.0975 305.558 74.1495 306.776 74.1495 309.212C74.1495 310.376 74.3775 311.27 74.8335 311.894C75.3015 312.506 75.9915 312.812 76.9035 312.812C77.4315 312.812 77.8935 312.758 78.2895 312.65C78.6975 312.542 79.0695 312.41 79.4055 312.254V313.658C79.0815 313.826 78.7215 313.952 78.3255 314.036C77.9415 314.132 77.4735 314.18 76.9215 314.18ZM83.2839 304.352V308.366H88.5219V304.352H90.1059V314H88.5219V309.698H83.2839V314H81.6999V304.352H83.2839ZM101.549 309.158C101.549 310.754 101.141 311.99 100.325 312.866C99.5209 313.742 98.4289 314.18 97.0489 314.18C96.1969 314.18 95.4349 313.988 94.7629 313.604C94.1029 313.208 93.5809 312.638 93.1969 311.894C92.8129 311.138 92.6209 310.226 92.6209 309.158C92.6209 307.562 93.0229 306.332 93.8269 305.468C94.6309 304.604 95.7229 304.172 97.1029 304.172C97.9789 304.172 98.7469 304.37 99.4069 304.766C100.079 305.15 100.601 305.714 100.973 306.458C101.357 307.19 101.549 308.09 101.549 309.158ZM94.2589 309.158C94.2589 310.298 94.4809 311.204 94.9249 311.876C95.3809 312.536 96.1009 312.866 97.0849 312.866C98.0569 312.866 98.7709 312.536 99.2269 311.876C99.6829 311.204 99.9109 310.298 99.9109 309.158C99.9109 308.018 99.6829 307.124 99.2269 306.476C98.7709 305.828 98.0509 305.504 97.0669 305.504C96.0829 305.504 95.3689 305.828 94.9249 306.476C94.4809 307.124 94.2589 308.018 94.2589 309.158ZM111.817 306.782C111.817 307.382 111.637 307.85 111.277 308.186C110.917 308.522 110.455 308.75 109.891 308.87V308.942C110.491 309.026 111.013 309.242 111.457 309.59C111.901 309.926 112.123 310.454 112.123 311.174C112.123 311.99 111.817 312.668 111.205 313.208C110.605 313.736 109.609 314 108.217 314H104.059V304.352H108.199C108.883 304.352 109.495 304.43 110.035 304.586C110.587 304.73 111.019 304.982 111.331 305.342C111.655 305.69 111.817 306.17 111.817 306.782ZM110.215 306.98C110.215 306.524 110.047 306.194 109.711 305.99C109.387 305.774 108.853 305.666 108.109 305.666H105.643V308.312H107.821C109.417 308.312 110.215 307.868 110.215 306.98ZM110.485 311.174C110.485 310.622 110.275 310.226 109.855 309.986C109.435 309.746 108.817 309.626 108.001 309.626H105.643V312.722H108.037C108.829 312.722 109.435 312.608 109.855 312.38C110.275 312.14 110.485 311.738 110.485 311.174ZM118.084 304.19C119.26 304.19 120.13 304.448 120.694 304.964C121.258 305.48 121.54 306.302 121.54 307.43V314H120.388L120.082 312.632H120.01C119.59 313.16 119.146 313.55 118.678 313.802C118.222 314.054 117.586 314.18 116.77 314.18C115.894 314.18 115.168 313.952 114.592 313.496C114.016 313.028 113.728 312.302 113.728 311.318C113.728 310.358 114.106 309.62 114.862 309.104C115.618 308.576 116.782 308.288 118.354 308.24L119.992 308.186V307.61C119.992 306.806 119.818 306.248 119.47 305.936C119.122 305.624 118.63 305.468 117.994 305.468C117.49 305.468 117.01 305.546 116.554 305.702C116.098 305.846 115.672 306.014 115.276 306.206L114.79 305.018C115.21 304.79 115.708 304.598 116.284 304.442C116.86 304.274 117.46 304.19 118.084 304.19ZM119.974 309.284L118.552 309.338C117.352 309.386 116.518 309.578 116.05 309.914C115.594 310.25 115.366 310.724 115.366 311.336C115.366 311.876 115.528 312.272 115.852 312.524C116.188 312.776 116.614 312.902 117.13 312.902C117.946 312.902 118.624 312.68 119.164 312.236C119.704 311.78 119.974 311.084 119.974 310.148V309.284ZM126.104 304.352V308.366H131.342V304.352H132.926V314H131.342V309.698H126.104V314H124.52V304.352H126.104ZM139.635 304.19C140.811 304.19 141.681 304.448 142.245 304.964C142.809 305.48 143.091 306.302 143.091 307.43V314H141.939L141.633 312.632H141.561C141.141 313.16 140.697 313.55 140.229 313.802C139.773 314.054 139.137 314.18 138.321 314.18C137.445 314.18 136.719 313.952 136.143 313.496C135.567 313.028 135.279 312.302 135.279 311.318C135.279 310.358 135.657 309.62 136.413 309.104C137.169 308.576 138.333 308.288 139.905 308.24L141.543 308.186V307.61C141.543 306.806 141.369 306.248 141.021 305.936C140.673 305.624 140.181 305.468 139.545 305.468C139.041 305.468 138.561 305.546 138.105 305.702C137.649 305.846 137.223 306.014 136.827 306.206L136.341 305.018C136.761 304.79 137.259 304.598 137.835 304.442C138.411 304.274 139.011 304.19 139.635 304.19ZM141.525 309.284L140.103 309.338C138.903 309.386 138.069 309.578 137.601 309.914C137.145 310.25 136.917 310.724 136.917 311.336C136.917 311.876 137.079 312.272 137.403 312.524C137.739 312.776 138.165 312.902 138.681 312.902C139.497 312.902 140.175 312.68 140.715 312.236C141.255 311.78 141.525 311.084 141.525 310.148V309.284Z" fill="#464646"/>
<path d="M1 101C1 45.7715 45.7715 1 101 1H111C166.228 1 211 45.7715 211 101V261C211 316.228 166.228 361 111 361H101C45.7715 361 1 316.228 1 261V101Z" stroke="#DE8348" stroke-width="2"/>
<rect x="200" y="105" width="20" height="73" fill="#E6E6E6"/>
<circle cx="212" cy="104" r="14" fill="#DE8348"/>
<g clip-path="url(#clip0)">
<path d="M206.13 157H103.746C66.7395 157 36.6719 126.966 36.6719 90C36.6719 53.0345 66.7395 23 103.746 23C140.752 23 170.82 53.0345 170.82 90C170.82 90.9241 170.203 91.5402 169.278 91.5402C168.353 91.5402 167.736 90.9241 167.736 90C167.736 54.7287 139.056 26.0805 103.746 26.0805C68.4356 26.0805 39.7557 54.7287 39.7557 90C39.7557 125.271 68.4356 153.92 103.746 153.92H206.13C207.055 153.92 207.672 154.536 207.672 155.46C207.672 156.23 206.901 157 206.13 157Z" fill="#DE8348"/>
<path d="M135.41 121.029C152.815 103.589 152.815 75.313 135.41 57.8731C118.006 40.4331 89.7865 40.4331 72.3816 57.8731C54.9767 75.313 54.9767 103.589 72.3816 121.029C89.7865 138.469 118.006 138.469 135.41 121.029Z" fill="#DE8348"/>
<path d="M121.243 70.6755C121.243 70.5369 121.107 70.3982 121.107 70.2596C120.428 69.0118 116.212 62.3569 107.644 60.4159C106.42 60.1386 105.06 60 103.564 60C102.068 60 100.708 60.1386 99.4845 60.4159C90.9169 62.3569 86.8371 68.8732 86.0211 70.2596C85.8852 70.3982 85.8852 70.5369 85.7492 70.6755C80.3094 79.41 84.3892 88.6991 85.7492 91.1947C86.0211 91.7493 86.4291 92.1652 87.1091 93.1357C88.333 94.7994 91.0529 98.1268 91.3249 100.345C91.4609 101.732 91.4609 102.702 91.3249 103.673C91.1889 104.504 91.4609 105.336 92.1409 106.029C92.6848 106.723 93.5008 107 94.3168 107H112.812C113.628 107 114.444 106.584 114.988 106.029C115.532 105.336 115.804 104.504 115.804 103.673V103.534C115.668 102.702 115.668 101.732 115.804 100.345C116.076 97.9882 118.66 94.6608 120.02 93.1357C120.7 92.1652 121.107 91.7493 121.379 91.1947C122.603 88.6991 126.683 79.5487 121.243 70.6755ZM118.932 89.9469C118.796 90.2242 118.524 90.6401 117.844 91.3333C116.348 93.2743 113.492 96.8791 113.084 99.9292C112.812 101.732 112.948 102.841 113.084 103.811V103.95C113.084 104.088 113.084 104.088 112.948 104.227C112.948 104.227 112.812 104.366 112.676 104.366H94.3168C94.1808 104.366 94.1808 104.366 94.0448 104.227C94.0448 104.227 93.9088 104.088 94.0448 103.811C94.1808 102.979 94.3168 101.732 94.0448 99.9292C93.6368 96.8791 90.7809 93.2743 89.285 91.3333C88.741 90.5015 88.333 90.2242 88.197 89.9469C86.9731 87.7286 83.4373 79.6873 88.0611 72.2006C88.197 72.0619 88.333 71.9233 88.333 71.646C89.013 70.5369 92.5488 64.8525 100.028 63.1888C101.116 62.9115 102.34 62.7729 103.564 62.7729C104.788 62.7729 106.012 62.9115 107.1 63.1888C114.58 64.8525 118.116 70.5369 118.796 71.646C118.932 71.7847 118.932 71.9233 119.068 72.2006C123.555 79.6873 120.02 87.7286 118.932 89.9469Z" fill="#FBFBFB"/>
<path d="M109.471 76.4322L101.041 84.6949L97.3884 81.1144C96.8264 80.5636 95.9835 80.5636 95.4215 81.1144C94.8595 81.6653 94.8595 82.4915 95.4215 83.0424L100.058 87.5869C100.339 87.8623 100.76 88 101.041 88C101.463 88 101.744 87.8623 102.025 87.5869L111.579 78.2225C112.14 77.6716 112.14 76.8453 111.579 76.2945C110.876 75.8814 110.033 75.8814 109.471 76.4322Z" fill="#FBFBFB"/>
<path d="M115.608 110H91.3918C90.5567 110 90 110.6 90 111.5C90 112.4 90.5567 113 91.3918 113H115.608C116.443 113 117 112.4 117 111.5C117 110.6 116.443 110 115.608 110Z" fill="#FBFBFB"/>
<path d="M110.547 117H96.453C95.5812 117 95 117.6 95 118.5C95 119.4 95.5812 120 96.453 120H110.547C111.419 120 112 119.4 112 118.5C112 117.6 111.419 117 110.547 117Z" fill="#FBFBFB"/>
</g>
<defs>
<clipPath id="clip0">
<rect width="171" height="134" fill="white" transform="translate(29 23)"/>
</clipPath>
</defs>
</symbol>
</svg>
