<svg width="130" height="254" viewBox="0 0 130 254" fill="none" xmlns="http://www.w3.org/2000/svg">
<g clip-path="url(#clip0)">
<path d="M84.5737 23.3852C80.1095 14.9834 74.6216 9.45996 68.8203 7.83496V34.2008C75.6875 34.1074 82.3934 33.6994 88.703 33.0075C87.5231 29.5676 86.1441 26.3414 84.5737 23.3852Z" fill="#FF7300"/>
<path d="M90.8599 40.443C83.8787 41.2598 76.4337 41.7382 68.8203 41.8392V61.1803H93.5726C93.3431 53.9104 92.4189 46.9062 90.8599 40.443Z" fill="#FF7300"/>
<path d="M39.1851 40.2682C37.6007 46.7796 36.6615 53.8451 36.4297 61.1809H61.1817V41.8142C53.5389 41.6626 46.1139 41.1353 39.1851 40.2682Z" fill="#FF7300"/>
<path d="M45.4247 23.3852C43.8789 26.2945 42.519 29.4657 41.3516 32.8445C47.6081 33.5816 54.2904 34.0343 61.1781 34.1744V7.83496C55.3768 9.45971 49.8889 14.9834 45.4247 23.3852Z" fill="#FF7300"/>
<path d="M36.4414 68.8191C36.7514 77.5423 38.0631 85.8742 40.2708 93.335C46.6845 92.4661 53.7124 91.9004 61.1792 91.661V68.8191H36.4414Z" fill="#FF7300"/>
<path d="M121.742 33.0011C117.771 34.5728 116.178 35.2202 115.665 35.4422C115.87 35.3769 116.077 35.3129 116.28 35.2469C116.406 35.2058 114.928 35.7603 115.664 35.4422C110.643 37.0369 104.818 38.3654 98.4531 39.3922C100.048 46.2352 100.988 53.5883 101.214 61.1804H130C129.424 51.1628 126.592 41.5717 121.742 33.0011Z" fill="#FF7300"/>
<path d="M28.8008 68.8191H0C0.683262 80.7062 4.54848 91.9906 11.1869 101.684C13.392 100.382 15.9476 99.2112 18.8487 98.1765C22.8422 96.7529 27.4953 95.543 32.68 94.5599C30.4317 86.6423 29.105 77.9056 28.8008 68.8191Z" fill="#FF7300"/>
<path d="M13.913 34.7925C13.1655 34.5361 11.0089 33.7767 8.43654 32.6932C3.47852 41.3423 0.582461 51.0425 0 61.1813H28.7864C29.0151 53.4996 29.9736 46.0614 31.6024 39.1498C24.9907 38.0174 18.995 36.5531 13.913 34.7925Z" fill="#FF7300"/>
<path d="M18.9554 18.9574C16.6761 21.237 14.5874 23.6564 12.6953 26.1955C13.8623 26.6627 15.0945 27.1225 16.3739 27.5615L16.411 27.5742C21.3228 29.2756 27.1751 30.6841 33.6644 31.7604C35.0604 27.4719 36.7369 23.4569 38.6796 19.8009C44.6375 8.58762 52.5195 1.54832 61.1787 0C45.2225 0.916856 30.3492 7.56387 18.9554 18.9574Z" fill="#FF7300"/>
<path d="M38.6792 109.755C37.365 107.282 36.1739 104.642 35.107 101.868C29.924 102.807 25.3138 103.98 21.4115 105.372C19.216 106.155 17.4059 106.969 15.9102 107.782C16.8849 108.897 17.8977 109.986 18.9547 111.043C30.3483 122.436 45.2216 129.083 61.1778 130C52.5191 128.451 44.6371 120.968 38.6792 109.755Z" fill="#FF7300"/>
<path d="M111.044 18.9577C99.6499 7.56387 84.7765 0.916856 68.8203 0C77.4793 1.54832 85.361 8.58762 91.3192 19.8011C93.2966 23.5224 94.9991 27.6148 96.4095 31.9897C102.92 30.975 108.836 29.6352 113.84 28.0084C114.389 27.7992 115.254 27.4107 117.517 26.4855C115.569 23.841 113.41 21.3236 111.044 18.9577Z" fill="#FF7300"/>
<path d="M95.3215 100.723C94.1482 103.919 92.8129 106.944 91.3192 109.755C85.361 120.969 77.4795 128.452 68.8203 130C84.7766 129.083 99.6499 122.436 111.044 111.043C112.957 109.13 114.736 107.119 116.377 105.021C110.385 103.172 103.214 101.719 95.3215 100.723Z" fill="#FF7300"/>
<path d="M42.8594 100.692C43.649 102.603 44.506 104.433 45.4289 106.171C49.8928 114.572 55.381 120.54 61.1823 122.165V99.3022C54.6576 99.5158 48.5075 99.9848 42.8594 100.692Z" fill="#FF7300"/>
<path d="M101.199 68.8191C100.91 77.4382 99.7026 85.743 97.6602 93.3325C106.457 94.5137 114.396 96.2484 120.891 98.4561C126.261 89.5214 129.391 79.4088 130 68.8193H101.199V68.8191Z" fill="#FF7300"/>
<path d="M68.8203 68.8191V91.5313C69.0321 91.5308 69.2423 91.529 69.4546 91.529C76.5038 91.529 83.4164 91.851 89.9829 92.4629C92.038 85.2276 93.2603 77.2033 93.5584 68.8191H68.8203Z" fill="#FF7300"/>
<path d="M69.4546 99.1685C69.2423 99.1685 69.0318 99.1702 68.8203 99.1707V122.166C74.6216 120.54 80.1095 114.573 84.5737 106.171C85.6228 104.197 86.5854 102.102 87.4618 99.904C81.6845 99.4211 75.6316 99.1685 69.4546 99.1685Z" fill="#FF7300"/>
</g>
<path d="M23.418 249L19.1816 237.732H19.1113C19.1992 238.67 19.2432 239.827 19.2432 241.204V249H17.749V236.15H20.1396L24.1035 246.68H24.1738L28.208 236.15H30.5811V249H28.9814V241.099C28.9814 240.22 29.0225 239.104 29.1045 237.75H29.0342L24.7451 249H23.418ZM37.9639 249.176C36.5166 249.176 35.3799 248.739 34.5537 247.866C33.7334 246.987 33.3232 245.78 33.3232 244.245C33.3232 242.698 33.707 241.468 34.4746 240.554C35.2422 239.634 36.2793 239.174 37.5859 239.174C38.7988 239.174 39.7656 239.566 40.4863 240.352C41.207 241.131 41.5674 242.188 41.5674 243.524V244.482H34.958C34.9873 245.578 35.2656 246.41 35.793 246.979C36.3203 247.547 37.0674 247.831 38.0342 247.831C38.5498 247.831 39.0391 247.787 39.502 247.699C39.9648 247.605 40.5068 247.427 41.1279 247.163V248.552C40.5947 248.78 40.0938 248.941 39.625 249.035C39.1562 249.129 38.6025 249.176 37.9639 249.176ZM37.5684 240.466C36.8125 240.466 36.2148 240.709 35.7754 241.195C35.3359 241.682 35.0752 242.358 34.9932 243.226H39.9062C39.8945 242.323 39.6865 241.638 39.2822 241.169C38.8779 240.7 38.3066 240.466 37.5684 240.466ZM47.8867 249.176C46.498 249.176 45.417 248.751 44.6436 247.901C43.8701 247.046 43.4834 245.821 43.4834 244.228C43.4834 242.61 43.873 241.365 44.6523 240.492C45.4375 239.613 46.5537 239.174 48.001 239.174C48.4697 239.174 48.9326 239.224 49.3896 239.323C49.8525 239.417 50.2334 239.54 50.5322 239.692L50.0488 241.011C49.2344 240.706 48.54 240.554 47.9658 240.554C46.9932 240.554 46.2754 240.861 45.8125 241.477C45.3496 242.086 45.1182 242.997 45.1182 244.21C45.1182 245.376 45.3496 246.27 45.8125 246.891C46.2754 247.506 46.9609 247.813 47.8691 247.813C48.7188 247.813 49.5537 247.626 50.374 247.251V248.657C49.7061 249.003 48.877 249.176 47.8867 249.176ZM59.3301 240.686H56.1748V249H54.6104V240.686H51.499V239.35H59.3301V240.686ZM71.0547 247.488C71.2305 246.85 71.4531 246.19 71.7227 245.511L74.2363 239.35H76.2754V249H74.8516V241.046C74.6465 241.685 74.4062 242.355 74.1309 243.059L71.7227 249H70.4395L68.0312 243.023C67.9141 242.742 67.7969 242.435 67.6797 242.101C67.5684 241.767 67.457 241.415 67.3457 241.046V249H65.9219V239.35H67.8994L70.334 245.273C70.5508 245.824 70.791 246.562 71.0547 247.488ZM80.8457 239.35V245.238L80.7754 246.943L80.7402 247.436L85.9082 239.35H87.8506V249H86.374V243.313L86.4004 242.092L86.4443 240.932L81.3115 249H79.3516V239.35H80.8457ZM95.5059 249.176C94.2109 249.176 93.2148 248.71 92.5176 247.778H92.4121L92.4473 248.139C92.4941 248.596 92.5176 249.003 92.5176 249.36V253.324H90.9355V239.35H92.2363L92.4473 240.668H92.5176C92.8926 240.141 93.3262 239.76 93.8184 239.525C94.3105 239.291 94.8789 239.174 95.5234 239.174C96.7773 239.174 97.75 239.61 98.4414 240.483C99.1387 241.351 99.4873 242.575 99.4873 244.157C99.4873 245.733 99.1387 246.964 98.4414 247.849C97.7441 248.733 96.7656 249.176 95.5059 249.176ZM95.2422 240.501C94.2871 240.501 93.5957 240.771 93.168 241.31C92.7461 241.849 92.5293 242.695 92.5176 243.85V244.157C92.5176 245.464 92.7344 246.41 93.168 246.996C93.6016 247.576 94.3047 247.866 95.2773 247.866C96.0859 247.866 96.7158 247.538 97.167 246.882C97.624 246.226 97.8525 245.312 97.8525 244.14C97.8525 242.962 97.624 242.062 97.167 241.441C96.7158 240.814 96.0742 240.501 95.2422 240.501ZM107.969 249L107.661 247.629H107.591C107.11 248.232 106.63 248.643 106.149 248.859C105.675 249.07 105.074 249.176 104.348 249.176C103.398 249.176 102.654 248.927 102.115 248.429C101.576 247.931 101.307 247.228 101.307 246.319C101.307 244.362 102.851 243.337 105.938 243.243L107.573 243.182V242.61C107.573 241.878 107.415 241.339 107.099 240.993C106.782 240.642 106.275 240.466 105.578 240.466C105.068 240.466 104.585 240.542 104.128 240.694C103.677 240.847 103.252 241.017 102.854 241.204L102.37 240.018C102.856 239.76 103.387 239.558 103.961 239.411C104.535 239.265 105.104 239.191 105.666 239.191C106.832 239.191 107.699 239.449 108.268 239.965C108.836 240.48 109.12 241.301 109.12 242.426V249H107.969ZM104.708 247.901C105.593 247.901 106.287 247.664 106.791 247.189C107.301 246.709 107.556 246.029 107.556 245.15V244.28L106.132 244.342C105.024 244.383 104.216 244.559 103.706 244.869C103.202 245.18 102.95 245.669 102.95 246.337C102.95 246.841 103.103 247.228 103.407 247.497C103.718 247.767 104.151 247.901 104.708 247.901Z" fill="black"/>
<path d="M64.7 214.54C62.18 214.54 60.02 214.08 58.22 213.16C56.46 212.2 55.12 210.82 54.2 209.02C53.28 207.22 52.8 205.04 52.76 202.48C52.76 202.4 52.76 202.32 52.76 202.24C52.76 202.12 52.76 202.02 52.76 201.94H59.18C59.18 204.26 59.56 206.06 60.32 207.34C61.08 208.58 62.56 209.2 64.76 209.2C65.96 209.2 66.96 208.84 67.76 208.12C68.56 207.36 69.16 206.22 69.56 204.7C69.96 203.14 70.16 201.18 70.16 198.82V191.44C69.56 192.44 68.66 193.26 67.46 193.9C66.3 194.5 64.84 194.8 63.08 194.8C60.4 194.8 58.3 194.22 56.78 193.06C55.26 191.86 54.18 190.22 53.54 188.14C52.94 186.02 52.64 183.56 52.64 180.76C52.64 177.8 53.04 175.14 53.84 172.78C54.64 170.38 55.92 168.48 57.68 167.08C59.48 165.68 61.82 164.98 64.7 164.98C67.5 164.98 69.78 165.7 71.54 167.14C73.3 168.54 74.58 170.44 75.38 172.84C76.22 175.24 76.64 177.92 76.64 180.88V197.2C76.64 200.32 76.28 203.2 75.56 205.84C74.84 208.48 73.62 210.6 71.9 212.2C70.18 213.76 67.78 214.54 64.7 214.54ZM64.7 189.94C66.1 189.94 67.24 189.6 68.12 188.92C69 188.2 69.68 187.42 70.16 186.58V179.38C70.16 177.7 70 176.18 69.68 174.82C69.36 173.42 68.8 172.32 68 171.52C67.2 170.68 66.1 170.26 64.7 170.26C63.3 170.26 62.18 170.68 61.34 171.52C60.54 172.36 59.96 173.46 59.6 174.82C59.28 176.14 59.12 177.6 59.12 179.2C59.12 181.12 59.2 182.9 59.36 184.54C59.56 186.18 60.04 187.5 60.8 188.5C61.6 189.46 62.9 189.94 64.7 189.94Z" fill="#FF7300"/>
<defs>
<clipPath id="clip0">
<rect width="130" height="130" fill="white"/>
</clipPath>
</defs>
</svg>
