<svg width="159" height="237" viewBox="0 0 159 237" fill="none" xmlns="http://www.w3.org/2000/svg">
<path d="M20 220.15V221.592H14.3662V233H12.749V220.15H20ZM29.7383 228.157C29.7383 229.733 29.3398 230.964 28.543 231.849C27.7461 232.733 26.6445 233.176 25.2383 233.176C24.3652 233.176 23.5918 232.974 22.918 232.569C22.2441 232.159 21.7256 231.573 21.3623 230.812C20.999 230.05 20.8174 229.165 20.8174 228.157C20.8174 226.587 21.21 225.365 21.9951 224.492C22.7803 223.613 23.8818 223.174 25.2998 223.174C26.6592 223.174 27.7373 223.622 28.5342 224.519C29.3369 225.409 29.7383 226.622 29.7383 228.157ZM22.4521 228.157C22.4521 229.37 22.6895 230.293 23.1641 230.926C23.6445 231.553 24.3506 231.866 25.2822 231.866C26.2021 231.866 26.9023 231.553 27.3828 230.926C27.8633 230.293 28.1035 229.37 28.1035 228.157C28.1035 226.944 27.8604 226.033 27.374 225.424C26.8936 224.809 26.1875 224.501 25.2559 224.501C23.3867 224.501 22.4521 225.72 22.4521 228.157ZM40.8213 236.349H39.292V233H32.5771V236.349H31.0654V231.664H31.8389C32.6182 230.58 33.2246 229.326 33.6582 227.902C34.0918 226.473 34.3203 224.955 34.3438 223.35H39.415V231.664H40.8213V236.349ZM37.8857 231.664V224.598H35.7412C35.6533 225.893 35.4014 227.193 34.9854 228.5C34.5752 229.801 34.0713 230.855 33.4736 231.664H37.8857ZM55.7715 228.157C55.7715 229.733 55.373 230.964 54.5762 231.849C53.7793 232.733 52.6777 233.176 51.2715 233.176C50.3984 233.176 49.625 232.974 48.9512 232.569C48.2773 232.159 47.7588 231.573 47.3955 230.812C47.0322 230.05 46.8506 229.165 46.8506 228.157C46.8506 226.587 47.2432 225.365 48.0283 224.492C48.8135 223.613 49.915 223.174 51.333 223.174C52.6924 223.174 53.7705 223.622 54.5674 224.519C55.3701 225.409 55.7715 226.622 55.7715 228.157ZM48.4854 228.157C48.4854 229.37 48.7227 230.293 49.1973 230.926C49.6777 231.553 50.3838 231.866 51.3154 231.866C52.2354 231.866 52.9355 231.553 53.416 230.926C53.8965 230.293 54.1367 229.37 54.1367 228.157C54.1367 226.944 53.8936 226.033 53.4072 225.424C52.9268 224.809 52.2207 224.501 51.2891 224.501C49.4199 224.501 48.4854 225.72 48.4854 228.157ZM62.1523 233.176C60.7637 233.176 59.6826 232.751 58.9092 231.901C58.1357 231.046 57.749 229.821 57.749 228.228C57.749 226.61 58.1387 225.365 58.918 224.492C59.7031 223.613 60.8193 223.174 62.2666 223.174C62.7354 223.174 63.1982 223.224 63.6553 223.323C64.1182 223.417 64.499 223.54 64.7979 223.692L64.3145 225.011C63.5 224.706 62.8057 224.554 62.2314 224.554C61.2588 224.554 60.541 224.861 60.0781 225.477C59.6152 226.086 59.3838 226.997 59.3838 228.21C59.3838 229.376 59.6152 230.27 60.0781 230.891C60.541 231.506 61.2266 231.813 62.1348 231.813C62.9844 231.813 63.8193 231.626 64.6396 231.251V232.657C63.9717 233.003 63.1426 233.176 62.1523 233.176ZM68.5156 223.35V227.366H73.7539V223.35H75.3359V233H73.7539V228.702H68.5156V233H66.9336V223.35H68.5156ZM86.7969 228.157C86.7969 229.733 86.3984 230.964 85.6016 231.849C84.8047 232.733 83.7031 233.176 82.2969 233.176C81.4238 233.176 80.6504 232.974 79.9766 232.569C79.3027 232.159 78.7842 231.573 78.4209 230.812C78.0576 230.05 77.876 229.165 77.876 228.157C77.876 226.587 78.2686 225.365 79.0537 224.492C79.8389 223.613 80.9404 223.174 82.3584 223.174C83.7178 223.174 84.7959 223.622 85.5928 224.519C86.3955 225.409 86.7969 226.622 86.7969 228.157ZM79.5107 228.157C79.5107 229.37 79.748 230.293 80.2227 230.926C80.7031 231.553 81.4092 231.866 82.3408 231.866C83.2607 231.866 83.9609 231.553 84.4414 230.926C84.9219 230.293 85.1621 229.37 85.1621 228.157C85.1621 226.944 84.9189 226.033 84.4326 225.424C83.9521 224.809 83.2461 224.501 82.3145 224.501C80.4453 224.501 79.5107 225.72 79.5107 228.157ZM97.2471 225.784C97.2471 226.405 97.0713 226.88 96.7197 227.208C96.3682 227.53 95.8672 227.75 95.2168 227.867V227.946C96.0312 228.058 96.623 228.301 96.9922 228.676C97.3672 229.045 97.5547 229.543 97.5547 230.17C97.5547 231.084 97.2178 231.784 96.5439 232.271C95.876 232.757 94.9121 233 93.6523 233H89.3105V223.35H93.6348C96.043 223.35 97.2471 224.161 97.2471 225.784ZM95.9727 230.082C95.9727 229.543 95.7617 229.165 95.3398 228.948C94.918 228.731 94.2998 228.623 93.4854 228.623H90.8926V231.726H93.5205C95.1553 231.726 95.9727 231.178 95.9727 230.082ZM95.7002 225.925C95.7002 225.474 95.5244 225.151 95.1729 224.958C94.8271 224.765 94.3027 224.668 93.5996 224.668H90.8926V227.313H93.3096C94.1709 227.313 94.7832 227.208 95.1465 226.997C95.5156 226.78 95.7002 226.423 95.7002 225.925ZM105.641 233L105.333 231.629H105.263C104.782 232.232 104.302 232.643 103.821 232.859C103.347 233.07 102.746 233.176 102.02 233.176C101.07 233.176 100.326 232.927 99.7871 232.429C99.248 231.931 98.9785 231.228 98.9785 230.319C98.9785 228.362 100.522 227.337 103.61 227.243L105.245 227.182V226.61C105.245 225.878 105.087 225.339 104.771 224.993C104.454 224.642 103.947 224.466 103.25 224.466C102.74 224.466 102.257 224.542 101.8 224.694C101.349 224.847 100.924 225.017 100.525 225.204L100.042 224.018C100.528 223.76 101.059 223.558 101.633 223.411C102.207 223.265 102.775 223.191 103.338 223.191C104.504 223.191 105.371 223.449 105.939 223.965C106.508 224.48 106.792 225.301 106.792 226.426V233H105.641ZM102.38 231.901C103.265 231.901 103.959 231.664 104.463 231.189C104.973 230.709 105.228 230.029 105.228 229.15V228.28L103.804 228.342C102.696 228.383 101.888 228.559 101.378 228.869C100.874 229.18 100.622 229.669 100.622 230.337C100.622 230.841 100.774 231.228 101.079 231.497C101.39 231.767 101.823 231.901 102.38 231.901ZM111.371 223.35V227.366H116.609V223.35H118.191V233H116.609V228.702H111.371V233H109.789V223.35H111.371ZM122.762 223.35V229.238L122.691 230.943L122.656 231.436L127.824 223.35H129.767V233H128.29V227.313L128.316 226.092L128.36 224.932L123.228 233H121.268V223.35H122.762ZM133.449 233H131.612L134.363 228.948C133.625 228.761 133.065 228.43 132.685 227.955C132.304 227.48 132.113 226.895 132.113 226.197C132.113 225.307 132.415 224.609 133.019 224.105C133.622 223.602 134.46 223.35 135.532 223.35H139.856V233H138.274V229.168H135.928L133.449 233ZM133.643 226.215C133.643 227.305 134.428 227.85 135.998 227.85H138.274V224.668H135.699C135.025 224.668 134.513 224.8 134.161 225.063C133.815 225.327 133.643 225.711 133.643 226.215Z" fill="black"/>
<path d="M157.586 7.22373C156.703 6.60264 155.57 6.45047 154.555 6.82592L127.551 16.6469C124.203 17.8633 121.537 20.3154 120.046 23.5501C119.766 24.1566 119.583 24.7867 119.399 25.4158C114.762 24.0976 106.144 21.3443 97.5797 16.9317C84.6384 10.2634 74.7515 13.557 66.2717 20.0251C61.975 20.1095 56.0529 20.6176 50.2314 21.1306C46.5179 21.4582 43.0084 21.7598 40.1626 21.9334C40.0927 20.2241 39.6927 18.5279 38.9549 16.9255C37.4636 13.6905 34.7982 11.2385 31.4499 10.0224L4.44484 0.200732C3.43246 -0.171302 2.29369 -0.0191323 1.41392 0.598544C0.527307 1.21995 0 2.23232 0 3.31271V69.5624C0 71.3934 1.48161 72.875 3.31259 72.875H12.988C17.103 72.875 20.9314 70.9341 23.4062 67.8001C24.7244 68.8025 26.2858 69.9764 27.9234 71.2058C31.789 74.1141 36.0202 77.2872 37.877 78.8434C50.2115 89.169 65.0401 100.319 67.9934 102.26C70.7526 104.072 75.7213 106 79.4997 106C80.9779 106 84.7014 106 87.3153 103.79C90.0099 104.848 92.9147 104.797 95.6158 103.606C98.3104 102.419 100.491 100.18 101.759 97.4597C104.347 97.9901 107.319 97.6019 110.014 96.2498C112.54 94.9849 114.4 93.0698 115.397 90.8314C117.79 91.0513 120.346 90.2718 122.633 88.5215C125.901 86.0238 127.397 82.3352 126.974 78.6962L135.376 74.0476C137.837 77.3832 141.748 79.4996 146.011 79.4996H155.687C157.518 79.4996 158.999 78.018 158.999 76.187V9.9379C158.999 8.8572 158.472 7.84482 157.586 7.22373ZM19.1924 61.9509C18.2284 64.5226 15.7344 66.2501 12.988 66.2501H6.62488V8.04202L29.1848 16.2457C30.8605 16.8572 32.1934 18.0832 32.9371 19.7005C33.6843 21.3179 33.7492 23.1296 33.1247 24.7953L19.1924 61.9509ZM118.612 83.259C117.49 84.1196 115.918 84.5984 115.219 83.8997C115.183 83.864 115.128 83.8674 115.091 83.8332C115.028 83.7745 114.997 83.6954 114.928 83.6407C112.56 81.7709 101.95 70.9148 95.3929 64.0763C94.128 62.7534 92.0287 62.7046 90.712 63.976C89.3891 65.2408 89.3438 67.337 90.6117 68.6569C92.1508 70.2633 104.506 83.1308 109.45 87.6309C109.081 89.0855 107.733 89.9836 107.048 90.3271C104.926 91.3913 102.713 91.2134 101.885 90.4435C101.861 90.4205 101.824 90.4218 101.798 90.3994C101.758 90.3634 101.74 90.3128 101.697 90.2786C97.7248 87.1051 87.7584 76.5143 85.5035 74.0622C84.2645 72.7132 82.1717 72.629 80.8227 73.865C79.4771 75.1041 79.3864 77.2003 80.6255 78.5459C80.7342 78.6636 90.5015 89.1995 95.9873 94.0934C95.4481 95.6424 94.3497 96.9252 92.9405 97.5472C91.9005 98.0093 90.2738 98.2463 88.4152 96.8727C83.6583 92.8394 74.1118 82.6774 72.2342 80.6678C70.9889 79.3285 68.8862 79.2608 67.5534 80.5095C66.2174 81.7582 66.1463 83.8544 67.395 85.1903C69.621 87.5728 76.2005 94.5464 81.2022 99.2683C80.6435 99.3363 80.0569 99.3751 79.4997 99.3751C77.3064 99.3751 73.5379 97.9746 71.6327 96.7224C69.3101 95.1955 54.7272 84.3137 42.1339 73.7678C40.2287 72.1698 35.8811 68.8994 31.9021 65.9104C29.7695 64.3095 27.8047 62.8335 26.3567 61.7196L38.7592 28.6415C41.9787 28.5008 46.2707 28.1297 50.8131 27.7291C53.3822 27.5027 55.9542 27.2819 58.4118 27.0906C54.6343 30.9684 49.0181 37.9137 49.7585 44.424C50.0982 47.3873 51.7189 49.8555 54.4524 51.5635C59.8642 54.9503 69.8828 52.11 74.709 46.1743C77.824 45.7246 79.9302 44.929 82.2267 43.7902C86.1085 47.4391 91.3132 51.7287 96.7804 56.2347C106.297 64.076 117.085 72.9654 119.939 77.9502C121.527 80.7228 119.324 82.7156 118.612 83.259ZM124.295 72.6061C119.882 66.702 110.314 58.8026 100.992 51.1206C94.778 45.9997 88.9099 41.1636 85.1542 37.4082C84.1191 36.3793 82.5307 36.1464 81.2497 36.829C77.8756 38.6373 76.3555 39.3845 72.5448 39.7661C71.529 39.8696 70.6169 40.4326 70.0734 41.2962C67.4757 45.4175 60.2555 47.3776 57.9653 45.9479C56.6647 45.1327 56.4125 44.3045 56.3414 43.6737C56.0212 40.8562 58.8742 35.9781 63.6069 31.2423C75.3269 19.5223 83.7052 17.2289 94.5451 22.8187C104.844 28.1287 115.008 31.1311 119.275 32.2652C119.399 32.7615 119.488 33.2627 119.67 33.7493L132.532 68.0494L124.295 72.6061ZM152.375 72.875H146.012C143.265 72.875 140.771 71.1474 139.807 68.5758L125.875 31.4236C125.25 29.7545 125.315 27.943 126.062 26.3254C126.806 24.7081 128.139 23.4821 129.814 22.8706L152.374 14.6669V72.875H152.375Z" fill="#FF7300"/>
<path d="M39.26 197V156.8C39.22 156.84 38.76 156.96 37.88 157.16C37.04 157.36 36.08 157.56 35 157.76C33.92 157.96 32.96 158.14 32.12 158.3C31.28 158.46 30.84 158.54 30.8 158.54V153.68C31.48 153.52 32.26 153.3 33.14 153.02C34.06 152.74 34.98 152.4 35.9 152C36.86 151.6 37.76 151.1 38.6 150.5C39.48 149.9 40.22 149.2 40.82 148.4H45.68V197H39.26ZM67.4891 197.54C64.9691 197.54 62.8091 197.08 61.0091 196.16C59.2491 195.2 57.9091 193.82 56.9891 192.02C56.0691 190.22 55.5891 188.04 55.5491 185.48C55.5491 185.4 55.5491 185.32 55.5491 185.24C55.5491 185.12 55.5491 185.02 55.5491 184.94H61.9691C61.9691 187.26 62.3491 189.06 63.1091 190.34C63.8691 191.58 65.3491 192.2 67.5491 192.2C68.7491 192.2 69.7491 191.84 70.5491 191.12C71.3491 190.36 71.9491 189.22 72.3491 187.7C72.7491 186.14 72.9491 184.18 72.9491 181.82V174.44C72.3491 175.44 71.4491 176.26 70.2491 176.9C69.0891 177.5 67.6291 177.8 65.8691 177.8C63.1891 177.8 61.0891 177.22 59.5691 176.06C58.0491 174.86 56.9691 173.22 56.3291 171.14C55.7291 169.02 55.4291 166.56 55.4291 163.76C55.4291 160.8 55.8291 158.14 56.6291 155.78C57.4291 153.38 58.7091 151.48 60.4691 150.08C62.2691 148.68 64.6091 147.98 67.4891 147.98C70.2891 147.98 72.5691 148.7 74.3291 150.14C76.0891 151.54 77.3691 153.44 78.1691 155.84C79.0091 158.24 79.4291 160.92 79.4291 163.88V180.2C79.4291 183.32 79.0691 186.2 78.3491 188.84C77.6291 191.48 76.4091 193.6 74.6891 195.2C72.9691 196.76 70.5691 197.54 67.4891 197.54ZM67.4891 172.94C68.8891 172.94 70.0291 172.6 70.9091 171.92C71.7891 171.2 72.4691 170.42 72.9491 169.58V162.38C72.9491 160.7 72.7891 159.18 72.4691 157.82C72.1491 156.42 71.5891 155.32 70.7891 154.52C69.9891 153.68 68.8891 153.26 67.4891 153.26C66.0891 153.26 64.9691 153.68 64.1291 154.52C63.3291 155.36 62.7491 156.46 62.3891 157.82C62.0691 159.14 61.9091 160.6 61.9091 162.2C61.9091 164.12 61.9891 165.9 62.1491 167.54C62.3491 169.18 62.8291 170.5 63.5891 171.5C64.3891 172.46 65.6891 172.94 67.4891 172.94ZM87.3144 197L96.0744 153.44H83.0544V148.4H102.494V151.52L93.4944 197H87.3144ZM110.459 197L119.219 153.44H106.199V148.4H125.639V151.52L116.639 197H110.459Z" fill="#FF7300"/>
</svg>
