<svg width="22" height="22" viewBox="0 0 22 22" fill="none" xmlns="http://www.w3.org/2000/svg">
<path d="M9.07992 0.440002C4.57805 0.440002 0.919922 4.09813 0.919922 8.6C0.919922 13.1019 4.57805 16.76 9.07992 16.76C10.8612 16.76 12.5074 16.1862 13.8499 15.215L20.1649 21.515L21.5149 20.165L15.2749 13.91C16.5012 12.4812 17.2399 10.6269 17.2399 8.6C17.2399 4.09813 13.5818 0.440002 9.07992 0.440002ZM9.07992 1.4C13.0624 1.4 16.2799 4.6175 16.2799 8.6C16.2799 12.5825 13.0624 15.8 9.07992 15.8C5.09742 15.8 1.87992 12.5825 1.87992 8.6C1.87992 4.6175 5.09742 1.4 9.07992 1.4Z" fill="white"/>
</svg>
