<svg width="30" height="30" viewBox="0 0 30 30" fill="none" xmlns="http://www.w3.org/2000/svg">
<path d="M21.0001 20.4H7.8001C7.6201 20.4 7.4401 20.28 7.3201 20.16C7.2001 20.04 7.2001 19.8 7.2601 19.62L8.4001 16.74L7.2601 6H3.6001V4.8H7.8001C8.1001 4.8 8.3401 5.04 8.4001 5.34L9.6001 16.74C9.6001 16.86 9.6001 16.92 9.5401 17.04L8.7001 19.2H21.6001L21.0001 20.4Z" fill="white"/>
<path d="M9.1199 17.4L8.8799 16.2L22.7999 13.32V8.4H8.3999V7.2H23.3999C23.7599 7.2 23.9999 7.44 23.9999 7.8V13.8C23.9999 14.1 23.8199 14.34 23.5199 14.4L9.1199 17.4Z" fill="white"/>
<path d="M21.6002 24C20.2802 24 19.2002 22.92 19.2002 21.6C19.2002 20.28 20.2802 19.2 21.6002 19.2C22.9202 19.2 24.0002 20.28 24.0002 21.6C24.0002 22.92 22.9202 24 21.6002 24ZM21.6002 20.4C20.9402 20.4 20.4002 20.94 20.4002 21.6C20.4002 22.26 20.9402 22.8 21.6002 22.8C22.2602 22.8 22.8002 22.26 22.8002 21.6C22.8002 20.94 22.2602 20.4 21.6002 20.4Z" fill="white"/>
<path d="M7.1998 24C5.8798 24 4.7998 22.92 4.7998 21.6C4.7998 20.28 5.8798 19.2 7.1998 19.2C8.5198 19.2 9.5998 20.28 9.5998 21.6C9.5998 22.92 8.5198 24 7.1998 24ZM7.1998 20.4C6.5398 20.4 5.9998 20.94 5.9998 21.6C5.9998 22.26 6.5398 22.8 7.1998 22.8C7.8598 22.8 8.3998 22.26 8.3998 21.6C8.3998 20.94 7.8598 20.4 7.1998 20.4Z" fill="white"/>
</svg>
