<svg width="22" height="22" viewBox="0 0 22 22" fill="none" xmlns="http://www.w3.org/2000/svg">
<path d="M20.4752 16.4296L16.4271 13.73C15.9134 13.3902 15.2248 13.502 14.845 13.987L13.6658 15.5031C13.5143 15.7029 13.2388 15.7609 13.0196 15.6391L12.7953 15.5154C12.0517 15.1101 11.1266 14.6056 9.26251 12.7408C7.39845 10.8761 6.89286 9.95023 6.48757 9.20804L6.36458 8.98374C6.24112 8.76455 6.29799 8.48791 6.49788 8.33516L8.01297 7.15635C8.49774 6.77653 8.60972 6.08811 8.27028 5.57424L5.57068 1.52617C5.2228 1.00289 4.52486 0.845804 3.9863 1.16955L2.29355 2.18639C1.76167 2.49907 1.37146 3.00548 1.20472 3.5995C0.595165 5.8205 1.05373 9.6536 6.70024 15.3008C11.1919 19.7921 14.5358 20.9999 16.8341 20.9999C17.363 21.0022 17.8899 20.9334 18.4005 20.7953C18.9947 20.6288 19.5011 20.2385 19.8136 19.7065L20.8315 18.0147C21.1557 17.4761 20.9987 16.7777 20.4752 16.4296ZM20.2572 17.6728L19.2417 19.3655C19.0173 19.7495 18.653 20.0319 18.2252 20.1534C16.1748 20.7163 12.5927 20.2501 7.17181 14.8292C1.75093 9.40832 1.28471 5.82651 1.84764 3.77584C1.96934 3.34746 2.25203 2.98271 2.6365 2.75798L4.32926 1.74247C4.56294 1.60186 4.86586 1.67002 5.01681 1.89709L6.48328 4.09876L7.71411 5.94481C7.86151 6.16771 7.81308 6.46645 7.6028 6.63139L6.08736 7.8102C5.62618 8.16284 5.49448 8.80091 5.77842 9.30732L5.89875 9.52596C6.32471 10.3072 6.85427 11.279 8.78766 13.2121C10.721 15.1451 11.6926 15.6747 12.4734 16.1006L12.6924 16.2213C13.1988 16.5052 13.8369 16.3735 14.1895 15.9124L15.3683 14.3969C15.5333 14.1868 15.8319 14.1384 16.0549 14.2856L20.1026 16.9852C20.3299 17.136 20.398 17.4391 20.2572 17.6728Z" stroke="white" stroke-width="0.7"/>
</svg>
