<svg width="171" height="44" viewBox="0 0 171 44" fill="none" xmlns="http://www.w3.org/2000/svg">
<g clip-path="url(#clip0)">
<path fill-rule="evenodd" clip-rule="evenodd" d="M5.72103 40.0643H1.16602V32.1104H5.72103V33.2129H2.48457V35.3786H5.52125V36.4811H2.48457V38.9618H5.72103V40.0643Z" fill="white"/>
<path fill-rule="evenodd" clip-rule="evenodd" d="M34.4886 32.1104V37.2686C34.4886 37.8592 34.3688 38.3711 34.0891 38.8043C33.8493 39.2374 33.4498 39.5918 32.9703 39.828C32.4908 40.0643 31.8915 40.1824 31.2122 40.1824C30.2133 40.1824 29.4142 39.9068 28.8947 39.3949C28.3354 38.883 28.0557 38.1349 28.0557 37.2292V32.1104H29.3742V37.1505C29.3742 37.8199 29.534 38.2924 29.8537 38.6074C30.1733 38.9224 30.6528 39.0799 31.2921 39.0799C32.5308 39.0799 33.1701 38.4499 33.1701 37.1505V32.1104H34.4886Z" fill="white"/>
<path fill-rule="evenodd" clip-rule="evenodd" d="M58.5422 35.8117H59.4612C60.0605 35.8117 60.54 35.6936 60.7797 35.4573C61.0594 35.2211 61.1793 34.906 61.1793 34.4729C61.1793 34.0398 61.0195 33.6854 60.7398 33.4885C60.4601 33.2916 59.9806 33.2129 59.3813 33.2129H58.5422V35.8117ZM58.5422 36.8748V40.0643H57.2236V32.1104H59.5011C60.54 32.1104 61.2992 32.3072 61.8186 32.701C62.338 33.0948 62.5778 33.6854 62.5778 34.4335C62.5778 35.4179 62.0583 36.1267 61.0195 36.5598L63.297 40.1037H61.7787L59.8608 36.9142H58.5422V36.8748Z" fill="white"/>
<path fill-rule="evenodd" clip-rule="evenodd" d="M90.1476 40.0644L89.3485 37.8593H86.2718L85.4727 40.0644H84.0742L87.1109 32.071H88.5493L91.586 40.0644H90.1476ZM88.9889 36.7174L88.2297 34.5517C88.1897 34.3942 88.1098 34.1973 87.9899 33.8823C87.91 33.5673 87.8301 33.3311 87.7902 33.2129C87.6703 33.6461 87.5504 34.158 87.3506 34.6699L86.6314 36.7568H88.9889V36.7174Z" fill="white"/>
<path fill-rule="evenodd" clip-rule="evenodd" d="M117.957 37.8987C117.957 38.6075 117.717 39.1587 117.158 39.5525C116.638 39.9463 115.919 40.1431 115 40.1431C114.081 40.1431 113.322 39.9856 112.763 39.71V38.4894C113.122 38.6469 113.522 38.8044 113.921 38.8831C114.321 39.0012 114.721 39.0406 115.08 39.0406C115.6 39.0406 115.999 38.9225 116.239 38.765C116.479 38.5681 116.598 38.2925 116.598 37.9775C116.598 37.6625 116.479 37.4262 116.239 37.2293C115.999 37.0324 115.52 36.7962 114.84 36.4812C114.121 36.2055 113.602 35.8512 113.282 35.4574C112.962 35.0636 112.843 34.6305 112.843 34.0792C112.843 33.4099 113.082 32.898 113.562 32.5042C114.041 32.1105 114.681 31.9136 115.48 31.9136C116.239 31.9136 117.038 32.0711 117.797 32.4255L117.358 33.4886C116.638 33.1736 115.999 33.0555 115.44 33.0555C115 33.0555 114.681 33.1342 114.481 33.3311C114.241 33.528 114.161 33.7642 114.161 34.0792C114.161 34.2761 114.201 34.473 114.281 34.6305C114.361 34.788 114.521 34.9061 114.721 35.0636C114.92 35.1818 115.28 35.3787 115.799 35.5755C116.399 35.8118 116.838 36.048 117.118 36.2449C117.398 36.4418 117.597 36.6781 117.717 36.9537C117.917 37.2293 117.957 37.5443 117.957 37.8987Z" fill="white"/>
<path d="M141.531 32.1104H140.213V40.0643H141.531V32.1104Z" fill="white"/>
<path fill-rule="evenodd" clip-rule="evenodd" d="M169.341 40.0644L168.542 37.8593H165.465L164.666 40.0644H163.268L166.304 32.071H167.743L170.779 40.0644H169.341ZM168.182 36.7174L167.423 34.5517C167.383 34.3942 167.303 34.1973 167.183 33.8823C167.103 33.5673 167.023 33.3311 166.984 33.2129C166.864 33.6461 166.744 34.158 166.544 34.6699L165.825 36.7568H168.182V36.7174Z" fill="white"/>
<path fill-rule="evenodd" clip-rule="evenodd" d="M5.59986 20.4178V14.3933C5.63981 14.2358 6.11929 14.2751 6.51885 14.3145H28.1752C29.6535 14.3145 30.4527 14.3145 31.3717 15.2201C33.1297 16.9527 32.2907 19.5909 30.173 20.2996C29.3738 20.5753 27.2162 20.4571 26.1773 20.4571H9.6754C8.95618 20.4571 6.07933 20.5753 5.59986 20.4178ZM5.59986 9.70752C5.5599 9.27439 5.5599 3.84051 5.59986 3.56488C10.5544 3.48612 15.549 3.56488 20.5036 3.56488C22.9808 3.56488 25.4581 3.56488 27.9754 3.56488C29.3339 3.56488 30.133 3.48612 31.052 4.19489C32.7302 5.4943 32.6902 7.89623 31.052 9.07751C30.133 9.78627 29.3339 9.70752 27.9754 9.70752H9.35575C8.1171 9.7469 6.8385 9.78627 5.59986 9.70752ZM35.4072 11.0857C37.2053 8.64437 37.4051 5.13991 35.7669 2.65923C34.8878 1.32045 33.8889 0.375426 32.3706 -0.293965C30.4926 -1.12086 28.9343 -0.963356 26.6169 -0.963356C22.3415 -0.963356 18.0662 -0.963356 13.7909 -0.963356C12.8319 -0.963356 1.64418 -1.00273 1.00488 -0.92398V25.0641C1.76405 25.1823 3.3623 25.0641 4.20139 25.0641H26.6169C28.8944 25.0641 30.4926 25.2216 32.3306 24.3554C33.809 23.6466 34.8878 22.7016 35.7269 21.3628C37.0455 19.2759 37.3251 16.2439 35.9666 13.8814C35.7669 13.527 35.5671 13.2514 35.3673 12.9363C35.2075 12.7001 34.7679 12.2276 34.688 12.0307L35.4072 11.0857Z" fill="#FF7300"/>
<path fill-rule="evenodd" clip-rule="evenodd" d="M88.5096 -0.965263C87.0712 -0.965263 84.9934 -1.00464 83.7148 -0.965263C83.7548 -0.610879 84.1943 0.373519 84.3142 0.727902L84.9535 2.38169C85.8325 4.38986 86.6317 6.87055 87.4308 8.83934C87.8703 9.86312 88.2699 11.005 88.6694 12.0682C89.069 13.1313 89.5085 14.2732 89.9081 15.3364L93.624 25.0622H99.3777L101.216 20.2584C101.535 19.4708 101.855 18.7227 102.135 17.8958C102.414 17.1083 102.774 16.2814 103.054 15.5332C104.133 12.5801 105.451 9.50873 106.53 6.55554C106.57 6.43741 106.61 6.35866 106.65 6.27991C106.73 6.1224 106.69 6.1224 106.77 6.00428C106.929 6.16178 107.209 6.98867 107.289 7.18555L110.526 15.5726C110.845 16.3208 111.125 17.2264 111.484 17.9746C111.644 18.3683 111.804 18.8015 111.964 19.1952L114.281 25.1016H119.875C120.075 25.0228 120.195 24.5897 120.275 24.3928L121.194 21.9121C121.593 20.7702 122.033 19.7465 122.432 18.6439C123.192 16.5964 124.111 14.1945 124.91 12.1469C125.789 10.0206 126.508 7.85494 127.387 5.64989C127.587 5.09863 129.824 -0.492752 129.864 -0.925887C129.185 -1.00464 124.79 -1.04401 124.47 -0.925887C124.31 -0.768383 124.071 -0.0202405 123.951 0.294767L122.552 3.91735C121.314 7.06743 120.075 10.4538 118.836 13.6038L117.438 17.2658C117.318 17.5414 117.078 18.2502 116.958 18.4471C116.839 18.3683 115.24 14.1157 115.081 13.6038C114.481 11.9894 113.842 10.375 113.203 8.72122C112.603 7.14618 111.964 5.33489 111.325 3.8386C111.005 3.05108 110.685 2.26356 110.406 1.43667C110.206 0.84603 109.686 -0.571503 109.447 -0.965263C108.847 -1.00464 104.372 -1.04401 104.093 -0.925887C104.013 -0.847135 100.457 8.32746 100.337 8.68184L98.4587 13.4857C98.4188 13.6038 96.7406 18.1321 96.5408 18.2896C96.381 18.0139 96.2212 17.4627 96.0613 17.1083C95.9015 16.7145 95.7816 16.3208 95.5819 15.927C95.1823 14.982 94.6629 13.4857 94.1834 12.3044L92.8249 8.68184C92.2655 7.26431 91.5862 5.29551 90.9869 3.87798L90.1079 1.43667C89.988 1.04291 89.3087 -0.886511 89.1089 -0.965263C88.8292 -1.04401 89.3487 -0.925887 89.029 -1.00464L88.5096 -0.965263Z" fill="#FF7300"/>
<path fill-rule="evenodd" clip-rule="evenodd" d="M139.334 15.1394C139.254 14.7457 139.294 9.74494 139.294 8.87867C139.294 6.75237 138.974 4.9017 140.612 3.95668C141.411 3.48417 142.33 3.52354 143.369 3.52354H162.309C163.387 3.52354 164.187 3.52354 164.946 3.99605C166.544 5.01983 166.264 6.71299 166.264 8.91804C166.264 9.78431 166.304 14.7063 166.224 15.1394H139.334ZM139.334 19.6677C139.893 19.5495 141.971 19.6283 142.69 19.6283C144.568 19.6283 165.825 19.5889 166.144 19.6283L166.224 19.6677C166.304 19.8252 166.264 19.9039 166.264 20.3371C166.264 21.5183 166.224 24.1565 166.264 25.0228H170.819C170.899 24.4322 170.819 9.94182 170.819 8.60304C170.819 6.67362 170.899 5.29546 170.3 3.72042C169.341 1.16099 167.223 -0.610929 163.907 -0.925937C163.108 -1.00469 161.989 -0.925937 161.15 -0.925937C156.515 -0.925937 151.92 -0.925937 147.285 -0.925937C145.487 -0.925937 143.449 -1.00469 141.731 -0.925937C138.575 -0.729057 136.297 1.16099 135.298 3.64167C134.659 5.21671 134.779 6.75237 134.779 8.64241V19.6283C134.779 21.4002 134.699 23.3296 134.779 25.1015L139.374 25.0622L139.334 19.6677Z" fill="#FF7300"/>
<path fill-rule="evenodd" clip-rule="evenodd" d="M51.5897 3.5629C52.3489 3.44477 66.4534 3.52352 67.9318 3.52352C72.1272 3.52352 74.6445 3.05101 74.6445 7.69737C74.6445 9.50866 74.6445 11.2806 74.6445 13.0919C74.6445 14.5094 74.8043 17.1476 74.4047 18.2501C74.165 19.0376 73.8853 19.4314 73.286 19.8645C72.8464 20.1795 71.7277 20.4945 71.2882 20.5339C70.489 20.6127 69.3703 20.5733 68.5711 20.5733H54.9061C53.108 20.5733 51.35 20.6914 49.9515 20.1008C48.6329 19.5101 48.1934 18.0926 48.1934 16.4388C48.1934 14.6275 48.1934 12.8556 48.1934 11.0443C48.1934 9.86305 48.0736 6.71297 48.3533 5.80733C48.9526 3.91728 49.8716 3.83853 51.5897 3.5629ZM43.5985 16.3995C43.8781 19.6283 44.5574 22.5027 47.5142 23.999C48.5131 24.5109 49.3122 24.629 50.4709 24.9047C51.4698 25.1015 53.108 25.0622 54.2268 25.0622H65.8541C70.489 25.0622 75.2438 25.6528 77.8809 21.5971C78.9198 20.022 79.2395 17.502 79.2395 15.2969C79.2395 12.8162 79.3194 10.1781 79.2395 7.69737C79.1595 5.61045 78.5202 3.24789 77.4015 1.86973C76.2427 0.412825 74.6045 -0.453445 72.327 -0.768452C70.0495 -1.08346 67.1327 -0.925956 64.7353 -0.925956C62.1382 -0.925956 59.581 -0.925956 56.9838 -0.925956C52.7884 -0.925956 47.3543 -1.47722 44.957 2.53913C43.2788 5.41357 43.5585 9.27241 43.5585 12.6587C43.5985 13.8006 43.5185 15.2575 43.5985 16.3995Z" fill="#FF7300"/>
</g>
<defs>
<clipPath id="clip0">
<rect width="171" height="44" fill="white"/>
</clipPath>
</defs>
</svg>
