<svg width="701" height="221" viewBox="0 0 701 221" fill="none" xmlns="http://www.w3.org/2000/svg">
<path d="M3.42969 172.49V142.78H32.6797V146.09H7.03969V155.41H31.6097V158.72H7.03969V169.18H32.6797V172.49H3.42969Z" fill="white"/>
<path d="M126.219 172.851C123.309 172.851 121.149 172.691 119.749 172.381C118.349 172.071 117.209 171.531 116.319 170.771C115.349 169.951 114.639 168.85 114.199 167.48C113.759 166.11 113.539 164.291 113.539 162.031V142.771H117.329V162.031C117.329 163.611 117.409 164.761 117.569 165.461C117.729 166.161 117.999 166.781 118.369 167.301C118.889 168.061 119.629 168.611 120.599 168.951C121.559 169.291 122.899 169.461 124.619 169.461H136.829C138.559 169.461 139.899 169.291 140.859 168.951C141.819 168.611 142.559 168.061 143.099 167.301C143.469 166.781 143.729 166.171 143.889 165.461C144.039 164.751 144.119 163.611 144.119 162.031V161.01V142.771H147.909V161.811C147.909 164.081 147.689 165.941 147.249 167.381C146.809 168.821 146.119 169.951 145.169 170.771C144.319 171.531 143.189 172.061 141.799 172.381C140.399 172.691 138.229 172.851 135.289 172.851H126.219V172.851Z" fill="white"/>
<path d="M234.268 172.49H230.578V142.78H251.788C256.508 142.78 259.638 143.28 261.178 144.29C262.718 145.29 263.488 147.15 263.488 149.85V153.42C263.488 155.26 263.108 156.6 262.338 157.45C261.568 158.3 260.208 158.93 258.258 159.35C259.878 159.52 261.108 160.1 261.928 161.08C262.748 162.06 263.168 163.41 263.168 165.14V172.5H259.478V165.88C259.478 163.94 259.058 162.61 258.208 161.91C257.368 161.21 255.388 160.85 252.288 160.85H234.268V172.49V172.49ZM252.988 146.01H234.268V157.4H252.988C255.648 157.4 257.418 157.07 258.288 156.41C259.158 155.75 259.598 154.42 259.598 152.41V151C259.598 149 259.158 147.67 258.288 147.01C257.418 146.34 255.648 146.01 252.988 146.01Z" fill="white"/>
<path d="M341.918 172.49L359.158 142.78H364.068L381.348 172.49H377.438L373.548 165.94H349.918L346.128 172.49H341.918ZM351.708 162.81H371.738L361.638 145.73L351.708 162.81Z" fill="white"/>
<path d="M459.991 162.81H463.541C463.531 162.96 463.511 163.15 463.501 163.39C463.471 163.96 463.461 164.35 463.461 164.57C463.461 166.43 464.071 167.73 465.301 168.46C466.531 169.19 468.811 169.56 472.161 169.56H479.921C483.951 169.56 486.581 169.16 487.801 168.36C489.021 167.56 489.631 166.04 489.631 163.79C489.631 161.91 489.201 160.63 488.351 159.93C487.501 159.23 485.751 158.88 483.101 158.88H470.551C466.591 158.88 463.801 158.26 462.201 157.03C460.601 155.8 459.801 153.69 459.801 150.69C459.801 147.63 460.711 145.48 462.541 144.25C464.371 143.02 467.721 142.4 472.591 142.4H479.341C483.021 142.4 485.611 142.54 487.081 142.82C488.551 143.1 489.711 143.59 490.551 144.28C491.231 144.86 491.731 145.63 492.061 146.58C492.391 147.53 492.551 148.73 492.551 150.16V151.02H489.001V150.56C489.001 148.6 488.531 147.28 487.591 146.6C486.651 145.92 484.671 145.57 481.631 145.57H471.491C468.401 145.57 466.321 145.92 465.251 146.63C464.181 147.34 463.641 148.63 463.641 150.52C463.641 152.44 464.161 153.75 465.211 154.47C466.251 155.19 468.431 155.55 471.721 155.55H482.401C484.731 155.55 486.481 155.64 487.661 155.83C488.841 156.02 489.781 156.32 490.481 156.75C491.501 157.35 492.231 158.19 492.671 159.26C493.101 160.34 493.321 161.91 493.321 163.97C493.321 167.27 492.431 169.57 490.661 170.87C488.881 172.17 485.681 172.83 481.051 172.83H470.971C466.981 172.83 464.141 172.23 462.441 171.02C460.741 169.82 459.901 167.82 459.901 165.02C459.901 164.65 459.921 164.02 459.961 163.12C459.971 163 459.981 162.89 459.991 162.81Z" fill="white"/>
<path d="M578.928 172.49H575.238V142.78H578.928V172.49Z" fill="white"/>
<path d="M658.41 172.49L675.65 142.78H680.56L697.84 172.49H693.93L690.04 165.94H666.41L662.62 172.49H658.41ZM668.21 162.81H688.25L678.15 145.73L668.21 162.81Z" fill="white"/>
<path d="M115.03 88.8403C122.19 88.8403 127.88 83.1403 127.88 76.1503C127.88 69.1503 122.04 63.3003 115.03 63.3003H18.79V88.8403H115.03ZM115.03 44.3603C122.18 44.3603 127.88 38.6703 127.88 31.5103C127.88 24.5203 122.04 18.8203 115.03 18.8203H18.79V44.3603H115.03ZM137.41 53.9003C143.66 61.0403 146.52 68.5003 146.52 76.1503C146.52 93.5203 132.41 107.79 115.04 107.79H0V0.0302734H115.03C132.4 0.0302734 146.51 14.1403 146.51 31.5103C146.51 39.1603 143.65 46.6203 137.41 53.9003Z" fill="#D16F19"/>
<path d="M212.459 107.73C183.539 107.73 173.859 93.71 173.859 67.38V40.77C173.859 14.44 183.539 0 212.459 0H280.829C309.749 0 319.429 14.44 319.429 40.77V67.38C319.429 93.71 309.749 107.73 280.829 107.73H212.459V107.73ZM281.729 89.14C293.369 89.14 300.659 86.12 300.659 72.36V34.25C300.659 20.49 293.369 18.59 281.729 18.59H211.559C199.919 18.59 192.629 20.49 192.629 34.25V72.36C192.629 86.12 199.919 89.14 211.559 89.14H281.729Z" fill="#D16F19"/>
<path d="M401.608 107.79H378.198L337.488 0H359.948L390.148 80.31L420.838 0H443.148L473.468 80.68L504.038 0H526.488L485.778 107.79H462.368L431.988 28.4L401.608 107.79Z" fill="#D16F19"/>
<path d="M564.712 66.7503H674.922V31.5103C674.922 23.6003 670.002 18.8203 662.072 18.8203H577.402C569.182 18.8203 564.712 23.4403 564.712 31.5103V66.7503V66.7503ZM693.552 31.5103V107.78H674.912V85.3903H564.712V107.78H545.922V31.5103C545.922 12.9203 558.972 0.0302734 577.402 0.0302734H662.072C680.352 0.0302734 693.552 13.2303 693.552 31.5103Z" fill="#D16F19"/>
<path d="M1.03125 219.971L11.5712 201.801H14.5712L25.1412 219.971H22.7512L20.3713 215.971H5.92125L3.60125 219.971H1.03125V219.971ZM7.02125 214.051H19.2712L13.1013 203.611L7.02125 214.051Z" fill="white" stroke="white" stroke-width="0.7357"/>
<path d="M48.51 219.971H46.25V201.801H58.88C61.77 201.801 63.67 202.111 64.6 202.731C65.53 203.351 65.99 204.481 65.99 206.121V208.501C65.99 210.141 65.53 211.271 64.61 211.881C63.69 212.491 61.78 212.801 58.88 212.801H48.51V219.971ZM48.51 210.751H59.53C61.16 210.751 62.25 210.551 62.78 210.161C63.31 209.771 63.58 208.951 63.58 207.701V206.831C63.58 205.581 63.31 204.761 62.78 204.371C62.25 203.981 61.16 203.791 59.53 203.791H48.51V210.751Z" fill="white" stroke="white" stroke-width="0.7357"/>
<path d="M68.1523 219.971L78.6923 201.801H81.6923L92.2623 219.971H89.8723L87.4923 215.971H73.0423L70.7223 219.971H68.1523V219.971ZM74.1423 214.051H86.3923L80.2223 203.611L74.1423 214.051Z" fill="white" stroke="white" stroke-width="0.7357"/>
<path d="M100.233 219.971H97.9727V201.801H110.943C113.833 201.801 115.743 202.111 116.683 202.721C117.623 203.331 118.093 204.471 118.093 206.121V208.301C118.093 209.421 117.863 210.241 117.393 210.761C116.923 211.281 116.093 211.671 114.893 211.921C115.883 212.031 116.633 212.381 117.143 212.971C117.643 213.571 117.903 214.401 117.903 215.451V219.951H115.643V215.901C115.643 214.711 115.383 213.901 114.863 213.471C114.343 213.041 113.143 212.821 111.243 212.821H100.223V219.971H100.233ZM111.683 203.781H100.243V210.751H111.683C113.313 210.751 114.393 210.551 114.923 210.151C115.453 209.751 115.723 208.931 115.723 207.701V206.831C115.723 205.611 115.453 204.801 114.923 204.391C114.383 203.981 113.303 203.781 111.683 203.781Z" fill="white" stroke="white" stroke-width="0.7357"/>
<path d="M134.77 219.971H132.51V203.831H123.52V201.801H143.76V203.831H134.77V219.971Z" fill="white" stroke="white" stroke-width="0.7357"/>
<path d="M173.58 220.19C171.63 220.19 170.2 220.09 169.27 219.9C168.34 219.71 167.59 219.38 167 218.92C166.35 218.4 165.88 217.72 165.59 216.87C165.3 216.02 165.16 214.91 165.16 213.53V208.58C165.16 207.07 165.3 205.86 165.59 204.97C165.87 204.08 166.34 203.37 166.98 202.86C167.56 202.4 168.32 202.08 169.27 201.88C170.22 201.68 171.65 201.59 173.56 201.59H179.63C181.54 201.59 182.97 201.69 183.92 201.88C184.87 202.07 185.63 202.4 186.21 202.86C186.84 203.36 187.3 204.05 187.59 204.93C187.88 205.81 188.03 206.96 188.03 208.36V213.42C188.03 214.84 187.88 215.98 187.59 216.86C187.3 217.74 186.84 218.43 186.21 218.92C185.63 219.38 184.88 219.71 183.96 219.9C183.04 220.09 181.59 220.19 179.63 220.19H173.58V220.19ZM180.7 203.59H172.48C171.31 203.59 170.4 203.69 169.77 203.89C169.14 204.09 168.64 204.43 168.28 204.9C168.02 205.24 167.84 205.65 167.73 206.11C167.62 206.58 167.57 207.36 167.57 208.45V208.77V213.22C167.57 214.31 167.62 215.09 167.73 215.56C167.84 216.03 168.02 216.43 168.28 216.77C168.64 217.24 169.13 217.58 169.77 217.78C170.41 217.98 171.31 218.08 172.48 218.08H180.7C181.87 218.08 182.78 217.98 183.41 217.78C184.04 217.58 184.54 217.24 184.9 216.77C185.14 216.44 185.32 216.06 185.42 215.6C185.53 215.15 185.58 214.45 185.58 213.5V212.89V208.17C185.58 207.21 185.53 206.51 185.42 206.06C185.31 205.61 185.14 205.23 184.9 204.9C184.54 204.43 184.04 204.09 183.41 203.89C182.78 203.69 181.87 203.59 180.7 203.59Z" fill="white" stroke="white" stroke-width="0.7357"/>
<path d="M195.59 219.971V201.801H212.76V203.831H197.87V209.621H212.18V211.601H197.87V219.971H195.59Z" fill="white" stroke="white" stroke-width="0.7357"/>
<path d="M251.941 210.271C253.231 210.361 254.151 210.681 254.701 211.231C255.261 211.781 255.531 212.641 255.531 213.821V215.751C255.531 217.361 255.011 218.471 253.971 219.071C252.931 219.671 250.761 219.971 247.481 219.971H234.941V201.801H247.911C249.531 201.801 250.731 201.861 251.521 201.981C252.301 202.101 252.931 202.311 253.391 202.601C253.951 202.951 254.351 203.401 254.591 203.951C254.831 204.501 254.941 205.321 254.941 206.391C254.941 207.651 254.721 208.551 254.291 209.091C253.851 209.651 253.071 210.041 251.941 210.271ZM237.201 203.781V209.431H247.531C249.961 209.431 251.441 209.251 251.951 208.881C252.461 208.511 252.731 207.771 252.731 206.651C252.731 205.971 252.671 205.441 252.551 205.081C252.431 204.721 252.231 204.451 251.961 204.281C251.661 204.091 251.241 203.961 250.711 203.891C250.181 203.821 249.241 203.781 247.891 203.781H247.321H237.201ZM249.081 211.551H237.201V217.891H249.081C250.841 217.891 252.001 217.701 252.541 217.311C253.081 216.921 253.361 216.121 253.361 214.911C253.361 213.491 253.101 212.581 252.571 212.161C252.041 211.761 250.881 211.551 249.081 211.551Z" fill="white" stroke="white" stroke-width="0.7357"/>
<path d="M270.631 220.19C268.681 220.19 267.251 220.09 266.321 219.9C265.391 219.71 264.641 219.38 264.051 218.92C263.401 218.4 262.931 217.72 262.641 216.87C262.351 216.02 262.211 214.91 262.211 213.53V208.58C262.211 207.07 262.351 205.86 262.641 204.97C262.921 204.08 263.391 203.37 264.031 202.86C264.611 202.4 265.371 202.08 266.321 201.88C267.271 201.68 268.701 201.59 270.611 201.59H276.681C278.591 201.59 280.021 201.69 280.971 201.88C281.921 202.07 282.681 202.4 283.261 202.86C283.891 203.36 284.351 204.05 284.641 204.93C284.931 205.81 285.081 206.96 285.081 208.36V213.42C285.081 214.84 284.931 215.98 284.641 216.86C284.351 217.74 283.891 218.43 283.261 218.92C282.681 219.38 281.931 219.71 281.011 219.9C280.091 220.09 278.641 220.19 276.681 220.19H270.631V220.19ZM277.751 203.59H269.531C268.361 203.59 267.451 203.69 266.821 203.89C266.191 204.09 265.691 204.43 265.331 204.9C265.071 205.24 264.891 205.65 264.781 206.11C264.671 206.58 264.621 207.36 264.621 208.45V208.77V213.22C264.621 214.31 264.671 215.09 264.781 215.56C264.891 216.03 265.071 216.43 265.331 216.77C265.691 217.24 266.181 217.58 266.821 217.78C267.461 217.98 268.361 218.08 269.531 218.08H277.751C278.921 218.08 279.831 217.98 280.461 217.78C281.091 217.58 281.591 217.24 281.951 216.77C282.191 216.44 282.371 216.06 282.471 215.6C282.581 215.15 282.631 214.45 282.631 213.5V212.89V208.17C282.631 207.21 282.581 206.51 282.471 206.06C282.361 205.61 282.191 205.23 281.951 204.9C281.591 204.43 281.091 204.09 280.461 203.89C279.821 203.69 278.921 203.59 277.751 203.59Z" fill="white" stroke="white" stroke-width="0.7357"/>
<path d="M297.46 219.971L290.43 201.801H292.76L299.06 218.061L305.1 201.801H308.1L314.1 218.061L320.44 201.801H322.81L315.75 219.971H312.52L306.6 204.131L300.68 219.971H297.46V219.971Z" fill="white" stroke="white" stroke-width="0.7357"/>
<path d="M324.473 219.971L335.013 201.801H338.013L348.583 219.971H346.193L343.813 215.971H329.363L327.043 219.971H324.473V219.971ZM330.463 214.051H342.713L336.543 203.611L330.463 214.051Z" fill="white" stroke="white" stroke-width="0.7357"/>
<path d="M371.891 219.971H369.691V201.801H372.951L383.861 217.591L394.781 201.801H398.141V219.971H395.941V203.971L384.761 219.971H383.061L371.881 203.971V219.971H371.891Z" fill="white" stroke="white" stroke-width="0.7357"/>
<path d="M406.133 219.971V201.801H424.023V203.831H408.343V209.531H423.363V211.561H408.343V217.951H424.023V219.981H406.133V219.971Z" fill="white" stroke="white" stroke-width="0.7357"/>
<path d="M444.551 201.801C446.331 201.801 447.681 201.891 448.581 202.071C449.491 202.251 450.231 202.551 450.821 202.971C451.561 203.511 452.101 204.201 452.441 205.061C452.781 205.911 452.951 207.041 452.951 208.431V213.351C452.951 214.741 452.781 215.861 452.441 216.721C452.101 217.571 451.561 218.271 450.821 218.811C450.231 219.231 449.491 219.531 448.581 219.711C447.671 219.891 446.331 219.981 444.551 219.981H430.871V201.801H444.551ZM445.991 203.831H433.131V217.951H445.991C447.691 217.951 448.881 217.621 449.561 216.971C450.241 216.321 450.591 215.181 450.591 213.561V208.251C450.591 206.541 450.271 205.381 449.631 204.761C448.991 204.141 447.771 203.831 445.991 203.831Z" fill="white" stroke="white" stroke-width="0.7357"/>
<path d="M462.643 219.971H460.383V201.801H462.643V219.971Z" fill="white" stroke="white" stroke-width="0.7357"/>
<path d="M478.302 220.19C476.442 220.19 475.082 220.09 474.222 219.9C473.372 219.71 472.672 219.38 472.122 218.92C471.522 218.41 471.082 217.73 470.812 216.88C470.542 216.03 470.402 214.92 470.402 213.52V208.57C470.402 207.06 470.542 205.85 470.812 204.96C471.082 204.07 471.522 203.36 472.122 202.85C472.662 202.39 473.382 202.06 474.252 201.87C475.132 201.68 476.472 201.58 478.262 201.58H484.002C486.962 201.58 488.962 201.95 490.002 202.68C491.042 203.41 491.562 204.76 491.562 206.7C491.562 206.95 491.562 207.15 491.552 207.29C491.542 207.43 491.542 207.55 491.532 207.67H489.462V207.4C489.462 205.98 489.152 204.99 488.532 204.43C487.912 203.86 486.812 203.58 485.242 203.58H477.372C476.302 203.58 475.462 203.68 474.862 203.88C474.262 204.08 473.802 204.42 473.462 204.89C473.222 205.22 473.062 205.62 472.962 206.09C472.862 206.55 472.812 207.33 472.812 208.42V208.76V213.24C472.812 214.33 472.862 215.11 472.962 215.57C473.062 216.03 473.222 216.43 473.462 216.77C473.792 217.24 474.262 217.58 474.862 217.78C475.462 217.98 476.292 218.08 477.372 218.08H485.212C486.932 218.08 488.102 217.8 488.722 217.25C489.352 216.7 489.662 215.69 489.662 214.24V213.74H491.732C491.732 213.85 491.732 214.01 491.742 214.21C491.752 214.41 491.752 214.55 491.752 214.64C491.752 215.78 491.642 216.69 491.412 217.37C491.182 218.05 490.812 218.6 490.302 219.04C489.812 219.46 489.132 219.76 488.252 219.93C487.372 220.1 485.952 220.19 483.982 220.19H478.302V220.19Z" fill="white" stroke="white" stroke-width="0.7357"/>
<path d="M496.43 219.971L506.97 201.801H509.97L520.54 219.971H518.15L515.77 215.971H501.32L499 219.971H496.43V219.971ZM502.42 214.051H514.67L508.5 203.611L502.42 214.051Z" fill="white" stroke="white" stroke-width="0.7357"/>
<path d="M526.262 219.971V201.801H528.522V217.971H542.642V219.971H526.262V219.971Z" fill="white" stroke="white" stroke-width="0.7357"/>
<path d="M579.531 218.09C581.281 218.09 582.44 217.82 583.01 217.27C583.58 216.72 583.86 215.55 583.86 213.74V212.81H574.54V210.78H586.13V213.73C586.13 215.5 586.02 216.71 585.8 217.37C585.58 218.03 585.21 218.58 584.68 219.02C584.19 219.44 583.51 219.74 582.63 219.91C581.75 220.08 580.33 220.17 578.36 220.17H571.87C570.05 220.17 568.701 220.07 567.831 219.88C566.961 219.69 566.251 219.35 565.701 218.88C565.101 218.37 564.661 217.69 564.391 216.85C564.121 216.01 563.98 214.9 563.98 213.51V208.56C563.98 207.05 564.121 205.84 564.391 204.95C564.661 204.06 565.101 203.35 565.701 202.84C566.241 202.38 566.961 202.05 567.831 201.86C568.711 201.67 570.051 201.57 571.841 201.57H578.35C581.32 201.57 583.33 201.94 584.38 202.67C585.43 203.41 585.951 204.75 585.951 206.69C585.951 206.94 585.95 207.14 585.94 207.27C585.94 207.4 585.93 207.53 585.92 207.65H583.85V207.38C583.85 205.96 583.54 204.97 582.92 204.41C582.3 203.85 581.19 203.56 579.61 203.56H570.94C569.85 203.56 569.01 203.66 568.43 203.86C567.85 204.06 567.38 204.4 567.04 204.87C566.8 205.2 566.64 205.6 566.54 206.07C566.44 206.53 566.391 207.31 566.391 208.4V208.74V213.22C566.391 214.31 566.44 215.09 566.54 215.55C566.64 216.01 566.8 216.41 567.04 216.75C567.37 217.22 567.84 217.56 568.44 217.76C569.04 217.96 569.871 218.06 570.951 218.06H579.531V218.09Z" fill="white" stroke="white" stroke-width="0.7357"/>
<path d="M595.912 219.971H593.652V201.801H606.622C609.512 201.801 611.422 202.111 612.362 202.721C613.302 203.331 613.772 204.471 613.772 206.121V208.301C613.772 209.421 613.542 210.241 613.072 210.761C612.602 211.281 611.772 211.671 610.572 211.921C611.562 212.031 612.312 212.381 612.822 212.971C613.322 213.571 613.582 214.401 613.582 215.451V219.951H611.322V215.901C611.322 214.711 611.062 213.901 610.542 213.471C610.022 213.041 608.822 212.821 606.922 212.821H595.902V219.971H595.912ZM607.362 203.781H595.922V210.751H607.362C608.992 210.751 610.072 210.551 610.602 210.151C611.132 209.751 611.402 208.931 611.402 207.701V206.831C611.402 205.611 611.132 204.801 610.602 204.391C610.072 203.981 608.992 203.781 607.362 203.781Z" fill="white" stroke="white" stroke-width="0.7357"/>
<path d="M629.322 220.19C627.372 220.19 625.942 220.09 625.012 219.9C624.082 219.71 623.332 219.38 622.742 218.92C622.092 218.4 621.622 217.72 621.332 216.87C621.042 216.02 620.902 214.91 620.902 213.53V208.58C620.902 207.07 621.042 205.86 621.332 204.97C621.612 204.08 622.082 203.37 622.722 202.86C623.302 202.4 624.062 202.08 625.012 201.88C625.962 201.68 627.392 201.59 629.302 201.59H635.372C637.282 201.59 638.712 201.69 639.662 201.88C640.612 202.07 641.372 202.4 641.952 202.86C642.582 203.36 643.042 204.05 643.332 204.93C643.622 205.81 643.772 206.96 643.772 208.36V213.42C643.772 214.84 643.622 215.98 643.332 216.86C643.042 217.74 642.582 218.43 641.952 218.92C641.372 219.38 640.622 219.71 639.702 219.9C638.782 220.09 637.332 220.19 635.372 220.19H629.322V220.19ZM636.442 203.59H628.222C627.052 203.59 626.142 203.69 625.512 203.89C624.882 204.09 624.382 204.43 624.022 204.9C623.762 205.24 623.582 205.65 623.472 206.11C623.362 206.58 623.312 207.36 623.312 208.45V208.77V213.22C623.312 214.31 623.362 215.09 623.472 215.56C623.582 216.03 623.762 216.43 624.022 216.77C624.382 217.24 624.872 217.58 625.512 217.78C626.152 217.98 627.052 218.08 628.222 218.08H636.442C637.612 218.08 638.522 217.98 639.152 217.78C639.782 217.58 640.282 217.24 640.642 216.77C640.882 216.44 641.062 216.06 641.162 215.6C641.272 215.15 641.322 214.45 641.322 213.5V212.89V208.17C641.322 207.21 641.272 206.51 641.162 206.06C641.052 205.61 640.882 205.23 640.642 204.9C640.282 204.43 639.782 204.09 639.152 203.89C638.522 203.69 637.612 203.59 636.442 203.59Z" fill="white" stroke="white" stroke-width="0.7357"/>
<path d="M658.951 220.191C657.171 220.191 655.851 220.091 655.001 219.901C654.151 219.711 653.451 219.381 652.901 218.921C652.311 218.421 651.871 217.741 651.611 216.911C651.351 216.081 651.211 214.961 651.211 213.581V201.801H653.531V213.571C653.531 214.541 653.581 215.241 653.681 215.671C653.781 216.101 653.941 216.481 654.171 216.791C654.491 217.251 654.941 217.591 655.531 217.801C656.121 218.011 656.941 218.111 657.991 218.111H665.461C666.521 218.111 667.341 218.011 667.921 217.801C668.511 217.591 668.961 217.261 669.291 216.791C669.521 216.471 669.681 216.101 669.771 215.671C669.861 215.241 669.911 214.541 669.911 213.571V212.951V201.801H672.231V213.441C672.231 214.831 672.101 215.971 671.831 216.841C671.561 217.721 671.141 218.411 670.561 218.911C670.041 219.371 669.351 219.701 668.501 219.891C667.651 220.081 666.321 220.181 664.521 220.181H658.951V220.191Z" fill="white" stroke="white" stroke-width="0.7357"/>
<path d="M682.311 219.971H680.051V201.801H692.681C695.571 201.801 697.471 202.111 698.401 202.731C699.331 203.351 699.791 204.481 699.791 206.121V208.501C699.791 210.141 699.331 211.271 698.411 211.881C697.491 212.491 695.581 212.801 692.681 212.801H682.311V219.971ZM682.311 210.751H693.331C694.961 210.751 696.051 210.551 696.581 210.161C697.111 209.771 697.381 208.951 697.381 207.701V206.831C697.381 205.581 697.111 204.761 696.581 204.371C696.051 203.981 694.961 203.791 693.331 203.791H682.311V210.751Z" fill="white" stroke="white" stroke-width="0.7357"/>
</svg>
