<svg id="svg" version="1.1" xmlns="http://www.w3.org/2000/svg" xmlns:xlink="http://www.w3.org/1999/xlink" width="400" height="104.72103004291846" viewBox="0, 0, 400,104.72103004291846"><g id="svgg">


<path id="path1" d="M143.031 82.958 C 144.561 82.985,147.111 82.986,148.698 82.958 C 150.285 82.931,149.033 82.908,145.917 82.908 C 142.800 82.908,141.501 82.931,143.031 82.958 M253.463 83.272 C 253.555 83.752,253.357 83.842,252.042 83.917 C 251.068 83.972,250.910 84.026,250.864 84.317 C 250.832 84.525,250.593 84.732,250.239 84.860 C 249.728 85.045,249.667 85.133,249.667 85.680 C 249.667 86.392,249.338 86.743,248.824 86.580 C 248.481 86.471,248.471 86.498,248.608 87.192 C 248.777 88.053,248.801 98.640,248.635 99.542 C 248.525 100.146,248.537 100.167,249.003 100.167 C 249.424 100.167,249.499 100.242,249.597 100.762 C 249.674 101.177,249.828 101.403,250.104 101.508 C 250.322 101.591,250.500 101.765,250.500 101.896 C 250.500 102.027,250.725 102.212,251.000 102.308 C 251.323 102.421,251.500 102.597,251.500 102.804 C 251.500 103.103,251.684 103.135,254.083 103.247 C 256.664 103.368,256.667 103.369,256.667 103.768 C 256.667 104.140,256.727 104.167,257.583 104.167 C 258.450 104.167,258.500 104.144,258.500 103.750 C 258.500 103.444,258.589 103.333,258.833 103.333 C 259.078 103.333,259.167 103.444,259.167 103.750 L 259.167 104.167 261.000 104.167 L 262.833 104.167 262.833 103.750 C 262.833 103.449,262.923 103.333,263.156 103.333 C 263.408 103.333,263.462 103.423,263.402 103.750 L 263.327 104.167 264.833 104.167 C 266.331 104.167,266.339 104.164,266.241 103.775 C 266.136 103.355,267.180 103.167,269.608 103.167 C 270.393 103.167,270.500 103.126,270.500 102.829 C 270.500 102.626,270.660 102.431,270.902 102.339 C 271.124 102.255,271.351 102.039,271.408 101.859 C 271.465 101.680,271.697 101.487,271.923 101.430 C 272.331 101.327,272.333 101.317,272.333 99.267 C 272.333 96.912,272.269 96.783,271.137 96.865 L 270.417 96.917 270.333 98.131 C 270.252 99.317,270.079 99.657,269.555 99.664 C 269.447 99.666,269.273 99.929,269.167 100.250 C 269.061 100.571,268.886 100.838,268.779 100.844 C 268.671 100.849,265.096 100.857,260.833 100.862 L 253.083 100.870 253.090 100.435 C 253.094 100.196,253.043 100.000,252.977 100.000 C 252.911 100.000,252.823 99.869,252.782 99.708 C 252.709 99.431,252.704 99.431,252.686 99.708 C 252.674 99.894,252.530 100.000,252.292 100.000 L 251.917 100.000 251.917 94.292 C 251.917 91.152,251.856 88.227,251.781 87.791 C 251.655 87.049,251.671 86.990,252.050 86.846 C 252.273 86.761,252.495 86.536,252.546 86.344 C 252.632 86.014,252.714 86.001,254.110 86.095 C 255.115 86.162,255.508 86.141,255.345 86.027 C 254.316 85.306,255.231 85.167,261.000 85.167 C 266.761 85.167,267.394 85.249,266.734 85.909 C 266.490 86.153,266.559 86.172,267.561 86.129 C 268.838 86.076,269.155 86.282,269.323 87.280 C 269.398 87.731,269.506 87.904,269.690 87.873 C 269.982 87.825,270.566 89.802,270.393 90.252 C 270.315 90.454,270.478 90.500,271.274 90.500 L 272.250 90.500 272.299 89.042 C 272.326 88.240,272.384 87.462,272.428 87.314 C 272.543 86.928,272.218 86.167,271.939 86.167 C 271.809 86.167,271.583 85.867,271.436 85.500 C 271.289 85.133,271.061 84.833,270.929 84.833 C 270.797 84.833,270.636 84.665,270.572 84.458 C 270.406 83.925,270.206 83.839,269.125 83.836 C 268.598 83.834,268.157 83.758,268.146 83.667 C 268.134 83.575,268.106 83.425,268.083 83.333 C 268.060 83.242,268.032 83.110,268.021 83.042 C 268.009 82.973,264.714 82.917,260.698 82.917 L 253.396 82.917 253.463 83.272 M3.865 83.805 C 3.653 83.835,3.452 83.947,3.418 84.055 C 3.203 84.733,3.241 102.717,3.457 102.933 C 3.710 103.186,5.756 103.263,6.119 103.033 C 6.396 102.857,6.449 88.027,6.174 87.513 C 5.916 87.031,6.242 86.383,6.595 86.676 C 6.726 86.785,6.833 86.975,6.833 87.098 C 6.833 87.221,6.982 87.401,7.165 87.499 C 7.347 87.596,7.542 87.859,7.598 88.082 C 7.654 88.305,7.842 88.533,8.017 88.589 C 8.255 88.664,8.333 88.847,8.333 89.328 C 8.333 89.889,8.395 89.989,8.833 90.142 C 9.172 90.260,9.333 90.427,9.333 90.662 C 9.333 90.878,9.490 91.068,9.750 91.167 C 10.086 91.295,10.167 91.439,10.167 91.917 C 10.167 92.394,10.247 92.539,10.583 92.667 C 10.841 92.765,11.000 92.956,11.000 93.167 C 11.000 93.378,11.159 93.569,11.417 93.667 C 11.738 93.789,11.833 93.944,11.833 94.345 C 11.833 94.729,11.923 94.888,12.175 94.954 C 12.385 95.009,12.554 95.229,12.613 95.523 C 12.672 95.819,12.876 96.082,13.146 96.211 C 13.397 96.331,13.607 96.587,13.639 96.813 C 13.670 97.029,13.839 97.243,14.014 97.289 C 14.233 97.346,14.333 97.519,14.333 97.839 C 14.333 98.525,14.495 98.833,14.855 98.833 C 15.041 98.833,15.240 99.004,15.329 99.240 C 15.414 99.463,15.642 99.731,15.836 99.835 C 16.106 99.979,16.166 100.128,16.094 100.470 C 15.983 101.000,16.131 101.272,16.576 101.357 C 16.759 101.391,16.945 101.601,17.000 101.834 C 17.059 102.086,17.233 102.270,17.442 102.300 C 17.632 102.328,17.871 102.534,17.974 102.759 C 18.381 103.652,20.715 103.264,20.901 102.273 C 20.969 101.911,21.123 101.673,21.325 101.621 C 21.523 101.569,21.661 101.360,21.695 101.062 C 21.732 100.743,21.860 100.566,22.083 100.524 C 22.488 100.448,22.661 100.206,22.664 99.708 C 22.666 99.423,22.763 99.333,23.073 99.333 C 23.443 99.333,23.471 99.282,23.385 98.756 C 23.304 98.253,23.347 98.153,23.721 97.983 C 23.985 97.863,24.192 97.599,24.258 97.299 C 24.317 97.031,24.489 96.765,24.641 96.709 C 25.005 96.575,25.161 96.330,25.164 95.886 C 25.166 95.677,25.301 95.480,25.482 95.422 C 25.655 95.367,25.836 95.176,25.883 94.996 C 25.929 94.817,26.161 94.597,26.398 94.507 C 26.729 94.381,26.852 94.190,26.935 93.672 C 27.015 93.174,27.121 93.000,27.344 93.000 C 27.562 93.000,27.660 92.851,27.698 92.458 C 27.738 92.043,27.838 91.904,28.125 91.863 C 28.417 91.822,28.522 91.669,28.602 91.170 C 28.670 90.748,28.807 90.502,29.006 90.450 C 29.189 90.402,29.329 90.184,29.362 89.894 C 29.402 89.544,29.518 89.402,29.798 89.363 C 30.070 89.324,30.209 89.165,30.280 88.808 C 30.335 88.532,30.520 88.220,30.690 88.113 C 30.873 87.999,31.000 87.727,31.000 87.451 C 31.000 86.971,31.960 86.352,32.341 86.588 C 32.438 86.648,32.500 89.803,32.500 94.754 C 32.500 102.560,32.510 102.827,32.822 102.994 C 33.284 103.241,33.868 103.207,34.296 102.907 L 34.667 102.648 34.667 93.592 C 34.667 82.922,34.859 83.863,32.667 83.816 C 30.664 83.773,30.060 83.921,29.857 84.503 C 29.752 84.806,29.555 84.993,29.305 85.028 C 28.969 85.076,28.924 85.164,28.968 85.683 C 29.011 86.173,28.942 86.333,28.593 86.561 C 28.359 86.715,28.167 86.950,28.167 87.083 C 28.167 87.217,27.979 87.449,27.750 87.599 C 27.460 87.789,27.333 88.022,27.333 88.368 C 27.333 88.719,27.239 88.889,27.010 88.949 C 26.833 88.995,26.614 89.244,26.525 89.501 C 26.435 89.758,26.205 90.018,26.014 90.079 C 25.769 90.157,25.636 90.381,25.562 90.845 C 25.484 91.337,25.380 91.500,25.145 91.500 C 24.924 91.500,24.833 91.621,24.833 91.913 C 24.833 92.165,24.677 92.428,24.434 92.588 C 24.214 92.732,23.945 93.064,23.837 93.326 C 23.728 93.587,23.496 93.839,23.320 93.885 C 23.093 93.944,23.000 94.116,23.000 94.473 C 23.000 94.838,22.904 95.008,22.653 95.088 C 22.461 95.148,22.229 95.416,22.136 95.682 C 22.035 95.974,21.849 96.167,21.669 96.167 C 21.444 96.167,21.344 96.349,21.259 96.917 C 21.184 97.413,21.064 97.667,20.902 97.667 C 20.768 97.667,20.587 97.856,20.499 98.086 C 20.411 98.317,20.156 98.576,19.932 98.661 C 19.696 98.751,19.503 98.976,19.471 99.199 C 19.426 99.519,19.333 99.574,18.917 99.525 C 18.246 99.447,18.167 99.381,18.167 98.913 C 18.167 98.688,18.026 98.437,17.847 98.341 C 17.671 98.246,17.479 97.949,17.420 97.680 C 17.361 97.411,17.129 97.071,16.906 96.925 C 16.683 96.779,16.500 96.550,16.500 96.417 C 16.500 96.283,16.312 96.051,16.083 95.901 C 15.771 95.697,15.667 95.483,15.667 95.049 C 15.667 94.602,15.587 94.448,15.321 94.378 C 15.130 94.328,14.904 94.103,14.819 93.878 C 14.733 93.652,14.510 93.428,14.323 93.379 C 14.112 93.324,13.945 93.102,13.884 92.797 C 13.830 92.526,13.688 92.267,13.568 92.221 C 13.448 92.175,13.263 91.877,13.158 91.558 C 13.042 91.206,12.811 90.920,12.567 90.827 C 12.152 90.669,11.998 89.957,12.333 89.750 C 12.653 89.553,12.497 89.354,12.048 89.385 C 11.666 89.412,11.581 89.338,11.505 88.917 C 11.439 88.551,11.309 88.402,11.021 88.361 C 10.769 88.325,10.563 88.134,10.448 87.830 C 10.349 87.569,10.133 87.320,9.968 87.277 C 9.741 87.217,9.667 87.034,9.667 86.532 C 9.667 85.942,9.610 85.846,9.167 85.692 C 8.821 85.571,8.667 85.407,8.667 85.160 C 8.667 84.942,8.536 84.768,8.333 84.715 C 8.150 84.667,8.000 84.533,8.000 84.418 C 8.000 83.896,5.664 83.550,3.865 83.805 M142.250 83.792 C 138.579 83.831,138.404 83.848,138.125 84.185 C 137.855 84.511,137.833 85.214,137.833 93.598 L 137.833 102.659 138.215 102.909 C 138.533 103.117,151.673 103.293,157.780 103.171 C 157.888 103.168,158.001 102.998,158.030 102.792 C 158.076 102.471,158.199 102.409,158.883 102.366 C 159.563 102.322,159.706 102.251,159.843 101.891 C 159.932 101.658,160.139 101.432,160.304 101.389 C 160.469 101.346,160.674 101.072,160.760 100.781 C 160.928 100.211,161.438 99.981,161.698 100.359 C 161.804 100.511,161.827 100.422,161.771 100.083 C 161.387 97.761,161.532 96.419,162.169 96.413 L 162.583 96.409 162.583 93.486 C 162.583 90.592,162.580 90.563,162.228 90.630 C 161.714 90.728,161.654 90.530,161.602 88.572 C 161.559 86.895,161.537 86.799,161.153 86.609 C 160.699 86.383,160.540 85.770,160.841 85.407 C 161.006 85.209,160.970 85.167,160.637 85.167 C 160.415 85.167,160.162 85.098,160.075 85.014 C 159.988 84.930,159.732 84.836,159.507 84.806 C 159.230 84.768,159.065 84.614,158.999 84.333 L 158.902 83.917 152.993 83.876 C 149.742 83.853,146.858 83.816,146.583 83.793 C 146.308 83.769,144.358 83.769,142.250 83.792 M324.417 83.863 C 323.775 83.941,323.044 84.023,322.792 84.044 C 322.299 84.086,322.219 84.321,322.526 84.814 C 322.760 85.187,322.615 85.635,322.212 85.783 C 321.807 85.933,321.672 86.167,321.669 86.724 C 321.667 87.050,321.567 87.224,321.346 87.282 C 321.143 87.335,320.973 87.590,320.882 87.974 C 320.770 88.453,320.650 88.594,320.321 88.633 C 319.949 88.677,319.910 88.746,319.969 89.253 C 320.025 89.739,319.970 89.854,319.601 90.022 C 319.246 90.184,319.167 90.334,319.167 90.842 C 319.167 91.353,319.098 91.481,318.780 91.561 C 318.504 91.630,318.350 91.837,318.239 92.287 C 318.130 92.729,317.982 92.931,317.743 92.965 C 317.461 93.006,317.413 93.111,317.467 93.574 C 317.523 94.054,317.466 94.165,317.058 94.359 C 316.686 94.537,316.572 94.715,316.533 95.187 C 316.496 95.630,316.379 95.835,316.087 95.968 C 315.834 96.083,315.671 96.318,315.637 96.616 C 315.603 96.908,315.443 97.145,315.208 97.248 C 314.914 97.377,314.833 97.549,314.833 98.044 C 314.833 98.559,314.759 98.703,314.428 98.829 C 314.131 98.942,314.008 99.131,313.970 99.533 C 313.933 99.909,313.800 100.134,313.550 100.244 C 313.303 100.352,313.149 100.609,313.078 101.029 C 313.009 101.438,312.863 101.688,312.653 101.754 C 312.215 101.893,312.217 102.759,312.656 102.994 C 313.494 103.443,315.042 103.172,315.239 102.542 C 315.317 102.292,315.487 102.167,315.747 102.167 C 316.213 102.167,316.329 101.915,316.152 101.288 C 316.043 100.903,316.090 100.782,316.435 100.556 C 316.663 100.407,316.955 100.033,317.083 99.725 C 317.449 98.849,317.595 98.833,325.386 98.835 L 332.583 98.836 333.197 99.418 C 333.759 99.951,333.797 100.044,333.655 100.540 C 333.463 101.211,333.460 101.489,333.648 101.192 C 333.888 100.812,334.377 101.053,334.578 101.651 C 334.686 101.971,334.929 102.278,335.135 102.354 C 335.336 102.428,335.500 102.596,335.500 102.727 C 335.500 103.234,337.762 103.381,338.238 102.905 C 338.644 102.499,338.500 102.086,337.917 101.976 C 337.712 101.938,337.561 101.754,337.525 101.502 C 337.493 101.276,337.287 100.924,337.067 100.720 C 336.844 100.514,336.667 100.159,336.667 99.920 C 336.667 99.613,336.545 99.446,336.238 99.329 C 335.907 99.203,335.815 99.060,335.838 98.708 C 335.895 97.856,335.836 97.690,335.458 97.637 C 335.175 97.596,335.071 97.457,335.033 97.064 C 334.998 96.705,334.858 96.489,334.577 96.361 C 334.284 96.227,334.143 95.995,334.067 95.519 C 333.997 95.082,333.861 94.836,333.660 94.783 C 333.459 94.731,333.339 94.516,333.304 94.145 C 333.264 93.727,333.134 93.530,332.792 93.367 C 332.423 93.191,332.333 93.037,332.333 92.574 C 332.333 92.258,332.264 92.000,332.179 92.000 C 331.884 92.000,331.500 91.475,331.500 91.071 C 331.500 90.782,331.408 90.667,331.177 90.667 C 330.923 90.667,330.830 90.510,330.743 89.931 C 330.654 89.338,330.555 89.175,330.233 89.094 C 329.887 89.007,329.833 88.895,329.833 88.258 C 329.833 87.634,329.779 87.515,329.475 87.470 C 328.954 87.392,328.701 86.917,328.960 86.503 C 329.250 86.037,329.222 85.980,328.761 86.095 C 328.401 86.186,328.333 86.121,328.152 85.515 C 328.014 85.056,327.852 84.833,327.657 84.833 C 327.483 84.833,327.295 84.631,327.192 84.333 C 327.051 83.929,326.922 83.833,326.522 83.833 C 326.250 83.833,325.927 83.808,325.805 83.777 C 325.683 83.746,325.058 83.785,324.417 83.863 M77.268 84.097 C 77.060 84.639,77.155 102.755,77.367 102.967 C 77.630 103.230,95.520 103.257,96.011 102.994 C 96.398 102.787,96.469 101.487,96.110 101.189 C 95.954 101.060,93.481 100.990,87.985 100.960 L 80.083 100.917 80.147 100.500 C 80.181 100.271,80.241 98.904,80.280 97.463 L 80.349 94.842 82.800 94.791 L 85.250 94.740 82.792 94.704 L 80.333 94.667 80.333 94.250 L 80.333 93.833 84.625 93.836 C 86.985 93.837,89.014 93.900,89.134 93.976 C 89.602 94.273,89.249 94.583,88.333 94.680 C 87.829 94.734,89.150 94.790,91.269 94.805 L 95.120 94.833 95.045 94.439 C 94.949 93.935,95.731 93.101,96.188 93.221 C 96.360 93.265,96.500 93.234,96.500 93.151 C 96.500 93.068,96.343 93.000,96.151 93.000 C 95.959 93.000,95.612 92.850,95.379 92.667 C 95.146 92.483,94.848 92.333,94.717 92.333 C 94.566 92.333,94.498 92.196,94.531 91.958 C 94.577 91.631,94.509 91.583,94.000 91.583 C 93.491 91.583,93.423 91.631,93.469 91.958 L 93.521 92.333 86.885 92.333 L 80.250 92.333 80.245 89.708 C 80.243 88.265,80.185 86.877,80.117 86.625 L 79.994 86.167 88.059 86.167 L 96.124 86.167 96.210 85.292 C 96.366 83.698,97.248 83.833,86.679 83.833 C 78.343 83.833,77.358 83.861,77.268 84.097 M204.373 84.027 C 204.214 84.186,204.167 86.377,204.167 93.537 L 204.167 102.840 204.563 103.021 C 204.825 103.140,205.317 103.153,206.021 103.059 L 207.083 102.917 207.185 98.000 C 207.241 95.296,207.297 91.012,207.310 88.480 L 207.333 83.876 205.956 83.849 C 205.052 83.831,204.508 83.892,204.373 84.027 M379.167 84.000 C 379.029 84.089,378.747 84.163,378.539 84.164 L 378.161 84.167 378.194 93.562 L 378.227 102.957 379.322 103.061 C 379.924 103.118,383.989 103.165,388.355 103.165 C 397.271 103.167,396.722 103.252,396.635 101.888 L 396.583 101.083 389.019 101.047 C 384.858 101.026,381.437 100.989,381.415 100.963 C 381.393 100.938,381.332 97.147,381.279 92.540 C 381.227 87.932,381.138 84.089,381.082 83.998 C 380.951 83.787,379.495 83.788,379.167 84.000 M149.481 86.146 L 157.546 86.114 157.778 86.557 C 157.910 86.808,158.153 87.000,158.339 87.000 C 158.725 87.000,158.823 88.277,158.464 88.636 C 158.304 88.796,158.370 88.818,158.773 88.737 C 159.480 88.596,159.495 88.696,159.495 93.417 C 159.495 97.977,159.474 98.147,158.911 98.040 C 158.540 97.969,158.521 98.001,158.614 98.572 C 158.716 99.200,157.969 100.167,157.383 100.167 C 157.259 100.167,157.088 100.353,157.001 100.580 L 156.844 100.994 148.580 101.039 C 143.520 101.066,140.255 101.022,140.158 100.925 C 139.923 100.690,139.948 86.286,140.184 86.050 C 140.308 85.925,140.535 85.916,140.892 86.023 C 141.195 86.113,144.829 86.165,149.481 86.146 M325.945 86.953 C 326.039 87.354,326.227 87.643,326.463 87.748 C 326.734 87.868,326.833 88.055,326.833 88.445 C 326.833 88.846,326.956 89.065,327.333 89.333 C 327.613 89.532,327.833 89.841,327.833 90.034 C 327.833 90.223,328.021 90.552,328.250 90.765 C 328.479 90.977,328.667 91.302,328.667 91.486 C 328.667 91.671,328.817 91.902,329.000 92.000 C 329.226 92.121,329.334 92.351,329.336 92.714 C 329.339 93.368,329.481 93.607,329.917 93.695 C 330.193 93.751,330.245 93.882,330.218 94.465 C 330.190 95.099,330.225 95.167,330.577 95.167 C 330.865 95.167,331.015 95.304,331.150 95.689 C 331.250 95.977,331.463 96.312,331.624 96.434 C 331.870 96.620,330.919 96.662,325.708 96.691 C 322.294 96.710,319.331 96.732,319.125 96.738 C 318.623 96.754,318.648 96.374,319.167 96.112 C 319.516 95.936,319.575 95.804,319.529 95.291 C 319.482 94.758,319.529 94.666,319.888 94.576 C 320.193 94.499,320.329 94.325,320.407 93.912 C 320.471 93.568,320.634 93.313,320.830 93.251 C 321.052 93.180,321.163 92.966,321.199 92.533 C 321.236 92.080,321.350 91.873,321.630 91.750 C 321.893 91.635,322.040 91.392,322.109 90.958 C 322.164 90.615,322.269 90.333,322.343 90.333 C 322.610 90.333,323.000 89.800,323.000 89.435 C 323.000 89.229,323.188 88.897,323.417 88.698 C 323.646 88.499,323.833 88.181,323.833 87.992 C 323.833 87.761,323.996 87.593,324.332 87.475 C 324.794 87.314,324.908 86.752,324.561 86.349 C 324.529 86.311,324.585 86.182,324.685 86.061 C 325.008 85.672,325.772 86.213,325.945 86.953 M137.056 88.000 C 137.056 88.688,137.085 88.969,137.121 88.625 C 137.157 88.281,137.157 87.719,137.121 87.375 C 137.085 87.031,137.056 87.313,137.056 88.000 M137.056 91.333 C 137.056 92.021,137.085 92.302,137.121 91.958 C 137.157 91.615,137.157 91.052,137.121 90.708 C 137.085 90.365,137.056 90.646,137.056 91.333 M91.600 93.961 C 92.145 94.325,91.774 94.667,90.847 94.654 C 90.335 94.646,90.011 94.602,90.126 94.556 C 90.241 94.510,90.288 94.395,90.230 94.300 C 90.008 93.941,91.148 93.659,91.600 93.961 M94.266 93.961 C 94.367 94.028,94.448 94.215,94.447 94.375 C 94.444 94.750,92.923 94.807,92.781 94.437 C 92.595 93.953,93.717 93.593,94.266 93.961 M251.570 96.268 C 251.936 96.408,251.900 96.777,251.510 96.879 C 251.123 96.980,251.000 96.882,251.000 96.472 C 251.000 96.150,251.136 96.101,251.570 96.268 " stroke="none" fill="#fff" fill-rule="evenodd"></path>

<path id="path2" d="M5.226 3.694 C 4.939 3.791,4.619 4.055,4.517 4.280 C 4.255 4.854,4.260 61.324,4.522 61.898 C 4.809 62.528,4.336 62.520,38.049 62.505 C 73.174 62.490,70.515 62.568,72.417 61.498 C 72.931 61.209,73.633 60.986,74.250 60.917 C 74.923 60.841,75.750 60.561,76.778 60.062 C 78.333 59.308,78.817 58.915,79.948 57.492 C 80.297 57.052,80.742 56.618,80.936 56.526 C 81.131 56.435,81.506 56.007,81.770 55.576 C 82.034 55.144,82.467 54.580,82.733 54.323 C 83.042 54.024,83.262 53.597,83.343 53.136 C 83.522 52.125,83.960 51.004,84.404 50.417 C 84.899 49.763,85.047 48.918,84.989 47.083 C 84.932 45.310,84.933 45.045,85.000 43.083 C 85.056 41.438,84.967 40.998,84.420 40.250 C 84.220 39.975,83.889 39.302,83.686 38.755 C 83.483 38.207,83.143 37.532,82.932 37.255 C 82.721 36.977,82.385 36.430,82.186 36.039 C 81.986 35.647,81.490 35.014,81.083 34.631 C 80.224 33.822,80.224 33.870,81.123 31.535 C 81.480 30.609,81.963 29.705,82.327 29.285 C 83.106 28.385,83.815 26.911,83.984 25.839 C 84.057 25.376,84.237 24.866,84.382 24.705 C 85.381 23.601,85.401 17.398,84.412 15.250 C 84.201 14.792,83.901 13.952,83.745 13.384 C 83.545 12.658,83.244 12.097,82.731 11.495 C 82.329 11.025,82.000 10.544,82.000 10.428 C 82.000 10.240,81.655 9.854,80.708 8.982 C 80.548 8.835,80.164 8.438,79.855 8.101 C 79.546 7.763,79.024 7.284,78.694 7.035 C 78.364 6.787,77.961 6.452,77.797 6.292 C 77.634 6.131,77.392 6.000,77.261 6.000 C 77.129 6.000,76.548 5.677,75.969 5.282 C 74.694 4.412,74.520 4.340,73.250 4.148 C 70.309 3.703,67.842 3.670,38.250 3.677 C 21.200 3.681,6.912 3.646,6.500 3.600 C 6.087 3.554,5.514 3.596,5.226 3.694 M158.264 3.625 C 158.241 3.648,149.003 3.695,137.736 3.730 C 124.856 3.770,117.095 3.854,116.833 3.957 C 116.604 4.047,116.065 4.173,115.636 4.236 C 115.206 4.299,114.568 4.546,114.219 4.785 C 113.423 5.330,111.752 6.087,111.057 6.219 C 109.804 6.457,105.518 11.005,105.506 12.111 C 105.503 12.401,105.200 13.205,104.833 13.897 C 104.330 14.846,104.167 15.346,104.167 15.933 C 104.167 16.682,104.108 16.979,103.560 19.000 C 103.280 20.031,103.282 19.888,103.309 33.250 C 103.321 39.287,103.395 43.115,103.510 43.750 C 103.610 44.300,103.744 45.913,103.809 47.333 C 103.917 49.711,103.961 49.976,104.365 50.667 C 104.607 51.079,105.009 52.017,105.259 52.750 C 105.509 53.483,106.016 54.533,106.384 55.083 C 106.753 55.633,107.212 56.321,107.403 56.611 C 107.594 56.902,107.902 57.211,108.088 57.299 C 108.483 57.486,109.178 58.044,109.902 58.755 C 110.463 59.306,110.896 59.539,111.917 59.840 C 112.283 59.948,112.828 60.176,113.127 60.347 C 114.467 61.113,115.741 61.467,117.554 61.579 C 119.759 61.715,119.860 61.734,120.439 62.113 C 121.131 62.567,165.029 62.587,166.500 62.135 C 168.025 61.665,168.762 61.500,169.329 61.500 C 169.626 61.500,170.292 61.394,170.809 61.264 C 171.327 61.134,172.142 60.977,172.621 60.916 C 173.427 60.811,174.361 60.283,174.917 59.617 C 175.307 59.148,176.323 58.516,176.961 58.344 C 177.739 58.134,179.709 56.021,180.350 54.709 C 180.540 54.320,180.761 53.962,180.840 53.913 C 180.920 53.863,181.036 53.371,181.098 52.817 C 181.161 52.264,181.296 51.721,181.398 51.610 C 181.500 51.499,181.846 51.035,182.167 50.579 L 182.750 49.750 182.702 47.250 C 182.660 45.061,182.702 44.573,183.039 43.333 L 183.424 41.917 183.293 34.667 C 183.146 26.521,183.132 24.828,183.193 22.917 C 183.218 22.129,183.085 20.663,182.868 19.333 C 182.667 18.096,182.501 16.882,182.501 16.635 C 182.499 15.371,180.979 11.683,179.825 10.139 C 178.868 8.860,177.164 7.167,176.832 7.167 C 176.664 7.167,176.291 6.969,176.003 6.727 C 175.716 6.485,175.242 6.163,174.949 6.011 C 174.656 5.858,174.267 5.654,174.083 5.556 C 172.273 4.590,171.537 4.333,170.577 4.333 C 170.023 4.333,169.130 4.219,168.592 4.079 C 168.054 3.938,166.707 3.782,165.598 3.730 C 163.426 3.630,158.332 3.557,158.264 3.625 M203.417 3.690 C 202.775 3.774,201.531 3.798,200.653 3.743 C 197.395 3.541,196.555 3.857,197.192 5.047 C 197.297 5.244,197.514 5.896,197.672 6.494 C 198.043 7.896,198.588 9.302,198.894 9.646 C 199.026 9.795,199.224 10.254,199.333 10.667 C 199.443 11.079,199.638 11.616,199.766 11.859 C 199.895 12.102,200.000 12.486,200.000 12.711 C 200.000 12.936,200.175 13.378,200.390 13.694 C 200.604 14.010,200.825 14.553,200.882 14.902 C 200.939 15.250,201.138 15.830,201.326 16.189 C 201.513 16.549,201.667 16.952,201.667 17.084 C 201.667 17.217,201.880 17.796,202.141 18.371 C 202.401 18.946,202.700 19.762,202.804 20.184 C 202.907 20.606,203.414 21.802,203.929 22.843 C 204.444 23.884,204.965 25.213,205.087 25.797 C 205.210 26.384,205.575 27.305,205.905 27.858 C 206.232 28.407,206.502 29.058,206.505 29.304 C 206.508 29.549,206.621 29.896,206.755 30.074 C 206.890 30.251,207.000 30.703,207.000 31.076 C 207.000 31.528,207.141 31.963,207.420 32.374 C 207.651 32.714,207.888 33.238,207.947 33.538 C 208.006 33.838,208.147 34.233,208.261 34.417 C 208.375 34.600,208.520 35.087,208.583 35.500 C 208.647 35.912,209.029 36.877,209.433 37.644 C 209.836 38.410,210.167 39.160,210.168 39.310 C 210.169 39.766,210.500 40.809,210.715 41.036 C 211.020 41.359,211.500 42.467,211.500 42.847 C 211.500 43.032,211.602 43.386,211.728 43.633 C 211.853 43.881,212.009 44.379,212.075 44.741 C 212.140 45.102,212.386 45.777,212.621 46.241 C 213.101 47.187,213.999 49.344,213.999 49.552 C 214.000 49.627,214.188 50.098,214.417 50.599 C 214.646 51.100,214.833 51.643,214.833 51.805 C 214.833 51.967,214.906 52.173,214.996 52.262 C 215.327 52.594,216.949 57.345,217.238 58.833 C 217.283 59.063,217.435 59.400,217.576 59.583 C 218.127 60.298,218.720 61.271,218.874 61.712 C 219.145 62.489,219.472 62.552,223.078 62.527 C 227.868 62.494,228.983 62.405,229.403 62.024 C 229.594 61.850,229.918 61.621,230.124 61.515 C 230.330 61.409,230.668 60.993,230.874 60.591 C 232.385 57.647,232.667 56.973,232.667 56.295 C 232.667 55.824,232.834 55.273,233.160 54.667 C 233.431 54.163,233.656 53.655,233.660 53.538 C 233.664 53.422,233.967 52.692,234.333 51.917 C 234.700 51.141,235.000 50.407,235.000 50.286 C 235.000 50.165,235.195 49.673,235.434 49.194 C 235.807 48.445,236.254 47.044,236.611 45.500 C 236.664 45.271,236.922 44.856,237.185 44.578 C 237.486 44.259,237.721 43.768,237.824 43.245 C 237.987 42.417,238.899 39.629,239.123 39.272 C 239.237 39.092,239.449 38.545,240.193 36.510 C 240.376 36.012,240.664 35.427,240.834 35.211 C 241.004 34.995,241.194 34.577,241.256 34.284 C 241.525 33.005,242.127 31.467,242.606 30.833 C 242.709 30.696,242.872 30.171,242.966 29.667 C 243.199 28.424,243.607 27.369,244.065 26.824 C 244.278 26.571,244.544 25.904,244.668 25.311 C 244.790 24.727,244.981 24.100,245.092 23.917 C 245.203 23.733,245.345 23.363,245.408 23.093 C 245.471 22.824,245.667 22.400,245.844 22.151 C 246.022 21.902,246.167 21.559,246.167 21.389 C 246.167 20.788,246.833 19.245,247.251 18.880 C 248.283 17.977,250.521 19.787,250.902 21.833 C 251.135 23.083,251.602 24.221,252.122 24.805 C 252.422 25.142,252.666 25.520,252.667 25.647 C 252.667 25.774,252.808 26.111,252.980 26.397 C 253.152 26.683,253.342 27.217,253.403 27.583 C 253.464 27.950,253.735 28.700,254.006 29.250 C 254.278 29.800,254.618 30.775,254.763 31.417 C 254.908 32.058,255.285 33.108,255.599 33.750 C 255.914 34.392,256.173 35.067,256.175 35.250 C 256.177 35.433,256.286 35.771,256.417 36.000 C 256.548 36.229,256.658 36.649,256.661 36.933 C 256.664 37.220,256.806 37.574,256.980 37.732 C 257.153 37.889,257.407 38.331,257.544 38.716 C 258.052 40.139,258.500 41.614,258.500 41.864 C 258.500 42.005,258.725 42.404,259.000 42.750 C 259.399 43.252,259.500 43.541,259.500 44.180 C 259.500 44.620,259.574 45.026,259.664 45.082 C 259.755 45.138,259.945 45.583,260.087 46.071 C 260.229 46.559,260.488 47.088,260.663 47.247 C 260.838 47.405,261.032 47.771,261.093 48.059 C 261.155 48.347,261.281 48.678,261.374 48.793 C 261.468 48.909,261.606 49.335,261.681 49.740 C 261.814 50.451,262.149 51.316,262.493 51.833 C 262.856 52.381,263.337 53.638,263.570 54.652 C 263.705 55.239,263.885 55.764,263.968 55.818 C 264.244 55.997,264.626 56.903,264.818 57.836 C 264.922 58.342,265.118 58.969,265.254 59.230 C 265.389 59.491,265.500 59.809,265.500 59.937 C 265.500 60.065,265.706 60.392,265.958 60.663 C 266.210 60.935,266.653 61.412,266.942 61.723 C 267.579 62.410,269.180 62.796,270.470 62.575 C 270.899 62.501,272.525 62.435,274.083 62.428 C 277.656 62.412,278.504 62.062,278.960 60.417 C 279.560 58.248,279.727 57.785,280.059 57.373 C 280.557 56.754,280.970 55.495,281.151 54.049 C 281.243 53.309,281.430 52.665,281.639 52.373 C 282.170 51.627,283.000 49.956,283.000 49.633 C 283.000 49.236,283.504 48.000,283.667 48.000 C 283.738 48.000,283.962 47.381,284.163 46.625 C 284.365 45.869,284.778 44.688,285.082 44.000 C 285.385 43.313,285.688 42.487,285.754 42.167 C 285.820 41.846,286.005 41.321,286.164 41.000 C 286.324 40.679,286.504 40.146,286.564 39.815 C 286.624 39.483,286.819 39.081,286.996 38.920 C 287.357 38.594,287.918 37.034,288.256 35.415 C 288.379 34.828,288.631 34.138,288.816 33.882 C 289.001 33.626,289.384 32.710,289.668 31.847 C 289.951 30.984,290.321 30.084,290.490 29.847 C 290.658 29.610,291.040 28.479,291.338 27.333 C 291.635 26.188,291.970 25.175,292.081 25.083 C 292.423 24.800,292.780 23.973,293.160 22.583 C 293.360 21.850,293.674 21.039,293.858 20.781 C 294.041 20.524,294.280 19.886,294.388 19.365 C 294.495 18.843,294.752 18.145,294.958 17.814 C 295.165 17.482,295.333 17.100,295.333 16.964 C 295.333 16.829,295.473 16.592,295.643 16.438 C 295.872 16.230,295.982 15.813,296.064 14.830 C 296.199 13.206,296.362 12.750,297.073 12.000 C 297.377 11.679,297.668 11.229,297.718 11.000 C 297.975 9.836,298.730 7.524,298.996 7.083 C 300.196 5.101,299.757 3.844,297.856 3.812 C 293.357 3.735,291.437 3.858,290.578 4.276 C 289.660 4.724,289.621 4.789,288.934 6.995 C 288.692 7.772,288.315 8.672,288.095 8.995 C 287.876 9.319,287.496 10.333,287.252 11.250 C 287.007 12.167,286.626 13.230,286.404 13.613 C 286.182 13.996,286.000 14.411,286.000 14.536 C 286.000 14.661,285.850 15.057,285.667 15.417 C 285.483 15.776,285.333 16.148,285.333 16.244 C 285.333 16.339,285.104 16.901,284.824 17.493 C 284.544 18.084,284.234 18.947,284.135 19.409 C 284.036 19.872,283.815 20.511,283.644 20.831 C 283.473 21.150,283.333 21.496,283.333 21.600 C 283.333 21.704,283.191 21.969,283.018 22.189 C 282.734 22.551,281.833 25.745,281.833 26.392 C 281.833 26.537,281.624 26.901,281.368 27.203 C 280.789 27.885,280.500 28.539,280.500 29.168 C 280.500 30.019,279.967 31.462,279.574 31.672 C 279.363 31.785,279.126 32.158,279.011 32.558 C 278.707 33.615,278.005 35.532,277.743 36.019 C 277.614 36.258,277.459 36.896,277.400 37.435 C 277.299 38.342,276.512 39.934,276.010 40.244 C 275.929 40.294,275.809 40.653,275.743 41.043 C 275.512 42.414,274.839 44.361,274.429 44.849 C 274.200 45.121,273.967 45.622,273.910 45.963 C 273.753 46.912,273.710 46.988,273.213 47.203 C 272.958 47.314,272.542 47.572,272.287 47.778 C 271.741 48.220,271.372 48.132,271.222 47.523 C 271.163 47.281,270.901 46.822,270.641 46.504 C 270.380 46.185,270.167 45.837,270.167 45.730 C 270.167 45.623,270.050 45.491,269.908 45.437 C 269.610 45.322,268.972 43.940,268.692 42.798 C 268.585 42.366,268.315 41.742,268.091 41.413 C 267.624 40.723,267.246 39.484,267.106 38.177 C 267.038 37.550,266.827 36.976,266.421 36.318 C 266.098 35.795,265.833 35.209,265.833 35.017 C 265.833 34.824,265.767 34.667,265.687 34.667 C 265.477 34.667,265.210 33.882,265.096 32.929 C 265.042 32.477,264.895 31.990,264.768 31.846 C 264.316 31.331,263.714 29.899,263.502 28.833 C 263.383 28.238,263.155 27.600,262.995 27.417 C 262.426 26.764,261.976 25.621,261.758 24.271 C 261.607 23.340,261.397 22.697,261.102 22.261 C 260.862 21.908,260.667 21.515,260.667 21.388 C 260.667 21.260,260.564 20.989,260.439 20.786 C 260.314 20.583,260.117 20.042,260.002 19.583 C 259.887 19.125,259.614 18.379,259.396 17.926 C 259.178 17.472,259.000 16.981,259.000 16.834 C 259.000 16.687,258.919 16.486,258.820 16.387 C 258.721 16.288,258.567 15.879,258.477 15.478 C 258.387 15.078,258.102 14.412,257.844 14.000 C 257.585 13.588,257.324 12.912,257.263 12.500 C 257.076 11.236,256.347 9.148,255.912 8.631 C 255.685 8.361,255.500 8.016,255.500 7.863 C 255.500 7.240,254.596 4.885,254.188 4.443 C 253.394 3.586,253.149 3.535,250.417 3.672 C 248.795 3.753,247.638 3.735,247.125 3.620 C 246.547 3.491,246.105 3.496,245.487 3.638 C 245.022 3.745,244.364 3.833,244.024 3.833 C 243.325 3.833,242.674 4.428,242.347 5.365 C 242.244 5.661,242.013 6.059,241.834 6.249 C 241.655 6.440,241.284 7.373,241.011 8.321 C 240.738 9.270,240.376 10.204,240.206 10.398 C 239.743 10.925,239.500 11.603,239.500 12.365 C 239.500 12.740,239.360 13.355,239.188 13.732 C 238.319 15.639,237.988 16.481,237.849 17.137 C 237.765 17.533,237.577 17.989,237.432 18.150 C 237.286 18.311,237.167 18.625,237.167 18.847 C 237.167 19.069,236.904 19.620,236.583 20.072 C 236.262 20.523,235.998 21.010,235.996 21.154 C 235.984 21.891,235.182 24.546,234.871 24.877 C 234.679 25.082,234.481 25.475,234.431 25.750 C 234.229 26.869,234.113 27.266,233.895 27.579 C 233.770 27.760,233.667 28.031,233.667 28.181 C 233.667 28.332,233.511 28.653,233.321 28.895 C 232.952 29.364,232.303 30.883,231.888 32.250 C 231.749 32.708,231.493 33.315,231.321 33.598 C 231.148 33.881,230.904 34.594,230.779 35.181 C 230.655 35.769,230.274 36.800,229.934 37.472 C 229.593 38.145,229.163 39.304,228.978 40.049 C 228.615 41.507,228.454 41.898,228.001 42.417 C 227.700 42.761,227.082 44.435,226.843 45.553 C 226.391 47.669,223.326 48.242,222.828 46.304 C 222.564 45.278,222.118 44.085,221.903 43.833 C 221.620 43.500,221.253 42.393,220.824 40.576 C 220.592 39.593,220.281 38.795,219.914 38.239 C 219.578 37.731,219.213 36.835,218.997 35.989 C 218.800 35.216,218.551 34.479,218.444 34.351 C 218.337 34.223,218.089 33.660,217.892 33.101 C 217.695 32.541,217.401 31.708,217.239 31.250 C 217.076 30.792,216.806 30.238,216.638 30.019 C 216.471 29.801,216.333 29.411,216.333 29.153 C 216.333 28.895,216.146 28.332,215.917 27.901 C 215.688 27.470,215.500 26.914,215.500 26.667 C 215.500 26.419,215.324 25.886,215.110 25.482 C 214.895 25.079,214.622 24.449,214.503 24.083 C 214.383 23.716,214.184 23.269,214.060 23.088 C 213.935 22.907,213.833 22.621,213.833 22.452 C 213.833 22.109,213.383 20.921,212.682 19.417 C 212.426 18.867,212.084 17.969,211.922 17.422 C 211.759 16.875,211.530 16.275,211.411 16.089 C 211.293 15.902,211.036 15.188,210.840 14.500 C 210.644 13.813,210.417 13.100,210.335 12.917 C 210.253 12.733,210.138 12.340,210.080 12.042 C 210.021 11.744,209.907 11.500,209.825 11.500 C 209.743 11.500,209.551 11.069,209.398 10.542 C 209.244 10.015,209.026 9.433,208.913 9.250 C 208.799 9.067,208.660 8.604,208.603 8.223 C 208.547 7.841,208.313 7.155,208.084 6.698 C 207.854 6.242,207.667 5.761,207.667 5.629 C 207.667 5.305,206.683 3.840,206.443 3.807 C 206.337 3.793,206.063 3.764,205.833 3.744 C 205.604 3.723,205.229 3.668,205.000 3.622 C 204.771 3.576,204.058 3.606,203.417 3.690 M327.083 3.856 C 326.625 3.915,325.912 4.083,325.500 4.229 C 325.087 4.375,324.589 4.496,324.392 4.498 C 324.195 4.499,323.595 4.803,323.058 5.172 C 322.522 5.542,321.633 6.138,321.083 6.495 C 319.316 7.644,318.835 8.068,318.430 8.833 C 318.212 9.246,317.844 9.759,317.613 9.975 C 317.382 10.190,317.103 10.584,316.993 10.850 C 316.883 11.116,316.728 11.333,316.649 11.333 C 316.521 11.333,316.325 11.656,315.298 13.555 C 315.095 13.931,314.961 14.809,314.838 16.584 C 314.742 17.958,314.604 19.496,314.532 20.000 C 314.460 20.504,314.460 26.842,314.533 34.083 C 314.605 41.325,314.629 50.325,314.585 54.083 C 314.478 63.274,314.103 62.494,318.633 62.498 L 321.516 62.500 321.925 62.059 C 322.149 61.816,322.339 61.498,322.345 61.351 C 322.351 61.204,322.386 59.053,322.421 56.572 C 322.494 51.474,322.656 50.634,323.612 50.395 C 323.866 50.331,324.189 50.137,324.329 49.964 C 324.803 49.379,325.850 49.358,354.482 49.344 C 387.080 49.328,386.500 49.306,386.500 50.585 C 386.500 50.786,386.674 51.139,386.886 51.368 C 387.267 51.779,387.272 51.833,387.308 56.327 C 387.357 62.591,387.258 62.449,391.669 62.576 C 395.589 62.689,396.111 62.168,395.834 58.417 C 395.780 57.683,395.760 56.146,395.790 55.000 C 395.865 52.082,395.865 52.733,395.792 33.833 L 395.726 16.750 395.287 15.895 C 395.046 15.425,394.763 14.675,394.658 14.229 C 394.553 13.782,394.370 13.192,394.252 12.917 C 394.134 12.642,393.981 12.229,393.912 12.000 C 393.844 11.771,393.629 11.382,393.436 11.135 C 393.242 10.889,392.823 10.327,392.504 9.885 C 391.852 8.983,391.508 8.593,390.668 7.800 C 390.348 7.497,389.849 7.010,389.561 6.716 C 388.921 6.064,388.086 5.580,387.322 5.419 C 387.007 5.353,386.552 5.113,386.310 4.886 C 385.824 4.429,384.959 4.177,383.864 4.171 C 383.468 4.168,383.005 4.092,382.835 4.001 C 382.488 3.815,328.500 3.676,327.083 3.856 M130.250 11.454 C 131.500 11.321,164.972 11.488,166.083 11.634 C 168.659 11.971,170.615 12.750,171.833 13.925 C 172.246 14.322,172.784 14.723,173.030 14.815 C 173.607 15.032,174.140 16.200,174.368 17.750 C 174.463 18.392,174.685 19.157,174.862 19.450 C 175.325 20.218,175.588 23.611,175.324 25.417 C 175.171 26.466,175.178 40.940,175.333 42.417 C 175.370 42.770,174.845 45.668,174.692 45.953 C 174.603 46.118,174.491 46.590,174.441 47.002 C 174.296 48.210,173.522 49.998,172.930 50.489 C 172.785 50.609,172.667 50.804,172.667 50.923 C 172.667 51.249,171.500 52.105,170.789 52.301 C 170.444 52.397,169.936 52.665,169.659 52.897 C 169.383 53.130,168.879 53.372,168.540 53.436 C 168.201 53.499,167.697 53.690,167.420 53.860 C 166.616 54.354,121.194 54.323,119.616 53.828 C 119.048 53.650,118.482 53.503,118.359 53.502 C 118.236 53.501,117.903 53.335,117.620 53.133 C 117.337 52.932,116.988 52.756,116.844 52.742 C 114.940 52.561,112.735 50.093,112.421 47.792 C 112.360 47.346,112.147 46.801,111.933 46.542 C 111.547 46.076,111.133 45.089,111.268 44.955 C 111.308 44.914,111.321 40.351,111.296 34.815 C 111.224 18.940,111.243 18.500,112.007 18.500 C 112.082 18.500,112.236 18.069,112.349 17.542 C 112.558 16.574,113.137 15.363,113.686 14.750 C 115.813 12.374,117.169 11.850,121.612 11.687 C 123.186 11.629,124.520 11.535,124.577 11.479 C 124.634 11.422,125.858 11.401,127.298 11.433 C 128.738 11.464,130.067 11.474,130.250 11.454 M70.903 12.249 C 71.435 12.569,72.180 12.919,72.560 13.027 C 73.183 13.204,73.995 13.858,75.583 15.459 C 77.527 17.419,76.742 26.000,74.619 26.000 C 74.492 26.000,74.058 26.308,73.653 26.685 C 71.573 28.621,74.463 28.458,41.897 28.472 L 15.045 28.484 14.034 27.748 C 12.754 26.817,12.802 27.142,12.871 19.833 C 12.937 12.899,13.062 12.318,14.583 11.850 C 14.879 11.760,26.303 11.691,42.510 11.682 L 69.936 11.667 70.903 12.249 M381.141 12.034 C 381.723 12.179,382.281 12.381,382.383 12.483 C 382.484 12.584,382.707 12.667,382.878 12.667 C 383.363 12.667,384.524 13.550,385.158 14.400 C 385.474 14.824,385.904 15.284,386.115 15.422 C 387.153 16.102,387.365 18.434,387.327 28.750 C 387.313 32.783,387.355 36.812,387.423 37.702 L 387.545 39.320 387.122 39.513 C 386.890 39.618,386.564 40.007,386.397 40.377 C 385.777 41.752,388.768 41.637,355.863 41.553 C 339.759 41.512,326.181 41.483,325.689 41.489 C 324.749 41.501,324.667 41.446,322.692 39.468 C 322.433 39.209,322.412 38.390,322.437 29.457 C 322.465 19.393,322.529 18.317,323.166 17.250 C 323.330 16.975,323.512 16.521,323.572 16.240 C 323.756 15.367,325.963 13.229,327.000 12.919 C 327.229 12.851,327.591 12.635,327.805 12.439 C 328.631 11.682,328.105 11.696,354.750 11.733 C 377.277 11.765,380.200 11.798,381.141 12.034 M71.190 37.426 C 71.615 37.606,72.211 37.959,72.514 38.210 C 72.816 38.461,73.148 38.667,73.251 38.667 C 73.353 38.667,73.604 38.892,73.807 39.167 C 74.010 39.442,74.285 39.667,74.418 39.667 C 74.550 39.667,74.904 39.940,75.204 40.273 C 75.504 40.607,75.838 40.971,75.946 41.082 C 77.391 42.575,76.736 49.616,75.069 50.508 C 74.857 50.621,74.639 50.832,74.583 50.977 C 74.375 51.521,73.407 52.657,73.148 52.662 C 73.000 52.664,72.592 52.895,72.241 53.174 C 71.713 53.593,71.456 53.680,70.760 53.671 C 70.296 53.666,69.467 53.735,68.917 53.824 C 68.150 53.948,30.176 54.121,17.660 54.057 C 16.541 54.051,15.945 53.949,14.871 53.576 L 13.505 53.102 13.225 52.259 C 12.985 51.536,12.943 50.558,12.931 45.333 C 12.911 36.852,12.675 37.235,18.037 37.036 C 25.865 36.745,70.356 37.071,71.190 37.426 " stroke="none" fill="#fa7404" fill-rule="evenodd"></path>



<path id="path4" d="M257.708 82.115 C 257.869 82.157,258.131 82.157,258.292 82.115 C 258.452 82.073,258.321 82.039,258.000 82.039 C 257.679 82.039,257.548 82.073,257.708 82.115 M260.708 82.115 C 260.869 82.157,261.131 82.157,261.292 82.115 C 261.452 82.073,261.321 82.039,261.000 82.039 C 260.679 82.039,260.548 82.073,260.708 82.115 M264.542 82.115 C 264.702 82.157,264.965 82.157,265.125 82.115 C 265.285 82.073,265.154 82.039,264.833 82.039 C 264.512 82.039,264.381 82.073,264.542 82.115 M2.973 83.738 C 3.004 84.236,2.944 84.780,2.840 84.947 C 2.675 85.211,2.663 85.196,2.749 84.833 L 2.847 84.417 2.623 84.797 C 2.500 85.006,2.346 85.138,2.282 85.090 C 2.217 85.042,2.221 85.070,2.290 85.152 C 2.360 85.234,2.567 85.337,2.750 85.381 C 2.984 85.438,2.935 85.468,2.583 85.483 C 2.211 85.500,2.145 85.544,2.325 85.658 C 2.458 85.742,2.619 85.779,2.683 85.740 C 2.746 85.701,2.840 85.777,2.891 85.910 C 2.967 86.108,2.904 86.122,2.551 85.988 C 2.193 85.852,2.150 85.862,2.305 86.049 C 2.444 86.217,2.440 86.327,2.288 86.481 C 2.125 86.645,2.176 86.653,2.535 86.517 L 2.987 86.346 2.976 94.132 C 2.969 98.413,2.906 101.692,2.835 101.417 L 2.706 100.917 2.686 101.425 C 2.676 101.705,2.739 102.006,2.828 102.094 C 2.916 102.183,3.010 102.687,3.036 103.215 L 3.083 104.175 4.750 104.129 L 6.417 104.083 6.419 96.167 L 6.422 88.250 6.376 95.575 C 6.341 101.178,6.281 102.930,6.123 103.030 C 5.758 103.262,3.712 103.188,3.457 102.933 C 3.197 102.674,3.239 84.223,3.500 83.943 C 3.968 83.441,8.000 83.866,8.000 84.418 C 8.000 84.533,8.150 84.667,8.333 84.715 C 8.536 84.768,8.667 84.942,8.667 85.160 C 8.667 85.407,8.821 85.571,9.167 85.692 C 9.610 85.846,9.667 85.942,9.667 86.532 C 9.667 87.034,9.741 87.217,9.968 87.277 C 10.133 87.320,10.349 87.569,10.448 87.830 C 10.563 88.135,10.768 88.325,11.022 88.361 C 11.297 88.400,11.434 88.543,11.472 88.833 C 11.546 89.385,11.731 89.555,12.122 89.431 C 12.576 89.287,12.532 88.833,12.065 88.833 C 11.730 88.833,11.679 88.740,11.634 88.042 C 11.588 87.317,11.545 87.246,11.125 87.197 C 10.765 87.156,10.667 87.058,10.667 86.739 C 10.667 86.417,10.580 86.333,10.250 86.333 C 9.861 86.333,9.833 86.278,9.833 85.503 C 9.833 84.757,9.791 84.662,9.417 84.568 C 9.118 84.493,9.000 84.351,9.000 84.065 C 9.000 83.751,8.912 83.667,8.583 83.667 C 8.250 83.667,8.167 83.583,8.167 83.250 L 8.167 82.833 5.542 82.833 L 2.917 82.833 2.973 83.738 M29.778 82.944 C 29.717 83.006,29.667 83.291,29.667 83.578 C 29.667 84.167,29.405 84.517,29.063 84.386 C 28.906 84.326,28.833 84.428,28.833 84.709 C 28.833 85.308,29.635 85.140,29.860 84.494 C 30.060 83.922,30.674 83.774,32.667 83.816 C 34.859 83.863,34.667 82.922,34.667 93.592 L 34.667 102.648 34.296 102.907 C 33.868 103.207,33.284 103.241,32.822 102.994 C 32.510 102.827,32.500 102.560,32.500 94.754 C 32.500 89.803,32.438 86.648,32.341 86.588 C 31.960 86.352,31.000 86.971,31.000 87.451 C 31.000 87.727,30.873 87.999,30.690 88.113 C 30.520 88.220,30.335 88.532,30.280 88.808 C 30.209 89.165,30.070 89.324,29.798 89.363 C 29.518 89.402,29.402 89.544,29.362 89.894 C 29.329 90.184,29.189 90.402,29.006 90.450 C 28.807 90.502,28.670 90.748,28.602 91.170 C 28.522 91.669,28.417 91.822,28.125 91.863 C 27.838 91.904,27.738 92.043,27.698 92.458 C 27.660 92.851,27.562 93.000,27.344 93.000 C 27.121 93.000,27.015 93.174,26.935 93.672 C 26.852 94.190,26.729 94.381,26.398 94.507 C 26.161 94.597,25.929 94.817,25.883 94.996 C 25.836 95.176,25.655 95.367,25.482 95.422 C 25.301 95.480,25.166 95.677,25.164 95.886 C 25.161 96.330,25.005 96.575,24.641 96.709 C 24.489 96.765,24.317 97.031,24.258 97.299 C 24.192 97.599,23.985 97.863,23.721 97.983 C 23.347 98.153,23.304 98.253,23.385 98.756 C 23.471 99.282,23.443 99.333,23.073 99.333 C 22.778 99.333,22.667 99.425,22.667 99.667 C 22.667 99.926,22.778 100.000,23.167 100.000 C 23.585 100.000,23.667 99.934,23.667 99.595 C 23.667 99.302,23.770 99.175,24.041 99.137 C 24.308 99.098,24.439 98.941,24.501 98.583 C 24.563 98.224,24.681 98.083,24.919 98.083 C 25.196 98.083,25.258 97.954,25.301 97.292 C 25.347 96.577,25.391 96.500,25.759 96.500 C 26.080 96.500,26.167 96.413,26.167 96.095 C 26.167 95.802,26.270 95.675,26.542 95.637 C 26.862 95.591,26.924 95.467,26.967 94.792 C 27.013 94.077,27.058 94.000,27.426 94.000 C 27.749 94.000,27.833 93.914,27.833 93.583 C 27.833 93.293,27.924 93.167,28.133 93.167 C 28.615 93.167,28.833 92.818,28.833 92.050 C 28.833 91.444,28.885 91.333,29.167 91.333 C 29.481 91.333,29.571 91.174,29.515 90.720 C 29.502 90.612,29.699 90.499,29.954 90.470 C 30.377 90.421,30.421 90.351,30.467 89.642 C 30.514 88.920,30.916 88.472,31.234 88.790 C 31.282 88.837,31.325 92.185,31.330 96.230 C 31.335 100.591,31.402 103.605,31.493 103.636 C 31.578 103.665,31.607 103.796,31.556 103.927 C 31.506 104.059,31.542 104.167,31.637 104.167 C 31.731 104.167,31.843 104.035,31.885 103.875 C 31.958 103.597,31.962 103.597,31.981 103.875 C 32.007 104.265,35.042 104.315,35.426 103.931 C 35.801 103.556,35.776 83.078,35.401 82.934 C 35.043 82.796,29.916 82.806,29.778 82.944 M76.375 83.042 C 76.398 83.156,76.323 83.231,76.208 83.208 C 75.917 83.150,75.947 83.749,76.248 83.998 C 76.507 84.214,76.425 84.577,76.155 84.410 C 76.065 84.354,76.000 84.806,76.000 85.490 C 76.000 86.670,76.052 86.762,76.680 86.696 C 76.733 86.690,76.789 87.286,76.804 88.019 C 76.824 88.968,76.778 89.319,76.645 89.237 C 76.526 89.163,76.491 88.806,76.548 88.246 C 76.627 87.487,76.602 87.381,76.361 87.444 C 75.899 87.565,75.956 90.119,76.422 90.237 C 76.723 90.312,76.985 91.017,76.698 90.977 C 76.071 90.888,76.000 91.000,76.000 92.083 C 76.000 92.906,76.057 93.167,76.236 93.167 C 76.428 93.167,76.437 93.258,76.283 93.664 C 76.136 94.054,76.143 94.208,76.316 94.373 C 76.498 94.545,76.519 94.522,76.435 94.241 C 76.378 94.053,76.432 93.762,76.555 93.594 C 76.756 93.319,76.778 93.349,76.778 93.898 C 76.778 94.398,76.708 94.525,76.389 94.605 C 75.958 94.713,75.891 94.982,76.208 95.324 C 76.375 95.504,76.375 95.525,76.208 95.431 C 76.070 95.353,76.000 95.433,76.000 95.667 C 76.000 95.901,76.070 95.980,76.208 95.902 C 76.375 95.808,76.375 95.829,76.208 96.009 C 75.858 96.386,75.915 102.000,76.269 102.000 C 76.517 102.000,76.517 102.033,76.269 102.411 C 75.970 102.867,75.905 103.411,76.169 103.248 C 76.263 103.191,76.307 103.092,76.267 103.028 C 76.228 102.965,76.312 102.764,76.454 102.581 C 76.663 102.313,76.692 102.305,76.611 102.542 C 76.554 102.707,76.592 102.833,76.700 102.833 C 76.804 102.833,76.844 102.879,76.788 102.934 C 76.733 102.989,76.753 103.205,76.832 103.413 C 76.924 103.656,76.908 103.858,76.788 103.979 C 76.501 104.266,96.349 104.245,96.658 103.958 C 96.781 103.844,96.837 103.831,96.782 103.931 C 96.727 104.030,96.794 104.111,96.931 104.111 C 97.069 104.111,97.144 104.015,97.099 103.897 C 97.044 103.754,97.110 103.719,97.300 103.790 C 97.556 103.886,97.559 103.866,97.333 103.583 C 97.169 103.376,97.158 103.314,97.301 103.400 C 97.473 103.504,97.511 103.253,97.486 102.182 L 97.453 100.833 88.893 100.833 C 80.418 100.833,80.333 100.830,80.333 100.497 C 80.333 100.164,80.417 100.161,88.188 100.170 C 92.508 100.175,96.080 100.142,96.126 100.096 C 96.172 100.050,92.606 100.008,88.200 100.003 C 80.322 99.994,80.189 100.000,80.085 100.329 C 79.874 100.992,79.966 101.000,88.060 101.000 C 93.961 101.000,95.983 101.050,96.133 101.200 C 96.471 101.538,96.385 102.794,96.011 102.994 C 95.520 103.257,77.630 103.230,77.367 102.967 C 77.155 102.755,77.060 84.639,77.268 84.097 C 77.358 83.861,78.343 83.833,86.676 83.833 C 97.244 83.833,96.375 83.700,96.210 85.296 L 96.118 86.190 96.767 86.137 L 97.417 86.083 97.466 84.835 C 97.494 84.149,97.473 83.416,97.421 83.206 L 97.325 82.825 87.167 82.838 C 81.580 82.846,76.974 82.907,76.932 82.975 C 76.890 83.042,76.833 83.519,76.805 84.034 C 76.777 84.549,76.691 84.932,76.615 84.885 C 76.539 84.838,76.522 84.684,76.576 84.543 C 76.630 84.402,76.558 84.109,76.417 83.893 C 76.275 83.677,76.233 83.500,76.324 83.500 C 76.414 83.500,76.569 83.350,76.667 83.167 C 76.809 82.901,76.793 82.833,76.589 82.833 C 76.448 82.833,76.352 82.927,76.375 83.042 M137.037 93.542 L 136.991 104.167 147.001 104.167 C 156.847 104.167,157.009 104.161,156.839 103.844 C 156.602 103.401,156.615 103.367,157.042 103.284 C 157.248 103.245,153.177 103.202,147.995 103.189 C 139.763 103.170,138.527 103.134,138.204 102.907 L 137.833 102.648 137.833 93.592 C 137.833 85.215,137.855 84.510,138.125 84.181 L 138.417 83.825 147.500 83.860 C 152.496 83.880,157.105 83.900,157.742 83.906 C 158.836 83.916,158.905 83.940,158.998 84.333 C 159.065 84.614,159.231 84.768,159.507 84.806 C 159.732 84.836,159.988 84.930,160.075 85.014 C 160.360 85.288,161.048 85.199,160.934 84.903 C 160.879 84.758,160.833 84.608,160.833 84.570 C 160.833 84.531,160.691 84.500,160.518 84.500 C 160.112 84.500,159.898 84.005,160.297 83.988 C 160.985 83.960,159.871 83.690,159.022 83.678 C 158.174 83.667,158.132 83.646,158.203 83.272 L 158.279 82.878 147.681 82.897 L 137.083 82.917 137.037 93.542 M203.156 83.188 C 202.937 83.596,202.953 103.500,203.172 103.500 C 203.261 103.500,203.333 103.432,203.333 103.348 C 203.333 102.966,203.921 103.317,203.970 103.729 L 204.023 104.178 205.637 104.131 L 207.250 104.083 207.255 99.083 L 207.261 94.083 207.172 98.500 L 207.083 102.917 206.021 103.059 C 205.317 103.153,204.825 103.140,204.563 103.021 L 204.167 102.840 204.167 93.524 C 204.167 82.838,203.994 83.798,205.906 83.849 C 207.355 83.887,207.401 83.867,207.179 83.282 C 206.962 82.713,203.454 82.630,203.156 83.188 M251.167 83.242 C 251.167 83.598,251.090 83.667,250.690 83.667 C 250.275 83.667,250.223 83.719,250.290 84.071 C 250.358 84.428,250.301 84.483,249.809 84.530 C 249.308 84.578,249.256 84.631,249.304 85.042 C 249.350 85.437,249.298 85.500,248.929 85.500 C 248.363 85.500,248.290 86.411,248.841 86.586 C 249.337 86.743,249.667 86.381,249.667 85.680 C 249.667 85.133,249.728 85.045,250.239 84.860 C 250.593 84.732,250.832 84.525,250.864 84.317 C 250.910 84.025,251.069 83.972,252.067 83.915 C 253.298 83.845,253.565 83.714,253.472 83.226 C 253.365 82.662,251.167 82.678,251.167 83.242 M255.208 82.957 C 256.010 82.988,257.323 82.988,258.125 82.957 C 258.927 82.927,258.271 82.902,256.667 82.902 C 255.063 82.902,254.406 82.927,255.208 82.957 M260.296 82.956 C 260.688 82.991,261.288 82.990,261.629 82.954 C 261.971 82.919,261.650 82.890,260.917 82.890 C 260.183 82.891,259.904 82.920,260.296 82.956 M263.549 82.957 C 264.264 82.989,265.389 82.988,266.049 82.957 C 266.710 82.925,266.125 82.900,264.750 82.900 C 263.375 82.900,262.835 82.926,263.549 82.957 M268.075 83.228 C 268.112 83.424,268.147 83.640,268.154 83.708 C 268.161 83.777,268.598 83.834,269.125 83.836 C 270.206 83.839,270.406 83.925,270.572 84.458 C 270.636 84.665,270.797 84.833,270.929 84.833 C 271.061 84.833,271.289 85.133,271.436 85.500 C 271.583 85.867,271.810 86.167,271.940 86.167 C 272.071 86.167,272.248 86.335,272.334 86.542 C 272.450 86.822,272.484 86.631,272.468 85.788 C 272.449 84.760,272.413 84.651,272.066 84.564 C 271.851 84.510,271.664 84.319,271.635 84.124 C 271.606 83.931,271.438 83.759,271.253 83.732 C 271.071 83.706,270.896 83.606,270.864 83.509 C 270.832 83.412,270.732 83.333,270.643 83.333 C 270.554 83.333,270.527 83.408,270.583 83.500 C 270.692 83.676,270.126 83.737,269.956 83.567 C 269.806 83.417,270.013 82.988,270.184 83.094 C 270.266 83.145,270.333 83.114,270.333 83.025 C 270.333 82.936,269.813 82.866,269.171 82.868 C 268.076 82.873,268.012 82.894,268.075 83.228 M322.477 83.235 C 322.193 83.857,322.404 84.230,322.960 84.088 C 324.951 83.579,326.972 83.705,327.198 84.352 C 327.297 84.635,327.486 84.833,327.657 84.833 C 327.851 84.833,328.013 85.053,328.147 85.500 C 328.350 86.179,328.437 86.244,328.903 86.066 C 329.325 85.904,329.215 85.500,328.750 85.500 C 328.437 85.500,328.333 85.412,328.333 85.149 C 328.333 84.897,328.408 84.826,328.597 84.899 C 328.742 84.954,328.896 85.000,328.940 85.000 C 328.984 85.000,328.966 85.087,328.901 85.192 C 328.829 85.309,328.855 85.340,328.967 85.270 C 329.220 85.114,329.037 84.701,328.662 84.582 C 328.493 84.528,328.331 84.319,328.302 84.117 C 328.274 83.915,328.156 83.741,328.042 83.729 C 327.927 83.718,327.758 83.699,327.667 83.688 C 327.575 83.676,327.500 83.486,327.500 83.264 L 327.500 82.862 325.082 82.843 C 322.666 82.824,322.663 82.825,322.477 83.235 M378.167 83.508 L 378.167 84.204 378.708 84.090 C 379.781 83.864,380.869 83.802,381.024 83.958 C 381.118 84.052,381.223 87.554,381.279 92.517 C 381.332 97.137,381.393 100.938,381.415 100.963 C 381.437 100.989,384.858 101.026,389.019 101.047 L 396.583 101.083 396.633 101.931 C 396.711 103.277,397.323 103.199,387.168 103.138 L 378.152 103.083 378.201 103.583 L 378.250 104.083 387.625 104.126 C 392.782 104.150,396.992 104.113,396.981 104.043 C 396.902 103.550,397.035 103.333,397.417 103.333 C 397.824 103.333,397.833 103.306,397.833 102.083 L 397.833 100.833 390.083 100.833 C 382.543 100.833,382.333 100.825,382.333 100.512 C 382.333 100.336,382.465 100.157,382.625 100.115 C 382.901 100.043,382.901 100.038,382.627 100.019 C 382.355 100.001,382.334 99.440,382.293 91.458 L 382.250 82.917 380.208 82.864 L 378.167 82.811 378.167 83.508 M321.592 84.787 C 321.542 84.919,321.500 85.321,321.500 85.680 C 321.500 86.266,321.457 86.333,321.083 86.333 C 320.766 86.333,320.664 86.423,320.654 86.708 C 320.624 87.600,320.324 88.117,319.966 87.896 C 319.893 87.851,319.833 88.011,319.833 88.251 C 319.833 88.998,320.695 88.771,320.882 87.974 C 320.973 87.590,321.143 87.335,321.346 87.282 C 321.567 87.224,321.667 87.050,321.669 86.724 C 321.672 86.167,321.807 85.933,322.212 85.783 C 322.871 85.540,322.732 84.602,322.033 84.565 C 321.841 84.555,321.643 84.655,321.592 84.787 M255.582 85.314 C 255.043 85.424,254.927 85.747,255.333 86.004 C 255.805 86.302,266.433 86.210,266.738 85.905 C 267.147 85.496,267.058 85.387,266.227 85.273 C 265.256 85.140,256.260 85.174,255.582 85.314 M160.720 85.600 C 160.563 86.011,160.758 86.416,161.219 86.637 C 161.644 86.841,161.675 86.918,161.590 87.555 C 161.396 89.006,161.696 90.583,162.167 90.583 C 162.582 90.583,162.583 90.577,162.610 88.901 L 162.636 87.219 162.235 87.295 C 161.857 87.368,161.676 86.667,161.808 85.643 C 161.835 85.426,160.803 85.385,160.720 85.600 M28.000 85.917 C 28.000 86.298,27.784 86.431,27.292 86.353 C 27.223 86.342,27.167 86.714,27.167 87.179 C 27.167 88.003,27.155 88.023,26.708 87.970 C 26.316 87.924,26.242 87.983,26.197 88.375 C 26.168 88.627,26.075 88.843,25.989 88.854 C 25.903 88.866,25.742 88.884,25.631 88.896 C 25.520 88.907,25.421 89.104,25.412 89.333 C 25.364 90.518,25.353 90.543,24.917 90.459 C 24.539 90.387,24.500 90.432,24.500 90.940 C 24.500 91.426,24.445 91.500,24.083 91.500 C 23.694 91.500,23.667 91.556,23.667 92.333 C 23.667 93.111,23.639 93.167,23.250 93.167 C 22.917 93.167,22.833 93.250,22.833 93.583 C 22.833 93.917,22.750 94.000,22.417 94.000 C 21.990 94.000,21.976 94.036,21.943 95.272 C 21.935 95.594,21.873 95.619,21.355 95.513 C 21.320 95.506,21.376 95.399,21.478 95.276 C 21.580 95.153,21.614 95.003,21.554 94.943 C 21.285 94.673,21.167 94.894,21.167 95.667 C 21.167 96.447,21.140 96.500,20.746 96.500 C 20.413 96.500,20.304 96.603,20.227 96.991 C 20.160 97.325,20.015 97.498,19.773 97.533 C 19.512 97.570,19.389 97.739,19.314 98.167 C 19.257 98.487,19.201 98.656,19.189 98.542 C 19.177 98.427,19.017 98.333,18.833 98.333 C 18.578 98.333,18.500 98.222,18.500 97.856 C 18.500 97.438,18.449 97.389,18.083 97.459 C 17.690 97.534,17.667 97.498,17.667 96.803 C 17.667 96.017,17.451 95.667,16.967 95.667 C 16.733 95.667,16.664 95.528,16.654 95.042 C 16.646 94.698,16.603 94.510,16.556 94.625 C 16.401 95.010,15.806 94.872,15.840 94.458 C 15.925 93.412,15.844 93.167,15.417 93.167 C 15.083 93.167,15.000 93.083,15.000 92.750 C 15.000 92.417,14.917 92.333,14.583 92.333 C 14.246 92.333,14.162 92.246,14.141 91.875 C 14.127 91.623,14.098 91.342,14.077 91.250 C 14.056 91.158,14.030 90.980,14.019 90.855 C 14.003 90.667,13.953 90.665,13.742 90.840 C 13.601 90.957,13.523 91.154,13.571 91.277 C 13.618 91.400,13.584 91.500,13.495 91.500 C 13.264 91.500,13.295 90.941,13.542 90.676 C 13.683 90.524,13.686 90.487,13.553 90.562 C 13.426 90.633,13.337 90.508,13.303 90.211 C 13.258 89.822,13.172 89.750,12.750 89.750 C 12.062 89.750,11.912 90.578,12.556 90.823 C 12.811 90.920,13.040 91.200,13.158 91.558 C 13.263 91.877,13.448 92.175,13.568 92.221 C 13.688 92.267,13.830 92.526,13.884 92.797 C 13.945 93.102,14.112 93.324,14.323 93.379 C 14.510 93.428,14.733 93.652,14.819 93.878 C 14.904 94.103,15.130 94.328,15.321 94.378 C 15.587 94.448,15.667 94.602,15.667 95.049 C 15.667 95.483,15.771 95.697,16.083 95.901 C 16.312 96.051,16.500 96.283,16.500 96.417 C 16.500 96.550,16.683 96.779,16.906 96.925 C 17.129 97.071,17.361 97.411,17.420 97.680 C 17.479 97.949,17.671 98.246,17.847 98.341 C 18.026 98.437,18.167 98.688,18.167 98.913 C 18.167 99.381,18.246 99.447,18.917 99.525 C 19.333 99.574,19.426 99.519,19.471 99.199 C 19.503 98.976,19.696 98.751,19.932 98.661 C 20.156 98.576,20.411 98.317,20.499 98.086 C 20.587 97.856,20.768 97.667,20.902 97.667 C 21.064 97.667,21.184 97.413,21.259 96.917 C 21.344 96.349,21.444 96.167,21.669 96.167 C 21.849 96.167,22.035 95.974,22.136 95.682 C 22.229 95.416,22.461 95.148,22.653 95.088 C 22.904 95.008,23.000 94.838,23.000 94.473 C 23.000 94.116,23.093 93.944,23.320 93.885 C 23.496 93.839,23.728 93.587,23.837 93.326 C 23.945 93.064,24.214 92.732,24.434 92.588 C 24.677 92.428,24.833 92.165,24.833 91.913 C 24.833 91.621,24.924 91.500,25.145 91.500 C 25.380 91.500,25.484 91.337,25.562 90.845 C 25.636 90.381,25.769 90.157,26.014 90.079 C 26.205 90.018,26.435 89.758,26.525 89.501 C 26.614 89.244,26.833 88.995,27.010 88.949 C 27.239 88.889,27.333 88.719,27.333 88.368 C 27.333 88.022,27.460 87.789,27.750 87.599 C 27.979 87.449,28.167 87.217,28.167 87.083 C 28.167 86.950,28.354 86.718,28.583 86.568 C 29.207 86.159,29.156 85.500,28.500 85.500 C 28.078 85.500,28.000 85.565,28.000 85.917 M140.175 86.058 C 139.947 86.286,139.931 100.697,140.158 100.925 C 140.255 101.022,143.520 101.066,148.580 101.039 L 156.844 100.994 157.001 100.580 C 157.088 100.353,157.259 100.167,157.383 100.167 C 157.810 100.167,158.667 99.240,158.667 98.777 C 158.667 98.533,158.598 98.333,158.515 98.333 C 158.431 98.333,158.382 98.513,158.406 98.732 C 158.438 99.020,158.377 99.116,158.183 99.078 C 158.037 99.049,157.883 99.020,157.842 99.013 C 157.800 99.006,157.857 98.910,157.967 98.800 C 158.233 98.534,158.220 98.333,157.936 98.333 C 157.683 98.333,157.506 98.828,157.502 99.542 C 157.500 99.994,157.486 100.000,156.427 100.000 C 155.314 100.000,154.994 100.174,155.339 100.591 C 155.515 100.802,154.627 100.833,148.354 100.833 C 141.369 100.833,141.167 100.824,141.167 100.512 C 141.167 100.336,141.298 100.157,141.458 100.115 C 141.736 100.042,141.736 100.038,141.458 100.019 C 141.186 100.001,141.167 99.549,141.167 93.019 L 141.167 86.039 140.759 85.961 C 140.534 85.918,140.272 85.962,140.175 86.058 M324.722 86.042 C 324.554 86.310,324.642 86.837,324.894 87.069 C 325.163 87.316,325.500 87.370,325.500 87.167 C 325.500 87.075,325.575 87.000,325.667 87.000 C 325.760 87.000,325.839 87.495,325.846 88.125 C 325.854 88.744,325.897 89.156,325.944 89.042 C 326.188 88.437,326.650 88.844,326.700 89.708 C 326.745 90.501,326.784 90.579,327.116 90.533 C 327.442 90.488,327.486 90.567,327.532 91.283 C 327.576 91.967,327.638 92.091,327.958 92.137 C 328.250 92.178,328.333 92.299,328.333 92.678 C 328.333 93.085,328.401 93.167,328.741 93.167 C 329.109 93.167,329.153 93.244,329.199 93.958 C 329.248 94.716,329.272 94.750,329.750 94.750 C 330.375 94.750,330.523 93.806,329.917 93.691 C 329.481 93.609,329.339 93.369,329.336 92.714 C 329.334 92.351,329.226 92.121,329.000 92.000 C 328.817 91.902,328.667 91.671,328.667 91.486 C 328.667 91.302,328.479 90.977,328.250 90.765 C 328.021 90.552,327.833 90.223,327.833 90.034 C 327.833 89.841,327.613 89.532,327.333 89.333 C 326.956 89.065,326.833 88.846,326.833 88.445 C 326.833 88.055,326.734 87.868,326.463 87.748 C 326.227 87.643,326.039 87.354,325.945 86.953 C 325.780 86.246,324.972 85.644,324.722 86.042 M156.375 86.115 C 156.552 86.161,156.667 86.351,156.667 86.596 C 156.667 86.910,156.755 87.000,157.063 87.000 C 157.369 87.000,157.481 87.113,157.558 87.500 C 157.639 87.904,157.743 88.000,158.099 88.000 C 158.457 88.000,158.523 88.062,158.452 88.334 C 158.404 88.517,158.432 88.625,158.516 88.574 C 158.845 88.370,158.690 87.000,158.338 87.000 C 158.141 87.000,157.905 86.799,157.750 86.500 C 157.521 86.058,157.410 86.002,156.787 86.019 C 156.400 86.030,156.215 86.073,156.375 86.115 M252.509 86.394 C 252.426 86.611,252.193 86.831,251.990 86.884 C 251.675 86.967,251.637 87.059,251.727 87.511 C 251.786 87.803,251.841 88.201,251.850 88.396 C 251.865 88.708,251.880 88.701,251.982 88.333 C 252.046 88.104,252.189 87.907,252.299 87.896 C 252.410 87.884,252.575 87.866,252.667 87.854 C 252.758 87.843,252.833 87.646,252.833 87.417 C 252.833 87.083,252.917 87.000,253.250 87.000 C 253.602 87.000,253.667 86.922,253.667 86.500 C 253.667 85.832,252.754 85.748,252.509 86.394 M268.125 86.120 C 268.240 86.159,268.333 86.373,268.333 86.596 C 268.333 86.914,268.420 87.000,268.744 87.000 C 269.151 87.000,269.155 87.017,269.203 88.708 L 269.250 90.417 269.770 90.467 C 270.467 90.535,270.549 90.252,270.220 88.917 C 270.021 88.111,269.884 87.841,269.690 87.873 C 269.506 87.904,269.398 87.731,269.323 87.280 C 269.199 86.544,268.920 86.217,268.333 86.119 C 268.104 86.080,268.010 86.081,268.125 86.120 M80.111 86.708 C 80.256 87.468,80.333 87.492,80.333 86.778 C 80.333 86.442,80.260 86.167,80.171 86.167 C 80.077 86.167,80.052 86.397,80.111 86.708 M328.885 86.606 C 328.744 86.974,329.038 87.405,329.475 87.470 C 329.779 87.515,329.833 87.634,329.833 88.258 C 329.833 88.895,329.887 89.007,330.233 89.094 C 330.555 89.175,330.654 89.338,330.743 89.931 C 330.830 90.510,330.923 90.667,331.177 90.667 C 331.408 90.667,331.500 90.782,331.500 91.071 C 331.500 91.475,331.884 92.000,332.179 92.000 C 332.264 92.000,332.333 92.258,332.333 92.574 C 332.333 93.037,332.423 93.191,332.792 93.367 C 333.134 93.530,333.264 93.727,333.304 94.145 C 333.339 94.516,333.459 94.731,333.660 94.783 C 333.861 94.836,333.997 95.082,334.067 95.519 C 334.143 95.995,334.284 96.227,334.577 96.361 C 334.858 96.489,334.998 96.705,335.033 97.064 C 335.071 97.452,335.176 97.597,335.448 97.635 C 335.649 97.664,335.846 97.814,335.887 97.969 C 335.928 98.123,335.970 97.856,335.981 97.375 C 335.999 96.553,335.975 96.500,335.592 96.500 C 335.225 96.500,335.180 96.423,335.134 95.708 C 335.091 95.033,335.028 94.909,334.708 94.863 C 334.422 94.823,334.333 94.700,334.333 94.345 C 334.333 93.938,334.281 93.890,333.917 93.959 C 333.516 94.036,333.500 94.006,333.500 93.186 C 333.500 92.393,333.472 92.333,333.092 92.333 C 332.725 92.333,332.680 92.256,332.634 91.546 C 332.592 90.898,332.509 90.721,332.167 90.551 C 331.868 90.402,331.764 90.232,331.800 89.950 C 331.845 89.597,331.796 89.563,331.342 89.630 L 330.833 89.704 330.833 88.852 C 330.833 88.054,330.807 88.000,330.417 88.000 C 330.028 88.000,330.000 87.944,330.000 87.167 C 330.000 86.283,329.169 85.866,328.885 86.606 M6.172 86.824 C 5.954 87.231,6.685 88.667,7.110 88.667 C 7.250 88.667,7.334 88.791,7.306 88.958 C 7.239 89.366,7.463 89.667,7.834 89.667 C 8.091 89.667,8.158 89.812,8.199 90.458 C 8.242 91.127,8.307 91.258,8.615 91.302 C 8.842 91.334,8.999 91.491,9.031 91.719 C 9.068 91.976,9.218 92.099,9.542 92.136 C 9.920 92.180,10.004 92.275,10.021 92.678 C 10.055 93.471,10.361 94.154,10.613 94.000 C 10.688 93.954,10.774 94.123,10.803 94.375 C 10.844 94.735,10.942 94.833,11.261 94.833 C 11.596 94.833,11.667 94.916,11.667 95.310 C 11.667 95.729,11.717 95.777,12.083 95.707 C 12.423 95.642,12.500 95.694,12.500 95.986 C 12.500 96.289,12.450 96.318,12.178 96.173 C 11.780 95.959,11.667 95.956,11.667 96.155 C 11.667 96.240,11.832 96.334,12.035 96.363 C 12.268 96.397,12.439 96.570,12.500 96.833 C 12.561 97.097,12.732 97.270,12.965 97.303 C 13.229 97.341,13.333 97.471,13.333 97.762 C 13.333 98.080,13.420 98.167,13.741 98.167 C 14.109 98.167,14.153 98.244,14.199 98.958 C 14.239 99.586,14.326 99.783,14.616 99.911 C 14.817 99.999,15.025 100.243,15.077 100.452 C 15.205 100.963,15.930 100.982,16.090 100.479 C 16.172 100.219,16.092 100.030,15.788 99.771 C 15.561 99.576,15.330 99.285,15.276 99.125 C 15.222 98.965,15.033 98.833,14.856 98.833 C 14.495 98.833,14.333 98.526,14.333 97.839 C 14.333 97.519,14.233 97.346,14.014 97.289 C 13.839 97.243,13.670 97.029,13.639 96.813 C 13.607 96.587,13.397 96.331,13.146 96.211 C 12.876 96.082,12.672 95.819,12.613 95.523 C 12.554 95.229,12.385 95.009,12.175 94.954 C 11.923 94.888,11.833 94.729,11.833 94.345 C 11.833 93.944,11.738 93.789,11.417 93.667 C 11.159 93.569,11.000 93.378,11.000 93.167 C 11.000 92.956,10.841 92.765,10.583 92.667 C 10.247 92.539,10.167 92.394,10.167 91.917 C 10.167 91.439,10.086 91.295,9.750 91.167 C 9.490 91.068,9.333 90.878,9.333 90.662 C 9.333 90.427,9.172 90.260,8.833 90.142 C 8.395 89.989,8.333 89.889,8.333 89.328 C 8.333 88.847,8.255 88.664,8.017 88.589 C 7.842 88.533,7.654 88.305,7.598 88.082 C 7.542 87.859,7.347 87.596,7.165 87.499 C 6.982 87.401,6.833 87.221,6.833 87.098 C 6.833 86.641,6.372 86.450,6.172 86.824 M2.500 86.815 C 2.500 86.928,2.444 86.985,2.375 86.942 C 2.306 86.900,2.271 89.534,2.296 92.797 C 2.337 98.159,2.366 98.694,2.595 98.367 C 2.776 98.109,2.802 97.919,2.686 97.703 C 2.587 97.518,2.552 95.652,2.598 92.908 C 2.681 87.813,2.677 86.789,2.573 86.684 C 2.533 86.644,2.500 86.703,2.500 86.815 M248.520 87.637 C 248.504 88.073,248.438 88.177,248.208 88.127 C 248.048 88.092,247.937 87.969,247.962 87.853 C 247.988 87.737,247.938 87.685,247.853 87.738 C 247.607 87.890,247.606 98.276,247.852 98.428 C 247.972 98.502,248.008 98.481,247.942 98.375 C 247.874 98.264,247.957 98.230,248.166 98.285 C 248.436 98.355,248.504 98.521,248.519 99.144 L 248.538 99.917 248.676 99.250 C 248.848 98.418,248.840 88.265,248.667 87.583 L 248.539 87.083 248.520 87.637 M272.344 88.417 C 272.315 89.058,272.273 89.754,272.251 89.962 C 272.218 90.277,272.450 90.671,272.553 90.475 C 272.570 90.443,272.541 89.704,272.490 88.833 L 272.397 87.250 272.344 88.417 M324.208 87.505 C 323.991 87.592,323.833 87.799,323.833 87.996 C 323.833 88.183,323.646 88.499,323.417 88.698 C 323.188 88.897,323.000 89.229,323.000 89.435 C 323.000 89.800,322.610 90.333,322.343 90.333 C 322.269 90.333,322.164 90.615,322.109 90.958 C 322.040 91.392,321.893 91.635,321.630 91.750 C 321.350 91.873,321.236 92.080,321.199 92.533 C 321.163 92.966,321.052 93.180,320.830 93.251 C 320.634 93.313,320.471 93.568,320.407 93.912 C 320.330 94.319,320.192 94.499,319.901 94.572 C 319.511 94.670,319.312 95.375,319.625 95.550 C 320.011 95.767,320.628 95.812,320.622 95.623 C 320.601 95.062,320.695 94.847,321.002 94.749 C 321.187 94.691,321.290 94.565,321.232 94.470 C 321.163 94.359,321.074 94.379,320.982 94.524 C 320.871 94.698,320.838 94.681,320.836 94.447 C 320.834 94.220,320.916 94.171,321.167 94.250 C 321.457 94.342,321.500 94.280,321.500 93.761 C 321.500 93.434,321.575 93.157,321.667 93.146 C 321.758 93.134,321.902 93.116,321.986 93.104 C 322.283 93.064,322.361 92.853,322.361 92.097 C 322.361 91.401,322.397 91.333,322.764 91.333 C 323.136 91.333,323.167 91.270,323.167 90.500 C 323.167 89.782,323.212 89.667,323.495 89.667 C 323.718 89.667,323.792 89.747,323.727 89.917 C 323.674 90.054,323.714 90.167,323.816 90.167 C 323.917 90.167,323.991 90.110,323.980 90.042 C 323.877 89.386,324.030 88.833,324.316 88.833 C 324.675 88.833,324.833 88.523,324.833 87.820 C 324.833 87.298,324.785 87.273,324.208 87.505 M158.611 88.778 C 158.550 88.839,158.500 90.930,158.500 93.425 L 158.500 97.961 158.904 98.038 C 159.475 98.148,159.495 97.989,159.495 93.417 C 159.495 88.756,159.357 88.032,158.611 88.778 M319.000 89.667 C 319.000 90.438,318.970 90.500,318.595 90.500 C 318.138 90.500,317.938 90.914,317.970 91.792 C 317.987 92.262,317.936 92.333,317.578 92.333 C 317.250 92.333,317.167 92.418,317.167 92.750 C 317.167 93.083,317.083 93.167,316.750 93.167 C 316.361 93.167,316.333 93.222,316.333 94.000 C 316.333 94.778,316.306 94.833,315.917 94.833 C 315.563 94.833,315.500 94.910,315.500 95.343 C 315.500 95.641,315.431 95.810,315.333 95.750 C 315.242 95.693,315.167 95.726,315.167 95.823 C 315.167 95.921,315.242 96.000,315.333 96.000 C 315.425 96.000,315.500 96.112,315.500 96.250 C 315.500 96.406,315.343 96.500,315.083 96.500 C 314.731 96.500,314.667 96.578,314.667 97.000 C 314.667 97.422,314.602 97.500,314.250 97.500 C 313.860 97.500,313.833 97.554,313.833 98.353 C 313.833 99.173,313.817 99.202,313.417 99.126 C 313.015 99.049,313.000 99.077,313.000 99.929 C 313.000 100.768,312.977 100.814,312.542 100.864 C 312.178 100.906,312.092 100.994,312.123 101.292 C 312.151 101.556,312.074 101.667,311.865 101.667 C 311.244 101.667,310.858 103.256,311.307 103.964 C 311.577 104.389,315.405 104.163,315.469 103.719 C 315.501 103.491,315.658 103.334,315.885 103.302 C 316.192 103.258,316.255 103.132,316.285 102.500 C 316.304 102.087,316.279 101.844,316.229 101.958 C 316.179 102.073,315.963 102.167,315.747 102.167 C 315.487 102.167,315.317 102.292,315.239 102.542 C 315.042 103.172,313.494 103.443,312.656 102.994 C 312.217 102.759,312.215 101.893,312.653 101.754 C 312.863 101.688,313.009 101.438,313.078 101.029 C 313.149 100.609,313.303 100.352,313.550 100.244 C 313.800 100.134,313.933 99.909,313.970 99.533 C 314.008 99.131,314.131 98.942,314.428 98.829 C 314.759 98.703,314.833 98.559,314.833 98.044 C 314.833 97.549,314.914 97.377,315.208 97.248 C 315.443 97.145,315.603 96.908,315.637 96.616 C 315.671 96.318,315.834 96.083,316.087 95.968 C 316.379 95.835,316.496 95.630,316.533 95.187 C 316.572 94.715,316.686 94.537,317.058 94.359 C 317.466 94.165,317.523 94.054,317.467 93.574 C 317.413 93.111,317.461 93.006,317.743 92.965 C 317.982 92.931,318.130 92.729,318.239 92.287 C 318.350 91.837,318.504 91.630,318.780 91.561 C 319.098 91.481,319.167 91.353,319.167 90.842 C 319.167 90.340,319.247 90.183,319.583 90.030 C 320.245 89.729,320.182 88.833,319.500 88.833 C 319.011 88.833,319.000 88.852,319.000 89.667 M80.333 91.653 C 80.333 91.737,80.288 91.925,80.232 92.070 C 80.141 92.307,80.788 92.333,86.814 92.333 L 93.496 92.333 93.462 91.917 L 93.427 91.500 86.880 91.500 C 83.016 91.500,80.333 91.563,80.333 91.653 M94.538 91.917 C 94.517 92.173,94.591 92.333,94.729 92.333 C 94.854 92.333,95.146 92.483,95.379 92.667 C 96.130 93.258,96.500 93.120,96.500 92.250 L 96.500 91.500 95.536 91.500 C 94.629 91.500,94.571 91.524,94.538 91.917 M162.552 92.583 C 162.553 93.133,162.584 93.338,162.621 93.039 C 162.658 92.739,162.657 92.289,162.619 92.039 C 162.581 91.788,162.551 92.033,162.552 92.583 M95.365 93.612 C 94.765 94.266,94.928 94.750,95.750 94.750 L 96.417 94.750 96.417 94.000 C 96.417 93.095,95.987 92.936,95.365 93.612 M80.333 94.225 L 80.333 94.616 83.598 94.711 C 87.690 94.829,89.277 94.729,89.280 94.353 C 89.285 93.873,88.978 93.838,84.625 93.836 L 80.333 93.833 80.333 94.225 M90.354 93.984 C 90.227 94.064,90.172 94.206,90.230 94.300 C 90.288 94.395,90.241 94.510,90.126 94.556 C 90.011 94.602,90.335 94.646,90.847 94.654 C 91.626 94.665,91.778 94.619,91.780 94.375 C 91.785 93.871,90.910 93.632,90.354 93.984 M92.880 94.020 C 92.511 94.389,92.844 94.667,93.657 94.667 C 94.295 94.667,94.445 94.611,94.447 94.375 C 94.452 93.852,93.307 93.593,92.880 94.020 M330.167 95.504 C 330.167 95.701,330.339 95.919,330.583 96.030 C 331.481 96.439,330.803 96.500,325.333 96.500 C 319.853 96.500,319.667 96.489,319.667 96.179 C 319.667 95.878,319.637 95.874,319.158 96.113 C 318.592 96.395,318.581 96.756,319.139 96.738 C 319.337 96.732,322.294 96.710,325.708 96.691 C 330.919 96.662,331.870 96.620,331.624 96.434 C 331.463 96.312,331.250 95.977,331.150 95.689 C 330.930 95.061,330.167 94.916,330.167 95.504 M270.167 95.843 C 270.167 95.940,270.073 95.963,269.958 95.895 C 269.794 95.796,269.795 95.825,269.960 96.029 C 270.132 96.241,270.124 96.328,269.919 96.498 C 269.668 96.707,269.569 96.555,269.656 96.097 C 269.672 96.013,269.569 96.040,269.426 96.159 C 269.220 96.330,269.167 96.750,269.167 98.187 L 269.167 100.000 268.625 100.026 C 268.327 100.041,267.952 100.042,267.792 100.028 C 267.629 100.015,267.500 100.118,267.500 100.262 C 267.500 100.404,267.577 100.472,267.671 100.414 C 267.765 100.356,267.821 100.408,267.796 100.529 C 267.771 100.651,267.525 100.796,267.250 100.853 C 266.854 100.935,266.930 100.961,267.611 100.978 C 268.747 101.007,268.948 100.911,269.172 100.235 C 269.275 99.923,269.447 99.666,269.555 99.664 C 270.079 99.657,270.252 99.317,270.333 98.131 L 270.417 96.917 271.137 96.865 C 272.269 96.783,272.333 96.912,272.333 99.267 C 272.333 101.317,272.331 101.327,271.923 101.430 C 271.697 101.487,271.465 101.680,271.408 101.859 C 271.351 102.039,271.124 102.255,270.902 102.339 C 270.675 102.425,270.500 102.627,270.500 102.804 C 270.500 103.086,270.301 103.127,268.385 103.229 C 266.036 103.355,266.093 103.339,266.246 103.821 C 266.348 104.142,266.481 104.167,268.095 104.167 L 269.833 104.167 269.833 103.737 C 269.833 103.373,269.902 103.313,270.292 103.338 C 271.458 103.415,271.667 103.351,271.667 102.917 C 271.667 102.615,271.756 102.500,271.990 102.500 C 272.422 102.500,272.528 102.291,272.528 101.433 C 272.528 100.799,272.571 100.715,272.889 100.731 C 273.239 100.749,273.251 100.686,273.297 98.604 C 273.342 96.531,273.332 96.461,273.011 96.545 C 272.590 96.656,272.333 96.386,272.333 95.833 C 272.333 95.739,271.861 95.667,271.250 95.667 C 270.599 95.667,270.167 95.737,270.167 95.843 M251.000 96.472 C 251.000 96.882,251.123 96.980,251.510 96.879 C 251.900 96.777,251.936 96.408,251.570 96.268 C 251.136 96.101,251.000 96.150,251.000 96.472 M161.758 96.543 C 161.493 97.412,161.545 100.000,161.828 100.000 C 161.891 100.000,161.909 99.775,161.869 99.500 C 161.793 98.986,161.910 98.895,162.316 99.152 C 162.448 99.236,162.503 99.419,162.443 99.575 C 162.385 99.727,162.403 99.810,162.484 99.760 C 162.564 99.710,162.640 98.935,162.653 98.038 L 162.676 96.407 162.249 96.371 C 162.014 96.352,161.793 96.429,161.758 96.543 M76.785 97.373 C 76.745 97.580,76.711 97.450,76.709 97.083 C 76.707 96.717,76.739 96.547,76.781 96.706 C 76.823 96.866,76.824 97.166,76.785 97.373 M25.000 97.566 C 25.000 97.693,24.887 97.841,24.750 97.894 C 24.580 97.959,24.500 97.885,24.500 97.661 C 24.500 97.481,24.612 97.333,24.750 97.333 C 24.887 97.333,25.000 97.438,25.000 97.566 M76.288 99.880 C 76.254 100.267,76.225 99.908,76.226 99.083 C 76.226 98.258,76.255 97.942,76.289 98.380 C 76.324 98.818,76.323 99.493,76.288 99.880 M76.787 99.708 C 76.750 100.006,76.720 99.763,76.720 99.167 C 76.720 98.571,76.750 98.327,76.787 98.625 C 76.824 98.923,76.824 99.410,76.787 99.708 M251.858 99.125 C 251.830 100.101,252.498 100.484,252.728 99.625 C 252.879 99.062,252.866 99.040,252.429 99.123 C 252.089 99.188,252.014 99.126,251.954 98.725 C 251.912 98.445,251.873 98.609,251.858 99.125 M252.192 98.492 C 252.263 98.707,252.492 98.745,252.512 98.546 C 252.519 98.479,252.435 98.395,252.325 98.358 C 252.215 98.322,252.155 98.382,252.192 98.492 M335.833 98.754 C 335.833 99.050,335.957 99.222,336.250 99.333 C 336.545 99.446,336.667 99.617,336.667 99.920 C 336.667 100.159,336.844 100.514,337.067 100.720 C 337.287 100.924,337.493 101.276,337.525 101.502 C 337.561 101.754,337.712 101.938,337.917 101.976 C 338.500 102.086,338.644 102.499,338.238 102.905 C 337.762 103.381,335.500 103.234,335.500 102.727 C 335.500 102.596,335.336 102.428,335.135 102.354 C 334.929 102.278,334.686 101.971,334.579 101.651 C 334.404 101.130,333.706 100.727,333.645 101.113 C 333.546 101.754,333.578 102.024,333.773 102.186 C 333.920 102.308,334.000 102.313,334.000 102.201 C 334.000 102.106,333.906 101.990,333.792 101.944 C 333.653 101.888,333.669 101.855,333.840 101.846 C 334.009 101.838,334.167 102.093,334.298 102.583 C 334.464 103.204,334.567 103.333,334.893 103.333 C 335.224 103.333,335.274 103.401,335.207 103.750 L 335.128 104.167 336.897 104.167 L 338.667 104.167 338.667 102.587 C 338.667 101.040,338.658 101.004,338.250 100.902 C 337.911 100.817,337.833 100.695,337.833 100.246 C 337.833 99.440,337.681 99.167,337.232 99.167 C 336.918 99.167,336.833 99.078,336.833 98.750 C 336.833 98.398,336.756 98.333,336.333 98.333 C 335.910 98.333,335.833 98.398,335.833 98.754 M317.701 99.008 C 317.491 99.092,317.213 99.414,317.084 99.723 C 316.955 100.032,316.668 100.404,316.446 100.549 C 315.856 100.936,316.013 101.667,316.686 101.667 C 317.185 101.667,317.261 101.464,317.173 100.375 C 317.140 99.962,317.734 99.823,317.890 100.208 C 317.957 100.375,317.976 100.375,317.987 100.208 C 317.997 100.045,319.582 100.000,325.322 100.000 L 332.643 100.000 332.697 100.375 C 332.780 100.962,333.597 100.995,333.708 100.416 C 333.773 100.074,333.662 99.859,333.187 99.409 L 332.583 98.836 325.333 98.845 C 321.328 98.850,317.912 98.923,317.701 99.008 M2.167 100.820 C 2.167 102.527,2.247 103.000,2.538 103.000 C 2.642 103.000,2.650 102.920,2.558 102.792 C 2.476 102.677,2.440 101.983,2.478 101.250 C 2.528 100.309,2.585 100.039,2.674 100.333 C 2.774 100.664,2.804 100.587,2.817 99.958 C 2.831 99.272,2.789 99.167,2.500 99.167 C 2.189 99.167,2.167 99.278,2.167 100.820 M378.212 100.000 C 378.212 100.412,378.245 100.581,378.284 100.375 C 378.324 100.169,378.324 99.831,378.284 99.625 C 378.245 99.419,378.212 99.587,378.212 100.000 M253.060 100.250 C 252.867 100.755,253.132 101.000,253.870 100.997 C 254.392 100.996,254.516 100.952,254.333 100.833 C 254.196 100.744,254.158 100.669,254.250 100.667 C 254.342 100.664,254.304 100.589,254.167 100.500 C 253.985 100.383,253.976 100.338,254.135 100.336 C 254.255 100.334,254.307 100.258,254.250 100.167 C 254.088 99.904,253.168 99.969,253.060 100.250 M384.796 100.122 C 385.188 100.157,385.788 100.157,386.129 100.121 C 386.471 100.085,386.150 100.057,385.417 100.057 C 384.683 100.058,384.404 100.087,384.796 100.122 M393.839 100.061 C 393.951 100.173,396.316 100.240,396.422 100.134 C 396.470 100.086,395.890 100.032,395.134 100.014 C 394.377 99.996,393.795 100.017,393.839 100.061 M22.519 100.280 C 22.509 100.388,22.331 100.501,22.125 100.530 C 21.852 100.569,21.735 100.713,21.695 101.061 C 21.661 101.360,21.523 101.569,21.325 101.621 C 21.123 101.673,20.969 101.911,20.901 102.273 C 20.715 103.264,18.381 103.652,17.974 102.759 C 17.871 102.534,17.632 102.328,17.442 102.300 C 17.233 102.270,17.059 102.086,17.000 101.833 C 16.939 101.570,16.768 101.397,16.535 101.363 C 16.332 101.334,16.166 101.222,16.164 101.113 C 16.162 100.981,16.116 100.989,16.021 101.138 C 15.776 101.524,16.057 102.417,16.424 102.417 C 16.656 102.417,16.765 102.549,16.803 102.875 C 16.844 103.235,16.942 103.333,17.261 103.333 C 17.583 103.333,17.667 103.420,17.667 103.750 C 17.667 104.160,17.689 104.167,19.003 104.167 L 20.340 104.167 20.235 103.750 C 20.145 103.391,20.185 103.336,20.524 103.353 C 20.806 103.367,20.835 103.393,20.625 103.448 C 20.295 103.534,20.270 103.642,20.496 103.999 C 20.629 104.210,20.685 104.213,20.868 104.016 C 21.029 103.843,21.031 103.814,20.875 103.902 C 20.760 103.967,20.667 103.940,20.667 103.843 C 20.667 103.746,20.742 103.667,20.833 103.667 C 20.925 103.667,21.000 103.404,21.000 103.083 C 21.000 102.572,21.052 102.500,21.417 102.500 C 21.747 102.500,21.833 102.416,21.833 102.095 C 21.833 101.802,21.937 101.675,22.207 101.637 C 22.423 101.606,22.606 101.443,22.643 101.250 C 22.677 101.067,22.790 100.862,22.894 100.794 C 23.033 100.704,23.031 100.671,22.887 100.669 C 22.779 100.668,22.657 100.535,22.615 100.375 C 22.573 100.215,22.530 100.172,22.519 100.280 M142.294 100.285 C 142.501 100.324,142.801 100.323,142.960 100.281 C 143.120 100.239,142.950 100.207,142.583 100.209 C 142.217 100.211,142.086 100.245,142.294 100.285 M152.121 100.287 C 152.417 100.324,152.942 100.324,153.288 100.288 C 153.634 100.252,153.392 100.222,152.750 100.221 C 152.108 100.221,151.825 100.250,152.121 100.287 M160.839 100.489 C 160.744 100.666,160.667 100.920,160.667 101.053 C 160.667 101.186,160.518 101.333,160.335 101.381 C 160.153 101.429,159.932 101.658,159.843 101.891 C 159.706 102.251,159.562 102.322,158.884 102.366 C 158.240 102.407,158.074 102.481,158.024 102.750 C 157.990 102.933,157.876 103.138,157.772 103.206 C 157.668 103.273,157.940 103.329,158.375 103.331 C 159.115 103.333,159.167 103.305,159.167 102.904 C 159.167 102.540,159.236 102.479,159.625 102.505 C 160.677 102.574,160.839 102.515,160.938 102.020 C 161.012 101.650,161.106 101.559,161.350 101.623 C 161.544 101.674,161.672 101.617,161.679 101.478 C 161.686 101.352,161.718 101.111,161.751 100.940 C 161.891 100.195,161.184 99.845,160.839 100.489 M248.500 100.570 C 248.500 101.192,248.676 101.512,249.107 101.676 C 249.325 101.758,249.493 101.884,249.481 101.955 C 249.418 102.343,249.544 102.500,249.917 102.500 C 250.250 102.500,250.333 102.583,250.333 102.917 C 250.333 103.246,250.418 103.333,250.736 103.333 C 250.958 103.333,251.177 103.427,251.223 103.542 C 251.290 103.708,251.310 103.708,251.320 103.542 C 251.348 103.103,252.167 103.305,252.167 103.750 L 252.167 104.167 254.417 104.167 L 256.667 104.167 256.667 103.768 C 256.667 103.369,256.664 103.368,254.083 103.247 C 251.684 103.135,251.500 103.103,251.500 102.804 C 251.500 102.597,251.323 102.421,251.000 102.308 C 250.725 102.212,250.500 102.027,250.500 101.896 C 250.500 101.765,250.322 101.591,250.104 101.508 C 249.828 101.403,249.674 101.177,249.597 100.762 C 249.454 100.003,248.500 99.835,248.500 100.570 M388.461 100.287 C 388.761 100.325,389.211 100.324,389.461 100.286 C 389.712 100.248,389.467 100.217,388.917 100.218 C 388.367 100.219,388.162 100.250,388.461 100.287 M21.667 102.815 C 21.667 102.928,21.580 102.966,21.474 102.901 C 21.361 102.830,21.327 102.855,21.392 102.960 C 21.453 103.058,21.408 103.176,21.293 103.223 C 21.168 103.273,21.204 103.312,21.380 103.320 C 21.682 103.334,21.960 102.904,21.771 102.715 C 21.713 102.658,21.667 102.703,21.667 102.815 M258.500 103.750 C 258.500 104.056,258.589 104.167,258.833 104.167 C 259.078 104.167,259.167 104.056,259.167 103.750 C 259.167 103.444,259.078 103.333,258.833 103.333 C 258.589 103.333,258.500 103.444,258.500 103.750 M262.833 103.750 C 262.833 104.121,263.310 104.392,263.346 104.042 C 263.353 103.973,263.384 103.785,263.415 103.625 C 263.452 103.429,263.365 103.333,263.152 103.333 C 262.923 103.333,262.833 103.451,262.833 103.750 M338.845 103.708 C 338.839 103.960,338.908 104.167,339.000 104.167 C 339.196 104.167,339.196 104.039,339.000 103.583 C 338.873 103.288,338.855 103.302,338.845 103.708 " stroke="none" fill="#fff" fill-rule="evenodd"></path>
</g>
</svg>
