<svg width="1440" height="227" viewBox="0 0 1440 227" fill="none" xmlns="http://www.w3.org/2000/svg">
<path opacity="0.3" d="M1480 170.405C1479.14 167.05 973.625 213.883 784.059 145.94C560.811 65.9733 346.055 254.565 170.45 114.904C27.3758 1.10545 -327 202 -327 202" stroke="#FF7300" stroke-miterlimit="10"/>
<path opacity="0.3" d="M1479 165.944C1476.12 164.128 1392.79 170.973 1282.7 176.003C1218.08 178.936 1144.83 182.987 1074.02 182.01C961.625 180.613 850.81 172.79 780.148 149.46C650.624 106.573 524.842 145.269 410.574 156.864C325.232 165.246 242.625 165.106 166.206 110.485C110.942 70.9503 26.752 74.4428 -53.6966 95.1179C-196.604 131.719 -328.431 208.831 -327.999 207.993" stroke="#FF7300" stroke-width="0.964" stroke-miterlimit="10"/>
<path opacity="0.3" d="M1478 161.615C1472.68 159.387 1389.36 166.21 1280.72 172.059C1215.11 175.54 1141.29 182.085 1071.79 181.667C959.988 181.11 848.76 175.122 776.238 152.982C645.296 113.017 518.815 148.526 406.723 152.982C322.978 156.324 239.665 155.627 162.107 106.194C105.413 69.9892 20.517 75.4199 -56.897 97.6997C-204.099 140.031 -329.716 215.644 -328.997 213.973" stroke="#FF7300" stroke-width="0.929" stroke-miterlimit="10"/>
<path opacity="0.3" d="M1478 157.521C1470.08 154.88 1386.84 161.692 1279.55 168.225C1212.87 172.257 1138.55 181.292 1070 181.431C958.532 181.71 847.063 177.539 772.607 156.687C640.112 119.71 512.657 151.683 402.916 149.319C320.539 147.651 236.433 146.539 157.656 102.055C99.3297 69.248 13.9278 76.7546 -60.6727 100.387C-212.754 148.485 -332.144 222.44 -330.992 219.938" stroke="#FF7300" stroke-width="0.893" stroke-miterlimit="10"/>
<path opacity="0.3" d="M1477 153.284C1466.63 150.195 1383.4 157.217 1277.55 164.52C1209.87 169.155 1134.99 180.812 1067.6 181.514C956.712 182.638 844.965 180.11 768.642 160.447C634.718 125.757 506.41 154.829 398.983 145.7C318.196 138.818 233.234 137.273 153.311 97.3867C93.4055 67.4716 7.57889 77.5837 -64.1353 102.583C-220.812 157.217 -333.568 230.389 -331.984 226.878" stroke="#FF7300" stroke-width="0.857" stroke-miterlimit="10"/>
<path opacity="0.3" d="M1476 148.816C1463.04 145.304 1379.92 152.327 1275.48 160.474C1206.77 165.811 1131.29 179.857 1065.03 181.121C954.687 183.087 842.617 182.385 764.398 163.845C629.136 131.961 499.78 157.524 394.768 141.652C315.397 129.573 229.544 127.747 148.589 92.7726C86.9356 66.0855 0.650215 78.8672 -68.0612 104.852C-229.684 165.952 -335.848 237.164 -333.976 232.81" stroke="#FF7300" stroke-width="0.821" stroke-miterlimit="10"/>
<path opacity="0.3" d="M1476 144.852C1460.58 140.946 1377.43 148.06 1274.4 156.848C1204.65 162.706 1128.71 179.305 1063.43 180.979C953.477 183.908 841.22 184.745 760.954 167.727C624.199 138.714 493.928 160.893 391.182 138.296C313.221 121.139 226.47 119.186 144.619 89.3361C81.2129 66.1813 -5.24981 81.5248 -71.2497 108.167C-237.546 175.26 -337.267 243.887 -334.961 238.726" stroke="#FF7300" stroke-width="0.786" stroke-miterlimit="10"/>
<path opacity="0.3" d="M1475 140.296C1457.13 135.961 1374 143.233 1272.42 152.603C1201.68 159.176 1125.17 178.195 1061.06 180.432C951.702 184.208 839.175 186.725 757.049 170.923C619.021 144.492 487.764 163.371 387.484 134.003C310.978 111.628 223.233 109.39 140.531 84.3579C75.2629 64.4997 -11.3291 82.8196 -74.5803 110.09C-245.459 184.068 -338.679 250.635 -335.941 244.622" stroke="#FF7300" stroke-width="0.75" stroke-miterlimit="10"/>
<path opacity="0.3" d="M1474 135.582C1453.55 130.824 1370.58 138.242 1270.61 148.32C1198.73 155.458 1121.81 177.013 1058.86 179.813C950.111 184.431 837.325 188.631 753.347 174.214C613.912 150.419 481.824 165.956 383.874 129.984C308.827 102.41 220.095 100.171 136.55 79.7352C69.4252 63.3588 -17.1453 84.4941 -77.6439 112.348C-253.378 193.249 -339.948 257.355 -336.923 250.497" stroke="#FF7300" stroke-width="0.714" stroke-miterlimit="10"/>
<path opacity="0.3" d="M1473 131.348C1450.1 126.174 1366.99 133.864 1268.62 144.491C1195.74 152.321 1118.4 176.37 1056.47 179.586C948.156 185.179 835.237 190.772 749.251 177.908C608.534 156.655 475.451 168.96 379.959 126.314C306.36 93.4561 216.63 91.3588 132.228 75.559C63.2383 62.6954 -23.3235 86.7447 -81.0794 114.989C-261.26 202.936 -341.485 264.038 -337.884 256.348" stroke="#FF7300" stroke-width="0.679" stroke-miterlimit="10"/>
<path opacity="0.3" d="M1472 127.776C1446.51 122.187 1363.57 130.012 1266.67 141.19C1192.8 149.713 1114.9 176.122 1054.13 179.895C946.426 186.462 833.247 193.588 745.412 181.991C603.435 163.267 469.377 172.21 376.214 123.025C304.074 85.0189 213.214 83.0627 128.114 71.8844C57.2698 62.5226 -29.126 89.63 -84.2753 118.135C-268.874 213.709 -342.743 271.696 -338.855 263.173" stroke="#FF7300" stroke-width="0.643" stroke-miterlimit="10"/>
<path opacity="0.3" d="M1472 122.867C1444.06 116.705 1361.08 124.968 1265.58 136.732C1190.68 145.975 1112.17 174.965 1052.54 179.166C945.365 186.589 831.857 195.272 742.116 185.189C598.789 168.943 463.673 174.545 372.924 118.665C302.341 75.2504 210.295 73.5698 124.443 66.7074C51.6998 60.9654 -34.7282 91.2159 -87.1612 119.926C-276.295 223.562 -343.996 278.461 -339.819 268.938" stroke="#FF7300" stroke-width="0.607" stroke-miterlimit="10"/>
<path opacity="0.3" d="M1471 119C1440.47 112.447 1357.66 120.952 1263.61 133.22C1187.72 143.119 1108.79 174.487 1050.18 179.088C943.462 187.453 829.975 197.491 738.092 188.847C593.353 175.184 457.4 177.415 368.973 115.375C299.844 66.8583 206.809 65.4641 120.11 63.0941C45.5084 61.0028 -40.6145 94.1838 -90.5888 122.903C-283.717 234.018 -345.501 284.905 -340.748 274.727" stroke="#FF7300" stroke-width="0.571" stroke-miterlimit="10"/>
<path opacity="0.3" d="M1470 114.622C1437.01 107.62 1354.18 116.442 1261.55 129.325C1184.62 139.967 1105.1 173.854 1047.62 179.035C941.448 188.417 827.642 200.04 733.859 192.758C587.784 181.556 450.784 180.436 364.78 111.541C297.217 57.4897 202.858 56.6496 115.415 58.47C38.9193 60.1503 -47.0838 96.558 -94.4792 125.404C-291.84 245.55 -347.735 292.6 -342.693 281.397" stroke="#FF7300" stroke-width="0.536" stroke-miterlimit="10"/>
<path opacity="0.3" d="M1469 109.859C1433.42 102.441 1350.74 111.539 1259.56 124.836C1181.64 136.313 1101.7 172.565 1045.23 178.164C939.506 188.521 825.57 201.538 729.927 195.8C582.573 186.982 444.726 182.643 360.895 107.2C294.78 47.7135 199.425 47.4336 111.272 53.5922C32.914 59.0509 -52.7902 98.6618 -97.7309 127.495C-298.668 256.266 -349.082 299.096 -343.608 287.059" stroke="#FF7300" stroke-width="0.5" stroke-miterlimit="10"/>
<path opacity="0.3" d="M1469 106.354C1430.96 98.5206 1348.26 107.892 1258.5 121.74C1179.55 133.909 1099.01 172.654 1043.68 178.669C938.505 189.999 824.251 204.266 726.71 200.07C578.022 193.635 439.275 186.082 357.583 104.255C293.036 39.4935 196.504 39.7732 107.464 50.1239C27.3564 59.4955 -58.2259 102.017 -100.729 130.832C-305.031 268.608 -350.416 306.514 -344.509 293.646" stroke="#FF7300" stroke-width="0.464" stroke-miterlimit="10"/>
<path opacity="0.3" d="M1468 101.85C1427.52 93.6175 1344.84 103.246 1256.54 117.619C1176.59 130.596 1095.49 171.621 1041.33 178.04C936.752 190.459 822.234 205.948 722.697 203.297C572.6 199.25 433.162 188.506 353.791 100.315C290.842 30.4053 193.322 31.3821 103.292 45.8944C21.3292 59.1508 -63.803 104.641 -103.992 133.247C-310.989 280.184 -351.61 312.837 -345.416 299.162" stroke="#FF7300" stroke-width="0.429" stroke-miterlimit="10"/>
<path opacity="0.3" d="M1467 97.117C1423.94 88.4341 1341.56 98.5175 1254.58 113.363C1173.64 127.227 1092.13 170.782 1038.99 177.645C935.011 191.089 820.232 208.035 718.846 206.774C567.487 205.094 427.217 191.089 350.025 95.9967C288.675 20.5109 190.169 22.0514 99.152 40.8178C15.4796 58.0437 -69.3448 106.78 -107.221 135.35C-316.617 293.044 -352.909 320.213 -346.284 305.508" stroke="#FF7300" stroke-width="0.393" stroke-miterlimit="10"/>
<path opacity="0.3" d="M1466 93.2611C1420.5 84.165 1338.14 94.5205 1252.76 109.774C1170.98 124.328 1088.77 170.368 1036.79 177.505C933.266 192.059 818.368 210.111 715.132 210.531C562.367 211.091 421.409 193.878 346.538 92.4214C286.929 11.6759 187.293 13.9149 95.4327 36.7252C10.0512 57.8562 -74.4664 109.634 -110.174 138.042C-321.54 306.25 -354.08 327.241 -347.169 311.848" stroke="#FF7300" stroke-width="0.357" stroke-miterlimit="10"/>
<path opacity="0.3" d="M1466 89.0993C1417.87 79.5878 1335.59 90.3581 1251.59 106.024C1168.73 121.55 1086.02 169.807 1035.01 177.36C931.986 192.886 816.711 212.189 711.378 214.287C557.197 217.225 415.408 196.803 342.496 88.9594C284.426 2.79656 183.704 5.87382 90.7635 32.7298C3.73049 57.9072 -80.5647 112.598 -114.139 140.853C-326.966 319.753 -356.361 334.3 -349.013 317.934" stroke="#FF7300" stroke-width="0.321" stroke-miterlimit="10"/>
<path opacity="0.3" d="M1465 84.3439C1414.44 74.4017 1332.18 85.6042 1249.63 101.708C1165.79 118.091 1082.52 168.782 1032.68 176.764C930.254 193.567 814.719 213.731 707.539 217.512C551.955 222.413 409.625 199.168 338.892 84.6239C282.565 -6.95557 180.716 -3.17477 86.7896 27.7718C-1.80656 57.0381 -85.7928 114.87 -117.198 142.876C-330.693 333.737 -357.632 341.019 -349.853 323.935" stroke="#FF7300" stroke-width="0.286" stroke-miterlimit="10"/>
<path opacity="0.3" d="M1464 80.366C1410.85 70.0265 1328.76 81.6235 1247.67 97.9709C1162.84 115.157 1079.02 168.111 1030.48 176.495C782.178 219.809 451.492 286.037 335.263 81.0646C280.532 -15.6231 177.841 -11.152 82.7837 23.7785C-7.52107 56.8927 -90.9126 117.672 -120.294 145.476C-333.454 347.934 -358.802 347.654 -350.737 329.63" stroke="#FF7300" stroke-width="0.25" stroke-miterlimit="10"/>
</svg>
