<svg width="1440" height="335" viewBox="0 0 1440 335" fill="none" xmlns="http://www.w3.org/2000/svg">
<mask id="mask0" mask-type="alpha" maskUnits="userSpaceOnUse" x="0" y="0" width="1440" height="335">
<rect width="1440" height="335" fill="#C4C4C4"/>
</mask>
<g mask="url(#mask0)">
<g opacity="0.5">
<path opacity="0.3" d="M1469 169.405C1468.14 166.05 962.625 212.883 773.059 144.94C549.811 64.9733 335.055 253.565 159.45 113.904C16.3758 0.105451 -338 201 -338 201" stroke="#4A4A4A" stroke-miterlimit="10"/>
<path opacity="0.3" d="M1468 164.944C1465.12 163.128 1381.79 169.973 1271.7 175.003C1207.08 177.936 1133.83 181.987 1063.02 181.01C950.625 179.613 839.81 171.79 769.148 148.46C639.624 105.573 513.842 144.269 399.574 155.864C314.232 164.246 231.625 164.106 155.206 109.485C99.9424 69.9503 15.752 73.4428 -64.6966 94.1179C-207.604 130.719 -339.431 207.831 -338.999 206.993" stroke="#4B4B4B" stroke-width="0.964" stroke-miterlimit="10"/>
<path opacity="0.3" d="M1467 160.615C1461.68 158.387 1378.36 165.21 1269.72 171.059C1204.11 174.54 1130.29 181.085 1060.79 180.667C948.988 180.11 837.76 174.122 765.238 151.982C634.296 112.017 507.815 147.526 395.723 151.982C311.978 155.324 228.665 154.627 151.107 105.194C94.4133 68.9892 9.51696 74.4199 -67.897 96.6997C-215.099 139.031 -340.716 214.644 -339.997 212.973" stroke="#5B5B5B" stroke-width="0.929" stroke-miterlimit="10"/>
<path opacity="0.3" d="M1467 156.521C1459.08 153.88 1375.84 160.692 1268.55 167.225C1201.87 171.257 1127.55 180.292 1059 180.431C947.532 180.71 836.063 176.539 761.607 155.687C629.112 118.71 501.657 150.683 391.916 148.319C309.539 146.651 225.433 145.539 146.656 101.055C88.3297 68.248 2.92784 75.7546 -71.6727 99.3869C-223.754 147.485 -343.144 221.44 -341.992 218.938" stroke="#646464" stroke-width="0.893" stroke-miterlimit="10"/>
<path opacity="0.3" d="M1466 152.284C1455.63 149.195 1372.4 156.217 1266.55 163.52C1198.87 168.155 1123.99 179.812 1056.6 180.514C945.712 181.638 833.965 179.11 757.642 159.447C623.718 124.757 495.41 153.829 387.983 144.7C307.196 137.818 222.234 136.273 142.311 96.3867C82.4055 66.4716 -3.42111 76.5837 -75.1353 101.583C-231.812 156.217 -344.568 229.389 -342.984 225.878" stroke="#747474" stroke-width="0.857" stroke-miterlimit="10"/>
<path opacity="0.3" d="M1465 147.816C1452.04 144.304 1368.92 151.327 1264.48 159.474C1195.77 164.811 1120.29 178.857 1054.03 180.121C943.687 182.087 831.617 181.385 753.398 162.845C618.136 130.961 488.78 156.524 383.768 140.652C304.397 128.573 218.544 126.747 137.589 91.7726C75.9356 65.0855 -10.3498 77.8672 -79.0612 103.852C-240.684 164.952 -346.848 236.164 -344.976 231.81" stroke="#818181" stroke-width="0.821" stroke-miterlimit="10"/>
<path opacity="0.3" d="M1465 143.852C1449.58 139.946 1366.43 147.06 1263.4 155.848C1193.65 161.706 1117.71 178.305 1052.43 179.979C942.477 182.908 830.22 183.745 749.954 166.727C613.199 137.714 482.928 159.893 380.182 137.296C302.221 120.139 215.47 118.186 133.619 88.3361C70.2129 65.1813 -16.2498 80.5248 -82.2497 107.167C-248.546 174.26 -348.267 242.887 -345.961 237.726" stroke="#888888" stroke-width="0.786" stroke-miterlimit="10"/>
<path opacity="0.3" d="M1464 139.296C1446.13 134.961 1363 142.233 1261.42 151.603C1190.68 158.176 1114.17 177.195 1050.06 179.432C940.702 183.208 828.175 185.725 746.049 169.923C608.021 143.492 476.764 162.371 376.484 133.003C299.978 110.628 212.233 108.39 129.531 83.3579C64.2629 63.4997 -22.3291 81.8196 -85.5803 109.09C-256.459 183.068 -349.679 249.635 -346.941 243.622" stroke="#A0A0A0" stroke-width="0.75" stroke-miterlimit="10"/>
<path opacity="0.3" d="M1463 134.582C1442.55 129.824 1359.58 137.242 1259.61 147.32C1187.73 154.458 1110.81 176.013 1047.86 178.813C939.111 183.431 826.325 187.631 742.347 173.214C602.912 149.419 470.824 164.956 372.874 128.984C297.827 101.41 209.095 99.1705 125.55 78.7352C58.4252 62.3588 -28.1453 83.4941 -88.6439 111.348C-264.378 192.249 -350.948 256.355 -347.923 249.497" stroke="#979797" stroke-width="0.714" stroke-miterlimit="10"/>
<path opacity="0.3" d="M1462 130.348C1439.1 125.174 1355.99 132.864 1257.62 143.491C1184.74 151.321 1107.4 175.37 1045.47 178.586C937.156 184.179 824.237 189.772 738.251 176.908C597.534 155.655 464.451 167.96 368.959 125.314C295.36 92.4561 205.63 90.3588 121.228 74.559C52.2383 61.6954 -34.3235 85.7447 -92.0794 113.989C-272.26 201.936 -352.485 263.038 -348.884 255.348" stroke="#A8A8A8" stroke-width="0.679" stroke-miterlimit="10"/>
<path opacity="0.3" d="M1461 126.776C1435.51 121.187 1352.57 129.012 1255.67 140.19C1181.8 148.713 1103.9 175.122 1043.13 178.895C935.426 185.462 822.247 192.588 734.412 180.991C592.435 162.267 458.377 171.21 365.214 122.025C293.074 84.0189 202.214 82.0627 117.114 70.8844C46.2698 61.5226 -40.126 88.63 -95.2753 117.135C-279.874 212.709 -353.743 270.696 -349.855 262.173" stroke="#BCBCBC" stroke-width="0.643" stroke-miterlimit="10"/>
<path opacity="0.3" d="M1461 121.867C1433.06 115.705 1350.08 123.968 1254.58 135.732C1179.68 144.975 1101.17 173.965 1041.54 178.166C934.365 185.589 820.857 194.272 731.116 184.189C587.789 167.943 452.673 173.545 361.924 117.665C291.341 74.2504 199.295 72.5698 113.443 65.7074C40.6998 59.9654 -45.7282 90.2159 -98.1612 118.926C-287.295 222.562 -354.996 277.461 -350.819 267.938" stroke="#CACACA" stroke-width="0.607" stroke-miterlimit="10"/>
<path opacity="0.3" d="M1460 118C1429.47 111.447 1346.66 119.952 1252.61 132.22C1176.72 142.119 1097.79 173.487 1039.18 178.088C932.462 186.453 818.975 196.491 727.092 187.847C582.353 174.184 446.4 176.415 357.973 114.375C288.844 65.8583 195.809 64.4641 109.11 62.0941C34.5084 60.0028 -51.6145 93.1838 -101.589 121.903C-294.717 233.018 -356.501 283.905 -351.748 273.727" stroke="#D0D0D0" stroke-width="0.571" stroke-miterlimit="10"/>
<path opacity="0.3" d="M1459 113.622C1426.01 106.62 1343.18 115.442 1250.55 128.325C1173.62 138.967 1094.1 172.854 1036.62 178.035C930.448 187.417 816.642 199.04 722.859 191.758C576.784 180.556 439.784 179.436 353.78 110.541C286.217 56.4897 191.858 55.6496 104.415 57.47C27.9193 59.1503 -58.0838 95.558 -105.479 124.404C-302.84 244.55 -358.735 291.6 -353.693 280.397" stroke="#D9D9D9" stroke-width="0.536" stroke-miterlimit="10"/>
<path opacity="0.3" d="M1458 108.859C1422.42 101.441 1339.74 110.539 1248.56 123.836C1170.64 135.313 1090.7 171.565 1034.23 177.164C928.506 187.521 814.57 200.538 718.927 194.8C571.573 185.982 433.726 181.643 349.895 106.2C283.78 46.7135 188.425 46.4336 100.272 52.5922C21.914 58.0509 -63.7902 97.6618 -108.731 126.495C-309.668 255.266 -360.082 298.096 -354.608 286.059" stroke="#E3E3E3" stroke-width="0.5" stroke-miterlimit="10"/>
<path opacity="0.3" d="M1458 105.354C1419.96 97.5206 1337.26 106.892 1247.5 120.74C1168.55 132.909 1088.01 171.654 1032.68 177.669C927.505 188.999 813.251 203.266 715.71 199.07C567.022 192.635 428.275 185.082 346.583 103.255C282.036 38.4935 185.504 38.7732 96.4637 49.1239C16.3564 58.4955 -69.2259 101.017 -111.729 129.832C-316.031 267.608 -361.416 305.514 -355.509 292.646" stroke="#F0F0F0" stroke-width="0.464" stroke-miterlimit="10"/>
<path opacity="0.3" d="M1457 100.85C1416.52 92.6175 1333.84 102.246 1245.54 116.619C1165.59 129.596 1084.49 170.621 1030.33 177.04C925.752 189.459 811.234 204.948 711.697 202.297C561.6 198.25 422.162 187.506 342.791 99.3155C279.842 29.4053 182.322 30.3821 92.2923 44.8944C10.3292 58.1508 -74.803 103.641 -114.992 132.247C-321.989 279.184 -362.61 311.837 -356.416 298.162" stroke="#E6E6E6" stroke-width="0.429" stroke-miterlimit="10"/>
<path opacity="0.3" d="M1456 96.117C1412.94 87.4341 1330.56 97.5175 1243.58 112.363C1162.64 126.227 1081.13 169.782 1027.99 176.645C924.011 190.089 809.232 207.035 707.846 205.774C556.487 204.094 416.217 190.089 339.025 94.9967C277.675 19.5109 179.169 21.0514 88.152 39.8178C4.47964 57.0437 -80.3448 105.78 -118.221 134.35C-327.617 292.044 -363.909 319.213 -357.284 304.508" stroke="#EBEBEB" stroke-width="0.393" stroke-miterlimit="10"/>
<path opacity="0.3" d="M1455 92.2611C1409.5 83.165 1327.14 93.5205 1241.76 108.774C1159.98 123.328 1077.77 169.368 1025.79 176.505C922.266 191.059 807.368 209.111 704.132 209.531C551.367 210.091 410.409 192.878 335.538 91.4214C275.929 10.6759 176.293 12.9149 84.4327 35.7252C-0.948776 56.8562 -85.4664 108.634 -121.174 137.042C-332.54 305.25 -365.08 326.241 -358.169 310.848" stroke="#EAE9E9" stroke-width="0.357" stroke-miterlimit="10"/>
<path opacity="0.3" d="M1455 88.0993C1406.87 78.5878 1324.59 89.3581 1240.59 105.024C1157.73 120.55 1075.02 168.807 1024.01 176.36C920.986 191.886 805.711 211.189 700.378 213.287C546.197 216.225 404.408 195.803 331.496 87.9594C273.426 1.79656 172.704 4.87382 79.7635 31.7298C-7.26951 56.9072 -91.5647 111.598 -125.139 139.853C-337.966 318.753 -367.361 333.3 -360.013 316.934" stroke="#EFEFEF" stroke-width="0.321" stroke-miterlimit="10"/>
<path opacity="0.3" d="M1454 83.3439C1403.44 73.4017 1321.18 84.6042 1238.63 100.708C1154.79 117.091 1071.52 167.782 1021.68 175.764C919.254 192.567 803.719 212.731 696.539 216.512C540.955 221.413 398.625 198.168 327.892 83.6239C271.565 -7.95557 169.716 -4.17477 75.7896 26.7718C-12.8066 56.0381 -96.7928 113.87 -128.198 141.876C-341.693 332.737 -368.632 340.019 -360.853 322.935" stroke="#F2F2F2" stroke-width="0.286" stroke-miterlimit="10"/>
<path opacity="0.3" d="M1453 79.366C1399.85 69.0265 1317.76 80.6235 1236.67 96.9709C1151.84 114.157 1068.02 167.111 1019.48 175.495C771.178 218.809 440.492 285.037 324.263 80.0646C269.532 -16.6231 166.841 -12.152 71.7837 22.7785C-18.5211 55.8927 -101.913 116.672 -131.294 144.476C-344.454 346.934 -369.802 346.654 -361.737 328.63" stroke="white" stroke-width="0.25" stroke-miterlimit="10"/>
</g>
</g>
</svg>
